<svg xmlns="http://www.w3.org/2000/svg" viewBox="0 0 373.17 602.11"><defs><style>.cls-1,.cls-2,.cls-3,.cls-6,.cls-7{fill:none;stroke:#231f20;}.cls-1,.cls-2,.cls-3,.cls-7{stroke-miterlimit:10;}.cls-1{stroke-width:6px;}.cls-2{stroke-width:5px;}.cls-3{stroke-width:2px;}.cls-4,.cls-5{fill:#231f20;}.cls-5{font-size:40.6px;font-family:Buffon-Heavy, Buffon;font-weight:800;}.cls-6{stroke-linecap:round;stroke-linejoin:round;stroke-width:3px;}</style></defs><g id="Layer_3" data-name="Layer 3"><path class="cls-1" d="M324.1,187s-92.22,21.84-95.66,75.22c0,0-22.29,283.76,31.19,340.29,0,0,31.4,24.18,60.89,19.45l173.81-.88c29.79-2.06,60.88-19.45,60.88-19.45,53.48-56.53,31.19-340.28,31.19-340.28C583,208,490.75,186.12,490.75,186.12s-53.75-7.93-39-75.32c0,0,67.46-22.29-3.16-41.56H370.11c-12.27,3-25.27,6-32.27,17,0,15,18,20,29,25,3,11,3,22,2,34a65.9,65.9,0,0,1-11,24,52.23,52.23,0,0,1-19,14c-7,3-14,2-21.43,5.82" transform="translate(-220.83 -23.46)"/><path class="cls-1" d="M448.58,69.24l7.25-34s-33.61-19.67-87.71,0l2,34Z" transform="translate(-220.83 -23.46)"/><path class="cls-2" d="M517.21,285.89c-.47,76.82-.47,154.71-.47,231.46-4.58,1.14-9.16-3.44-14.89,0,1.15,16-12.6,29.78-28.63,27.49-19.48,12.6-43.53,19.47-66,21.86" transform="translate(-220.83 -23.46)"/><path class="cls-2" d="M297.56,285.89c.47,76.82.47,154.71.47,231.46,4.58,1.14,9.17-3.44,14.89,0-1.14,16,12.6,29.78,28.64,27.49,19.47,12.6,43.53,19.47,66,21.86" transform="translate(-220.83 -23.46)"/><path class="cls-2" d="M517,286.26c0-4.37,1.16-10.1-1.13-14.68-1.15-3.44-6.87,1.14-11.45,0a4,4,0,0,1-2.3-1.15c0-10.31-5.72-18.33-13.74-24.05-5.73-3.44-13.75-2.29-19.47-4.59A187.41,187.41,0,0,0,407,221.55" transform="translate(-220.83 -23.46)"/><path class="cls-2" d="M297.81,291.07c-.16-6.9,0-13.88,1.54-20.64,2.55,1.28,9.23,2.68,11.93,1.16.67-1.16,1.82-2.3,1.82-3.45,1.15-14.89,14.89-27.49,29.78-25.2,14.89-10.31,30.93-16,49.26-19.47,4.58,0,10.31-1.15,15.12-1.92" transform="translate(-220.83 -23.46)"/><path class="cls-3" d="M499,304.1c-.39,64-.39,128.88-.39,192.81-3.82.95-7.64-2.86-12.41,0,1,13.36-10.49,24.81-23.85,22.9C446.11,530.3,426.07,536,407.38,538" transform="translate(-220.83 -23.46)"/><path class="cls-3" d="M316,304.1c.39,64,.39,128.88.39,192.81,3.81.95,7.63-2.86,12.4,0-.95,13.36,10.5,24.81,23.86,22.9C368.88,530.3,388.92,536,407.6,538" transform="translate(-220.83 -23.46)"/><path class="cls-3" d="M498.78,304.41c0-3.64,1-8.41-.94-12.23-.95-2.86-5.72.95-9.54,0a3.32,3.32,0,0,1-1.91-.95c0-8.59-4.77-15.27-11.45-20-4.77-2.86-11.45-1.91-16.22-3.82a155.83,155.83,0,0,0-51.55-16.86" transform="translate(-220.83 -23.46)"/><path class="cls-3" d="M316.21,308.42a69.26,69.26,0,0,1,1.29-17.19c2.12,1.06,7.69,2.23,9.93,1,.57-1,1.52-1.92,1.52-2.87.95-12.41,12.4-22.9,24.81-21,12.4-8.59,25.76-13.36,41-16.23,3.82,0,8.59-.95,12.6-1.59" transform="translate(-220.83 -23.46)"/><path class="cls-4" d="M434.61,164.4a74.26,74.26,0,0,0,24.52,27.36c11.05,7.39,23.9,11.45,36.45,15.52,23.14,7.52,48.38,16.85,62.56,37.94,7.17,10.67,11.27,23.85,8.6,36.68a2.5,2.5,0,0,0,4.82,1.33c2.51-12-.08-24.36-5.82-35.09-6-11.11-15.09-20-25.58-26.85-10.79-7-22.85-11.91-35-16.08-12.63-4.34-25.72-7.76-37.52-14.16a69.77,69.77,0,0,1-28.72-29.18c-1.49-2.85-5.8-.33-4.32,2.53Z" transform="translate(-220.83 -23.46)"/><path class="cls-4" d="M556.46,561.74a56.13,56.13,0,0,1-28.73,34c-16.76,8.31-36.17,6.39-54.06,3.8-9.76-1.4-19.5-3.06-29.34-3.77-10.23-.74-20.47-.11-30.69.39a258.1,258.1,0,0,1-30.72-.33c-10.08-.7-20.21-1.58-30.32-.91a84.1,84.1,0,0,0-15,2.29c-4.74,1.21-9.37,2.83-14,4.32a84.39,84.39,0,0,1-14.15,3.53,54.26,54.26,0,0,1-14.68,0,55.05,55.05,0,0,1-7.19-1.53c-3.11-.86-4.43,4-1.33,4.82a60.41,60.41,0,0,0,30.42.41c9.72-2.35,18.93-6.47,28.85-8,10.17-1.61,20.6-1,30.83-.31a299.53,299.53,0,0,0,31.13,1.05c10.5-.36,21-1.27,31.52-.93,9.94.32,19.77,1.87,29.59,3.33,18.92,2.81,39.14,5.6,57.41-1.86a61.4,61.4,0,0,0,33.28-33.24,56.91,56.91,0,0,0,2-5.67c.91-3.09-3.92-4.41-4.83-1.33Z" transform="translate(-220.83 -23.46)"/><path class="cls-4" d="M380.73,115.4a229.18,229.18,0,0,1,60.73,1.74,2.58,2.58,0,0,0,3.08-1.75,2.53,2.53,0,0,0-1.75-3.07,234.14,234.14,0,0,0-62.06-1.92,2.57,2.57,0,0,0-2.5,2.5,2.52,2.52,0,0,0,2.5,2.5Z" transform="translate(-220.83 -23.46)"/><path class="cls-4" d="M436.93,117.6c-1,2.65-1,5.51-1.11,8.3-.09,2.32-.27,4.77-1.79,6.66a13.46,13.46,0,0,1-5.72,3.68c-2.62,1-5.33,1.89-8,2.65a28.5,28.5,0,0,1-8.94,1.24,43,43,0,0,1-9.26-1.72c-2.35-.64-5.29-1.11-7.09-2.91s-2.29-4.78-3.71-6.94c-1.67-2.56-4.09-4.39-6.15-6.61-1.47-1.58-3.11-4.21-1.85-6.35a2.5,2.5,0,1,0-4.31-2.52l-.36.5a2.52,2.52,0,0,0,.9,3.42,2.55,2.55,0,0,0,3.42-.9l.35-.5L379,113.08c-1.71,2.88-1.26,6.24.22,9.12,1.42,2.73,3.87,4.65,6,6.79a13.17,13.17,0,0,1,2.38,3.12c.74,1.41,1.24,2.95,2,4.35,1.65,3,4.41,4.73,7.62,5.76,6.81,2.19,13.92,3.71,21.05,2.3a71.21,71.21,0,0,0,9.47-2.76,27.21,27.21,0,0,0,8-4,12.65,12.65,0,0,0,4.76-8.38c.5-3.48,0-7.12,1.23-10.47a2.52,2.52,0,0,0-1.75-3.08,2.56,2.56,0,0,0-3.07,1.75Z" transform="translate(-220.83 -23.46)"/><path class="cls-4" d="M353,92.21l54,4.93a2.52,2.52,0,0,0,2.5-2.5,2.55,2.55,0,0,0-2.5-2.5l-54-4.93a2.52,2.52,0,0,0-2.5,2.5,2.55,2.55,0,0,0,2.5,2.5Z" transform="translate(-220.83 -23.46)"/><path class="cls-4" d="M437.33,97.71a208.12,208.12,0,0,0,24.39-2.81,2.53,2.53,0,0,0,1.75-3.08,2.56,2.56,0,0,0-3.08-1.74,196.31,196.31,0,0,1-23.06,2.63c-3.2.17-3.22,5.17,0,5Z" transform="translate(-220.83 -23.46)"/></g><g id="Layer_4" data-name="Layer 4"><text class="cls-5" transform="translate(128.7 326.28) rotate(-36.28) scale(0.59 1)">Z</text><text class="cls-5" transform="matrix(0.52, -0.28, 0.47, 0.88, 141.22, 317.14)">e</text><text class="cls-5" transform="matrix(0.56, -0.2, 0.33, 0.94, 151.93, 311.24)">n</text><text class="cls-5" transform="translate(167.07 306.15) rotate(-12.4) scale(0.59 1)"> </text><text class="cls-5" transform="matrix(0.59, -0.05, 0.08, 1, 173.63, 304.25)">G</text><text class="cls-5" transform="matrix(0.59, 0.05, -0.08, 1, 191.14, 302.85)">a</text><text class="cls-5" transform="translate(204.53 303.87) rotate(11.97) scale(0.59 1)">r</text><text class="cls-5" transform="translate(215.71 306.06) rotate(19.81) scale(0.59 1)">d</text><text class="cls-5" transform="matrix(0.52, 0.28, -0.47, 0.88, 229.37, 310.99)">e</text><text class="cls-5" transform="translate(240.24 316.54) rotate(36.7) scale(0.59 1)">n</text><path class="cls-6" d="M476.27,301.06s-71.06-36.28-138.37,0C337.9,301.06,403.72,208.31,476.27,301.06Z" transform="translate(-220.83 -23.46)"/><line class="cls-7" x1="145.39" y1="250.54" x2="168.68" y2="259.1"/><line class="cls-7" x1="183.4" y1="236.9" x2="184.71" y2="253.63"/><line class="cls-7" x1="168.68" y1="239.19" x2="177.94" y2="254.82"/><line class="cls-7" x1="206.54" y1="239.45" x2="198.41" y2="254.82"/><path class="cls-7" d="M463.24,286.26l-28.83,1.57s-21-23.85-49.77-1.94l-32.1-1" transform="translate(-220.83 -23.46)"/><line class="cls-7" x1="218.62" y1="243.56" x2="203.88" y2="257.51"/><line class="cls-7" x1="158.5" y1="243.08" x2="173.31" y2="256.98"/><line class="cls-7" x1="195.54" y1="236.94" x2="193.33" y2="253.59"/><line class="cls-7" x1="232.11" y1="252.63" x2="211.25" y2="261.35"/><path class="cls-4" d="M402.8,419.07a119.65,119.65,0,0,0,16.36-1.66,73.41,73.41,0,0,0,15.21-5.19c5.09-2.2,10.2-4.38,15.27-6.62a32.87,32.87,0,0,0,12.07-8.52,43.67,43.67,0,0,0,8-12.22,18.41,18.41,0,0,0,1.4-7,8.23,8.23,0,0,0-.49-3.19,3.66,3.66,0,0,0-2.47-1.83,33.71,33.71,0,0,0-15.45-1.27c-2.35.29-4.93.68-7.22-.15a7.76,7.76,0,0,1-4-3.77c-2.18-3.93-3-8.38-6.57-11.44a27.83,27.83,0,0,0-6.33-3.85c-2.89-1.38-5.81-2.71-8.71-4.06-1.45-.68-2.72,1.48-1.26,2.16,4.4,2.05,9.19,3.81,13.23,6.54,3.44,2.31,4.74,5.74,6.29,9.39,1.42,3.34,3.38,6.48,7.06,7.56a16.59,16.59,0,0,0,6.66.22,45.82,45.82,0,0,1,7.31-.49,29.3,29.3,0,0,1,7.43,1.28c.43.14,1.44.29,1.72.66a3.4,3.4,0,0,1,.26,1.62,13.42,13.42,0,0,1-.25,3.58c-.94,4.64-3.73,8.74-6.64,12.37a31.41,31.41,0,0,1-10.92,9.18c-4.63,2.23-9.43,4.14-14.14,6.18-5.33,2.31-10.64,4.78-16.33,6.09a103.28,103.28,0,0,1-17.54,2c-1.6.09-1.61,2.59,0,2.5Z" transform="translate(-220.83 -23.46)"/><path class="cls-4" d="M369,405.62a68.65,68.65,0,0,0-10.57-1.51,1.25,1.25,0,0,0,0,2.5,64,64,0,0,1,9.91,1.42,1.29,1.29,0,0,0,1.54-.87,1.27,1.27,0,0,0-.88-1.54Z" transform="translate(-220.83 -23.46)"/><path class="cls-4" d="M420.35,348.37c-9.27-3.73-18.05,1-26.74,4a29.82,29.82,0,0,1-6.69,1.68,25.6,25.6,0,0,1-7.35-.5c-4.78-.89-9.54-2.43-14.45-2.23-7.81.32-13.47,6.18-16.27,13.07a41.89,41.89,0,0,0-2.55,10.36,42.85,42.85,0,0,0-.48,10.24c.56,4.6,4.6,7.5,7.41,10.77a6,6,0,0,1,1.45,2.57,10.8,10.8,0,0,0,1,2.89c1.27,2.16,4.28,2,6.42,1.71a1.26,1.26,0,0,0,.33-2.46c-1.28-.53-4-.92-4.3,1.09-.31,2.4,3.07,1.76,4.3,1.33a1.27,1.27,0,0,0,.55-2.09c-4.45-5-6.51-12.68-4.16-19.1a12.93,12.93,0,0,1,2.62-4.34c1.4-1.48,3.84-1.8,5.78-1.8,4.48,0,8.31,2.45,12.68,2.88,2.24.22,4.36-.5,6.49-1.11,2.33-.67,4.65-1.36,7-2,4.68-1.38,9.39-2.74,14.17-3.74,2.35-.5,4.72-.92,7.11-1.19a3.93,3.93,0,0,1,3,.46,6.62,6.62,0,0,1,2.12,2.43,12.16,12.16,0,0,1,.8,4.4c.1,1.49.13,3,.26,4.46.26,3,.94,6.25,3.63,8.05a21.34,21.34,0,0,0,2.26,1.09,28.3,28.3,0,0,0,2.8,1.28c1.64.61,3.94,1,5,2.54l1.08-1.88a6.24,6.24,0,0,0-1.06,0c.32-.22-.25,1.59.13,1s-.68.78-.7.29c0,0,.55.6.55.62l.75-1.84c-3.08,1.28-6.58.4-9.81.45-3.47.05-6.54,1.26-8.1,4.54-.68,1.45,1.47,2.72,2.16,1.27,1.45-3.07,4.3-3.4,7.39-3.29s6.18.62,9-.56a1.26,1.26,0,0,0,.74-1.83c-.82-1.29-3-2.85-4.17-.91s1.61,2.93,3.09,2.79c.86-.09,1.67-1,1.08-1.88a8.11,8.11,0,0,0-4.17-2.87c-.88-.33-1.79-.61-2.67-1s-1.81-1-2.77-1.32c-3-1.12-3.56-4.11-3.77-7-.23-3.06.16-6.92-1.37-9.69a8.38,8.38,0,0,0-4.5-4,7.58,7.58,0,0,0-3.25,0c-1.28.15-2.55.33-3.82.55A137.65,137.65,0,0,0,395,372.23l-7.66,2.25c-2.32.67-4.82,1.72-7.26,1.51s-4.46-1.24-6.64-1.89a21.31,21.31,0,0,0-7.09-1,10.9,10.9,0,0,0-6.09,1.91,13,13,0,0,0-3.24,4.52c-3.54,7.57-1.23,17,4.17,23l.55-2.09c-.45.16-1,.21-1.4.39-.09,0-.21,0-.28,0s0,0,0,0c.5.26.53.81.08,1.64-.12,0,.23,0,.31,0a7.94,7.94,0,0,1,1.26.38l.34-2.46a9.27,9.27,0,0,1-3.32.06c-1-.24-1.13-.84-1.37-1.73a22.38,22.38,0,0,0-.65-2.26,8,8,0,0,0-1.49-2.24c-2.26-2.7-5.76-5.09-6.75-8.64a16,16,0,0,1-.17-4.83c.06-1.61.17-3.23.35-4.84a42.29,42.29,0,0,1,2.12-9.63c2.25-6.31,7.19-12.2,14.34-12.5,4.62-.19,9.09,1.25,13.58,2.1a27.52,27.52,0,0,0,13-.32c9.19-2.6,18.23-8.77,28-4.85,1.49.6,2.14-1.82.66-2.41Z" transform="translate(-220.83 -23.46)"/><path class="cls-4" d="M364,374.36c-1.29-1.22,2.68-2.88,3.33-3.1a35.5,35.5,0,0,1,6.38-1.35,137.22,137.22,0,0,0,13.77-2.55,118.34,118.34,0,0,0,13.27-4.11c2.11-.79,4.16-1.76,6.29-2.53s4-.77,5,1.45c.81,1.78,1.06,3.67,2.38,5.21a4.3,4.3,0,0,0,5.26,1.38c1.44-.72.18-2.87-1.26-2.16-2,1-3.13-2.72-3.55-4-.57-1.7-1.35-3.47-3-4.36-2-1.07-4.28-.46-6.24.34-2.33.95-4.65,1.92-7,2.78a116.66,116.66,0,0,1-14.68,4.23c-4.87,1.07-9.85,1.46-14.71,2.53-2.19.49-4.79,1.16-6.41,2.82-1.38,1.4-2.15,3.61-.52,5.14,1.17,1.1,2.94-.66,1.76-1.76Z" transform="translate(-220.83 -23.46)"/><path class="cls-4" d="M415.19,365.65c6.2,1.13,12.76,1.8,18.52,4.54,2.62,1.24,5.28,2.85,6.44,5.62,1,2.33,1.31,4.93,2.64,7.13a9.31,9.31,0,0,0,6.93,4.13,47.66,47.66,0,0,0,5.21.19c1.21,0,3.88-.07,4.57,1.14,1.09,1.92-1.86,4.58-3.19,5.5a14.11,14.11,0,0,1-4,1.66q-2.94.92-5.92,1.65a64.89,64.89,0,0,1-27.06,1.37c-1.57-.28-2.25,2.13-.66,2.41a66.42,66.42,0,0,0,25.78-.76q3.22-.71,6.39-1.62a35.5,35.5,0,0,0,5.45-1.8,11.21,11.21,0,0,0,5.52-5.73,4.78,4.78,0,0,0,0-3.71c-.71-1.5-2.15-2-3.71-2.32-3.62-.69-7.47.34-10.89-1.33-2.63-1.29-3.19-4.26-4-6.81a16.7,16.7,0,0,0-1.66-3.89,11.57,11.57,0,0,0-3.39-3.18c-6.45-4.48-14.77-5.23-22.28-6.6-1.57-.28-2.25,2.13-.66,2.41Z" transform="translate(-220.83 -23.46)"/><path class="cls-4" d="M428.49,401.15a87.89,87.89,0,0,1-22.78,12.58c-4.2,1.56-8.52,2.95-13,2.73-4.17-.2-7.48-1.91-10.72-4.41s-6.4-4.89-10.62-4.28c-1.59.22-.91,2.63.66,2.41,3.57-.52,6.67,2.51,9.28,4.48a20.07,20.07,0,0,0,11,4.28c4.45.3,8.75-.88,12.9-2.35a91.84,91.84,0,0,0,12.12-5.29,89.11,89.11,0,0,0,12.49-8c1.26-1,0-3.13-1.26-2.16Z" transform="translate(-220.83 -23.46)"/><path class="cls-4" d="M367.84,408.13c2.35,3.77,6.06,6.73,9.21,9.8s6.25,6.41,9.87,9a18.28,18.28,0,0,0,22.12-.49c3.27-2.55,6.12-6,10.23-7.23a1.25,1.25,0,0,0-.67-2.41c-3.32,1-5.92,3.21-8.47,5.45-2.81,2.48-5.62,4.66-9.38,5.45a15.46,15.46,0,0,1-11.15-2c-3.55-2.15-6.43-5.28-9.37-8.15l-5.63-5.49a28.64,28.64,0,0,1-4.6-5.18c-.85-1.37-3-.11-2.16,1.26Z" transform="translate(-220.83 -23.46)"/><path class="cls-4" d="M388.31,428.57a39.83,39.83,0,0,1-19.95,25.23,1.26,1.26,0,0,0,0,2.16,83.35,83.35,0,0,0,9.31,4,1.28,1.28,0,0,0,1.42-.58c1.81-2.5,4.64-4,7.07-5.8a21.11,21.11,0,0,0,5.72-6.4c2.93-5.06,4.16-10.94,7.56-15.74.93-1.32-1.24-2.57-2.16-1.27-3.4,4.81-4.64,10.68-7.55,15.74a19.34,19.34,0,0,1-5.94,6.3c-2.51,1.76-5,3.4-6.86,5.91l1.41-.57a75.66,75.66,0,0,1-8.71-3.79V456a42.3,42.3,0,0,0,21.09-26.72c.39-1.56-2-2.23-2.41-.67Z" transform="translate(-220.83 -23.46)"/><path class="cls-4" d="M448.07,450.52a5,5,0,0,0-1.24-6.41c-2.19-1.81-5.35-1.53-7.82-.51a33.91,33.91,0,0,0-4.12,2.2c-1.35.77-2.82,1.33-4.14,2.14-2.26,1.38-3.94,4.12-2.48,6.68a1.27,1.27,0,0,0,1.71.45,35.75,35.75,0,0,1,18.34-4.37l.8,0c.46.11.53.06.21-.17.21.32.08,1.24.08,1.61a10.1,10.1,0,0,1-.62,3.3,2.3,2.3,0,0,1-2.15,1.62,5.53,5.53,0,0,1-1.4.09,3.07,3.07,0,0,1-1.33-.76,11,11,0,0,0-4.7-2.05,11.24,11.24,0,0,0-5.46.38c-.76.26-4.62,2.16-4.56.12.06-1.61-2.44-1.61-2.5,0a3.44,3.44,0,0,0,2.86,3.34c2,.43,3.69-.76,5.53-1.25a8.77,8.77,0,0,1,5.47.38c1.89.77,3,2.44,5.23,2.32,1.81-.1,3.67-.43,4.74-2.05a11,11,0,0,0,1.38-6.06,4.21,4.21,0,0,0-.55-2.47,2.87,2.87,0,0,0-2.43-.86,37.37,37.37,0,0,0-6.43.26,39.21,39.21,0,0,0-13.77,4.42l1.71.45c-1.07-1.88,1.58-3.32,2.91-4,1.88-.92,3.64-2,5.49-3,1.66-.86,3.79-1.61,5.64-.85a2.59,2.59,0,0,1,1.44,3.68c-.89,1.34,1.27,2.6,2.16,1.26Z" transform="translate(-220.83 -23.46)"/><path class="cls-4" d="M433.15,445.92c0-2.3-.12-4.63,0-6.92,0-.64-.05-.84.62-.88s1.11,0,1.66,0c1.1,0,2.21.09,3.31.2,4.41.42,8.77,1.38,13.21,1.44,1.94,0,4-.43,5.95,0s2.88,2.58,3.86,4.22c.13.22.79,1,.74,1.22s-1.14.41-1.32.46c-1.06.32-2.13.6-3.21.83a39.08,39.08,0,0,1-6.72.84c-1.6.06-3.89.19-4.26,2.18-.28,1.48,1.09,3.27,2.68,2.62s.83-3-.66-2.41c.11,0,.45.31.46.31s.35-.11.47-.13c.44,0,.87-.05,1.31-.07,1.26-.05,2.52-.16,3.78-.32a42.73,42.73,0,0,0,6.81-1.44c1.69-.5,3.92-1.23,3.12-3.48a16.18,16.18,0,0,0-1.52-2.68,19.69,19.69,0,0,0-1.75-2.66,6.59,6.59,0,0,0-5-2.12c-2.21-.07-4.4.2-6.61.06-4.74-.31-9.4-1.41-14.16-1.55-1.92-.05-4.79-.31-5.2,2.17a22.72,22.72,0,0,0,0,3.69v4.45a1.25,1.25,0,0,0,2.5,0Z" transform="translate(-220.83 -23.46)"/><path class="cls-4" d="M452.07,453c3.29-.83,6.59,2.1,7.21,5.24.4,2-1.57,2.82-3.16,3.36a9.19,9.19,0,0,0-4.41,2.45c-1.16,1.37-1.5,3.34-3,4.43a6.64,6.64,0,0,1-5,.9,23.6,23.6,0,0,1-5.92-2.21l-3.15-1.49c-.75-.35-1.93-.69-1.88-1.68s1.28-1.93,1.9-2.65a5.61,5.61,0,0,0,1.36-2.39,3.31,3.31,0,0,0-2-3.92c-1.49-.59-2.14,1.83-.66,2.42s-2.33,4.22-2.63,4.83a3.62,3.62,0,0,0,1.44,4.95,59.13,59.13,0,0,0,7,3.3A14.4,14.4,0,0,0,445.7,472a8.25,8.25,0,0,0,5.33-2.21c1.51-1.53,1.78-4,3.78-5,1.79-.93,3.81-1.14,5.39-2.48a4.77,4.77,0,0,0,1.29-5.42c-1.37-4.14-5.64-7.39-10.09-6.27a1.25,1.25,0,0,0,.67,2.41Z" transform="translate(-220.83 -23.46)"/><path class="cls-4" d="M430.11,459.49a11.62,11.62,0,0,1-9.9,1.66c-.51-.16-.7-.18-.8-.73s-.11-.8-.19-1.2c-.17-.86-.43-1.7-.68-2.54-.48-1.65-1.08-3.49-.2-5.11s2-2.57,2.2-4.35c.19-1.49-.51-3.47.19-4.85s2.65-1.3,3.94-1.32c2.17,0,4.34,0,6.5-.05a1.25,1.25,0,0,0,0-2.5l-6.06.05a10.65,10.65,0,0,0-4.52.7,4.4,4.4,0,0,0-2.51,3.43c-.23,1.54.33,3.21-.11,4.71s-1.85,2.61-2.33,4.18a9,9,0,0,0,.23,4.87c.21.79.47,1.57.68,2.35s.28,1.75.51,2.6c.47,1.71,2.13,2.17,3.69,2.46a14.38,14.38,0,0,0,10.62-2.2c1.32-.89.07-3.06-1.26-2.16Z" transform="translate(-220.83 -23.46)"/><path class="cls-4" d="M435.52,436.22c-.15-2.94,3.28-3.83,5.51-4.45a59.11,59.11,0,0,1,7.76-1.73,18.87,18.87,0,0,1,7.95.39c2.4.71,4.35,2.34,6.71,3.13,2.56.87,5.25-.06,7.81.6a3.5,3.5,0,0,1,2.33,1.55c.56,1.13-.37,2.34-.95,3.26a15.61,15.61,0,0,0-2.06,6.91c-.35,2.92-.66,5.85-1,8.76-.33,2.61-1.31,4.61-3.85,5.59a19,19,0,0,1-7.11.86,1.25,1.25,0,0,0,0,2.5c4.62.07,10.64-.44,12.67-5.37a15,15,0,0,0,.84-4q.33-2.75.64-5.49c.19-1.61.32-3.25.61-4.85a12,12,0,0,1,1.77-4.17c1.37-2.25,1.65-4.86-.58-6.67s-5.14-1.49-7.9-1.51c-3.21,0-5.53-2.2-8.43-3.26a20,20,0,0,0-9.16-.78A57.29,57.29,0,0,0,439,429.77c-3,.92-6.12,2.92-5.94,6.45.08,1.6,2.58,1.61,2.5,0Z" transform="translate(-220.83 -23.46)"/><path class="cls-4" d="M453,464.87a9,9,0,0,1,3.49,4.55,8.83,8.83,0,0,1,.49,2.74,2.89,2.89,0,0,1-.13,1.28c-.27.5-1,.51-1.49.58-4.71.6-9.47-.13-14.19.15a27.65,27.65,0,0,0-6.81,1.26c-2.18.69-4.39,1.53-6.72,1.4-4.56-.26-7.34-3.71-9.46-7.37-2.83-4.91-5.53-9.91-8.29-14.86l-1.08,1.88,6.59-.56a1.27,1.27,0,0,0,1.08-1.88c-1.65-3.9-3.55-8.33-2.43-12.64a8.36,8.36,0,0,1,2.52-4.3c1.59-1.37,3.68-1.48,5.66-1.81,4.18-.68,7.12-3.77,10.69-5.79a79.46,79.46,0,0,1,12.21-5.27c2-.73,4.26-1.81,6.18-.34,1.52,1.17,2.4,3.15,3.11,4.88.6,1.46,3,.82,2.41-.67-1.4-3.39-3.6-7.62-7.87-7.48-2.46.09-5,1.35-7.23,2.2s-4.65,1.81-6.91,2.88a43.56,43.56,0,0,0-6.55,3.79c-2.08,1.48-3.91,2.92-6.5,3.36-2.3.39-4.54.6-6.46,2.07a10.34,10.34,0,0,0-3.3,4.64c-2,5.3.24,10.84,2.31,15.74l1.08-1.88-6.59.56a1.27,1.27,0,0,0-1.08,1.88c2.83,5.07,5.56,10.21,8.5,15.21,2.47,4.22,5.85,7.77,11,8.23,2.63.23,5.12-.61,7.6-1.39a27.39,27.39,0,0,1,8.19-1.3c2.79,0,5.57.16,8.36.14a36.14,36.14,0,0,0,4.16-.25,4.78,4.78,0,0,0,3-1.09c1.58-1.63,1-4.92.29-6.82a11.8,11.8,0,0,0-4.58-5.88c-1.34-.9-2.59,1.26-1.26,2.16Z" transform="translate(-220.83 -23.46)"/><path class="cls-4" d="M473.58,445.66c1.83.37,3.21-.39,5-.65.49-.07,1.4-.15,1.75.3.52.66-.49,1.67-.9,2.11-2.11,2.24-4.45,4.17-6.27,6.7a13.2,13.2,0,0,0-2.69,8.31c.13,3,1.33,6.07.72,9-.65,3.17-3.77,4.22-6.52,5s-5.35,1.52-7.41,3.5a6.85,6.85,0,0,0-1.85,2.9,5.56,5.56,0,0,0-.21,1.9c0,.68.62,2,.17,2.64s-1.32.61-1.81.75a21.85,21.85,0,0,1-2.66.62,23,23,0,0,1-5.56.23,35.06,35.06,0,0,1-12-3.63,4.8,4.8,0,0,1-3-3.08,4.55,4.55,0,0,1,.81-4.13c1-1.28-1.19-2.53-2.16-1.27a7.11,7.11,0,0,0-.05,8.21,9.4,9.4,0,0,0,4.2,2.91,54.34,54.34,0,0,0,5.64,2.19,27.27,27.27,0,0,0,12.13,1.08,15.86,15.86,0,0,0,5.46-1.51c1.61-.93,1.75-2.55,1.48-4.22a4,4,0,0,1,1.44-4.05,11,11,0,0,1,4.14-2.09c3-.89,6.49-1.55,8.63-4.1,2.36-2.82,1.83-6.46,1.29-9.83a15.44,15.44,0,0,1-.21-5.42,12,12,0,0,1,2.2-4.69,34.43,34.43,0,0,1,4.08-4.46c1.31-1.27,3-2.56,3.46-4.42a3.21,3.21,0,0,0-2.35-3.86,5.66,5.66,0,0,0-2.59,0c-1.2.23-2.4.9-3.64.65-1.57-.32-2.25,2.09-.67,2.41Z" transform="translate(-220.83 -23.46)"/><path class="cls-4" d="M417.09,471.82c-2.34.23-4.68.52-7,.67-1.8.11-4,.17-5.43-1.08-1.64-1.4-1.74-4-2-6L401.51,458l-1.08-7.49c-.12-.83-.64-2.38.06-3a4.2,4.2,0,0,1,2-.62c1.53-.3,3.08-.69,4-2.05,1.2-1.73,1.57-4.13,2.29-6.09.84-2.28,2-4.57,4.14-5.9a5.49,5.49,0,0,1,3.21-.95,17,17,0,0,1,3.51,1.11,1.25,1.25,0,0,0,.66-2.41,26.47,26.47,0,0,0-3.47-1.12,6.92,6.92,0,0,0-3.19.28,10.35,10.35,0,0,0-5.28,4.19,27.91,27.91,0,0,0-3,7c-.32,1-.57,2.44-1.55,3a9.79,9.79,0,0,1-2.62.66c-1.88.41-3.48,1.45-3.59,3.56a20.34,20.34,0,0,0,.46,3.8l.67,4.59,1.26,8.69c.34,2.33.49,5,1.87,7A7.55,7.55,0,0,0,408,475a61.39,61.39,0,0,0,9.08-.7c1.59-.16,1.6-2.66,0-2.5Z" transform="translate(-220.83 -23.46)"/><path class="cls-4" d="M430,430c-1.21-2.15-.19-4.66,1.37-6.35,1.88-2,4.59-2.83,7.22-3.42A57.91,57.91,0,0,0,447,418c2.77-1.08,5.46-2.44,8.33-3.24a10.75,10.75,0,0,1,8,.42,14.74,14.74,0,0,1,5.28,5.13c2.86,4.29,4.44,9.32,7.8,13.29a15.61,15.61,0,0,0,3.28,2.95c1.16.76,2.61,1.2,3.62,2.17,2.83,2.71-1,6.44-2.92,8.25-1.18,1.1.59,2.86,1.77,1.77,2.28-2.11,4.69-4.63,4.57-8a5.49,5.49,0,0,0-1.65-3.82,21.62,21.62,0,0,0-3.81-2.36c-5.26-3.27-7-9.95-10.1-14.92a19.24,19.24,0,0,0-5.82-6.22,12.39,12.39,0,0,0-8.69-1.55c-3.35.55-6.42,2.11-9.53,3.37a66.7,66.7,0,0,1-9.8,2.68c-3.33.81-6.49,2.13-8.57,5a7.65,7.65,0,0,0-.9,8.32A1.25,1.25,0,0,0,430,430Z" transform="translate(-220.83 -23.46)"/><path class="cls-4" d="M479.17,452.12a10.11,10.11,0,0,1,4.33,2.56,8.62,8.62,0,0,1,1.52,2c.57,1.06.26,1.58-.49,2.37a9,9,0,0,0-2.1,8.91c.58,1.74,1.59,3.21.68,5.05a8.26,8.26,0,0,1-4.27,3.46c-3.08,1.39-6.6,2.4-8.45,5.5a6.06,6.06,0,0,0-.52,1.09c-.06.17-.23,1.12-.29,1.16-.32.23-1.81-1.06-2.1-1.29a25.3,25.3,0,0,1-4.69-4.84c-.94-1.28-3.11,0-2.15,1.27a27.74,27.74,0,0,0,4.54,4.9c1.33,1.12,3.23,2.92,5.15,2.4a2.24,2.24,0,0,0,1.56-1.51,6.81,6.81,0,0,1,1.21-2.67c1.49-1.69,3.69-2.46,5.72-3.3,3.56-1.48,7.92-4.24,7.12-8.77-.37-2.15-1.72-3.81-1.37-6.1a6.63,6.63,0,0,1,1.1-2.76,18.24,18.24,0,0,0,1.89-2.32c1-2.11-.53-4.39-1.91-5.93a12.53,12.53,0,0,0-5.81-3.62,1.25,1.25,0,0,0-.67,2.41Z" transform="translate(-220.83 -23.46)"/><path class="cls-4" d="M405.43,500l-3.95-9.68a32.59,32.59,0,0,0-3.75-7.34c-3.51-4.71-9.47-6-14.59-8.32a111.68,111.68,0,0,1-29.68-19.41c-1-1-2.08-1.95-3.1-2.94s-2.08-1.88-3.43-1.46-1.51,1.59-1.73,2.7c-.24,1.26-.42,2.54-.54,3.81a39.33,39.33,0,0,0,1.64,15.17,39.83,39.83,0,0,0,19.47,23.5,71.17,71.17,0,0,0,17.71,6.22c3.1.72,6.23,1.32,9.37,1.89,3.55.66,7.13,1.44,10.73.64a1.26,1.26,0,0,0,.55-2.09c-12.31-13.35-28.76-21.6-42.71-33-1.94-1.59-3.84-3.23-5.66-5-1.5-1.42-4.71-3.77-4.38-6.13.22-1.58-2.19-2.26-2.41-.67-.33,2.34.75,4.18,2.29,5.85a70.25,70.25,0,0,0,5.14,4.92c3.49,3.08,7.19,5.92,11,8.64,7.71,5.55,15.78,10.6,23.28,16.45a96,96,0,0,1,11.71,10.64l.56-2.09c-3,.66-6,0-9-.56-2.59-.48-5.17-1-7.74-1.52a83.44,83.44,0,0,1-15.26-4.55c-9.26-3.95-16.75-10.68-20.79-20A37.88,37.88,0,0,1,347,462a34.68,34.68,0,0,1,.45-7c.1-.54.18-1.09.33-1.63l0-.16c-.39.09-.36.2.1.33a6,6,0,0,0,.64.6c1,1,2.05,2,3.1,2.94a113.92,113.92,0,0,0,26.7,18.17c2.72,1.33,5.5,2.55,8.32,3.66s5.88,2.17,8.05,4.44a23.06,23.06,0,0,1,4.16,7.33q2.06,5,4.1,10c.6,1.47,3,.83,2.41-.66Z" transform="translate(-220.83 -23.46)"/><path class="cls-4" d="M365.17,449c.34-2.2.7-4.41,1-6.61a20.55,20.55,0,0,0,.33-6c-.55-4-3.67-7.21-5.72-10.53a80.46,80.46,0,0,1-9.59-22.49c-.33-1.29-.7-3.48-2.5-3.4-1.44.07-2.62,1.95-3.41,3a23.86,23.86,0,0,0-4.21,9.11,28.16,28.16,0,0,0,3.45,20.55,57.26,57.26,0,0,0,7.65,9.9c1.46,1.57,3,3.1,4.5,4.63a17.6,17.6,0,0,0,5,3.94,1.27,1.27,0,0,0,1.84-1.41C362.09,442.08,359,435,356,427.93c-1.5-3.54-3-7.09-4.29-10.71-.63-1.78-1.21-3.58-1.71-5.4-.27-1-.52-2-.73-2.95-.15-.69-.45-1.75.05-2.36,1-1.23-.74-3-1.76-1.77s-1.08,3-.74,4.63a59.65,59.65,0,0,0,1.64,6c1.25,3.9,2.81,7.69,4.4,11.46,3.22,7.64,6.67,15.27,8.27,23.45L363,448.9c-3.06-1.37-5.44-4.44-7.72-6.82a68.16,68.16,0,0,1-6.54-7.66c-3.85-5.41-6.25-11.59-5.73-18.31a22.68,22.68,0,0,1,2.43-8.68,19.56,19.56,0,0,1,2.42-3.69c.24-.28.48-.55.73-.81l.25-.27c.45-.33.31-.4-.41-.21a10.64,10.64,0,0,0,.62,2.42,83.12,83.12,0,0,0,8.25,19.93c1,1.81,2.14,3.58,3.32,5.3a24.85,24.85,0,0,1,3.06,5c.8,2.13.47,4.43.13,6.63s-.7,4.4-1,6.6c-.25,1.58,2.15,2.26,2.41.67Z" transform="translate(-220.83 -23.46)"/><path class="cls-4" d="M360.45,402.21A53.32,53.32,0,0,0,371.37,410c1.42.77,2.68-1.39,1.27-2.15a51.14,51.14,0,0,1-10.43-7.44c-1.18-1.09-2.95.67-1.76,1.77Z" transform="translate(-220.83 -23.46)"/><path class="cls-4" d="M355.59,402.2v3.24a1.25,1.25,0,0,0,2.5,0V402.2a1.25,1.25,0,0,0-2.5,0Z" transform="translate(-220.83 -23.46)"/><path class="cls-4" d="M393,494.17c-11.36-1.79-22.85-4.23-34.38-4.42a.63.63,0,0,0,0,1.25c11.42.19,22.8,2.6,34.05,4.37.79.13,1.13-1.08.33-1.2Z" transform="translate(-220.83 -23.46)"/><path class="cls-4" d="M375.78,482.44a54.4,54.4,0,0,0-17.86-2.68.63.63,0,0,0,0,1.25,53,53,0,0,1,17.53,2.64c.76.25,1.09-1,.33-1.21Z" transform="translate(-220.83 -23.46)"/><path class="cls-4" d="M385.29,487.07c.68-1.64-1-3.23-1.82-4.46a6.43,6.43,0,0,1-1.55-4.45c0-.34-.32-.62-.63-.63a.65.65,0,0,0-.62.63,6.78,6.78,0,0,0,1.32,4.48c.43.67.91,1.3,1.38,1.94s1,1.37.71,2.16a.63.63,0,0,0,.44.77.65.65,0,0,0,.77-.44Z" transform="translate(-220.83 -23.46)"/><path class="cls-4" d="M396.3,493.87a15.31,15.31,0,0,0-2.82-4.67c-1-1.39-2.06-3.36-1.21-5.08.36-.71-.72-1.35-1.08-.63-.93,1.87-.31,4,.75,5.66s2.6,3.1,3.15,5.06a.63.63,0,0,0,1.21-.34Z" transform="translate(-220.83 -23.46)"/><path class="cls-4" d="M370.23,476.65a11.94,11.94,0,0,1-3.58-8.92.63.63,0,0,0-1.25,0,13.26,13.26,0,0,0,3.94,9.81c.58.56,1.46-.32.89-.89Z" transform="translate(-220.83 -23.46)"/><path class="cls-4" d="M356.21,463.31a10.87,10.87,0,0,1-2-4.39.63.63,0,0,0-.77-.44.64.64,0,0,0-.44.77,12.28,12.28,0,0,0,2.35,4.94.62.62,0,0,0,.88,0,.63.63,0,0,0,0-.88Z" transform="translate(-220.83 -23.46)"/><path class="cls-4" d="M342.18,412.45a25.32,25.32,0,0,0,10.21,14.86c.67.45,1.29-.63.63-1.08a24.07,24.07,0,0,1-9.64-14.11c-.18-.78-1.39-.45-1.2.33Z" transform="translate(-220.83 -23.46)"/><path class="cls-4" d="M343.23,427.41a32,32,0,0,0,11.53,12.35.63.63,0,0,0,.63-1.08,30.78,30.78,0,0,1-11.08-11.9c-.37-.71-1.45-.08-1.08.63Z" transform="translate(-220.83 -23.46)"/><path class="cls-4" d="M357.11,433.08a25.29,25.29,0,0,1-6-3.56.65.65,0,0,0-.89,0,.64.64,0,0,0,0,.89,27.09,27.09,0,0,0,6.24,3.75.65.65,0,0,0,.86-.23.62.62,0,0,0-.23-.85Z" transform="translate(-220.83 -23.46)"/><path class="cls-4" d="M361.51,441.08l-.44-9c0-.8-1.29-.81-1.25,0l.44,9c0,.8,1.29.8,1.25,0Z" transform="translate(-220.83 -23.46)"/><path class="cls-4" d="M357.43,429.92a22.84,22.84,0,0,0-.63-8.11.62.62,0,0,0-1.2.34,21.86,21.86,0,0,1,.58,7.77.62.62,0,0,0,.62.62.65.65,0,0,0,.63-.62Z" transform="translate(-220.83 -23.46)"/></g></svg>