<?xml version="1.0" encoding="utf-8"?>
<!-- Generator: Adobe Illustrator 26.0.0, SVG Export Plug-In . SVG Version: 6.00 Build 0)  -->
<svg version="1.1" id="Layer_1" xmlns="http://www.w3.org/2000/svg" xmlns:xlink="http://www.w3.org/1999/xlink" x="0px" y="0px"
	 viewBox="0 0 348 576" style="enable-background:new 0 0 348 576;" xml:space="preserve">
<g>
	<g>
		<path d="M218.1,321.2c-0.6,0.7-0.8,0.8-0.8,0.9c-0.5,4.8-1.1,9.6-1.4,14.4c-0.2,3.6,0.1,7.2,0.1,10.8c0,0.6-0.1,1.1-0.2,1.7
			c-1.3,5.4-2.6,10.7-3.9,16.1c-0.1,0.2-0.1,0.5-0.3,0.7c-0.6,0.5-1.3,1-2,1.5c-0.2-0.7-0.7-1.5-0.5-2.2c0.6-3.1,1.4-6.2,2-9.3
			c0.7-3.5,1.6-7,1.9-10.6c0.4-3.7,0.2-7.4-0.7-11.1c-0.6-2.5,0.3-5.3,0.3-7.9c0-2.8-0.2-5.7-0.5-8.5c-0.4-3.1-0.6-6.3-1.6-9.3
			c-1.4-4.5-3.3-8.9-5-13.3c-1.9-4.9-0.9-9.3,2.3-13.3c0.7-0.9,2.1-1.6,2.7-0.2c1.6,4,5.4,5.5,8.8,7.7c2.9,1.8,4.4,4.3,5.5,7.4
			c2.1,5.8,5,11.3,9.8,15.7c1.9,1.7,3.3,3.9,4.9,5.8c1.9,2.3,3.8,4.6,5.9,6.7c1.7,1.6,2.6,3.5,3.5,5.5c2.4,5.6,5,11,7.5,16.5
			c0.3,0.6,0.7,1.2,1.2,1.7c3.5,3.9,5.2,8.3,4.9,13.4c0,0.5-0.1,1,0,1.5c1.1,3.2-1,5-3.2,6.7c-1.8,1.4-3.7,2-5.9,0.7
			c-1.7-1-3.5-1.1-5.5-0.4c-1.3,0.4-2.8,0.2-4.2,0.3c-1.4,0.1-2.7,0.1-4,0.1c-0.7,0-1.5,0.1-2.1-0.2c-1.5-0.6-2.3,0.1-3.3,1
			c-2,1.8-2.4,4.1-3,6.4c-0.2,0.9-0.2,2.1,0.3,2.9c2.4,3.4,2.2,7.3,2.4,11.1c0.1,1.8-0.5,3.5-0.4,5.3c0.1,1.8,0.2,3.7,0.8,5.5
			c1.4,4.3,2,8.7,2.2,13.2c0.2,3.6,1.2,7.1,1.8,10.6c0.2,1.2,0.3,2.5,0.5,3.7c0.1,0.6,0,1.2,0.2,1.6c2.4,5.5,1.9,11.4,2.4,17.1
			c0.4,5.1-0.5,10.3,1.5,15.4c1.2,2.9,1.1,6.3,1.4,9.5c0.1,0.7-0.8,1.4-1.3,2.1c-0.5-0.6-1.4-1.2-1.5-1.8
			c-1.3-9.5-3.1-18.9-2.6-28.5c0.1-1.9-0.7-3.9-1.1-5.8c-0.6-2.6-1.3-5.3-2.1-7.9c-0.2-0.6-0.9-1.1-1.2-1.7
			c-0.4-0.9-0.7-1.8-0.8-2.7c0-0.4,0.8-0.7,1.2-1.1c0.4-0.5,1.1-1.1,1.1-1.6c0-1.2-0.4-2.5-0.7-3.6c-1-3.8-2.1-7.5-3.3-11.3
			c-0.2-0.6-0.8-1.1-1.3-1.5c-1.1-0.9-2.3-1.6-3.4-2.4c-1.2-0.9-1.7-0.6-2.1,0.8c-0.5,1.7-1.3,3.3-1.8,5c-1.1,4-2.3,8-2.9,12
			c-0.5,3.6-0.2,7.4-0.3,11.1c0,0.2-0.1,0.4,0,0.6c2.1,3.9-0.1,8.3,1.5,12.3c0.1,0.3,0.1,0.8,0.1,1.1c-0.5,2.7-0.5,5.4,0.7,8
			c0.2,0.5-0.2,1.3-0.2,2c0.1,1.5,0.3,3,0.5,4.5c0.3,0,0.7,0,1,0c0.2-5.4,0.3-10.7,0.5-16.1c0.3,0,0.7,0,1,0c0,2.6,0,5.2,0,7.8
			c0,0.9-0.6,1.9,1,2.1c0.3,0,0.5,0.9,0.5,1.3c0.2,2.1,0.5,4.3,0.6,6.4c0.1,2.2,0.1,4.5,0.1,6.7c0,1.2,0.1,2.4,0.1,3.5
			c0,0.5-0.4,0.9-0.5,1.4c-0.3-0.4-1-0.9-1-1.3c0-2,0.1-4.1,0.1-6.1c0-1.4-0.2-2.7-0.3-4.1c-0.3,0-0.7,0-1,0
			c-0.5,4.2,0.3,8.4-0.4,12.6c-0.3-2.6-0.6-5.4-0.9-8.1c-0.3,0-0.5,0-0.8,0c-0.1,2.6-0.4,5.3-0.4,7.9c-0.1,3.3,0.1,6.5,0,9.8
			c-0.1,1.6,0.4,2.2,2.1,1.9c0.7-0.1,1.6,0,2.3,0.2c1.6,0.4,2.2-0.1,2.1-1.7c-0.2-2.3-0.2-4.5,0.6-6.6c0.2,0,0.5,0,0.7,0
			c0.1,0.8,0.3,1.5,0.3,2.3c0,1.7,0,3.3,0,5c0,1.2,0.5,1.6,1.7,1.9c5.4,1.1,9.8-0.4,13.7-3.9c1.8-1.6,3.7-3,5.6-4.5
			c0.4-0.3,0.6-0.7,1.3-1.4c-1.7,0-2.9,0.1-4,0c-0.6-0.1-1.2-0.5-1.7-0.8c0.5-0.2,1.1-0.7,1.6-0.7c1.8,0.1,3.5,0.3,5.3,0.4
			c0.6,0,1.4,0.1,1.8-0.2c2-1.4,4.3-1.6,6.6-1.3c4.8,0.5,9,1.8,12.6,5.6c3.2,3.4,4.1,7.5,5.9,11.4c0.6,1.4,1.3,2.7,2.2,3.9
			c3.7,5.4,3.8,10.9,1,16.8c-1.5,3.1-3.9,5.1-6.8,6.7c-0.7,0.4-2,0.6-2.5,0.3c-0.7-0.5-1.2-1.6-1.3-2.5c-0.1-0.9,0.6-1.7,0.9-2.6
			c1.1-3,1.1-5.9,0-9.1c-1.3,0.8-2.5,1.3-3.4,2c-1.9,1.5-4,2-6.4,2c-3.2,0.1-5,2.4-4.1,5c0.2,0.7,0.8,1.4,1.4,2
			c1.4,1.3,1.9,2.8,0.9,4.4c-1.7,2.6-0.8,4.7,1.1,6.9c0.9,1,1.4,2.5,1.5,3.9c0.1,2.5-1.1,3.4-3.7,3.5c-2.4,0-4.9-0.2-7.3-0.1
			c-1.7,0.1-3.4,0.6-5.1,0.8c-1,0.1-2.8,0.2-3-0.3c-0.5-1-0.7-2.5-0.4-3.6c0.6-1.6,1.6-3.1,2.7-4.5c0.9-1.2,0.9-2.3,0.1-3.6
			c-1.6-2.6-3.7-4-7.1-3.6c-1.9,0.2-3.8-0.1-5.7,0c-2,0.1-2.5,1-1.7,2.7c0.6,1.1,0.8,2.4,1.3,3.6c0.3,0.7,0.8,1.5,1.4,1.9
			c1.6,0.9,1.5,2.2,1.1,3.6c-0.4,1.3-1.5,1.7-2.8,1.6c-1.8-0.1-3.3,0.3-4.8,1.3c-3,2-9.9,0.6-11.3-1.2c-1.2-1.5-1.7-3.7-2.1-5.6
			c-0.7-3.2-1-6.6-1.7-9.9c-0.3-1.3-1.2-2.5-2-3.5c-1.7-2-3.6-3.9-5.4-5.9c-0.9-1-1.5-0.6-1.9,0.3c-0.4,1-0.5,2.1-0.6,3.1
			c-0.3,2.1-1.7,3.2-3.6,3.8c-1.7,0.4-3.5,0.5-5.3,0.6c-0.4,0-1.1-0.3-1.3-0.6c-0.2-0.3,0-1,0.2-1.3c0.4-0.5,1-1,1.6-1.3
			c3.3-1.6,4.9-4.2,4.7-7.5c-0.1-3.2,1-5.7,3.7-7.8c1.1-0.9,1.7-2.3,2.6-3.4c1.7-2.1,3.2-4.5,5.2-6.3c1-0.9,2.9-1.1,4.4-1.2
			c2.3-0.1,3.3-1.1,3.3-3.1c0.1-3.6,0.1-7.3,0.1-11c0-0.3-0.3-0.6-0.3-0.8c-2.1,1-4,2.1-6.1,2.8c-4,1.2-7.8-0.4-10.1-3.5
			c-0.4-0.6-1.4-0.7-2.1-1.1c-0.5-0.3-1.1-0.6-1.6-0.9c0.4-0.3,0.8-0.6,1.1-1c0.4-0.4,1-1,0.9-1.4c-0.8-2.7-1.6-5.3-2.6-7.9
			c-0.1-0.4-1.2-0.4-1.9-0.5c-1.5-0.3-3.2-0.2-4.5-0.8c-2.6-1.2-3.4-4-2.2-7c0.7-1.8,0.1-2.6-1.4-3.7c-3.1-2.1-5.9-4.5-8.9-6.7
			c-1.2-0.9-2.4-1.9-3.8-2.2c-4.4-0.7-7.8-3.3-11.5-5.1c-4.4-2.1-8.7-4.4-13-6.7c-2.7-1.5-5.3-3.2-7.9-5c-3.8-2.7-7.9-4.9-12.2-6.7
			c-4.6-1.9-9-4.3-13.4-6.6c-6.6-3.4-13.3-6.8-19.9-10.2c-1.1-0.5-2.2-1-3.3-1.5c-0.1,1.1-0.3,2.2-0.4,3.3
			c-0.4,5.4-0.8,10.9-1.3,16.3c-0.5,4.8-1.5,9.6-1.6,14.4c-0.1,5.1-1.1,9.9-2.5,14.8c-0.5,1.8-0.4,3.8-0.4,5.7
			c-0.2,7.1-0.5,14.1-0.5,21.2c0,4.3,0.5,8.5,0.7,12.8c0,0.4,0.2,0.8,0,1.1c-1.5,3.2-2.9,6.5-4.7,9.6c-0.8,1.3-2.6,1.9-4,2.8
			c-0.6,0.4-1.5,0.5-2.2,0.9c-2.3,1.1-4.1,2.3-4,5.3c0.1,3.4-0.6,6.8-3.3,9.5c-2.1,2.1-5.2,2.7-7.9,1.6c-3-1.3-6-2.8-9.1-3.7
			c-3.5-1-4.5-3.4-4.6-6.3c-0.1-3.1,0.1-6.2,0.4-9.3c0.5-4.7,1.3-9.5,2.1-14.1c0.8-4.8,2-9.6,2.7-14.4c0.7-4.5,1.1-9,1.7-13.5
			c0.9-6.9,1.6-13.9,2.6-20.8c1.1-7.7,2.3-15.3,3.7-23c0.9-4.9,2-9.7,3-14.6c0.3-1.3,0.4-2.6,0.3-3.9c-0.1-0.9-0.8-1.7-1.3-2.6
			c-0.6-1.1-1.5-2.1-1.7-3.2c-0.4-3-0.4-6.1-0.5-9.1c-0.1-1.9,0.7-3.4,2-4.9c0.8-0.8,1-2,1.5-3.1c0.4-0.7,0.7-1.5,1.2-2
			c2.9-3,5.8-5.9,8.7-8.9c2-2,1.6-3-1.2-3.9c-4.1-1.4-8-3-11.1-6.2c-3.9-4.1-5.3-10.6-2.9-15.6c1.1-2.3,2.4-4.5,3.6-6.8
			c0.6-1.1,0.7-1.9-0.7-2.3c-1.7-0.6-3.6-1-5.1-1.9c-2.8-1.8-6.7-2.5-7.2-6.7c-0.1-1.1-1.3-2.1-2.1-3c-0.5-0.6-1.2-1-1.6-1.6
			c-1.2-1.7-2.5-2.3-4.6-1.2c-2.2,1.1-6.3-1.9-6.7-4.7c-0.4-2.8,0.4-5.1,2.8-6.9c2.7-2,5.2-4.4,7.9-6.5c1.9-1.4,3.9-2.8,6-3.8
			c4.1-2.1,8.3-4.1,12.6-5.8c2.3-0.9,4.9-1.1,7.4-1.3c6.8-0.4,13.2-2.1,19.3-4.8c1.4-0.6,3.1-0.7,4.5-1.3c2.5-0.9,4.9-2,7.4-3
			c2.7-1.1,5.4-2.1,8.1-3.2c1.5-0.6,3.1-1.4,2.8-2.9c-0.3-1.3-1.5-3-2.8-3.5c-2-0.8-4.5-0.8-6.7-0.9c-1.2-0.1-2.4,0.3-3.5,0.1
			c-1-0.2-2.2-0.7-2.6-1.4c-1.2-1.9-2.1-3.9-3.1-6c-0.3-0.7-0.7-1.7-0.4-2.3c1.8-4.2-1.1-7.8-1.3-11.8c-0.1-2.8-2.1-3.6-6-4.4
			c-4.5-0.9-9-1.5-12.6-4.7c-1-0.9-2.6-1.3-3.9-1.6c-2.3-0.6-4-1.8-5.4-3.5c-1.2-1.3-1.8-2.6-1.9-4.4c0-1.5-0.3-2.9-0.7-4.4
			c-0.3-1.3,0.4-1.7,1.4-1.6c2.6,0.3,3.7-0.9,4.4-3.1c1.8-5.1,5.9-7,11.4-7.6c6.9-0.7,10.3,3.5,13.5,7.9c0.8,1.1,0.4,3,0.6,4.5
			c0.1,0.8,0.3,1.8,0.8,2.3c2.7,2.6,5,5.2,5.2,9.1c0.1,1.5,1.1,2.8,2.7,3.4c2.2,0.8,4.3,1.8,6.5,2.5c0.6,0.2,1.4,0,2-0.3
			c2.7-1.2,5.3-0.6,6.9,1.7c0.6,0.8,1.2,1.7,1.4,2.7c0.6,2.9,2.3,4.6,5.5,5.1c1.1,0.2,2.3,0.6,3.4,1c0.7,0.2,4.5-1.3,4.7-1.9
			c0.1-0.3-0.2-0.7-0.3-1c-0.2-1-0.6-1.9-0.7-2.9c-0.4-5.8,2.3-11,3.1-16.6c0.4-2.8,2-5.5,3.1-8.2c0.3-0.8,0.5-1.7,0.7-2.5
			c-0.2-0.1-0.3-0.2-0.5-0.3c-0.7,0.6-1.3,1.4-2.1,1.6c-4,1-8,2.5-12.1,1.4c-3.2-0.8-6.5-1.3-9.3-3.4c-1.2-0.9-3.3-0.7-4.9-1.2
			c-1.9-0.5-3.8-1.2-5.7-1.9c-2.4-1-4.7-2-6.9-3.1c-3.3-1.6-6.6-3.3-9.8-5.2c-1.1-0.6-1.9-1.8-2.7-2.8c-1.1-1.4-2-2.9-3.2-4.1
			c-1.6-1.6-2.1-1.5-2.8,1.2c-0.9-2.3-2-4.1-2.2-6c-0.7-6.7-1-13.5-1.4-20.2c-0.1-2.4-0.3-4.7-0.3-7.1c0.1-10.8,0.2-21.6,0.4-32.3
			c0.2-7.9,0.7-15.7,0.9-23.6c0.1-2.5-0.6-4.9-0.6-7.4c0-5.1,0.3-10.3,0.5-15.4c0.1-2,0.4-4.1,0.3-6.1c-0.4-4.8,1.3-9,3.6-13.1
			c2.2-4.1,4.6-8,6.6-12.2c1.5-3.1,2.6-6.3,3.9-9.5c0.2-0.5,0.4-1,0.4-1.4c0-0.4-0.3-0.9-0.5-1.3c-0.4,0.3-1.1,0.4-1.3,0.8
			c-0.6,1.2-1.1,2.5-1.7,3.8c-1.6,3.8-3.2,7.7-4.9,11.5c-0.5,1.1-1.4,2.1-2,3.2c-1.4,2.3-2.6,4.6-4,6.8c-0.8,1.3-1.8,2.6-2.9,3.7
			c-1.3,1.2-2.4,0.9-3.1-0.6c-0.6-1.4-1-2.9-1.4-4.4c-0.5-1.7-1-3.5-1.4-5.2c-0.2-0.9,0-1.9,0-2.9c0-0.4,0-0.8-0.1-1.2
			c-0.4,0-0.8,0-1.1,0.1c-1.2,0.6-2.1,1.5-1.4,2.9c3.1,5.7,2.4,12.2,4.4,18c1.1,3,2.3,6,3.2,9.1c0.5,1.9,0.5,3.9,0.6,5.8
			c0.1,1.6-0.2,3.2-0.2,4.8c-0.1,5.4-0.2,10.9-0.3,16.3c-0.1,5-0.2,10-0.4,15c0,0.8-0.5,1.6-0.8,2.4c-0.9-0.3-1.9-0.5-2.6-0.9
			c-3.3-2.2-3.3-5.6-3-8.8c0.7-6.5,1.2-12.9,1-19.5c-0.1-4.1,0-8.3,0-12.4c0-3.8-1.3-7.3-2.8-10.7c-1-2.4-1.6-4.9-2.4-7.3
			c-0.5-1.6-1.1-3.2-1.8-4.7c-0.3-0.6-1.1-1-1.7-1.4c-0.2,0.1-0.4,0.3-0.7,0.5c0.4,1,0.8,2,1.1,3c0.8,2.3,1.7,4.7,2.4,7
			c0.8,2.6,1.6,5.2,2.1,7.9c0.6,3.1,1,6.3,1.3,9.5c0.1,0.6-0.8,1.4-1.3,2.1c-0.7-0.5-1.8-0.8-2.1-1.4c-0.8-1.4-1.3-2.9-1.6-4.3
			c-0.6-2.1-0.9-4.2-1.4-6.3c-0.5-2-1.4-3.9-3.6-4.9c-0.4-0.2-0.6-0.4-1-0.6c-3-2.1-3.1-2.3-2.1-5.3c-1.6-0.2-3.3,1.8-4.2,5.1
			c2.1-1.2,3,0.1,3.9,1.5c0.9,1.2,1.9,2.4,2.8,3.6c0.4,0.5,1,1.1,1.2,1.7c1.9,5,3.6,10.1,5.5,15.1c0.6,1.7,1.4,3.5,2.4,5
			c2.3,3.4,2.4,7.1,1.6,10.8c-0.9,4.2-0.8,8.3-0.2,12.4c0.5,3.4,1,6.9,1.7,10.3c0.4,1.9,1.4,3.6,1.7,5.5c0.4,3,0.6,6,0.7,9
			c0.2,4.3,0.3,8.5,0.2,12.8c0,2.3-0.6,4.7-0.9,7c-0.2,1.9-0.3,3.8-0.6,5.7c-0.2,1.4-0.4,2.8-0.8,4.2c-0.5,1.9-0.8,3.6,0.7,5.3
			c0.6,0.7,1.1,1.4,1.4,2.2c0.2,0.4,0,1,0,1.5c-0.5-0.1-1-0.1-1.4-0.4c-2.4-1.9-2.4-1.9-4.6,0.1c-0.2,0.1-0.5,0.2-1.3,0.5
			c0.4-1,0.5-1.6,0.8-2.2c1-1.9,0.6-3.1-1.5-3.6c-1.7-0.4-3.5-0.5-5.3-0.4c-2,0.1-3.2-0.5-3.5-2.4c-0.3-2-0.4-4.1-0.5-6.1
			c-0.2-2.6-0.7-5.3-0.6-8c0.1-2.6,0.3-5.3,1.1-7.8c1.6-5,2.6-9.9,0.9-14.9c-2-5.9-1.2-11.7,0.3-17.6c0.6-2.4,1-5,1-7.5
			c0-6.6-0.1-13.1-0.6-19.7c-0.3-4.6-1.4-9.1-2.1-13.7c-0.1-0.7,0.1-1.5,0.1-2.2c0-0.4-0.2-0.9-0.3-1.3c-0.4,0.3-1.2,0.5-1.3,0.9
			c-0.4,1.4-1.1,3-0.6,4.1c1.7,4.1,1.5,8.4,1.3,12.6c-0.1,2.4,0.3,4.9,0.5,7.4c0.1,0.9,0.3,1.9,0.1,2.8c-0.2,0.7-0.8,1.6-1.4,1.7
			c-0.6,0.1-1.6-0.4-2.1-0.9c-0.5-0.5-0.7-1.3-1-2c-2.2-5-4.4-9.9-6.5-14.9c-0.4-0.9-0.7-1.8-1.2-2.5c-0.3-0.4-1-0.5-1.5-0.7
			c-0.2,0.4-0.5,0.9-0.5,1.3c-0.3,5.8,2.2,10.8,5.4,15.6c0.7,1,1.4,2,2,3c1.1,2,2.6,3.6,4.7,4.9c2.4,1.5,3.1,3.8,2.5,6.4
			c-0.5,2.2-1.3,4.3-1.9,6.5c-0.5,1.9-0.9,3.7-1.1,5.6c-0.6,4.8,0.8,9.4,1.7,14.1c0.6,3.2,0.1,6.7-0.5,9.9c-0.5,2.7-2.1,5.2-2.7,7.9
			c-0.9,4-3.4,7.9-2.1,12.3c0.4,1.5-1.1,3.6-2.6,4.2c-1.2,0.5-2.6-0.3-3-1.9c-0.4-1.9-0.6-4-0.4-5.9c0.4-3.1,0.7-6.4,2-9.3
			c1.8-4,1.8-8.1,2.3-12.2c0.7-6.4,0.6-12.8-2.8-18.8c-1.1-2-1.7-4.3-2-6.5c-0.5-2.9-0.8-5.8-0.7-8.7c0.1-2.3,0.6-4.6,1.3-6.8
			c0.8-2.4,1-4.6-0.2-7c-1.3-2.6-2.3-5.4-3.4-8.1c-0.2-0.5-0.7-0.8-1-1.2c-0.4,0.3-0.8,0.6-1.1,1c-0.9,1.1-0.7,2.3,0,3.4
			c1.2,1.8,2.6,3.6,3.4,5.7c0.6,1.5,0.6,3.4,0.3,5c-0.4,2.2-1.4,4.4-2.1,6.6c-1.4,4.3-0.5,8.5,0.8,12.6c1.3,4.1,2.9,8.1,4.2,12.2
			c0.5,1.5,0.6,3.2,0.5,4.7c-0.5,6.3-2.5,12.5-2.4,19c0.1,2-1.1,3.9-1.5,5.9c-0.4,1.8-0.7,3.6-0.6,5.5c0,1.6-0.2,3-1.6,4
			c-1.5,1.1-3.4,0.8-3.8-1c-0.7-4-1.1-8.1-1.5-12.1c-0.1-0.8,0.2-1.7,0.3-2.6c0.2-6,0.4-12,0.7-18c0.2-3.3,0.6-6.5,1-9.7
			c0.6-4.8-0.6-9.2-2.7-13.5c-0.7-1.5-1-3.3-1.7-4.9c-0.7,1.9-1.7,3.5-0.9,5.8c1.1,3.1,1.9,6.4,2.7,9.6c0.3,1.1,0.3,2.2,0.6,3.3
			c0.6,2.5-1.3,4.3-3.9,3.7c-0.4-0.1-0.7-0.3-1.1-0.4c-0.7-0.2-1.5-0.3-2.2-0.4c0.4,0.6,0.8,1.1,1.2,1.7c0,0,0.1,0.1,0.1,0.1
			c1.1,3.3,3.5,6.2,3.3,9.9c-0.1,1.2,0.2,2.3,0.2,3.5c0.1,3.6,0.1,7.2,0.3,10.8c0.1,2.6,0.4,5.2,0.6,7.8c0.2,1.6,0.6,3.2,0.7,4.8
			c0,0.8-0.3,1.9-0.9,2.5c-1,1.2-1.1,2.3-0.7,3.8c2.3,7.4,6.2,14,9.6,20.9c0.7,1.4,1.9,2.6,2.9,4c1.6,2.2,3.2,4.4,4.8,6.5
			c0.2,0.2,0.4,0.5,0.5,0.8c5.5,11.2,14.1,20,24.1,27.8c0.5,0.4,1,0.7,1.3,1.1c3.4,4.1,8.9,5.6,12.8,9c0.6,0.5,1.8,0.5,2.5,1
			c0.4,0.2,0.6,0.8,1,1.3c-0.5,0.1-1.1,0.5-1.5,0.4c-1.3-0.3-2.8-0.6-3.9-1.2c-3.9-2.2-8.3-3.5-11.4-6.9c-3-3.1-6.6-5.7-9.7-8.7
			c-3.2-3-6.3-6.1-9.3-9.4c-1.3-1.4-2.2-3.1-3.2-4.6c-3.5-5.1-7.2-10.2-10.5-15.5c-2.8-4.5-5.2-9.3-7.8-14c-3-5.5-4.8-11.4-6.3-17.3
			c-0.2-0.6-0.3-1.2-0.7-1.8c-2.3-3.9-2.8-8.1-2.9-12.4c-0.2-5.6-0.6-11.3-0.6-16.9c0-7.3,1.3-14.5,3-21.7c0.8-3.4,1.4-6.9,2.2-10.4
			c0.5-2.2,1.4-4.2,2.1-6.4c1.4-4.3,2.6-8.7,4.1-13c0.4-1.1,1.4-2.1,2-3.2c3.4-6,6.8-12,10-18.1c3.1-5.9,7.6-10.8,12.8-15.1
			c0,0,0.1-0.1,0.1-0.1c4-6.3,11-9.2,16.8-13.6c5-3.8,10.5-7,15.9-10.3c3.7-2.3,7.5-4.5,11.6-6.3c4.5-1.9,9.1-3.5,13.8-4.9
			c7.1-2.1,14.2-4,21.4-5.8c7.3-1.7,14.8-2.3,22.3-2.1c5.7,0.2,11.5,0,17.1,0.6c6.2,0.6,12.6,0.7,18.6,2.8c2.1,0.7,4.5,0.8,6.8,1.2
			c6.1,1.2,11.9,2.9,17.5,5.6c1.5,0.8,3.4,1,5,1.7c5.3,2.4,10.6,4.6,15.6,7.4c3.9,2.2,7.9,4.7,10.9,7.9c2.8,3,6,5.3,9,7.9
			c1.9,1.6,3.1,3.9,4.6,5.9c1.3,1.6,2.4,3.4,3.8,4.9c3.4,3.7,6.9,7.3,10.4,11c0.7,0.8,1,1.8,1.5,2.7c0.6,1.2,1.3,2.4,2,3.6
			c1.9,3.2,3.8,6.5,5.8,9.6c1.3,2.1,2.7,4.1,3.9,6.2c0.4,0.6,0.7,1.4,0.6,2.1c-0.1,2.4,0.3,4.6,1.6,6.6c2.5,3.6,2.4,7.9,3.6,11.9
			c0.3,1,0.8,1.8,1,2.8c0.6,2.3,1.4,4.5,1.5,6.8c0.6,7.5,1,14.9,1.5,22.4c0,0.7,0,1.4-0.1,2c-0.4,2.5-0.6,5-1.2,7.5
			c-1,4.5-2.1,8.9-3.2,13.4c-1.7,6.5-3.2,13.1-5.3,19.6c-1.9,5.8-4.6,11.3-7,16.9c-2.6,6.2-6.6,11.6-10.9,16.8
			c-4.1,4.9-9.1,9.2-13.9,13.7c-3.4,3.2-6.9,6.3-10.5,9.3c-2.6,2.1-5.5,4-8.3,5.9c-0.6,0.4-1.4,0.5-2.2,0.7
			c-0.1-0.2-0.2-0.4-0.3-0.6c0.4-0.4,0.8-0.9,1.2-1.2c5.1-4.3,10.1-8.6,15.2-12.9c2.4-2.1,5.1-3.9,7.4-6.1
			c3.6-3.6,6.8-7.4,10.2-11.1c4.3-4.7,7.4-10.1,10.3-15.6c1-1.9,1.7-3.9,2.2-5.9c0.2-0.6-0.5-2-1.1-2.1c-2.6-0.7-5.3-1.2-8.1-1.5
			c-1.7-0.2-2.7,0.9-3.3,2.4c-0.5,1.2-1.5,2.3-2.3,3.4c-0.3,0.4-0.7,0.6-0.9,1c-1.5,2.1-1.5,2.1-3.2,0c-2.3-2.8-7.3-2.9-9.7-0.1
			c-0.9,1.1-1.4,1.3-2.2-0.1c-0.3-0.6-1.4-1-2.2-1.4c-0.3-0.1-0.8,0.3-1.3,0.5c0.2,0.4,0.3,0.9,0.6,1.2c0.3,0.3,0.9,0.5,1.7,0.9
			c-0.6,0.6-1,1.3-1.5,1.4c-0.4,0.1-1.2-0.6-1.3-1.1c-0.8-2.3-1.9-4.6-2-6.9c-0.3-6.1-0.3-12.3,0-18.4c0.4-11.8,1-23.6,1.6-35.5
			c0.3-5.9,0.2-11.9,1.2-17.8c1.1-6.7,1.3-13.5,1.1-20.2c-0.2-6.9-0.2-13.8-1.6-20.7c-1.5-7.1-1.6-14.4-0.6-21.7
			c0.5-4,1.5-7.9,2.1-11.9c0.2-1.2-0.1-2.5-0.6-3.6c-0.6-1.2-1.7-1.1-2.3,0.1c-0.4,0.8-0.8,1.7-0.9,2.6c-0.4,4.3-0.8,8.5-1.1,12.8
			c-0.1,1.8-0.2,3.6-0.4,5.4c-0.1,0.9-0.2,1.9-0.5,2.7c-0.3,0.6-0.9,1.4-1.4,1.5c-0.5,0.1-1.3-0.7-1.6-1.3c-1.8-2.8-2.8-5.9-3.4-9.2
			c-0.8-3.9-2.3-7.6-3.5-11.4c-0.3-0.9-0.5-1.8-0.8-2.7c-0.5-1.4-0.9-3-1.8-4.3c-1.6-2.2-1.7-4.5-1.7-6.9c0-2.6-1.3-4.2-3.8-4.9
			c-0.3-0.1-1,0-1.1,0.1c-0.2,0.5-0.3,1.1-0.1,1.5c0.6,1.7,1.5,3.3,2,5c1.5,5.3,2.7,10.7,4.3,16c0.8,2.6,2.2,5,2.8,7.7
			c1,4.4,3.1,8.3,5.1,12.2c3,5.8,4.1,11.9,4.1,18.4c0,6,0.1,12,1.7,17.9c0.8,3,0.2,6.4,0.2,9.6c0,3.3-0.2,6.7-0.3,10
			c-0.1,3.9-0.5,7.8-0.2,11.7c0.7,10.4-0.3,20.7-1.2,31c-0.6,7.3-0.6,14.8-1.3,22.1c-0.7,7.1-2.4,6.9-8.8,6.5
			c-1.8-0.1-3.4-0.3-5.1,0.7c-0.8,0.5-2,0.5-3,0.7c-2.6,0.6-4.7,1.5-5.9,4.1c-0.6,1.2-2.1,2.1-3.3,3c-1.2,0.9-2.8,1.4-3.9,2.4
			c-1.4,1.2-2.9,1.7-4.8,1.9c-1.7,0.1-3.3,0.7-4.9,1c-1.5,0.2-3.1,0.4-4.7,0.5c-2.3,0.1-2.7,0.7-1.9,2.8c0.6,1.7,1.1,3.5,1.2,5.2
			c0.2,4,0.2,8.1,0,12.1c-0.1,2.5-0.8,4.9-0.9,7.3c-0.1,1.2,0.1,2.5,0.6,3.5c0.9,1.7,2.3,3.2,3.3,4.8c0.7,1.3,1.2,2.7,1.5,4.1
			c0.3,1.3,0.6,2.2,2.3,2.3c1.5,0.1,1.9,0.9,1.8,2.3c-0.2,3-0.5,6-0.4,9.1c0,1.4,0.6,2.8,0.9,4.2c0.1,0.5-0.2,1.1-0.4,1.6
			c-0.5-0.3-1.4-0.5-1.5-0.9c-0.5-2.3-1-4.6-1.3-6.9c-0.1-1,0.2-2.1,0.2-3.1c-0.1-2.4-2.1-4.5-4.5-4.7c-0.6,0-1.3,0.4-1.8,0.9
			c-1.5,1.3-2.8,2.6-4.2,3.9c-3,2.8-6.6,4.3-10.7,4.6c-2.2,0.2-4.3,0.3-6.5,0.2c-0.6,0-1.1-1-1.7-1.6c0.7-0.1,1.4-0.5,2-0.4
			c6,0.7,11.4-0.3,15.6-4.7c1.6-1.8,2.9-3.8,4.5-5.6c0.5-0.6,1.2-1.3,1.9-1.4c1.5-0.3,1.5-1,0.9-2c-1.7-2.4-3.3-4.9-5.2-7.2
			c-1.3-1.6-1.7-2.8-0.3-4.3c1.6-1.8,1.9-3.8,1.7-5.9c-0.4-3.9-0.8-7.7-0.3-11.7c0.2-2-1.1-4.1-1.7-6.2c-0.5-1.8-1.1-3.5-1.6-5.3
			c-0.2-0.8-0.1-1.8-0.5-2.5c-2-4.2-1.3-8.2,0.6-12.2c0.2-0.4,0.1-1,0-1.6c0-0.1-0.8-0.2-1-0.1c-2.2,1.2-4.6,0.7-7,0.5
			c-1.4-0.1-2.7-0.2-3.7,1.1c-0.3,0.3-1.4,0.4-1.8,0.2c-2.6-1.4-5.1-3.1-8.4-2.8c-0.4,0-0.8-0.4-1.2-0.5c-0.9-0.3-1.9-0.5-2.8-0.9
			c-0.7-0.2-1.3-0.6-1.9-0.8c0.5-0.5,1-1.2,1.5-1.3c4.3-0.8,8.5-0.6,12.5,1.4c1.1,0.6,2.5,0.6,3.8,0.9c-0.4-1.1-0.7-2.3-1.2-3.3
			c-1.3-2.6-3-5-2.9-8c0-0.5-1-1.4-1.6-1.4c-4.7-0.2-8.7-1.6-12.2-4.5c-1-0.8-2.1-0.8-3.2,0.1c-3.5,2.9-9.2,1.9-11.5-1.3
			c-0.9-1.2-1.9-2.3-2.6-3.5c-0.5-0.9-0.8-2.1-0.4-2.9c0.3-0.6,1.8-1,2.7-1c1.2,0,2.4,0.6,3.5,1c0.9,0.3,1.7,0.8,2.6,0.7
			c0.7-0.1,1.6-0.7,2-1.3c0.2-0.4-0.2-1.3-0.6-1.7c-1.4-1.4-3-2.6-4.4-3.9c-0.5-0.5-1.2-1.1-1.3-1.8c-0.6-4.2-1.1-8.4-1.7-12.5
			c-0.1-0.8-0.7-1.6-1.1-2.4c-0.5-1.1-1-2.3-1.6-3.4c-0.3-0.7-0.5-1.5-0.9-2.1c-1-1.2-0.8-2.6,0.8-3.7c0.1,0.8,0.2,1.4,0.4,2.7
			c1-1.5,1.7-2.6,2.4-3.8c1.8,1.7,1.9,2.5,0.3,3.8c-1.3,1.1-1.6,2.4-1.4,3.9c0.1,0.5,0.6,0.9,0.9,1.3c0.4-0.3,0.7-0.6,1.1-0.9
			c0.3-0.2,0.5-0.5,1.2-0.6c-0.3,1.3-0.6,2.7-0.8,4c-0.1,0.7,0.2,1.4,0.3,2.1c0.7-0.2,1.4-0.4,2.1-0.5c1.1-0.2,2.2-0.5,3.3-0.6
			c0.3,0,0.7,0.7,0.8,1.1c0,0.1-0.6,0.6-1,0.7c-2,0.2-2.5,1.4-3,3c-0.8,2.5-0.4,4.9,0.4,7.3c0.1,0.3,0.3,0.7,0.6,0.9
			c2.6,2.1,5.3,4.3,6.4,7.5c2.4-1.1,3.9-4.6,3-6.5c-0.2-0.4-0.7-0.6-1.1-0.9c-1.6-0.8-3.3-1.5-4.8-2.4c-0.6-0.3-0.9-1.1-1.3-1.7
			c0.2-0.1,0.3-0.2,0.5-0.4c0.3,0.2,0.6,0.3,0.9,0.5c1.1,0.7,1.6,0.2,1.7-0.8c0-0.5,0-1.1-0.2-1.6c-0.5-1.9-0.2-2.8,1.8-3.3
			c2-0.5,4-0.6,5.7-0.8c-0.6,1.2-1.3,2.6-1.7,4c-0.2,0.6,0.4,1.4,0.7,2.1c0.3-0.5,0.7-1.1,1-1.6c0.2-0.3,0.3-0.6,0.7-1.4
			c1.6,4.7,2.1,8.9,0.9,13.3c-2.3-0.6-3.3,0.3-3,2.7c0,0.3,0.1,0.6,0.1,0.9c0.3,4.7,6.4,8.8,11.3,7.6c3-0.7,4.8-3.6,4.1-6.4
			c-0.1-0.5-0.4-1.3-0.1-1.6c0.4-0.5,1.1-1,1.8-1.1c0.4,0,1,0.7,1.2,1.2c0.5,1.5,0.8,3,1.4,4.4c0.2,0.5,1,1,1.6,1.1
			c2.9,0.3,5.3-1.5,6.5-4c1.5-3.2,1.2-6.4,0.9-9.7c0-0.5,0-1,0-1.5c0.2,0,0.4-0.1,0.5-0.1c0.3,0.6,0.7,1.1,0.8,1.7
			c0.9,3.8,0.7,7.6-1,11.3c-0.2,0.4-0.3,0.9-0.1,1.2c0.2,0.2,0.8,0.3,1.2,0.2c3.1-0.5,5.7-3.2,5.8-6.2c0.1-2.3-0.1-4.7-0.2-7
			c0-1.5,0.1-3,0.1-4.4c0-1.1-0.1-2.4-0.5-3.4c-0.6-1.5-1.1-2.9-0.6-4.7c0.3-0.9-0.2-2-0.4-2.9c1.2,0,2.4-0.3,3.5,0.1
			c1.1,0.4,2.2,1.2,3.1,2.1c0.7,0.7,2.2,1.5,0.8,2.9c-0.3,0.3,0.4,1.3,0.6,2c0.9,2.1,1.8,4.2,2.6,6.4c0.1,0.3,0,0.8-0.1,1.2
			c-0.2,0-0.3,0.1-0.5,0.1c-0.2-0.5-0.5-1.1-0.7-1.6c-0.9-2-1.7-4-2.8-5.9c-0.3-0.5-1.2-0.7-1.9-1c0,0.6-0.2,1.3,0,1.9
			c1.4,3.8,2.8,7.6,4.2,11.4c1.1,2.8,2.4,3.2,5,1.4c2.8-2,2.9-8.3,0-10.6c-0.2,0.8-0.4,1.5-0.4,2.1c-0.1,1.7,0,3.4-0.2,5
			c0,0.6-0.4,1.2-0.5,1.7c-0.3,0-0.5-0.1-0.8-0.1c0.1-0.8,0.1-1.7,0.3-2.5c0.5-3.2,0.7-6.3-1.1-8.8c0.4-1.2,0.6-2.2,0.9-3.1
			c0.2-0.6,0.5-1.1,0.9-1.6c1.1-1.3,1-2-0.6-2.6c-3.1-1.3-6.1-2.6-9.2-3.9c1.5-1.3,4.7-0.9,5.7,0.6c0.6,0.8,1.5,1.5,2.3,2.1
			c1.1,0.8,1.9,0.4,2.5-0.7c0.4,0.2,1.1,0.4,1.2,0.7c1.2,3.9,3.8,7,6.5,10c0.2,0.2,0.7,0.3,1,0.3c0.1,0,0.4-0.5,0.3-0.8
			c-0.1-0.5-0.2-1.1-0.5-1.6c-1.5-2.6-3.1-5.2-4.6-7.8c-1.7-3-5-3.6-7.9-4.7c-1.5-0.5-2.9-1.1-4.2-2c-0.7-0.5-1.1-1.5-1.3-2.4
			c-0.1-0.4,0.7-1,1.2-1.4c0.3-0.2,0.8,0.1,1.1-0.1c0.6-0.2,1.1-0.6,1.7-0.9c-0.6-0.4-1.1-1-1.7-1.2c-1-0.3-2.1-0.4-3.5-0.6
			c0.5-0.7,0.8-1,1-1.3c0.8-1.6,0-2.8-1.7-3.1c-1.2-0.2-2.4-0.2-1.4-1.9c0.2-0.3-0.3-1.3-0.6-1.5c-1.5-0.5-3.1-0.9-4.7-1
			c-1.5-0.1-2.7-0.2-4-1.2c-1.4-1-3.1-1.6-4.6-2.4c0.8-0.7,1.6-1.2,3,0c1.7,1.4,3.6,2.4,6.3,2c1.4-0.2,3.1,0.6,4.5,1.4
			c1.4,0.8,2.6,2.1,4,2.9c0.6,0.3,1.7,0.3,2.3,0c0.6-0.3,1.2-1.2,1.1-1.7c-0.1-0.5-1-1.1-1.7-1.2c-2.1-0.3-3.4-1.3-4.2-3.2
			c-0.6-1.6-3.6-2.5-5.5-1.8c-3.2,1.1-5.3-0.2-5.5-3.4c0-0.5-0.9-1.3-1.4-1.3c-1.5-0.1-3,0.1-4.5,0.2c-0.4,0-1,0.1-1.3,0.4
			c-1.7,1.6-3.6,2.6-6.2,1.8c-0.3-0.1-1.2,0.9-1.6,1.5c-0.6,0.9-1,1.8-2.4,0.9c-0.3-0.2-1.3,0.2-1.8,0.5c-0.8,0.5-1.5,1.1-2.4,1.4
			c1-2.2,2.1-4.4,3.1-6.6c0.1,0,0.3,0,0.4,0c0.2,1.1,0.5,2.2,0.7,3.3c1.8-0.1,1.8-1.6,2-2.6c0.2-0.6-0.3-1.8-0.8-2
			c-1.1-0.4-2.7-0.7-3.7-0.3c-1.4,0.5-2.5,1.6-2.5,3.5c0,0.8-0.8,2.1-1.5,2.3c-2.4,0.6-5,1-7.5,1.3c-2.7,0.2-5.4,0-8,0.2
			c-0.5,0-1,0.7-1.5,1.1c0.6,0.2,1.2,0.6,1.9,0.6c2.1,0.1,4.2,0.1,6.3,0.2c0.9,0.1,1.7,0.4,2.5,0.7c0,0.2,0,0.4,0,0.6
			c-0.5,0.1-1.1,0.3-1.6,0.3c-3-0.1-5.9-0.2-8.9-0.3c-0.7,0-1.5,0.1-2.2-0.1c-2.9-1.1-5.3,0-7.8,1.3c-3.7,1.9-6.9,4.2-9.1,7.8
			c-2,3.2-4.2,6.1-4.9,9.8c-0.1,0.6-0.1,1.1-0.2,1.7c0.3,0.1,0.5,0.2,0.8,0.3c1-1.7,2.1-3.3,2.8-5c0.5-1.3,1.2-1.9,3-1.7
			c-0.3,0.9-0.4,1.8-0.8,2.5c-0.9,1.7-1.9,3.2-2.8,4.9c-0.4,0.8-0.8,1.9,0.6,2.1c1.1,0.2,2.8,1.3,3.4-0.8c0.3-1.1,0.6-2.2,1.1-3.2
			c0.7-1.3,1.6-2.4,3.9-2.3c-1.7,2.7-3.5,5.1-3.1,8.3c0.3-0.5,0.6-1,0.9-1.5c0.8-1.6,1.7-3.1,4.1-2.6c0.7,0.1,1.5-0.5,2.2-0.6
			c0.4-0.1,1.1,0,1.4,0.3c0.2,0.2,0.1,0.8,0,1.2c-0.1,0.4-0.4,0.8-0.6,1.1c-1.4,2.1-1.9,4.1-0.6,6.6c1.8,3.5,0.8,6.1-2.6,7.8
			c-0.5,0.2-1.2,0.4-1.6,0.2c-0.3-0.2-0.4-0.9-0.5-1.4c-0.2-1.4-0.2-2.8-0.6-4.1c-0.4-1.3-0.1-1.7,1.2-1.8c2.1-0.2,2.1-0.4,1.1-2.1
			c-0.4-0.7-0.5-1.5-0.8-2.3c-0.3-0.6-0.9-1-1.3-1.6c-0.3,0.5-0.6,1.1-0.9,1.6c-0.4,0.7-0.5,1.7-1.1,2.1c-0.3,0.2-1.5-0.2-2.1-0.6
			c-0.4-0.3-0.5-1-0.9-1.4c-0.5-0.5-1.1-0.8-1.7-1.2c-0.4,0.6-1.1,1.1-1.2,1.7c-0.2,2.3,1,4.1,2.7,5.7c0.8,0.7,1.7,1.4,2.3,2.3
			c2.6,3.7,2.1,6.8-1.4,9.8c-1.7,1.4-1.6,2.1,0.5,2.8c1.6,0.5,2,1.4,1.4,2.9c-0.3,0.6-0.5,1.2-0.5,1.8c0,1.5,0.8,2,2.3,1.5
			c0.3-0.1,0.6-0.4,0.9-0.4c0.9,0,2.1-0.2,2.6,0.2c1,0.8,0.2,1.6-0.6,2.3c-1.4,1.2-1.7,2.5-0.8,4.2c0.8,1.4,1.4,2.8,2,4.2
			c0.7,1.6,1.7,2,3.4,1.3c2.1-0.9,4.3-1.7,6.5-2.5c2.3-0.8,4.7,0.5,5.6,2.7c1.1,2.8,0.3,5.1-1.2,7.6c-2.2,3.6-4.3,7.3-4.8,11.5
			c-0.2,1.6-0.2,3.2-0.2,4.8c0.1,3.9-1.7,6.6-5.4,8.1c-1.8,0.7-2.4,1.8-2.2,3.5c0.1,1.1,0.3,2.2,0.5,3.3c0.6,3.1-0.1,5.9-2.4,8.3
			c-2.1,2.1-2.1,2.9-0.1,5.1c0.6,0.7,1.5,1.3,2,2c0.3,0.5,0.2,1.2,0.3,1.8c-0.6-0.1-1.3,0-1.8-0.3c-0.6-0.3-1-1-1.6-1.4
			c-0.3-0.2-0.8-0.3-1.2-0.5c-0.1,0.4-0.5,0.9-0.4,1.3c0.3,1.1,0.8,2.1,1.2,3.1c0.2,0.5,0.6,1,0.6,1.5c0,0.5-0.4,0.9-0.6,1.4
			c-0.4-0.2-1.1-0.3-1.3-0.6c-0.7-1.2-1.1-2.5-1.8-3.7c-0.4-0.7-1-1.3-1.5-1.9c-0.4,0.7-1,1.4-1.2,2.2c-0.3,1.8-0.3,3.6-0.5,5.4
			c-0.1,0.5-0.7,1-1.1,1.5c-0.5-0.5-1.2-1-1.3-1.6c-0.2-0.7,0.2-1.6,0.1-2.4c-0.1-1.1-0.2-3-0.7-3.1c-1.4-0.4-3.2-0.4-4.4,0.2
			c-1.4,0.7-2.7,2-3.6,3.4c-1.7,2.6-2.7,5.6-4.6,8c-2.3,2.9-0.9,4.8,1,6.7c3.4,3.5,6.6,7.1,11.3,9.1c1,0.5,1.8,1.5,2.8,2
			c4.5,2.5,9.2,4.4,14.5,1.9c2.3-1.1,5-1.7,6.8-3.3c2.4-2.2,4.2-5.1,6.1-7.7c1.6-2.3,3.1-4.7,4.7-7.1c1.5-2.2,3.2-4.2,4.6-6.5
			c0.8-1.3,0.9-2.9,1.3-4.3c0-0.2-0.1-0.4,0-0.5c1.8-2.2,0.7-4.3,0.1-6.5c-0.6-2.2,1.4-5.8,3.6-6.9c2.8-1.3,4.8-2.9,4.7-6.3
			c0-1.9,1.4-3.8,2.3-5.6c0.2-0.4,1-0.5,1.6-0.7c0.1,0.5,0.5,1.1,0.4,1.6c-0.2,0.8-0.8,1.6-1.1,2.4c-0.4,1.5-0.8,3-0.9,4.5
			c-0.1,2-0.9,3.3-2.8,4.3c-1.9,1-3.7,2-4.9,4.5c1.2-0.1,2.1,0,2.7-0.3c2.1-1.1,4-2.3,6-3.4c0.6-0.3,1.5-0.4,2.2-0.5
			c-0.2,0.7-0.2,1.6-0.7,1.9c-2.3,1.9-4.5,4-7.8,4.4c-0.7,0.1-1.8,0.9-1.8,1.3c0,1.2,0.5,2.5,0.9,3.6c0,0.1,1.4-0.3,2.1-0.4
			c0.7,0,1.4,0.1,2.1,0.1c-0.4,0.6-0.7,1.3-1.2,1.6c-0.7,0.4-1.6,0.6-2.4,0.8c-2.1,0.6-2.3,2.4-2.8,4c0,0.2,0.7,0.8,1.1,0.8
			c0.7-0.1,1.3-0.5,2-0.7c0.7-0.2,1.4-0.2,2-0.3c0.1,0.3,0.2,0.5,0.2,0.8c-1.8,0.7-3.5,1.4-5.3,2c-0.4,0.1-0.9,0-1.1,0.2
			c-0.4,0.2-0.6,0.7-0.9,1c0.4,0.1,0.9,0.4,1.3,0.4c0.6-0.1,1.3-0.5,1.9-0.5c0.5,0,1,0.4,1.5,0.5c-0.3,0.3-0.6,0.9-1,1
			c-1.5,0.4-3.1,0.6-4.6,1c-0.9,0.2-2,0.5-2.5,1.1c-1.7,2.1-3.2,4.3-4.6,6.5c-0.9,1.4-0.4,2.1,1.4,2.1c1.2,0,2.5-0.3,3.7-0.3
			c0.4,0,0.8,0.4,1.2,0.7c-0.3,0.3-0.4,0.8-0.8,0.9c-0.8,0.4-1.6,0.5-2.4,0.9c-0.7,0.4-1.6,0.8-2,1.4c-0.9,1.5-2,1.7-3.4,1.1
			c-1.5-0.7-2.6-0.3-3.5,1c-1.4,2-3.4,3.2-5.8,4c-1.5,0.5-2.8,1.5-4.2,2c-1.5,0.6-3.3,1.4-4.8,1.2c-4.7-0.6-9.3-1.6-13-4.8
			c-3.2-2.8-6.9-5.1-10.4-7.6c-0.9-0.7-1.9-2-2.6-1.9c-1.3,0.1-2.5,1.2-3.8,1.9c-0.7,0.4-1.5,0.8-2.1,1.3c-0.7,0.6-1.1,1.5-1.6,2.2
			c-0.2,0.3-0.3,0.7-0.5,1c-2.7,2.8-6,4.7-9.9,5.7c-0.5,0.1-1.2,0-2.3,0c0.7-0.7,0.9-1,1.2-1.2c2.2-1.3,4.4-2.5,6.5-3.8
			c0.5-0.3,0.7-1,1-1.6c-0.7,0-1.5-0.3-2.1-0.1c-4.5,1.6-9,3.4-13.5,5c-6.4,2.4-13.2,3.2-20,4c-2.6,0.3-5.2,1.3-7.6,2.3
			c-2.8,1.1-5.3,2.7-8,3.9c-2.8,1.3-5,3.2-6.8,5.5c-1.1,1.5-0.8,2,1.1,2.3c1.4,0.2,2.7,0.4,4.1,0.7c2.8,0.4,4.2-0.1,5.6-2.4
			c0.3-0.5,0.7-1.1,0.9-1.6c1.4-3.2,4.1-4.4,7.5-4.4c0.7,0,1.5,0,2.2,0c1.5,0.1,2.5-0.4,3.2-1.7c0.9-1.8,2.6-2.8,4.6-3.2
			c0.4-0.1,0.9,0.2,1.4,0.4c-0.3,0.4-0.5,0.9-0.8,1c-1.8,0.5-2.7,1.6-3.4,3.1c-1,2.2-3.3,2.8-5.3,2.4c-4.1-0.7-6.1,1.1-7.9,4.3
			c-2.3,4.1-4.4,4.7-9.3,3.9c-1.7-0.3-3.5-0.1-5.3-0.1c-0.3,0-0.7,0.1-0.9,0.3c-1.4,1.7-2.8,3.4-4,5.2c-0.2,0.3-0.1,1.3,0.2,1.5
			c0.4,0.3,1.3,0.3,1.8,0c4.2-2.1,5-1.9,7.4,1.9c0.4,0.6,1.6,1,2.3,0.9c3.7-0.5,7.3-1.1,10.3-3.7c2.8-2.4,6.5-3.3,10.3-3.9
			c0.2,0,0.4-0.1,0.6,0c1.2,0.2,3.2-0.1,3.1,1.5c-0.1,1.5-1.9,1-2.9,0.8c-2.6-0.4-2.9,1.6-4,2.9c-2,2.3-3.9,4.8-6.4,6.7
			c-1.7,1.3-4.2,1.6-6.3,2.4c-0.5,0.2-1.4,0.7-1.4,0.9c0.1,0.6,0.6,1.4,1.1,1.6c5.6,1.6,11.2,3.3,17.1,1c2.4-0.9,5-0.8,7.3,0.1
			c3.6,1.4,7.1,2.9,10.6,4.4c2.1,0.9,3.3,2.5,3.9,4.6c0.8,3.1,1.4,3.5,4.6,2.6c8.3-2.4,14-7.3,17.1-14.9c1.1-2.8,2.9-5.3,4.2-8
			c1.3-2.8,3-5.5,2.8-8.8c0-0.4,0.8-0.9,1.2-1.3c0.4,0.5,1.1,1,1.1,1.5c0,1.3,0,2.7-0.5,3.9c-1.3,3.2-2.9,6.4-4.3,9.6
			c-0.8,1.8-1.5,3.7-2.5,5.4c-2.2,4-4.6,7.9-7.9,11.2c-1.8,1.8-2.7,4.1-1.7,6.7c0.1,0.4-0.2,1-0.4,1.5c-0.5-0.1-1.4-0.2-1.5-0.5
			c-0.4-1.1-0.9-2.3-0.8-3.5c0.1-2.3,0.1-2.4-2.3-1.5c-1,0.4-1.9,0.8-2.9,1.1c-2.4,0.8-2.9,2.1-2.1,4.3c0.5,1.3,0.7,2.8,0.7,4.1
			c-0.1,2.8,0.5,4,3.5,4.7c2.7,0.6,5.5,0.7,8.1,1.4c5.9,1.5,11.3,3.8,14.1,9.5c0.3,0.6,0.5,1.2,1,1.6c2.4,1.8,3.7,4.1,4.7,6.7
			c0.2,0.5,1,1,1.4,1c0.5,0,1.2-0.5,1.5-1c0.3-0.5,0.3-1.2,0.6-1.8c0.6-1.1,1.1-2.5,2.1-3.2c3.3-2.2,5.1-5.1,6.1-8.6
			c0.2-0.6,0.5-1.2,1-1.6c0.3-0.3,1-0.4,1.4-0.2s0.7,0.7,0.9,1.1c0.1,0.2,0,0.5-0.1,0.7c-2.3,3.1-1.9,6.7-2,10.2
			c-0.1,3.1,2.7,6.2,6,6.2c1.7,0,3.5-0.1,5.1-0.5c3.4-0.8,6.6-0.4,9.9,0.6c3.2,1,6.4,0.4,9.5-0.6c1.6-0.5,2.8-0.1,3.7,1.3
			c1.4,2.1,1.3,3.3-0.6,5c-0.9,0.9-1.8,2-2.1,3.2c-0.3,1.3,0.2,2.8,1.9,3.4c1.6,0.6,3.8-0.2,4.6-1.7c1.8-3.1,3.5-6.3,5.2-9.4
			c0.4-0.6,0.9-1.3,1.5-1.7c0.4-0.3,1-0.2,1.6-0.3c0.1,0.5,0.3,1.1,0.1,1.5c-0.8,1.6-1.8,3.2-2.6,4.8c-0.9,1.8-1.7,3.6-2.4,5.5
			c-0.5,1.4,0.5,2.7,2.2,2.8c1.4,0.1,2.9,0,4.3-0.3c0.8-0.2,1.8-1,2.1-1.7c1.2-2.7,2.2-5.4,3.3-8.1c0.2-0.4,0.2-0.9,0.5-1.2
			c0.5-0.4,1.2-0.7,1.9-1c0.3,0.6,0.8,1.2,0.7,1.7c-0.3,1.6-0.8,3.3-1.4,4.8c-0.7,1.7-0.3,3.2,1.6,3.6c3.4,0.7,6.9,1.1,10.5,1.4
			c1.5,0.1,1.9-1.3,2-2.6c0.2-2.4,0.5-4.8,1-7.2c0.4-1.9,2-3,4.6-3c1.5,0,3,0.5,4.5,0.7c1.6,0.2,3.2,0.6,4.8,0.5
			c0.8-0.1,1.8-1,2.3-1.7c1.1-1.9,2-3.9,3-5.8c0.7-1.3,1.9-1.9,3.4-1.8c2.4,0.2,4.6,0.8,6,2.9c0.5,0.8,1.8,1.5,2.6,1.5
			c0.8,0,1.7-1,2.2-1.7c1.3-2,2.4-4.3,3.7-6.3c0.4-0.6,1.4-0.8,2.1-1.2c0.3,0.8,1,1.7,0.8,2.4c-0.3,1.6-0.9,3.1-1.6,4.6
			c-0.7,1.5,0,2.1,1.3,2.4c3.1,0.8,5.6-1.2,5.5-4.2c-0.1-3.2-0.2-6.4-2-9.2c-0.8-1.2-1.8-2.2-2.6-3.4c-1.2-1.9-2.4-3.9-3.4-5.9
			c-2.2-4.7-4.4-9.4-6.2-14.3c-1-2.6-3.1-4.2-4.8-6.3c-2.3-2.9-4.6-5.8-6.9-8.8c-0.4-0.5-0.7-1.1-1.2-1.5c-4.9-2.9-7-7.6-9-12.3
			c-0.3-0.7-0.8-1.3-1.4-1.9c0,2.8,0.5,5.3,2.2,7.6c1.8,2.4,3.1,5.1,4.9,7.5c1.6,2.1,3.6,3.9,5.4,5.9c0.3,0.3,0.8,0.5,1.1,0.8
			c0.3,0.5,0.5,1,0.7,1.6c-0.6,0.1-1.3,0.4-1.8,0.2c-1.2-0.5-2.4-1.2-3.3-2c-2.2-2.1-4.5-4.2-5.3-7.3c-0.1-0.6-1.1-1-1.7-1.5
			c-0.2,0.7-0.7,1.5-0.5,2.1c0.5,1.5,1.4,2.9,2.1,4.3c1.1,2,2.4,4,3.2,6.1c1.3,3.3,2.3,6.7,3.4,10.1c0.3,0.9,0.5,2,0.4,2.9
			c0,0.5-0.7,1-1.1,1.5c-0.5-0.5-1.2-0.8-1.4-1.4c-0.5-1.3-0.7-2.8-1.1-4.1c-1.3-3.6-2.5-7.1-3.9-10.6c-0.5-1.3-1.4-2.4-2.2-3.5
			c-1.8-2.4-3-5-2.5-8c0.6-3.5-1-6.6-1.5-9.9c-0.5-3.2-0.9-6.4-1.5-9.5c-0.1-0.5-0.5-1.1-1-1.5c-0.9-0.6-1.8-1.3-2.9-1.6
			c-1.9-0.6-3-1.9-4-3.4c-1.1-1.7-1.8-1.7-2.7,0c-0.5,1-0.7,2.2-0.6,3.4c0.3,3.9,2.3,7.2,3.9,10.6c1.3,2.8,2.1,5.7,3.3,8.5
			c0.7,1.7,1.6,3.3,2.4,5c1.4,3.3,3.1,6.6,4.1,10c1.2,3.7,1.7,7.6,2.8,11.4c2.1,7.4,1.9,14.8,0.5,22.3c-0.4,2.1-0.3,4.3-0.1,6.5
			c0.1,1,0.9,2,1.2,3c0.2,0.7,0.1,1.5,0.2,2.3c-1,0-2.1,0.4-2.9,0c-0.6-0.3-0.9-1.4-1.2-2.2c-1.4-4.8,0-9.5,0.7-14.2
			c0.8-5.1,0.7-10.2-0.9-15.3c-1.3-4-1.7-8.3-2.5-12.4C219.1,323.6,218.6,322.6,218.1,321.2z M87.6,379.6c-0.4,2.4,0,4.6,1.4,6.5
			c1,1.4,2,2.8,3,4.1c3.3,4.6,7.5,8.3,12.6,11c5.2,2.7,10.5,5.2,15.5,8c5.3,3,10.6,5.6,16.3,8c3.4,1.4,6.4,3.6,9.6,5.4
			c1.3,0.8,2.5,1.8,3.9,2.5c6,3.3,12.1,6.6,18.2,9.7c4.2,2.1,8.5,3.8,12.8,5.7c0.8,0.4,1.7,0.8,2.3,1.3c3.3,3.2,7,6,11.2,8.1
			c1.4,0.7,2,0.3,2.2-0.9c0.3-3.4,0.4-7-1.4-10c-2.2-3.9-5-7.4-7.7-11c-0.5-0.7-1.4-1.3-2.3-1.8c-2.3-1.1-4.5-2.3-6.9-3.2
			c-7-2.7-12.4-7.5-18-12.2c-3.5-3-6.9-6.1-10.3-9.2c-3.3-2.9-7.2-5.4-10-8.7c-2.5-3-5.6-5-8.9-6.9c-2.5-1.4-5.3-2.7-8.1-0.1
			c-0.6,0.5-1.5,0.9-2.3,0.9c-0.7,0-1.4-0.4-2-0.7c0.3-0.6,0.4-1.5,0.9-1.8c1.5-1,3-2,4.7-2.8c2.8-1.3,4.6-3.5,5.7-6.1
			c0.6-1.4,1-3.3,0.5-4.6c-0.7-1.9-2.1-3.5-3.5-5.1c-2.6-3.1-5.5-6-8.2-9c-2.1-2.3-5.2-3-8.1-3.3c-1.1-0.1-2.5,1.5-3.8,2.3
			c-0.4,0.2-0.7,0.6-1.1,0.8c-6,3.9-10.7,8.9-15.1,14.3C88.7,373.5,86.6,376.1,87.6,379.6z M218.4,493.3c-2.1,1.1-3.8,2-5.5,2.8
			c-1.8,0.9-3,2.2-3.1,4.2c-0.1,2.7-0.1,5.5-0.1,8.2c0,2.6,1.4,4.4,3.5,6c1.2,0.9,2.7,2,3.1,3.3c1.2,3.6,2,7.3,2.7,11
			c0.4,2,0.7,3.9,2.7,5c0.5,0.3,1,0.7,1.3,1.1c1.4,1.8,3.2,2.4,5.4,1.5c0.6-0.2,1.3-0.9,1.3-1.4c0.1-0.6-0.4-1.5-0.9-1.9
			c-0.8-0.6-1.9-0.9-2.8-1.4c-2.5-1.3-3.5-5-1.7-6.9c2.4-2.5,4-5.2,2.2-8.7c-0.2-0.4,0.1-1.2,0.5-1.6c0.2-0.2,1.3,0,1.5,0.3
			c0.6,0.8,0.9,1.8,1.4,2.8c0.4,0.7,0.6,1.9,1.2,2.1c4.7,2,12.3,1.2,16-2.4c0.6-0.6,1.7-0.7,2.6-1c0.3,0.9,0.6,1.9,0.8,2.8
			c0.1,0.4-0.3,0.8-0.4,1.2c-0.9,2.2-0.6,3.5,1.4,5c2.2,1.6,2.1,3.3,0,5.1c-0.9,0.8-1.6,1.8-2.1,2.8c-0.2,0.4,0.5,1.6,1,1.7
			c3,0.5,6.1,0.8,9.2,0.9c0.8,0,1.8-0.5,2.3-1.1c0.3-0.4,0-1.4-0.3-2c-0.5-0.9-1.2-1.8-1.9-2.6c-1.7-2.1-2.1-4.4-0.5-6.7
			c0.8-1.1,0.8-2.1-0.2-3c-2.7-2.5-2.4-5.3-0.6-8.1c1.6-2.5,4-2.7,6.7-2.4c3.6,0.4,6.4-2.5,5.8-5.8c-0.1-0.6,0.4-1.6,0.9-1.8
			c1.6-0.6,4.9,1.2,5.1,2.9c0.4,3.1,0.7,6.2,0.7,9.2c0,1.6-0.6,3.3-1.1,5.3c0.8-0.3,1.3-0.4,1.6-0.7c4.7-3.7,6.6-13.3,2-18.3
			c-1.5-1.6-2.5-3.9-3.3-6c-1.4-3.9-2.8-7.8-5.7-10.9c-0.4-0.5-0.9-1-1.4-1.2c-2.7-0.9-5.4-1.7-8.1-2.3c-0.8-0.2-2.1,0-2.8,0.5
			c-3.9,2.6-7.6,5.3-11.4,8c-2.8,2-4,4.4-3.3,7.8c0.4,1.8,0.2,3.7,0,5.5c-0.1,1.5-1.1,1.9-2.6,1.8c-3-0.1-5.9-0.1-8.9-0.2
			c-3.1,0-6.3,0-9.5,0c-1.4,0-2.4-0.5-2.8-1.9c-0.5-1.8-1-3.6-1.4-5.4C218.9,495.2,218.7,494.2,218.4,493.3z M82,406.2
			c0.2-0.1,0.4-0.1,0.5-0.2c-0.4-0.7-0.6-1.7-1.2-1.9c-2.4-1-7,0.5-8.5,2.6c-2,2.8-3.6,5.8-4,9.2c-0.1,0.7-0.4,1.5-0.8,2
			c-2.3,3.2-3.8,6.6-4.1,10.5c-0.2,2.4-0.8,4.8-1.2,7.1c-0.6,3.6-1.3,7.1-1.8,10.8c-0.3,2,0.1,4-0.2,5.9c-1.1,6.2-1.2,12.5-2.8,18.6
			c-0.1,0.5,0,1.1-0.1,1.7c-0.4,2.8-0.6,5.5-1.1,8.2c-0.5,2.2-1.4,4.3-1.9,6.5c-0.4,1.5-0.3,3.1-0.5,4.6c-0.8,5.4-2.2,10.7-0.8,16.3
			c0.7,3,2.2,4.5,4.9,5.3c2.1,0.7,4.3,1.2,6.4,1.8c3.7,1.1,6.4-0.1,6.8-3.7c0.7-5.6,2.5-11.2,1.5-17c-0.2-1.3-0.1-2.6,0.1-3.9
			c0.7-6.6,1.5-13.3,2.3-20c0.2-1.5,0-3,0.2-4.5c0.9-6,4.3-11.6,2.6-18c0-0.2,0.1-0.4,0.1-0.5c0.5-9.2,4.8-18.1,2.9-27.5
			c0-0.1,0-0.2,0-0.4C81.3,415.3,81.6,410.8,82,406.2z M216.3,448.8c-0.6-1.4-1.4-2.5-1.6-3.7c-0.1-0.7,0.6-1.5,0.9-2.2
			c0.4,0.4,0.7,0.9,1.1,1.3c0.3,0.3,0.6,0.6,0.9,1c0.3-0.4,0.7-0.7,0.8-1.1c0.1-0.6,0-1.2,0-1.9c-0.2-5.7-0.4-11.4-0.8-17.1
			c-0.4-5.3,1.1-10.6-0.2-15.9c-0.8-3.1-0.7-6.4-1.1-9.5c-0.1-1.5-1-2.1-2.6-2.2c-6.2-0.1-12.3-0.1-18.5-0.4
			c-7.8-0.4-15.6,0.5-23.4-0.9c-4.3-0.8-8.8-0.5-13.2-0.7c-2.2-0.1-4.4-0.2-6.6-0.5c-2.1-0.3-4.3-0.8-6.4-1.3
			c-0.1,0.2-0.2,0.4-0.3,0.6c1.1,0.9,2.3,1.8,3.4,2.8c3.9,3.5,7.5,7.3,11.6,10.6c4.8,4,9.8,7.8,15,11.4c2.3,1.6,5.3,2.1,7.9,3.4
			c2.7,1.4,3.7,1.3,5.8-0.7c1.2-1.1,2.6-2.4,4.1-2.7c5.3-1.1,9.6,1.2,13.5,4.1c0.6,0.4,0.9,1.2,1.1,1.9c1,4.7,2.2,9.4,2.9,14.2
			c0.6,4.7,3.5,8.4,5.6,12.4c0.6,1.1,1.3,2.1,2.1,3.4c1.2-2,0.6-6.1-0.8-7.4C217.1,448.2,216.6,448.5,216.3,448.8z M121.7,82.6
			c3.9,0.4,7-0.9,10.1-2.4c4.2-2.1,8.1-4.8,9.6-9.2c4.2-12-2.9-22.4-16-25.2c-7.1-1.5-16.5,3.6-19.7,9.8c-3.4,6.4-2.5,16.1,3.9,21.9
			C113,80.6,116.8,83.2,121.7,82.6z M94.8,341.7c-0.3-2.3-0.3-3.8-0.7-5.3c-1.1-4-2.9-7.6-7.6-8.9c-1.4-0.4-2.8-1.1-4.2-1.7
			c-3.9-1.5-8.2-1.7-11.6,1.3c-0.8,0.7-1.6,1.3-2.4,2c-3.6,3.3-4.9,7.7-4.9,12.1c0,6.8,4.3,10.9,10.8,13.2c4.7,1.7,9.6,2.8,14.6,2.3
			c2.8-0.3,5.7-0.5,8.2-1.6c1.7-0.7,2.7-2.7,4-4.2c0.2-0.2,0.2-0.7,0-0.9c-1-1-2-2.1-3.3-2.8c-0.5-0.3-1.6,0.5-2.5,0.6
			c-0.6,0.1-1.3,0.1-2,0.1c0-0.6-0.1-1.3,0.1-1.9C93.9,344.4,94.5,342.7,94.8,341.7z M163.4,379.6c0-0.3,0-0.5,0.1-0.8
			c0.7,0,1.4,0.1,2.1,0.1c0.5,0,0.9-0.3,1.4-0.4c-0.3-0.4-0.5-1.1-0.9-1.2c-1.9-0.6-3.8-1.3-5.7-1.5c-1-0.1-2.4,0.5-3.2,1.3
			c-1.1,0.9-1.8,1-2.9,0.1c-1.5-1.3-11.3-2.6-13.1-1.9c-0.1,0.1-0.2,0.1-0.3,0.2c-1.4,1-2.9,2-4.2,3.1c-1.1,0.9-1.1,1.7,0.3,2.4
			c1.7,0.9,3.3,1.9,4.9,2.8c3.4,2,6.9,4,10.3,6c0.6,0.4,1.6,0.7,1.8,1.2c0.6,1.3,1.6,1.4,2.9,1.5c4.7,0.3,9.4,0.7,14.1,0.9
			c9.2,0.6,18.4,1.3,27.5,1.6c7.7,0.3,15.4,0,23.1,0c2.3,0,4.6,0.1,6.9,0c1.2,0,2.4-0.2,2.5-1.6c0.2-2.8,0.6-5.7,0.3-8.5
			c-0.2-1.6-1.5-3.3-2.9-4.4c-2.4-1.9-6-0.9-7.6,1.6c-1,1.5-2.2,2.9-3.3,4.4c-0.2,0.3-0.3,0.8-0.5,1.1c0.4,0.1,0.8,0.4,1.2,0.4
			c1.3,0,2.5-0.1,3.7-0.2c0.6-0.1,1.2-0.4,1.8-0.6c0.1-0.2,0.2-0.5,0.3-0.7c-0.6-0.2-1.1-0.4-1.7-0.6c0.1-0.2,0.2-0.5,0.3-0.7
			c1.1,0.1,2.8-0.3,3.2,0.3c1.1,1.2-0.1,2.4-1.1,3.3c-1.7,1.5-7.4,1.7-9.6,0.5c-1-0.6-2.3-0.9-3.4-1.1c-2.5-0.4-5.1-0.7-7.6-1
			c-0.9-0.1-1.8-0.2-2.7-0.1c-2.1,0.3-4.3,0.5-6.3,1c-1.1,0.3-2.4,0.9-3,1.7c-1,1.4-2.2,2.4-4,2.3c-4.5-0.1-8.9-0.3-13.4-0.4
			c-0.2,0-0.5-0.1-0.7-0.2c0.9-0.4,1.9-0.5,2.8-0.5c2.8,0,5.5,0.1,8.3,0c1.3,0,2.6-0.4,3.8-0.8c0.5-0.1,0.7-0.8,1.1-1.2
			c-0.5-0.3-1-0.7-1.6-0.8c-1.9-0.3-3.9-0.3-5.8-0.8c-3.4-0.8-6.8-2-10.2-2.8c-1.9-0.4-2.9-1.2-3-3.1c0-1.5-0.9-2.2-2.6-1.9
			C165.9,379.7,164.6,379.6,163.4,379.6z M264.9,86.9c-0.5,0.1-0.7,0.1-0.8,0.1c-2.4,1.2-2.9,0.9-3.3-1.5c-0.1-0.5-0.2-1-0.2-1.5
			c0.2-6.6-0.1-13.1,1.5-19.6c0.2-0.7,0.3-1.5,0-2.2c-0.1-0.5-0.9-0.8-1.3-1.2c-0.4,0.5-0.9,0.9-1,1.4c-0.2,1-0.1,2-0.3,3
			c-2.4,11.2-1.6,22.3,0.3,33.5c0.8,4.9,2.1,9.8,1.4,14.9c-0.5,3.8-0.1,7.7-0.1,11.5c-0.2,7.9,0,15.8-0.8,23.6
			c-0.7,6.6-1,13.2-0.9,19.9c0,4.3-0.1,8.6-0.3,12.8c-0.4,6.7-0.9,13.5-1.4,20.2c-0.1,1,0.3,1.2,1.4,1.2c1.4,0,2.9,0.2,4.3,0.6
			c1.1,0.3,1.7,0.2,1.6-0.9c-0.3-3.7-0.7-7.4-1.1-11.1c-0.6-6.2-0.8-12.4,0.5-18.5c0.9-4.2,1.6-8.4,1.1-12.7
			c-0.4-3.1-0.4-6.3-0.7-9.4c-0.2-2.1,0.7-3.6,2.6-4.8c3.5-2.2,6.3-5,7-9.2c0.5-3,1.4-5.9,1.7-8.9c0.8-7.1,0.2-14.2-0.8-21.3
			c-0.5-3.3-0.8-6.5,0.8-9.7c0.3-0.6,0.1-1.4,0.1-2.2c0.1-1.3-0.1-2.7,0.3-4c0.6-1.7,1.6-3.3,2.4-4.9c0.7-1.3,0.4-3.2-0.7-3.5
			c-1.6-0.4-1.8,1-2.3,1.8c-0.4,0.6-0.6,1.3-0.7,1.9c-0.5,2.2-1,4.3-1.5,6.5c-1.6,7.3-1.8,14.6-1,22c0.6,5.7,1.1,11.4-0.2,17
			c-0.8,3.5-2,7-5,9.5c-0.5,0.4-1.3,0.7-1.9,0.6c-0.4-0.1-0.8-1-0.8-1.5c-0.3-4.8-0.5-9.6-0.7-14.5c-0.1-2.5,0.2-5,0.1-7.6
			c-0.1-4.5-0.2-9-0.4-13.6c-0.3-5.6-0.5-11.3,1.2-16.8C265.1,87.7,265,87.4,264.9,86.9z M202.4,459.6c0.7,2.7,1.3,6.2,2.4,9.6
			c0.6,1.7,1.7,3.4,2.9,4.8c2.1,2.4,5.7,1.6,6.6-1.3c1.1-3.2,1.9-6.5,3-9.6c1-2.6,0-4.4-1.4-6.5c-3.2-4.5-6.4-9.1-7.3-14.7
			c-0.7-4.1-1.6-8.3-2.3-12.4c-0.5-3-1.9-5.3-4.9-6.5c-1.8-0.8-3.8-1.4-5.8-1.7c-3.8-0.6-4.2-0.2-5.7,2.9c-0.6,1.2-0.5,2.2,0.3,3.3
			c1.1,1.4,2.4,2.8,3.4,4.4c1.9,2.9,4.6,5.5,4.9,9.2c0.2,2.2,0.1,4.5,0.4,6.7c0.2,1.6,0.6,3.4,1.5,4.7
			C202,454.3,203,456.3,202.4,459.6z M82.3,475.1c0.3,0.1,0.7,0.1,1,0.2c-1.1,6-0.8,12.1-3.6,17.9c-0.5-0.6-0.8-1.3-0.8-2
			c-0.1-3.3,0-6.5-0.1-9.8c0-0.7-0.2-1.5-0.4-2.2c-0.2,0-0.5,0-0.7,0c-0.3,0.7-0.8,1.3-0.8,2c-0.2,2.3-0.3,4.6-0.4,6.9
			c-0.1,3.4-0.2,6.8-0.4,10.1c-0.1,1.4,0.6,2,2.1,1.4c1.4-0.6,2.9-1.1,4-2c0.9-0.8,1.4-2,1.8-3.1c0.4-1,0.3-2.1,0.5-3.1
			c0.5-3.2,1.2-6.5,1.5-9.7c0.4-4.5,0.4-9.1,0.6-13.6c0.4-9.4,2.2-18.8,2.5-28.3c0-0.7,0.3-1.3,0.4-2c0.3-0.9,0.7-1.8,0.8-2.7
			c0.6-4.7,1.1-9.5,1.6-14.2c0.1-0.8,0-1.6-0.3-2.4c-0.7-2.2-1.5-4.4-2.3-6.6c-0.8-2.3-1.6-4.7-2.5-7c-0.2-0.6-0.8-1-1.5-1.9
			c-0.3,1-0.4,1.5-0.5,2.1c-0.2,1.6-0.4,3.2-0.5,4.8c-0.1,3.7-0.5,7.4-0.2,11.1c0.2,3.1,0.8,6.1-0.1,9.2c-0.7,2.4-0.8,5-1.1,7.5
			c-0.1,0.8,0,1.6-0.2,2.4c-1.3,4-1.5,8-1.1,12.1c0.1,1-0.1,2-0.3,2.9c-0.7,3.5-1.5,6.9-2.1,10.3c-0.5,3.2-0.9,6.5-1.3,9.8
			c-0.1,0.6,0,1.3,0,2c0.3,0,0.7,0.1,1,0.1c0.9-4.7,2-9.4,2.7-14.1c0.7-4.7,1.5-9.4,2.6-14c0.3,0,0.6,0.1,1,0.1
			c-0.1,1-0.1,2.1-0.3,3.1c-0.5,2.7-1.2,5.5-1.6,8.2c-0.4,3-0.5,6-1,9c-0.9,5.5-2.1,11-3.1,16.5c-0.1,0.7,0.1,1.4,0.1,2.1
			c0.4,0,0.7,0,1.1,0C81,483.7,81.7,479.4,82.3,475.1z M90.5,394.2c0.2-0.2,0.3-0.3,0.5-0.5c-0.8-0.9-1.6-1.7-2.2-2.7
			c-1.6-2.4-3.8-4.8-4.3-7.4c-0.8-4.3-0.4-8.7,2.7-12.4c1.8-2.1,3.7-4,5.6-6c0.7-0.8,1.3-1.6,1.9-2.4c-2.5,0-4.6,0.3-6.6,0.7
			c-1.3,0.2-2.2-0.1-2.8-1.4c-0.9-2-4.6-2.6-6.1-1.1c-2.4,2.5-4.9,5-7.3,7.5c-0.7,0.7-1.1,1.7-1.6,2.6c1,0.2,2.1,0.6,3.1,0.7
			c2.4,0.2,4.9,0.2,7.3,0.5c0.5,0,0.9,0.7,1.3,1.1c-0.5,0.3-0.9,0.8-1.5,0.9c-0.6,0.1-1.3-0.2-1.9-0.2c-1.5,0-3-0.2-4.5,0
			c-0.6,0.1-1.5,1-1.6,1.6c-0.6,2.9-1.2,3.3-4.1,2.5c-0.6-0.1-1.2-0.1-1.8,0c-0.1,0-0.3,0.9-0.1,1c0.5,0.4,1.2,0.7,1.8,0.8
			c1.1,0.2,2.3,0.3,3.7,0.5c-0.4,0.7-0.5,1-0.6,1.2c-1.4,2-1.3,2.4,0.7,3.9c0.9,0.6,1.5,1.7,2,2.7c0.4,0.8,0.5,1.8,0.8,2.8
			c-2.1,0-4.3,0-6.5,0c0,0.2-0.1,0.3-0.1,0.5c0.6,0.3,1.1,0.8,1.8,0.8c1.6,0.2,3.1,0.2,4.7,0.3c4.6,0.4,9.3-0.9,13.8,0.7
			C89,393.7,89.8,394,90.5,394.2z M68.2,226.6c0.8,0.8,1.3,1.8,2.1,2c4.3,1.6,8.4,3.5,12.2,5.9c0.1,0.1,0.3,0.1,0.4,0.1
			c3,0.8,5.9,1.7,8.9,2.3c3.1,0.6,4.7,2.5,5.3,5.3c0.3,1.5,0.6,2.9,1.1,4.3c0.6,1.9,1.7,2.2,3.7,1.6c4-1.1,7-3.6,9.9-6.2
			c1-0.9,1.2-1.9-0.2-2.6c-2.6-1.3-5.2-2.7-7.9-3.8c-2.7-1.1-3.9-3-4.2-5.6c-0.6-4.7-3.4-7.6-8.4-8.5c-1-0.2-2-0.5-3.1-0.6
			c-1.1-0.1-2.2-0.2-3.4-0.3c0.4,1.2,0.8,2.4,1.2,3.6c0,0.1,0.1,0.1,0.1,0.1c2,1.6,4,3.1,5.9,4.8c0.4,0.4,0.6,1,0.9,1.5
			c-0.5,0.3-1.1,0.8-1.6,0.7c-1,0-2.1-0.1-2.9-0.5c-6-3.4-13.1-2.7-19.5-4.5C68.9,226.2,68.8,226.2,68.2,226.6z M268.4,164.4
			c-0.4,2.1-0.8,4.4-1.2,6.7c-0.4,2-0.8,3.9-1,5.9c-0.2,1.2,0.4,1.7,1.8,1.3c1.2-0.3,2.5-0.6,3.7-0.4c3,0.5,6,1.3,8.9,2
			c2.4,0.6,3.6-0.1,3.7-2.4c0.2-3.5-2.3-6.1-3.9-8.9c-1.3-2.3-3.1-4.3-4.7-6.4c-1.7-2.3-2.9-5-5.7-6.3c-1.7-0.8-2.5-0.2-2.3,1.5
			C267.9,159.7,268.1,162,268.4,164.4z M107.9,259.7c0.2,0.4,0.4,1,0.9,1.4c2.5,2.1,5.9,1.5,7.4-1.3c0.1-0.3,0.3-0.6,0.4-0.9
			c2.1-3.6,3.8-7.5,7.4-10.2c1-0.7,0.8-1.4-0.4-1.8c-2.7-0.9-3.7-3-4.1-5.4c-0.1-0.8-0.3-1.7-0.7-2.3c-0.6-0.7-1.6-1.1-2.4-1.7
			c-0.5,0.7-1,1.4-1.4,2.2c-0.6,1.2-0.7,2.9-1.6,3.7c-2.9,2.6-5.9,5.3-10,6.4c-1.1,0.3-2.2,0.8-3.2,1.4c-1.2,0.8-2.1,2-1.4,3.5
			c0.7,1.5,2.1,2,3.8,1.7c0.8-0.1,1.5-0.4,2.3-0.5c2.9-0.7,3.8,0.1,3.2,2.9C108,259.1,108,259.3,107.9,259.7z M84.4,226.7
			c-0.3-0.6-0.6-1.2-0.8-1.8c-0.6-1.6-1.6-3.2-1.8-4.8c-0.3-2.3,1.3-3.2,3.7-2.4c1.6,0.6,3.3,1.3,5,1.6c1,0.2,2.6,0.3,3-0.2
			c0.6-0.7,0.6-2.3,0.2-3.1c-2.9-5.7-8.4-8.9-15.3-7.2c-3.6,0.9-6.9,5.6-6.6,9.1c0.1,1.6,0.4,3.2,0.6,4.8c0.2,1.6,1.1,2.8,2.7,3
			C78,226.1,81,226.3,84.4,226.7z M265.7,185.3c-0.1,0-0.2,0-0.2,0c0.6,6,1.2,11.9,1.8,17.9c0,0.3,0.6,1,0.7,0.9
			c0.7-0.1,1.5-0.4,1.8-0.8c0.6-0.9,0.8-1.9,1.1-2.9c0.3-1.3,1.1-2,2.4-2c2.2,0,4.4,0,6.6,0.2c1.6,0.2,2.3-0.1,2.4-1.7
			c0.3-4.1,0.8-8.3,1.3-12.4c0.2-1.5-0.2-2.3-2-1.9c-0.5,0.1-1.1,0-1.5-0.2c-3.6-1.6-7.2-2.8-11.3-1.3c-1,0.4-2.5,0.1-2.9,0.6
			c-0.5,0.7-0.2,2-0.2,3.1C265.8,184.9,265.7,185.1,265.7,185.3z M244.8,161.1c-0.1-0.1-0.2-0.9-0.6-1.1c-0.5-0.2-1.3,0.1-1.8,0.4
			c-0.6,0.5-1.2,1.1-1.6,1.9c-1.9,3.3-3.7,6.5-5.5,9.9c-1.4,2.5-2.6,5-5.1,6.7c-0.7,0.5-1,1.4-1.4,2.2c-0.5,1.1-0.3,1.9,1,2.4
			c0.8,0.4,1.6,0.9,2.2,1.5c1.7,1.8,1.7,1.7,3.1-0.3c1.4-2,2.8-4.3,5.8-4.3c1.8,0,2.3-0.7,2.5-2.1
			C243.7,172.6,244.2,167.1,244.8,161.1z M257.3,158.2c0.2,0,0.3,0,0.5,0c0.1-2-0.6-2.5-2.6-1.5c-0.8,0.4-1.5,0.8-2.2,1.2
			c-1.6,0.8-2.4,1.9-2.3,3.7c0.1,4,0.3,8.1,0.1,12.1c-0.2,3.9-1.3,4.2,4.4,5c1.9,0.2,2.2-0.5,2.2-1.9
			C257.3,170.6,257.3,164.4,257.3,158.2z M136.7,242.7c0.2,0,0.4,0,0.6,0c0.4-1.1,0.7-2.3,1.3-3.4c0.6-1,1.9-1.8,2.4-2.9
			c0.6-1.2,0.7-2.6,0.7-3.9c0-1.6-0.4-3.2-0.6-4.8c-0.4-3.3,0.5-4.7,3.9-5.7c2-0.6,3.2-2,3.5-3.7c0.5-3,0.5-6,0.7-9.1
			c0.1-1.4-1-1.7-1.9-0.9c-1.3,1.2-2.5,2.5-3.2,4.1c-1.2,2.7-2,5.6-2.9,8.5c-0.6,1.9-1.4,3.9-1.9,5.8c-0.4,1.6-0.2,3.3-0.9,4.7
			c-1.6,3.2-1.7,6.6-2,10C136.4,241.8,136.6,242.2,136.7,242.7z M249.3,191.6c0.1,0,0.2,0,0.3,0c0,2.7,0,5.5,0,8.2
			c0.1,2.7,2.1,3.3,4.5,3.5c0.5,0,1.4-0.8,1.5-1.3c0.4-1.4,0.5-2.9,0.6-4.4c0.1-1.4-0.4-2.2-2.1-2.3c-0.7,0-1.9-0.7-1.9-1.1
			c-0.2-1.6-0.2-3.4,0.2-4.9c0.2-0.7,1.6-1.6,2.4-1.6c1.7,0,2.1-0.7,2-2c-0.1-0.9,0.1-1.8-0.2-2.6c-0.4-0.8-1.1-1.6-1.8-2
			c-0.7-0.4-1.7-0.3-2.5-0.3c-1.6-0.1-2.5,0.4-2.6,2.1C249.7,185.7,249.5,188.7,249.3,191.6z M241.2,200.3c0.2,0,0.3,0.1,0.5,0.1
			c0.2-1.9,0.5-3.7,0.6-5.6c0.1-3.3,0.1-6.7,0.3-10c0.1-2.4-0.3-2.7-2.6-1.6c-0.8,0.4-1.6,0.8-2,1.5c-1.7,2.7-3.9,5.1-4.3,8.4
			c-0.1,0.5,0,1.1,0,1.2c2,0.5,4.1,0.5,5.3,1.4C240.2,196.8,240.5,198.8,241.2,200.3z M289.3,157.3c-0.3,0-0.5,0-0.7,0
			c-0.1,0.6-0.4,1.1-0.4,1.7c-0.4,4.1-0.8,8.3-1.1,12.4c-0.3,3.1-0.3,6.3-0.6,9.4c-0.4,3.4-1.1,6.7-1.5,10.1
			c-0.3,2.5-0.3,5.1-0.4,7.6c0,0.5,0.5,1,0.8,1.4c0.4-0.5,0.9-0.9,1.3-1.4c0.1-0.2,0-0.5,0-0.7c0.5-5.8,0.8-11.6,1.6-17.3
			c0.9-7.2,1.6-14.4,1.3-21.7C289.6,158.3,289.4,157.8,289.3,157.3z M232.4,189.6c-0.6-0.8-1.3-2.1-2.4-3.1c-0.5-0.5-2.1-1-2.2-0.8
			c-0.6,0.9-1.1,1.9-1.3,2.9c0,0.3,1.1,1.1,1.8,1.2c1.6,0.3,2.5,1,2.2,2.5c-0.3,1.4-0.8,2.9-1.4,4.2c-0.2,0.4-1.3,0.7-1.8,0.5
			c-2.6-0.9-2.6-0.9-3,1.7c-0.1,0.9,0,1.9-0.1,2.8c-0.1,0.9-0.4,1.8-0.5,2.8c-0.1,0.4-0.4,1-0.2,1.2c0.3,0.3,0.9,0.5,1.3,0.5
			c1-0.1,1.9-0.4,2.9-0.6c1.4-0.2,1.9-1,2.1-2.3c0.2-1.7,0.6-3.4,0.9-5.1C231.2,195.2,231.7,192.7,232.4,189.6z M229.5,501.2
			c3.7-0.2,7.3-0.3,10.8-0.6c0.6-0.1,1.7-0.9,1.7-1.3c0-1.9-0.4-3.8-0.7-5.7c-0.1-0.4-0.8-0.9-1.2-0.9c-0.4,0-0.9,0.7-1,1.1
			c-0.3,1.1-0.4,2.3-0.6,3.5c-0.3,1.3-1.2,2.2-2.6,2.1c-3.1-0.2-6.3-0.5-9.4-0.9c-0.5-0.1-1.3-0.4-1.4-0.8c-0.6-1.5-1-3.2-1.4-4.7
			c-0.1-0.5-0.4-0.9-0.6-1.4c-0.4,0.5-1.1,0.9-1.1,1.4c0,1.5,0.1,3.1,0.3,4.6c0.4,2.3,1.2,3,3.7,3.3
			C227.1,501.1,228.4,501.1,229.5,501.2z M281.9,115.3c0.1,0.2,0.5,0.8,0.8,1.4c0.3-0.5,0.7-1.1,0.9-1.7c0.9-2.9,1.7-5.7,2.5-8.6
			c0.5-1.7,0.5-3.7,1.5-5.1c1.2-1.8,0.7-3-0.3-4.4c-0.3-0.4-1-0.6-1.6-1c-0.3,0.5-0.8,1-0.9,1.5c-0.9,5.4-1.8,10.7-2.7,16.1
			C282,113.9,282,114.4,281.9,115.3z M156.5,180.1c2.9,0,5.4-1.7,6.3-4.3c0.1-0.4,0.1-1.3-0.2-1.4c-0.5-0.2-1.2-0.2-1.8,0
			c-0.6,0.2-1,0.7-1.5,1.1c-1.4,1.1-3,1.5-4.8,0.8c-0.8-0.3-1.6-0.7-2.4-0.9c-0.4-0.1-0.9-0.1-1.2,0.1c-0.2,0.1-0.1,0.7,0,1
			C151.6,178.4,154.4,180.2,156.5,180.1z M142.8,363.5c-0.1-0.4-0.2-0.9-0.5-1.2c-0.1-0.1-0.8-0.1-1,0.1c-1.6,1.5-3.4,3-3.6,5.3
			c-0.1,0.5,0.3,1.5,0.7,1.7c1.6,0.6,3.4,1.1,5.1,1.5c0.4,0.1,0.9-0.1,1.2-0.4c0.1-0.1,0-0.8-0.2-1
			C142.4,367.9,142,365.9,142.8,363.5z M234.3,136.4c0.1,0.1,0.3,0.1,0.4,0.2c0.1,0.7,0.1,1.5,0.4,2.2c0.2,0.5,0.8,0.8,1.3,1.3
			c0.3-0.5,0.8-0.9,0.9-1.4c0.4-1.4,0.6-2.9,1-4.3c0.4-1.7,1-3.3,1.3-5c0.1-0.5-0.5-1.1-0.8-1.7c-0.5,0.3-1.3,0.6-1.4,1
			C236.3,131.2,235.3,133.8,234.3,136.4z M232.2,496.7c0-0.1,0-0.1,0-0.2c0.8,0,1.8,0.3,2.3-0.1c0.7-0.5,1.2-1.4,1.5-2.2
			c0.1-0.2-0.7-1-1.1-1.1c-2.1-0.3-4.1-0.4-6.2-0.7c-1.3-0.2-1.7,0.3-1.7,1.4c0,1.3,0.6,2.3,2.1,2.6
			C230.1,496.6,231.1,496.6,232.2,496.7z M232.7,528.9c-0.8-2.3-1.3-4.1-2-5.9c0-0.1-1.4,0-1.5,0.3c-0.7,1.3-1.3,2.7-1.6,4.1
			c-0.1,0.6,0.3,1.7,0.8,2c1,0.6,2.3,1,3.6,1.2C232.1,530.7,232.6,529.2,232.7,528.9z M274.1,76.2c-0.2-0.3-0.5-0.8-0.7-0.8
			c-0.5,0.1-1.3,0.2-1.5,0.5c-1.9,2.5-3.8,5-5.6,7.6c-0.2,0.3,0.1,1,0.1,1.5c0.5-0.1,1.2-0.1,1.6-0.3c0.5-0.3,0.9-0.9,1.3-1.4
			c1.5-2.1,2.9-4.1,4.3-6.2C273.8,76.9,273.9,76.6,274.1,76.2z M197.2,459.3c0.6-0.7,1.3-1.2,1.5-1.9c0.3-1,0.9-2.2-0.6-2.9
			c-0.5-0.2-1.2-0.3-1.6-0.7c-1-0.8-1.8-1.2-2.8,0c-1,1.2-1.4,2.5-0.1,3.6C194.4,458.3,195.7,458.6,197.2,459.3z M219.4,200.5
			c1-0.6,1.8-0.9,2-1.3c0.7-1.7,1.3-3.5,1.7-5.3c0-0.2-0.8-0.9-1.2-0.8c-2.1,0.3-4.4,3-4.2,5C217.8,198.9,218.7,199.6,219.4,200.5z
			 M245.3,154.4c0-1.8-0.6-2.4-2-2.5c-1.6,0-2,0.9-1.9,2.2c0,0.4-0.1,0.9,0.1,1.3c0.4,0.7,1,1.4,1.5,2.1c0.7-0.6,1.5-1.2,2.1-1.9
			C245.3,155.2,245.2,154.6,245.3,154.4z M287.8,139.4c1.6-2.8,1.3-5.7-0.5-6.8c-0.4-0.2-0.9-0.3-1.3-0.2c-0.2,0-0.5,0.6-0.5,0.9
			C286.3,135.2,287,137.1,287.8,139.4z M284.1,130.2c0.3-0.1,0.5-0.1,0.7-0.2c-0.5-2.6-1.1-5.3-1.6-7.9c-0.3,0.1-0.5,0.1-0.8,0.2
			C281.7,125.1,283,127.6,284.1,130.2z M229.3,53.3c0.3-0.1,0.6-0.1,0.9-0.2c-0.7-2.4-1.4-4.9-2-7.3c-0.3,0.1-0.5,0.1-0.8,0.2
			C227.1,48.7,228.1,51,229.3,53.3z M207.5,505.2c-0.2-0.5-0.3-1.1-0.5-1.2c-0.4-0.1-1.1,0-1.4,0.3c-0.6,0.6-1.1,1.4-1.3,2.2
			c-0.2,0.6,0.1,1.3,0.2,1.9c0.5-0.3,1.2-0.6,1.6-1C206.6,506.8,207,506,207.5,505.2z M224.2,39.8c0.3,0,0.7-0.1,1-0.1
			c-0.2-1.8-0.4-3.6-0.6-5.4c0-0.2-0.7-0.6-0.9-0.5c-0.3,0.1-0.8,0.6-0.8,0.9C223.3,36.4,223.7,38.1,224.2,39.8z M70.7,222.7
			c-0.8-1.1-1.4-1.9-2-2.8c-0.5,0.5-1.5,1.2-1.4,1.4c0.5,0.9,1.2,1.6,2,2.4C69.3,223.7,70,223.2,70.7,222.7z M166.8,168.2
			c0.3,0,0.6,0,1,0c0.1-1.2,0.3-2.4,0.2-3.5c0-0.3-1-0.6-1.5-0.9c-0.1,0-0.7,0.6-0.6,0.9C166.1,165.9,166.5,167.1,166.8,168.2z
			 M288.8,143.3c-0.3,0-0.5,0-0.8,0c0.1,1.3,0.2,2.6,0.2,3.9c0.4-0.1,1.2,0,1.3-0.2C289.9,145.6,290,144.3,288.8,143.3z
			 M233.7,196.5c-1.7,1.7-1.9,4.4-0.3,5.5C233.5,200.2,233.6,198.4,233.7,196.5z M163.6,160.3c0.3-0.1,0.5-0.2,0.8-0.3
			c-0.3-1.1-0.6-2.2-0.9-3.3c-0.5,0.2-1.4,0.4-1.5,0.8C161.7,158.8,162.5,159.7,163.6,160.3z M256.4,189.5c-0.2-0.1-0.4-0.1-0.6-0.2
			c-0.4,0.4-1,0.9-1.1,1.4c-0.1,0.6,0,1.4,0.2,2.1c0,0.1,0.9,0.3,1,0.2c0.4-0.5,0.7-1.1,0.8-1.8
			C256.8,190.6,256.5,190.1,256.4,189.5z M288.7,149.5c0,1.4,0,2.8,0,4.2C290,152.3,290.1,150.9,288.7,149.5z M236.3,533.5
			c-1.1-0.5-1.7-0.9-2.3-1.1c-0.3-0.1-0.6,0.5-1,0.8c0.5,0.5,0.9,1.1,1.5,1.3C234.8,534.6,235.4,534.1,236.3,533.5z M68.1,387.2
			c0.2-0.2,0.4-0.5,0.6-0.7c-0.7-0.5-1.4-1.1-2-1.6c-0.2,0.3-0.6,0.9-0.5,1C66.7,386.3,67.4,386.7,68.1,387.2z M275.9,79.9
			c0.3-0.2,0.6-0.4,0.9-0.6c-0.5-0.6-1-1.1-1.5-1.7c-0.2,0.2-0.7,0.5-0.6,0.5C274.9,78.7,275.4,79.3,275.9,79.9z M237.6,201.8
			c0.3,0,0.6,0,0.9,0.1c0.1-0.8,0.1-1.7,0.2-2.5c-0.3,0-0.6,0-0.8-0.1C237.7,200.1,237.6,201,237.6,201.8z M205.2,153.2
			c-0.7-0.6-1.2-1-1.7-1.4c-0.1,0-0.6,0.5-0.6,0.5c0.4,0.5,0.8,1,1.2,1.5C204.1,153.8,204.6,153.5,205.2,153.2z M162.4,164
			c0.3-0.2,0.5-0.3,0.8-0.5c-0.4-0.5-0.8-1.1-1.2-1.6c0,0-0.5,0.2-0.7,0.4C161.7,162.8,162,163.4,162.4,164z"/>
		<path d="M195.7,524.1c-3.4,1.5-6.8,3-10.2,4.6c-3.7,1.8-7.4,3.5-9.6,7.1c-0.7,1.2-2.1,2.1-3.3,2.8c-3,1.6-6,3.2-9.2,4.4
			c-2.3,0.9-4.9,1.4-7.4,1.8c-5.1,0.9-10.3,1.5-15.5,0.6c-2.8-0.5-5.4-1.1-6.5-4.1c-0.5-1.4-1.8-2.4-3.6-2.5c-0.5,0-1.1-0.4-1.6-0.5
			c-0.9-0.2-1.9-0.6-2.8-0.7c-6.8-0.1-13.5,0.1-20.3-0.3c-2.7-0.1-5.4-1.3-8.1-2.1c-1-0.3-2-0.7-3-0.9c-2.9-0.7-5.5-0.7-7.3,2.1
			c-0.3,0.5-0.9,0.8-1.3,1.2c-0.1-0.1-0.3-0.2-0.4-0.3c0.4-0.7,0.9-1.4,1.3-2.1c1-1.6,0.8-2.3-1-2.8c-3.9-1-7.8-2.1-11.8-2.9
			c-1.7-0.3-3.5,0.1-5.3,0.2c-0.5,0-1.1,0.1-1.7,0c3.2-2.7,6.2-5.7,11.1-5.1c3.6,0.5,7.1,0.5,10.7-0.7c1.8-0.6,4.1-0.3,6.1,0.1
			c2.8,0.6,6.1-0.5,7.4-2.9c0.8-1.4,0.4-2.3-1.3-2.5c-2.9-0.3-5.3-1.2-6.7-3.9c-0.4-0.8-1.6-1.5-2.6-1.8c-2.4-0.8-4.8-1.2-7.2-1.8
			c-0.7-0.2-1.3-0.7-2-1.1c0.6-0.4,1.2-1.1,1.9-1.3c1-0.3,2.1-0.2,3.3-0.3c0.1-0.3,0.3-0.6,0.3-1c0.2-1.3,1-1.7,2.3-1.2
			c4.2,1.6,8.5,1.8,13,0.9c3.3-0.7,6.7-1,10.1-1.6c5.3-1,9.8-3.7,14.1-6.5c4.5-2.9,9.1-4.1,14.5-3.7c2.4,0.2,5-0.8,7.4-1.5
			c1.2-0.4,0.9-1.1,0-1.7c-2.9-2-6-2.9-9.6-2.6c-2.6,0.2-5.3,0.4-7.9,0.5c-3.1,0-5.4,1.4-7.7,3.2c-4.6,3.5-10.5,5.5-15.3,1.4
			c-2.2-1.9-5.1-2.4-8.1-1c-0.5,0.2-1.3-0.2-1.9-0.3c0.3-0.6,0.5-1.5,1-1.7c2-0.7,4.2-1.1,6.3-1.5c0.4-0.1,0.9,0.3,1.3,0.6
			c1.5,1,3,2,4.5,3c2.1,1.2,4.4,1.5,6.5,0.2c2-1.2,3.9-2.5,5.7-3.9c0.9-0.7,1-1.8-0.6-1.9c-2.9-0.2-5.9-0.3-8.8-0.4
			c-2.1-0.1-4.2-0.3-6.3-0.2c-2.5,0.1-5,0.5-7.6,0.8c-0.6,0.1-1.2,0.4-1.7,0.3c-0.4,0-0.9-0.5-1.1-0.8c-0.1-0.2,0.2-0.9,0.6-1
			c0.5-0.3,1.2-0.5,1.9-0.5c6.2-0.1,12.4-0.2,18.5-0.3c2.1,0,4.2,0.2,6.3,0.2c1.4,0,2.5-0.4,2.5-2c0-1.9,1.2-2.2,3.1-2.1
			c-0.5,0.5-0.9,0.8-1.1,1.2c-0.8,1.3-0.1,2.7,1.5,2.8c1.5,0.1,3.1,0.3,4.5,0c0.9-0.1,1.7-1,2.5-1.6c0.4-0.3,0.8-0.7,1.2-1.1
			c0.3,0.4,0.4,0.9,0.8,1.2c0.4,0.4,0.9,0.8,1.3,0.8c8.2,0,16.4,0.1,24.6-0.2c1.9-0.1,4-1,5.4-2.6c0.3-0.4,1-0.5,1.7-0.9
			c-0.1,3-0.1,3.1,2.9,3c7.2-0.3,14.4-0.8,21.6-1.1c3.2-0.1,6.4,0.1,9.6,0.3c0.4,0,0.7,0.6,1.1,0.9c-0.3,0.3-0.6,0.9-1,1
			c-0.7,0.3-1.5,0.4-2.3,0.4c-8.7,0.2-17.4,0.3-26,0.5c-4.2,0.1-8.4,0-12.6,0.1c-4.5,0.1-8.9,0.5-13.4,0.6c-1.9,0.1-3.8,0-5.8,0.3
			c3,1.8,5,5,9.1,5c0.7,0,1.7,0,2,0.4c1.5,1.6,3.3,1.1,5.1,1c2.4-0.1,4.8,0.1,7.3,0.1c0.8,0,1.6-0.1,2.3-0.3c2.5-0.8,5-1.8,7.5-2.5
			c1.9-0.6,3.8-1.2,5.7-1.4c1.8-0.2,3.8,0,5.6,0.3c0.6,0.1,1.1,0.9,1.6,1.5c0.2,0.2,0.2,0.8,0,1c-0.2,0.2-0.7,0.2-1,0.2
			c-8-1.7-14.9,0.6-21,5.3c-1.4,1.1-2.1,3-3.1,4.4c-1.3,1.9-2.7,3.8-4.2,5.5c-0.3,0.4-1.2,0.2-1.9,0.3c0.1-0.6,0.1-1.2,0.4-1.6
			c1.9-2.9,3.9-5.7,5.7-8.6c0.3-0.5,0.5-1.5,0.2-1.8c-0.3-0.4-1.3-0.4-1.9-0.4c-1.1,0.1-2.2,0.5-3.3,0.5c-1.9,0-3.9,0.1-5.5-0.6
			c-2.6-1.1-5.1-1-7.4,0c-3.5,1.6-7.1,2-10.9,1.7c-3.6-0.3-6.7,0.6-9.6,2.7c-1.4,1.1-3.2,1.8-4.7,2.7c-0.4,0.2-0.7,0.6-1.1,1
			c0.4,0.3,0.7,0.8,1.1,0.9c1.6,0.4,2.3,1.4,2.8,2.9c0.9,2.5,2.2,4.3,5.5,4.2c2.8-0.1,5.6,0.6,8.4,0.5c2.1-0.1,4.2-1,6.3-1.5
			c0.6-0.2,1.3-0.4,1.9-0.3c3.4,0.8,6.8,0,10.1-0.5c2.2-0.3,4.3-1.1,6.5-1.4c2.4-0.4,4.8-0.6,7.2-0.8c0.6-0.1,1.4,0.1,2-0.1
			c6.8-2.3,13.4,0.1,20,0.9c1.5,0.2,2.9,2.3,2.7,3.7c0,0.4-0.3,0.9-0.6,1c-0.3,0.1-1-0.1-1.2-0.4c-2-3.1-5.5-2.8-8.6-3.3
			c-2.4-0.4-4.8-0.4-7.3-0.6c-2.6-0.2-3.6,0.8-3.3,3.2c0.3,2.7,0.4,5.5-1,8c-0.1,0.2-0.3,0.5-0.2,0.7c1.4,2.3,2.8,4.7,4.3,6.9
			c0.2,0.2,1.4,0.1,2-0.1c3.5-1.3,7-2.7,10.6-4.1c0.6-0.2,1.3-0.3,2-0.5C195.5,523.6,195.6,523.9,195.7,524.1z M113.2,525.4
			c1.5,0.2,3.7,0.2,5.6,0.8c4.1,1.1,8.2,1.5,12.3,0.7c6.7-1.4,13.4-1.1,20.2-1.2c7-0.1,14.2,0.1,20.6-3.6c2-1.1,3.1-2.6,3.6-4.6
			c0.4-1.9,0.5-3.9-1.7-5.1c-0.3-3.2-2.7-1.7-4.4-1.6c-0.6,0-1.3,0.4-1.9,0.5c-4.9,0.7-9.7,1.5-14.6,2.1c-2.3,0.3-4.6,0.1-6.8,0.6
			c-4.5,1.1-8.9,1.6-13.4,0.4c-2.9-0.7-5.8-0.5-8.5,0.8c-3.7,1.8-7.4,1.6-11.3,0.2c-0.9-0.3-2.3,0-3.2,0.5c-1.3,0.8-2.3,2-3.4,3
			c-1.7,1.5-1.5,3.5,0.2,5C108.5,525.5,110.4,526,113.2,525.4z M149.9,544.5c0,0.1,0.1,0.1,0.1,0.2c2.5-0.5,5.1-1,7.6-1.6
			c5.2-1.4,10.5-2.8,14.9-5.9c0.9-0.6,1.6-1.6,2.5-2.4c1.2-1.2,2.3-2.5,3.7-3.5c1.2-0.9,1.4-1.5,0.4-2.6c-0.9-1-1.9-2.1-2.6-3.2
			c-1.4-2.3-1.5-2.4-4.1-1.3c-4.9,2.1-9.8,3.7-15.3,3.2c-1.8-0.2-3,0.5-4.4,1.7c-2.3,2-5.1,3.7-7.9,5c-2.8,1.3-5.9,2-9,2.8
			c-1.1,0.3-1.5,0.8-1,1.9c1.5,3.9,4.6,5.5,8.8,5.6C145.5,544.6,147.7,544.5,149.9,544.5z M151.1,527.9c-1.6-0.1-2.5-0.2-3.5-0.3
			c-5.1-0.2-10.2-0.3-15.3,0.7c-3.4,0.7-7.3,0.8-10.7,0.1c-2.9-0.5-5.9-1.2-8.7-0.8c-3.3,0.5-5.8-0.5-8.1-2.3
			c-1.2-0.9-2.3-0.9-3.4,0c-2,1.6-4.1,1.4-6.5,0.7c-1.5-0.5-3.2-0.5-4.8-0.5c-1.9,0.1-3.7,0.7-5.6,0.8c-2.3,0.1-4.6-0.1-6.9-0.1
			c-0.4,0-0.8,0.3-1.2,0.4c0.3,0.4,0.4,0.9,0.8,1.1c1.1,0.5,2.4,0.6,3.3,1.2c3,2.2,6.6,2.1,10.1,2.5c1.6,0.2,3.1,0.7,4.7,1.2
			c3.3,0.9,6.4,2.3,9.7,2.8c4.5,0.6,9.2,0.5,13.7,0.9c6.1,0.4,12.1,0.1,18-1.5c4.2-1.1,8.5-2.1,12-4.9
			C149.5,529.5,150.1,528.8,151.1,527.9z M90.7,509.3c0,0.2,0,0.4-0.1,0.7c0.5,0.2,1,0.5,1.6,0.6c2.3,0.6,4,1.8,5.2,3.7
			c2.3,3.4,7.6,3.6,10.4,0.5c1.6-1.8,4.2-2.8,6.2-1.8c4.4,2.3,8.2,1.3,12-1.1c1.1-0.6,1.2-1.2,0.6-2.1c-0.7-0.9-1.2-2.3-2.1-2.5
			c-1.8-0.5-3.9-1-5.6-0.6c-4.8,1.2-9.5,2.4-14.5,2.4c-3.4,0-6.8,0.1-10.2,0.1C92.9,509.3,91.8,509.3,90.7,509.3z"/>
		<path d="M185.2,307c-0.5,0.9-1,1.4-1,1.8c-0.7,4.7-2.8,9-4.4,13.5c-0.8,2.4-0.9,5-1.6,7.4c-1,3.4-1.9,6.8-3.4,10
			c-1,2.1-2.9,3.8-4.6,5.5c-2.8,2.9-5.1,6-4.8,10.2c0,0.6-0.9,1.4-1.5,2c-0.4-0.7-1-1.4-1.1-2.1c-0.5-4.8,1.2-8.8,5-12.1
			c4.7-4.2,6.9-9.6,7.6-15.7c0.5-3.5,2.1-6.8,3.3-10.3c0.5-1.4,1.2-2.8,1.5-4.2c0.7-4.1,3.1-7.7,2.8-12c-0.2-2.6,0.8-5.4,1.4-8
			c0.4-2.1,0.8-4.3,1.3-6.4c0-0.2,0.1-0.5,0.1-0.5c-1.4-1.1-2.7-2.2-4.2-3.1c-0.5-0.3-1.6,0.1-2.3,0.3c-1.2,0.4-2.3,1.1-3.5,1.5
			c-1.5,0.5-2.7,0-3-1.7c-0.1-0.5-0.7-0.9-1.1-1.3c-0.3,0.6-0.9,1.2-0.8,1.8c0.3,2.8,0.9,5.5,1.2,8.2c0.5,4.2-1.1,7.8-3.8,11
			c-0.8,0.9-1.5,1.8-2.4,2.5c-0.4,0.3-1.1,0.2-1.6,0.3c-0.1-0.5-0.3-1.1-0.1-1.5c0.5-1.1,1-2.4,1.9-3.2c2.9-2.4,3.3-5.6,3.1-8.8
			c-0.1-3.1-0.8-6.3-1.2-9.4c-0.1-0.7-0.2-1.5-0.1-2.2c0.2-1.6,1.9-2.8,3.2-2c1.5,0.8,3,2,4,3.3c0.8,1,1.3,1,2.2,0.5
			c0.3-0.2,0.6-0.4,1-0.6c2.8-1.8,3-1.4,6-0.1c4,1.7,4.8,4.4,4,8c-0.2,1.1-0.6,2.1-0.9,3.2c-0.8,2.2-1,4.3,0.4,6.5
			c0.9,1.5,1,3.5,1,5.3c0,2.1-0.4,4.2,1,6.1c0.3,0.5-0.2,1.4-0.4,2.1c-0.7-0.4-1.6-0.5-2-1.1C186.4,310.4,186,309,185.2,307z"/>
		<path d="M332.6,480.5c-1.8,1.6-3.3,2.4-5.5,2.2c-4.3-0.4-8.5-0.6-12.8-0.7c-1.9-0.1-4.6,3.6-4,5.4c0.2,0.5,0.9,1,1.4,1.1
			c4.1,0.9,8.2,1.7,12.3,2.6c2.4,0.5,4.9,1,7.3,1.6c0.3,0.1,0.6,0.4,0.6,0.6c0,0.3-0.3,0.8-0.6,0.8c-1.1,0.1-2.2,0.3-3.3,0.2
			c-7.6-1.1-15.1-2.5-22.7-3.4c-2.8-0.4-5.3,1.2-6.7,3.4c-2.2,3.4-5.9,4.2-9.2,5.7c-0.5,0.2-1.4-0.3-2.1-0.5
			c0.2-0.6,0.3-1.3,0.7-1.8c0.8-1,1.9-1.3,3.3-1.5c1.7-0.2,3.4-1.4,4.8-2.5c2.5-1.8,4.7-3.8,7.2-5.7c0.5-0.4,1.5-0.5,2.3-0.5
			c2.2-0.1,3.7-1.3,3.6-3.3c0-0.3-0.9-0.9-1.2-0.9c-5.8,1.3-11.7,1-17.6,1c-3.2,0-6.4,0.1-9.6-0.4c-0.8-0.1-2.1-0.5-2.1-1
			c-0.3-1.3,1-1.6,2.1-1.6c4.2-0.1,8.4-0.1,12.6-0.1c2.9,0,5.8,0.3,8.7,0.1c2-0.1,4-0.9,6.1-1.4c0.8-0.2,1.6-0.6,2.5-0.6
			c6.6,0,13.3-0.7,19.9,0.6C331.1,480,331.7,480.2,332.6,480.5z"/>
		<path d="M226.4,423.2c-0.5,2.3-1,4.7-1.5,7c-0.5-0.1-0.7-0.2-0.7-0.2c-0.3-3.4-1.4-7-0.7-10.3c0.4-2,1.2-4.3,1.9-6.9
			c0.6,0.7,1,0.9,1.1,1.3c1,2.6,2.9,4.9,2.6,7.8c0,0.5,0.1,1.1,0.4,1.4c1.8,2.3,1.8,5.1,2.2,7.8c0.8,5,1.5,9.9,2.3,14.9
			c0.2,1.2,0,2.5-0.2,3.8c-2.2-7.5-2.3-15.3-3.9-22.9c-0.2,0-0.4,0-0.5,0c-0.1,0.7-0.4,1.4-0.3,2.1c0.5,5.3,1,10.6,1.5,15.9
			c0.1,1.6,0.2,3.2,0.3,4.8c-0.3,0-0.6,0-0.8,0.1c-0.4-2.9-0.9-5.8-1.3-8.7c-0.4-3-1-6-1.2-9c-0.1-3,0.3-6-0.6-8.9
			C226.8,423.3,226.6,423.2,226.4,423.2z"/>
		<path d="M86.5,290.9c-0.5,0.4-0.9,0.9-1.4,1.2c-0.7,0.3-1.5,0.3-2.3,0.4c-0.1-0.8-0.6-1.6-0.3-2.2c0.4-0.8,1.3-1.5,2.1-1.8
			c2.8-0.8,5.6-1.5,8.4-1.9c1.2-0.2,2.8,0,3.8,0.6c2.8,1.8,5.3,1,7.6-0.6c1.9-1.3,3.5-2.9,5.4-4.3c0.6-0.4,1.6-0.5,2.4-0.7
			c-0.1,0.8,0.3,2-0.2,2.4c-2.8,2.8-5.9,5.3-9.7,6.9c-2.1,0.8-4.1,0.3-6.2-0.3c-1-0.3-2-0.7-3-0.7c-0.7,0-1.6,0.5-2.2,1
			c-1.1,0.9-2,1.9-2.9,2.9c-0.7,0.8-1.3,1.8-2.1,2.7c-0.4,0.5-1,0.8-1.5,1.1c-0.2-0.6-0.7-1.3-0.5-1.8c0.4-1.1,1.2-2,1.8-3
			c0.4-0.5,0.8-1.1,1.2-1.6C87,291.1,86.7,291,86.5,290.9z"/>
		<path d="M136.4,135.3c2-0.9,4.3-3.9,8.4-3.6c-0.2,2.5-3.8,1.8-4.3,4c1.4,0.7,2.4-2.4,3.4-0.8c-0.8,2-1.3,3.5-2,4.9
			c-0.2,0.3-1.1,0.6-1.4,0.5c-0.8-0.4-1.5-1-2-1.7C137.7,137.6,137.1,136.4,136.4,135.3z"/>
		<path d="M182.6,162.5c1.6,1.1,2.9,2,4.2,2.8c0.5,0.3,1.2,0.4,1.8,0.6c0-0.6,0.3-1.3,0.1-1.9c-0.7-2.2-2.4-3.3-4.8-3.6
			c1.2-0.8,2.6-0.9,3.8,0c0.8,0.6,1.6,1.4,2,2.2c1.3,2.8,1.5,5.8,0.9,8.7c-0.1,0.7-1.2,1.8-1.7,1.8c-1.4-0.1-1-1.3-0.7-2.2
			c0.6-2.1-0.2-3.5-2.5-4.8C183.3,165,182.8,164.4,182.6,162.5z"/>
		<path d="M184.8,127.3c5-0.1,7.5,3,9.6,6.6c0.2,0.4,0.3,1,0.2,1.4c-0.1,0.4-0.5,0.8-0.8,1.1c-0.4-0.3-0.9-0.5-1.2-0.8
			c-1.6-1.8-3.1-3.8-5-5.4c-0.8-0.7-2.3-0.8-3.5-1.1c-0.6-0.2-1.3-0.4-1.9-0.6c0.6-0.4,1.2-0.9,1.8-1.2
			C184.2,127.2,184.5,127.3,184.8,127.3z"/>
		<path d="M175.9,161.1c2.3,0.8,4.2,4.2,3.9,6.8c-0.1,1.1-0.5,2.3-1.3,3c-0.8,0.6-2.1,0.6-3.5,0.9c0-2.1,0-4.1,0-6.2
			c0-0.3,0-0.8,0.2-0.9C176.9,163.8,176.6,162.6,175.9,161.1z M176.4,170.1c2.4-1.5,2.5-3.6,0.3-5.4
			C176.6,166.6,176.5,168.1,176.4,170.1z"/>
		<path d="M237.5,484.5c-1.6-1.6-1.3-13.4,0.4-15.9C239,470.3,238.7,483,237.5,484.5z"/>
		<path d="M191.9,274.5c-0.1-0.1-0.7-0.2-0.7-0.4c0-0.4,0.3-0.7,0.5-1.1c0.1-0.1,0.2-0.2,0.3-0.2c3.8-0.7,6.2-3,8.4-5.7
			c0.3-0.4,1.2-0.4,1.9-0.6c0.1,0.4,0.4,1,0.2,1.3C201.5,270.6,195.4,274.5,191.9,274.5z"/>
		<path d="M233.7,460.3c0.3,4.8,1.4,9.6,0.9,14.8C232.7,473.1,232,461.9,233.7,460.3z"/>
		<path d="M188.3,141.7c-0.4-0.5-0.8-0.7-0.9-1c-0.6-1.1-1.5-2.3-1.5-3.4c0-1,1.1-2,1.9-2.8c0.1-0.1,1.4,0.4,1.8,0.9
			c0.8,1.1,2,2.4-0.1,3.5c-0.4,0.2-0.3,1.1-0.5,1.7C188.9,141,188.6,141.3,188.3,141.7z"/>
		<path d="M174.2,200.9c1.2,0.6,2.5,1.1,3.7,1.8c0.3,0.2,0.2,1,0.2,1.5c-0.5-0.1-1.2,0.1-1.5-0.2c-1-0.8-1.8-1.3-3.1-0.8
			c-0.5,0.2-1.2,0-1.8-0.1c-0.2-0.1-0.3-0.8-0.2-0.9c0.5-0.4,1.1-0.6,1.6-0.8c0.3-0.1,0.6,0,1,0
			C174.1,201.2,174.1,201.1,174.2,200.9z"/>
		<path d="M206.2,481.4c-2.9-0.1-3.8-0.7-3.8-2.3c0-0.4,0.2-0.9,0.5-1.1c0.3-0.1,0.8,0.2,1.2,0.4c0.7,0.4,1.4,0.8,2.1,1.3
			c0.4,0.3,0.7,0.6,1,1C206.8,481.1,206.4,481.3,206.2,481.4z"/>
		<path d="M195.3,160.1c2.7,0.9,4.7,3.6,4.8,6.8C198.4,164.4,196.9,162.4,195.3,160.1z"/>
		<path d="M173.4,173.5c-0.2,0.9-0.3,1.9-0.6,2.8c-0.2,0.5-0.7,0.9-1.1,1.3c-0.1,0.1-0.7-0.2-0.7-0.4c-0.1-0.6-0.2-1.4,0.1-1.9
			c0.4-0.8,1.2-1.4,1.8-2.1C173,173.3,173.2,173.4,173.4,173.5z"/>
		<path d="M219.3,483.5c-0.6,0.4-0.9,0.7-1.3,1c-0.5-1-1.1-2-1.5-3c-0.1-0.2,0.4-0.6,0.6-0.9C217.9,481.5,218.5,482.4,219.3,483.5z"
			/>
		<path d="M150.8,130.8c-1,1.2-2.2,0.7-3.4,0.1c0-0.2,0-0.4-0.1-0.6c1.1-0.1,2.3-0.2,3.4-0.2C150.8,130.4,150.8,130.6,150.8,130.8z"
			/>
		<path d="M225.4,482.4c0.2,0.7,0.5,1.5,0.7,2.2c-0.3,0.1-0.9,0.3-0.9,0.3c-0.3-0.7-0.5-1.5-0.8-2.2
			C224.8,482.6,225.1,482.5,225.4,482.4z"/>
		<path d="M215.9,483.9c-0.7,0.3-1.1,0.6-1.3,0.5c-0.5-0.2-1-0.6-1.4-1c0.3-0.3,0.6-0.8,0.8-0.7
			C214.5,482.9,214.9,483.3,215.9,483.9z"/>
		<path d="M198.4,465c-0.7,0.4-1.1,0.9-1.5,0.9c-0.3,0-0.9-0.6-0.8-0.9c0.1-0.4,0.6-0.8,0.9-0.9C197.4,464.1,197.8,464.6,198.4,465z
			"/>
		<path d="M236.3,463.3c0-0.8,0-1.6,0-2.5c0.2,0,0.5,0,0.7,0c0,0.8,0.1,1.6,0.1,2.5C236.8,463.3,236.6,463.3,236.3,463.3z"/>
		<path d="M184.7,122.4c1.4-0.5,2.8-0.9,4.1-1.4c0.1,0.2,0.1,0.4,0.2,0.6c-1.4,0.4-2.8,0.8-4.2,1.3
			C184.8,122.7,184.7,122.6,184.7,122.4z"/>
		<path d="M164.2,124.7c0.7,0.2,1.4,0.5,2.2,0.7c-0.1,0.2-0.2,0.5-0.3,0.8c-0.7-0.2-1.4-0.4-2.1-0.7
			C164.1,125.2,164.1,125,164.2,124.7z"/>
		<path d="M157.6,130c-1.1,0-2.3,0-3.5,0c0-0.1,0-0.2,0-0.3c1.1,0,2.3,0,3.5,0C157.6,129.8,157.6,129.9,157.6,130z"/>
		<path d="M256,499.9c-0.2-1.9,0.7-3.1,2.6-3.5c2.3-0.5,3.8-1.9,4.4-4.1c0.2-0.6,0.4-1.3,0.8-1.6c0.6-0.4,1.4-0.5,2.1-0.8
			c0.3,0.8,1,1.8,0.7,2.2c-1.5,2.3-3.3,4.5-5.1,6.8c-0.8,1-1.7,1.8-2.3,2.9c-1.2,2.2-3.1,3.6-5.5,3.6c-2.3,0-3.5-1.2-3.8-3.4
			c-0.3-1.9-0.7-3.8-1.1-5.7c-0.4-2.1-0.5-4.3,1.1-6c0.5-0.6,1.7-0.6,2.5-0.9c-0.1,0.8,0.1,1.7-0.3,2.2c-1.3,1.6-1.2,3.2-0.7,4.9
			c0.4,1.4,0.8,2.8,1.1,4.1c0.2,1,0.4,2.1,1.9,1.9c1.3-0.2,1.7-1.1,1.5-2.2C256,500.2,256,500.1,256,499.9z"/>
		<path d="M267.4,495.7c0-2,0.7-2.6,2.1-2.5c1.1,0,2.1,0.3,2,1.5c-0.1,1.2-0.5,2.6-2.1,2.4C268.5,497,267.8,496,267.4,495.7z"/>
		<path d="M73,458.9c-0.1,1.2,0,1.9-0.2,2.6c-1,4.4-2.1,8.7-3,13c-0.5,2.2,0,4.5-1.7,6.5c-0.6,0.7-0.4,1.9-0.6,2.9
			c-0.1,0.7-0.3,1.3-0.6,2C66.2,482.2,70.9,460.8,73,458.9z"/>
		<path d="M74.3,433.2c0-0.5,0-1.1,0-1.6c0.3-5.7,0.7-11.4,1.1-17c0.1-0.8,0.5-1.6,0.8-2.4c0.3,0.8,1,1.7,0.9,2.5
			c-0.5,5.6-1.1,11.2-1.8,16.8c-0.1,0.6-0.3,1.3-0.5,1.9C74.7,433.3,74.5,433.2,74.3,433.2z"/>
		<path d="M71.7,421.5c-0.3,7.7-3,14.9-4,22.4c-0.4-0.1-0.7-0.1-1-0.2c0.5-2.5,1-4.9,1.5-7.4c0.5-2.6,0.8-5.2,1.4-7.7
			C70.1,426.3,69.6,423.5,71.7,421.5z"/>
		<path d="M59,504.9c-1.1-2.1,0.4-17.6,2.5-20.4c-0.6,6.8-1.2,13.6-1.9,20.4C59.4,504.8,59.2,504.8,59,504.9z"/>
		<path d="M67.6,456c0.8,3.4,0.3,6.4-2.6,9c0.7-3.2,1.3-6.2,1.9-9.2C67.1,455.9,67.3,456,67.6,456z"/>
		<path d="M64.4,453.7c0.5-2.6,1.1-5.3,1.6-7.9c0.3,0,0.5,0.1,0.8,0.1c0.9,2.9-0.6,5.3-1.4,7.9C65.1,453.9,64.8,453.8,64.4,453.7z"
			/>
		<path d="M71.3,442.2c-0.4,1.2-0.8,2.4-1.3,3.6c-0.3-0.1-0.6-0.2-1-0.3c0.4-1.2,0.7-2.4,1.1-3.6C70.6,442,70.9,442.1,71.3,442.2z"
			/>
		<path d="M74.9,436.4c-0.3,1.2-0.6,2.4-0.9,3.6c-0.2,0-0.4-0.1-0.6-0.1c0.2-1.2,0.4-2.4,0.7-3.6C74.3,436.3,74.6,436.3,74.9,436.4z
			"/>
		<path d="M209.3,420.4c1.1-1.4,2-2.6,2.9-3.8c0.9,0.9,0.9,3-0.2,4.1C210.9,421.7,210,420.9,209.3,420.4z"/>
		<path d="M215,433.8c-0.4,0.4-0.7,0.7-1,1c-0.3-0.4-1-0.9-0.9-1.1c0.6-1.2-0.1-1.9-0.9-2.8c-0.3-0.3-0.2-0.9-0.2-1.4
			c0.5,0.2,1.1,0.4,1.3,0.7C213.9,431.3,214.4,432.5,215,433.8z"/>
		<path d="M214.8,426.4c-0.4-0.5-0.7-0.8-0.9-1.1c0.3-0.2,0.6-0.6,1-0.7c0.2,0,0.7,0.4,0.7,0.6C215.6,425.6,215.2,425.9,214.8,426.4
			z"/>
		<path d="M115.1,57.1c3.4,0,8,3.9,8.3,6.6c0.1,0.6-0.4,1.2-0.6,1.8c-0.5-0.3-1.2-0.6-1.6-1c-1.6-2.1-2.9-4.5-6.1-4.8
			c-0.4,0-1-1-1-1.5C114.1,57.6,114.9,57.2,115.1,57.1z"/>
		<path d="M116.3,70.9c-3.2-0.2-5.2-1.8-5.5-4.2c0-0.4,0.2-0.9,0.4-1.3c0.5,0.2,1.3,0.3,1.4,0.6c0.7,1.7,2,2.5,3.8,3
			c0.4,0.1,0.6,0.8,1,1.2C116.9,70.5,116.5,70.8,116.3,70.9z"/>
		<path d="M164.6,382.4c-6.3,0.1-12.6-0.1-18.7-1.9C152.2,380.1,158.5,380.1,164.6,382.4z"/>
		<path d="M172.9,388.7c-5.5,0.4-11,0.5-16.8-1.3c0.8-0.5,1.2-1.1,1.6-1c2,0.1,4-0.6,5.8,0.8c0.6,0.5,1.6,0.6,2.4,0.7
			C168.2,388.2,170.6,388.4,172.9,388.7z"/>
		<path d="M193.2,391.3c6.1,0.3,12.3-0.7,18.4,0c0,0.2,0,0.4,0,0.5c-6.1,0-12.3,0-18.4,0C193.2,391.7,193.2,391.5,193.2,391.3z"/>
		<path d="M143.6,381.9c2.7,0.5,5.3,1,8,1.5C149.7,384.7,144.7,383.7,143.6,381.9z"/>
		<path d="M220.1,392.2c3.1,0,6.3,0,9.4,0c0,0.2,0,0.4,0,0.5c-3.1,0-6.3,0-9.4,0C220.1,392.6,220.1,392.4,220.1,392.2z"/>
		<path d="M80.8,378.2c-1.8-0.2-3.5-0.3-5.3-0.5c-0.2,0-0.5-0.5-0.4-0.7c0-0.2,0.3-0.5,0.6-0.6C77.2,375.5,79.4,376.1,80.8,378.2z"
			/>
		<path d="M76.8,387.7c1.2-1.3,4.3-1.4,5.2-0.7c0.2,0.2,0.4,0.6,0.3,0.7c-0.1,0.2-0.5,0.5-0.8,0.4C80,388,78.4,387.8,76.8,387.7z"/>
		<path d="M79.6,382.8c-1.3,0-2.7,0.1-4,0c-0.2,0-0.5-0.4-0.5-0.7c0-0.2,0.4-0.6,0.6-0.6c1.3,0,2.6,0.1,3.9,0.2
			C79.6,382.1,79.6,382.5,79.6,382.8z"/>
		<path d="M112.1,251.4c-0.1-0.4-0.5-1.1-0.2-1.4c1.5-1.7,3.2-3.4,4.9-4.9c0.5-0.5,1.6-0.8,1.7,0.5
			C118.6,246.8,114.1,251.3,112.1,251.4z"/>
		<path d="M115.2,256.1c-0.9,0.7-1.6,1.2-2.3,1.6c-0.1,0-0.9-0.8-0.8-0.9c0.5-0.6,1.1-1.2,1.8-1.8
			C113.9,255,114.5,255.5,115.2,256.1z"/>
		<path d="M83.9,213.7c-0.9-0.1-1.6-0.1-1.9-0.3c-0.5-0.4-0.8-0.9-1.2-1.4c0.6-0.1,1.1-0.3,1.7-0.3c0.4,0,0.8,0,1.1,0.2
			c0.7,0.2,1.3,0.6,1.9,0.9C84.9,213,84.3,213.4,83.9,213.7z"/>
		<path d="M274.5,192.7c-1.1,0.1-2.2,0.2-3.3,0.2c-1.7,0.1-2.8-0.5-2.9-2.3c0-0.7-0.1-1.5-0.2-2.2c-0.5-3.1-0.3-3.5,3-3.7
			c2.3-0.2,4.5,0.1,6.8,0.5c1.3,0.2,1.8,1.2,1.6,2.4c-0.1,0.5-0.2,1-0.2,1.5C278.6,192.9,278.6,192.9,274.5,192.7z"/>
	</g>
</g>
</svg>
