<svg xmlns="http://www.w3.org/2000/svg" viewBox="0 0 694.64 292.95"><defs><style>.cls-1,.cls-2,.cls-6,.cls-7,.cls-8{fill:none;}.cls-1,.cls-2,.cls-5,.cls-6,.cls-7,.cls-8{stroke:#000;}.cls-1{stroke-linecap:round;stroke-linejoin:round;stroke-width:3.77px;}.cls-2,.cls-5,.cls-6,.cls-7,.cls-8{stroke-miterlimit:10;}.cls-2{stroke-width:3.77px;}.cls-3{font-size:47px;font-family:Rye-Regular, Rye;}.cls-4{font-size:38px;font-family:AveriaSerifLibre-Regular, Averia Serif Libre;}.cls-5,.cls-6{stroke-width:2px;}.cls-7{stroke-width:1.42px;}.cls-8{stroke-width:2.28px;}</style></defs><g id="Layer_2" data-name="Layer 2"><path class="cls-1" d="M577.84,74.26s-236-113.09-443.68,0L158,159c207.66-113.09,408-1,408-1Z" transform="translate(-41.27 -7.87)"/><path class="cls-2" d="M137.4,96.6s-51.82,30.84-87.3,7.93L71.55,137,55.31,156.29c35.49,22.91,98.33-11.88,98.33-11.88" transform="translate(-41.27 -7.87)"/><path class="cls-2" d="M575.86,94.65S626,128.1,662.65,107l-23.09,31.34,15.22,20.09c-36.61,21.06-86.78-12.4-86.78-12.4" transform="translate(-41.27 -7.87)"/><path class="cls-1" d="M336.07,190c2.69-6.28,9.88-33.92,9.88-33.92-8.93-24.73-102.65-13-102.65-13-29.58,5-32.27,29.53-32.27,29.53v93.61c75.29,39,228.56,11.31,228.56,11.31C570,258.72,705.8,298.93,705.8,298.93l-44.06-58.12L734,217.26c-22.85-18.85-81.71-27.65-81.71-27.65-162.39-26.39-190.41-9.46-241.35-5s-53.66,4.55-74.93,4.93c-55,1-84.67-4.93-84.67-4.93-39-8.79-24.43-26.08-24.43-26.08,5.14-8.5,25.34-9,25.34-9l59.51.28c33.54-2.13,15.43,8.71,15.43,8.71-29,17.89-80.45,0-80.45,0l-2.13,24" transform="translate(-41.27 -7.87)"/><text class="cls-3" transform="matrix(1.31, -0.37, 0.44, 1.55, 154.1, 114.95)">B</text><text class="cls-3" transform="matrix(1.34, -0.2, 0.24, 1.59, 210.37, 99.84)">E</text><text class="cls-3" transform="translate(265.7 92.06) rotate(-2.18) scale(1.36 1.61)">A</text><text class="cls-3" transform="translate(322.11 90.46) rotate(4.18) scale(1.36 1.61)">U</text><text class="cls-3" transform="translate(378.27 95.04) rotate(10.06) scale(1.36 1.61)">T</text><text class="cls-3" transform="matrix(1.31, 0.36, -0.43, 1.55, 432.58, 105.19)">Y</text><text class="cls-3" transform="matrix(1.29, 0.44, -0.52, 1.52, 481.34, 119.31)"> </text><text class="cls-3" transform="translate(504.17 127.32) rotate(21.17) scale(1.36 1.61)"> </text><text class="cls-4" transform="matrix(1.06, -0.08, 0.08, 1, 35.51, 143.11)">t</text><text class="cls-4" transform="translate(52.48 141.87) rotate(-12.02) scale(1.06 1)">h</text><text class="cls-4" transform="translate(77.93 136.17) rotate(-18.52) scale(1.06 1)">e</text><text class="cls-4" transform="matrix(1, 0.35, -0.33, 0.95, 539.83, 132.42)">o</text><text class="cls-4" transform="matrix(1.04, 0.22, -0.2, 0.98, 562.71, 139.86)">f</text><text class="cls-3" transform="translate(178.13 247.76) rotate(9.57) scale(1.36 1.61)">C</text><text class="cls-3" transform="translate(225.04 255.26) rotate(4.23) scale(1.36 1.61)">S</text><text class="cls-3" transform="translate(270.02 258.31) rotate(-0.18) scale(1.36 1.61)">S</text><text class="cls-3" transform="translate(314.42 257.75) rotate(-2.93) scale(1.36 1.61)"> </text><text class="cls-3" transform="matrix(1.35, -0.14, 0.16, 1.6, 335.27, 256.95)">D</text><text class="cls-3" transform="translate(388.81 251.21) rotate(-8.4) scale(1.36 1.61)">E</text><text class="cls-3" transform="translate(436.64 244.39) rotate(-3.01) scale(1.36 1.61)">S</text><text class="cls-3" transform="translate(479.25 242.5) rotate(1.26) scale(1.36 1.61)">I</text><text class="cls-3" transform="translate(510.8 243.03) rotate(5.5) scale(1.36 1.61)">G</text><text class="cls-3" transform="translate(559.99 247.86) rotate(10.16) scale(1.36 1.61)">N</text></g><g id="Layer_3" data-name="Layer 3"><line class="cls-5" x1="94.71" y1="67.45" x2="105.63" y2="60.84"/><line class="cls-2" x1="281.26" y1="141.68" x2="287.39" y2="149.6"/><line class="cls-6" x1="273.46" y1="140.73" x2="281.26" y2="152.08"/><line class="cls-6" x1="270.73" y1="157.13" x2="262.73" y2="146.13"/><line class="cls-6" x1="264.73" y1="158.13" x2="256.73" y2="147.13"/><line class="cls-6" x1="257.73" y1="157.13" x2="251.73" y2="149.13"/><line class="cls-6" x1="250.73" y1="157.13" x2="244.73" y2="149.13"/><line class="cls-6" x1="243.73" y1="157.13" x2="237.73" y2="149.13"/><line class="cls-6" x1="235.73" y1="156.13" x2="229.73" y2="148.13"/><line class="cls-6" x1="227.73" y1="155.13" x2="221.73" y2="147.13"/><line class="cls-6" x1="218.73" y1="154.13" x2="212.73" y2="146.13"/><line class="cls-7" x1="254.04" y1="158.13" x2="251.62" y2="155.03"/><line class="cls-6" x1="267.26" y1="143.02" x2="277.05" y2="156.44"/><line class="cls-6" x1="286.34" y1="143.08" x2="260.36" y2="158.68"/><line class="cls-6" x1="202.73" y1="149.13" x2="183.71" y2="160.57"/><path class="cls-6" d="M241.36,183.27" transform="translate(-41.27 -7.87)"/><path class="cls-6" d="M233.57,171.93" transform="translate(-41.27 -7.87)"/><path class="cls-6" d="M142.2,104.06" transform="translate(-41.27 -7.87)"/><path class="cls-6" d="M133.55,100.36" transform="translate(-41.27 -7.87)"/><path class="cls-6" d="M144.61,110.1" transform="translate(-41.27 -7.87)"/><path class="cls-6" d="M146.75,115.76" transform="translate(-41.27 -7.87)"/><path class="cls-6" d="M148.75,122.76" transform="translate(-41.27 -7.87)"/><path class="cls-6" d="M150.75,128.76" transform="translate(-41.27 -7.87)"/><path class="cls-6" d="M151.7,134.53" transform="translate(-41.27 -7.87)"/><path class="cls-6" d="M153.86,141.8" transform="translate(-41.27 -7.87)"/><path class="cls-6" d="M151,146" transform="translate(-41.27 -7.87)"/><path class="cls-6" d="M143.06,142.91" transform="translate(-41.27 -7.87)"/><path class="cls-6" d="M142.75,103.76" transform="translate(-41.27 -7.87)"/><path class="cls-6" d="M130.06,98.91" transform="translate(-41.27 -7.87)"/><path class="cls-8" d="M146.21,115.18" transform="translate(-41.27 -7.87)"/><polygon points="636.73 229.13 670.73 275.13 650.73 274.13 620.73 233.13 636.73 229.13"/><path d="M606,171s-38-8.33-95-6c-49,0-120,17-171,15l-4,10s74-7,77-7c15.37-1.69,48-6,48-6s88-9,209,15c0,0,41.79,9,49,16l15-9S713.7,181.27,606,171Z" transform="translate(-41.27 -7.87)"/><path d="M568,57s-221.38-111-426.29.7c-.36,4.48-1,9-.55,13.39,17-8.84,84-41.75,143-44.69,0,0,114.25-14.41,218.12,20.6,0,0,64.06,19,68.76,24Z" transform="translate(-41.27 -7.87)"/><path d="M65,128.93l1-.93s-5,12-16,19l8.56,5.29,12.53-14.44-5.77-9.28C65.2,128.7,65.07,128.81,65,128.93Z" transform="translate(-41.27 -7.87)"/><path d="M136.74,86.65c-13.21,7.68-34.5,18.82-80,13L66,111c1.56.54,2.33.76,2.33.76s28.38,8.41,71.93-13.11C139.43,96.1,138,89,136.74,86.65Z" transform="translate(-41.27 -7.87)"/><polygon points="606.74 141.67 615.73 134.13 604.73 122.13 598.28 130.51 606.74 141.67"/><path d="M651.78,113.51,659,98.82s-25.8,16.71-82-12.68l-1.42,11.91S617.28,120.82,651.78,113.51Z" transform="translate(-41.27 -7.87)"/><polygon points="200.64 141.63 200.85 168.4 202.79 170.58 206.6 146.7 200.64 141.63"/><path d="M333,153.51s-29.35,17.51-91.33,0c0,0,7.06,7.33,25,9.91C266.65,163.42,311.92,175,333,153.51Z" transform="translate(-41.27 -7.87)"/><path d="M127.38,91.66s8.36-4.22,8.06-7.53l2,12.47-2.61.48" transform="translate(-41.27 -7.87)"/><path d="M719,272" transform="translate(-41.27 -7.87)"/><line class="cls-6" x1="183.73" y1="155.13" x2="200.73" y2="145.13"/><line class="cls-6" x1="205.97" y1="153.15" x2="186.96" y2="164.6"/><line class="cls-6" x1="205.97" y1="159.15" x2="189.73" y2="169.13"/><line class="cls-6" x1="203.73" y1="166.13" x2="194.97" y2="171.15"/><line class="cls-6" x1="210.24" y1="159.9" x2="203.1" y2="164.82"/><line class="cls-6" x1="214.73" y1="163.51" x2="203.73" y2="170.13"/><line class="cls-6" x1="220.68" y1="166.13" x2="205.73" y2="175.13"/><line class="cls-6" x1="229.68" y1="167.13" x2="214.73" y2="176.13"/><line class="cls-6" x1="236.68" y1="169.13" x2="221.73" y2="178.13"/><line class="cls-6" x1="245.73" y1="169.89" x2="228.73" y2="180.13"/><line class="cls-6" x1="253.68" y1="171.13" x2="238.73" y2="180.13"/><line class="cls-6" x1="262.68" y1="172.13" x2="247.73" y2="181.13"/><line class="cls-6" x1="270.73" y1="175.13" x2="258.73" y2="181.13"/><line class="cls-6" x1="300.73" y1="161.28" x2="267.73" y2="182.13"/><line class="cls-6" x1="298.73" y1="169.13" x2="279.73" y2="181.13"/><line class="cls-6" x1="297.73" y1="157.13" x2="301.73" y2="164.13"/><line class="cls-6" x1="293.73" y1="160.13" x2="298.73" y2="168.13"/><line class="cls-6" x1="289.73" y1="163.13" x2="296.73" y2="175.13"/><line class="cls-6" x1="284.73" y1="165.13" x2="294.73" y2="182.13"/><line class="cls-6" x1="280.73" y1="167.13" x2="289.73" y2="183.13"/><line class="cls-6" x1="275.73" y1="170.13" x2="282.73" y2="182.13"/><line class="cls-6" x1="270.73" y1="171.13" x2="276.73" y2="183.13"/><line class="cls-6" x1="265.73" y1="173.13" x2="270.73" y2="182.13"/><line class="cls-6" x1="203.73" y1="166.13" x2="208.73" y2="175.13"/><line class="cls-6" x1="214.73" y1="166.13" x2="221.73" y2="178.13"/><line class="cls-6" x1="223.73" y1="171.13" x2="228.73" y2="180.13"/><line class="cls-6" x1="231.73" y1="174.13" x2="234.73" y2="180.13"/><line class="cls-6" x1="205.73" y1="160.13" x2="214.73" y2="176.13"/><line class="cls-6" x1="183.73" y1="154.13" x2="192.73" y2="170.13"/><line class="cls-6" x1="189.73" y1="154.13" x2="199.73" y2="173.13"/><line class="cls-6" x1="193.73" y1="152.13" x2="202.73" y2="168.13"/><path class="cls-6" d="M244,166" transform="translate(-41.27 -7.87)"/><path class="cls-6" d="M236,151" transform="translate(-41.27 -7.87)"/><line class="cls-6" x1="169.73" y1="172.13" x2="177.73" y2="167.13"/><line class="cls-6" x1="169.73" y1="180.13" x2="181.73" y2="172.13"/><line class="cls-6" x1="170.73" y1="188.13" x2="185.73" y2="178.13"/><line class="cls-6" x1="169.73" y1="197.13" x2="185.73" y2="186.13"/><line class="cls-6" x1="169.73" y1="205.13" x2="183.73" y2="195.13"/><line class="cls-6" x1="168.73" y1="213.13" x2="182.73" y2="203.13"/><line class="cls-6" x1="168.73" y1="221.13" x2="180.73" y2="212.13"/><line class="cls-6" x1="169.91" y1="228.03" x2="182.73" y2="219.13"/><line class="cls-6" x1="169.91" y1="235.03" x2="180.73" y2="227.13"/><line class="cls-6" x1="168.91" y1="242.03" x2="179.73" y2="234.13"/><line class="cls-6" x1="169.91" y1="249.03" x2="181.73" y2="240.13"/><line class="cls-6" x1="169.85" y1="256.08" x2="182.73" y2="247.13"/><line class="cls-6" x1="172.91" y1="261.03" x2="184.73" y2="253.13"/><line class="cls-6" x1="179.14" y1="263.64" x2="187.14" y2="258.64"/><line class="cls-6" x1="185.73" y1="266.13" x2="191.14" y2="263.64"/><path class="cls-6" d="M216,186" transform="translate(-41.27 -7.87)"/><path class="cls-6" d="M211,180" transform="translate(-41.27 -7.87)"/><path class="cls-6" d="M215,194" transform="translate(-41.27 -7.87)"/><path class="cls-6" d="M211,189" transform="translate(-41.27 -7.87)"/><path class="cls-6" d="M215,200" transform="translate(-41.27 -7.87)"/><path class="cls-6" d="M211,196" transform="translate(-41.27 -7.87)"/><path class="cls-6" d="M215,208" transform="translate(-41.27 -7.87)"/><path class="cls-6" d="M210,202" transform="translate(-41.27 -7.87)"/><path class="cls-6" d="M215,216" transform="translate(-41.27 -7.87)"/><path class="cls-6" d="M210,210" transform="translate(-41.27 -7.87)"/><path class="cls-6" d="M210,217" transform="translate(-41.27 -7.87)"/><path class="cls-6" d="M215,230" transform="translate(-41.27 -7.87)"/><path class="cls-6" d="M210,224" transform="translate(-41.27 -7.87)"/><path class="cls-6" d="M217,241" transform="translate(-41.27 -7.87)"/><path class="cls-6" d="M210,232" transform="translate(-41.27 -7.87)"/><path class="cls-6" d="M220,251" transform="translate(-41.27 -7.87)"/><path class="cls-6" d="M210,239" transform="translate(-41.27 -7.87)"/><path class="cls-6" d="M210,249" transform="translate(-41.27 -7.87)"/><path class="cls-6" d="M224,272" transform="translate(-41.27 -7.87)"/><path class="cls-6" d="M210,256" transform="translate(-41.27 -7.87)"/><path class="cls-6" d="M212,261" transform="translate(-41.27 -7.87)"/><line class="cls-6" x1="94.73" y1="74.13" x2="114.73" y2="61.13"/><line class="cls-6" x1="95.73" y1="81.13" x2="115.73" y2="68.13"/><line class="cls-6" x1="98.73" y1="86.13" x2="115.73" y2="75.13"/><line class="cls-6" x1="100.73" y1="92.13" x2="114.73" y2="83.13"/><line class="cls-6" x1="101.73" y1="98.13" x2="114.73" y2="91.13"/><line class="cls-6" x1="103.73" y1="104.13" x2="114.73" y2="98.13"/><line class="cls-6" x1="104.73" y1="110.13" x2="115.73" y2="104.13"/><line class="cls-6" x1="105.73" y1="116.13" x2="116.73" y2="110.13"/><line class="cls-6" x1="107.73" y1="121.13" x2="118.73" y2="115.13"/><line class="cls-6" x1="109.73" y1="127.13" x2="120.73" y2="121.13"/><line class="cls-6" x1="112.73" y1="132.13" x2="122.73" y2="126.13"/><line class="cls-6" x1="113.73" y1="138.13" x2="124.73" y2="132.13"/><line class="cls-6" x1="115.73" y1="144.13" x2="128.73" y2="137.13"/><line class="cls-6" x1="521.73" y1="67.13" x2="531.73" y2="63.13"/><path class="cls-6" d="M214,254" transform="translate(-41.27 -7.87)"/><line class="cls-6" x1="521.45" y1="74.85" x2="538.45" y2="66.85"/><line class="cls-6" x1="520.45" y1="83.85" x2="537.45" y2="75.85"/><line class="cls-6" x1="518.45" y1="92.85" x2="535.45" y2="84.85"/><line class="cls-6" x1="517.28" y1="101.19" x2="531.62" y2="94.37"/><line class="cls-6" x1="516.59" y1="109.33" x2="530.93" y2="102.51"/><line class="cls-6" x1="515.89" y1="116.46" x2="530.23" y2="109.64"/><line class="cls-6" x1="514.45" y1="124.85" x2="529.73" y2="117.13"/><line class="cls-6" x1="511.45" y1="133.85" x2="528.45" y2="125.85"/><line class="cls-6" x1="508.45" y1="141.85" x2="525.45" y2="133.85"/><line class="cls-6" x1="514.73" y1="145.13" x2="526.45" y2="139.85"/><path d="M615.32,71" transform="translate(-41.27 -7.87)"/><line class="cls-6" x1="534.24" y1="91.91" x2="541.24" y2="96.91"/><line class="cls-6" x1="533.24" y1="97.91" x2="540.24" y2="103.91"/><line class="cls-6" x1="532.24" y1="102.91" x2="539.24" y2="109.91"/><line class="cls-6" x1="531.24" y1="108.91" x2="538.24" y2="116.91"/><line class="cls-6" x1="530.24" y1="114.91" x2="536.24" y2="121.91"/><line class="cls-6" x1="529.24" y1="120.91" x2="535.24" y2="127.91"/><line class="cls-6" x1="529.24" y1="127.91" x2="535.24" y2="135.91"/><line class="cls-6" x1="528.24" y1="133.91" x2="535.24" y2="142.91"/><line class="cls-6" x1="92.5" y1="92.55" x2="100.89" y2="94.46"/><line class="cls-6" x1="93.89" y1="98.47" x2="102.66" y2="101.31"/><line class="cls-6" x1="94.89" y1="103.47" x2="104.05" y2="107.23"/><line class="cls-6" x1="96.28" y1="109.39" x2="105.82" y2="114.07"/><line class="cls-6" x1="97.67" y1="115.31" x2="105.9" y2="119.46"/><line class="cls-6" x1="99.06" y1="121.23" x2="108.73" y2="126.13"/><line class="cls-6" x1="101.76" y1="127.69" x2="110.38" y2="132.76"/><line class="cls-6" x1="103.15" y1="133.61" x2="113.07" y2="139.22"/></g></svg>