<svg id="Layer_1" data-name="Layer 1" xmlns="http://www.w3.org/2000/svg" viewBox="0 0 688.3 276.91"><path d="M34.94,270.76c-.29-2.17-1.63-5.23-.68-6.35,4.36-5.12-4-5.85-2.9-9.59-1.83.47-3.66,1.27-5.51,1.33a44.28,44.28,0,0,1-6.85-.74l-.29-2c2.12-.76,4.21-1.6,6.36-2.25,11.7-3.52,23.49-6.78,35.12-10.56,7.24-2.36,10-1.56,11.29,6.25.85,5.12,3.35,5.75,7.56,5.83,8.67.14,17.44-.07,25.94,1.29,5.27.83,10.11,4.28,16.73,7.27,8.8-4.36,19.7-9.38,30.24-15.06,16.9-9.11,33.63-18.56,50.32-28.06,14.8-8.41,29.42-17.14,44.22-25.57,2.09-1.2,4.7-1.49,7.06-2.2l-35.78,29.35-.45-6.18-1.89-.25L214,220.17l-1.34-1.9c-4.07,2.28-8.22,4.43-12.17,6.89-2.76,1.72-5.06,4.18-7.88,5.75-10.44,5.81-21.07,11.29-31.51,17.09-5,2.78-9.7,6.14-14.71,8.92-.9.5-2.64-.65-4-.84a8.48,8.48,0,0,0-2.5.67l3.17,4-10.16,2.51L126,269.12c.49-1.29,1-2.57,2.1-5.42-7.91,3.08-14.18,6.39-20.86,7.87-6,1.32-8.64,3.94-8.49,9.8l7.78,8c.22,1.87.8,3.78.57,5.59a48.92,48.92,0,0,1-2,7.45c-.42,1.43-.77,3.83-1.54,4-1.35.28-3.84-.39-4.35-1.41-1.11-2.23-1.36-4.92-1.82-7.44-.34-1.85-.44-3.75-.67-5.8l-5.9,2.78c.2-3.3.33-5.52.47-7.73l-1.11-.11c-.63,4-1.26,8-1.8,11.38l5.78-1.82c2.23,6.9,4.15,12.85,6.08,18.8v.12l-3.2,3.42L100,330.78l-4,.63c1,1.95,1.9,3.89,2.84,5.84l-.19-.23c.55,5.44.72,11.3,9.16,7.92v4.14L109,349l1.29-16.51c-1.36-.76-.38-.95.22-1.52s.89-1.59,2-3.67c6.35,8.61,5.59,18.12,7.3,27.19l5.42-6.08c.67,1.63,1.17,2.88,1.68,4.12l5.16-8.13-2.14,1.2L146,359.42l1.61-1.06c-1-4.91-1.92-9.81-2.83-14.49l14.41,12.95-1.37,4.49,7-3.25c.29,1.36.63,2.93,1,4.5l1.18-.13v-16l.92.12q1.16,8.57,2.29,17.14h2l.72-16.37,1.29.14c.5,4.77,1,9.53,1.64,15.59l9.55-6.69,7.07,5,.92-1.18-5.11-7.06c5-1.41,9.84-2.92,14.77-4,.79-.18,2.56,1.31,2.91,2.36,2.09,6.32,3.9,12.74,5.51,18.15.15-2.17.38-5.48.61-8.78l2-1.14c1.92,2.34,5.06,4.5,5.43,7.07.43,3-1.58,6.29-2.54,9.46a12.18,12.18,0,0,0,3.59-6.37c.55-3.19-.26-6.72.74-9.69.66-1.94,3.49-3.14,5.35-4.68.77,1.75,2.18,3.49,2.18,5.23,0,6.38-.46,12.77-.76,19.22l8-.43c0-4.33-.1-8.46,0-12.58.11-3.81.46-7.61.69-11.28l7.36,7.83v4.77l2.61-2.28-.28-.26c.54,1.18.79,2.72,1.68,3.47,4.76,4,16.76,2.06,23.26-3.44,1.27,1.34,2.52,2.68,3.78,4h0l8.42-1.24c.45,1.44,1,3.26,1.58,5.08.82-3.42,1.65-6.84,2.33-9.65l22.16,3.25.12,1.75-8.33.54c.74,7.47,3.22,8.91,10.05,5.77.23,1.65.45,3.27.68,4.88-.14-6.9,2.13-7.56,8.45-5.16,4.74,1.8,11.36,3.93,15-3.25,9.05,4,1.65-4.9,6.32-6.28.3,2.56.59,4.95,1.05,8.89l27.2-2c0-.54-.07-1.08-.1-1.62l-13.38-2.88c-.07-.83-.13-1.66-.19-2.49,2.89-.24,6.15-1.44,8.56-.49,4,1.59,10.61-.11,11.17,7.08l.25-.24c-.61,3.17-1.22,6.34-2,10.24,4.43-.42,7.1-.74,9.78-.92,8.71-.61,12.08-6,7.83-13.53a22,22,0,0,0-8.2-8.49c-9.68-5.07-20.13-8.41-31.11-5.38-7,1.92-13.51,5.34-20.24,8.09-5.61-2.77-11.17-5.65-16.85-8.27a128.52,128.52,0,0,0-14.28-5.91c-7-2.25-14.25-3.73-21.2-6.09-1.43-.49-2.43-3.31-2.95-5.23-1.29-4.86-2.65-9-8.47-10.75-2.92-.87-5.83-3.89-7.42-6.69-4.11-7.29-2-17.13-9.7-23.31-1.35-1.1-.19-5.32-.19-8.1h1.09c.29,1.21.58,2.42.86,3.63l1.5-5.11c.83,2.48,1.31,3.95,1.57,4.73l4.64-3.5,0,0c6.58-9.12,13.35-18.16,13.81-31.76l7.31,10c1.62-9.48,3-17.39,4.33-25.3l3.38.58c-.32,1.77-.65,3.53-1,5.3-.42,2.24-1.41,4.56-1.08,6.68.23,1.45,2.15,2.82,3.61,3.78.38.25,2.36-.94,2.74-1.84,1.3-3.06,2.22-6.29,3.19-9.19L291.58,244c5.1-5.36,9.31-9.81,13.58-14.19.15-.15.87.26,1.72.54l-1.56,5.39,1.46.55q1.86-5.47,3.73-10.94l1.61.73L309.93,232l2.34.78,4.48-14.59c2.49,4.07,4.79,6.54,5.43,9.38.34,1.51-2.18,3.66-4.62,7.37l6-2.72c-.4-8.09-.76-15.26-1.12-22.43l2-.15c.36.9.71,1.79,1.75,4.44l2.68-12a26.72,26.72,0,0,1,3.59,12.18c.32,5.59,4.81,7.1,8.36,9.62,1.88-2.84,3.8-5.66,5.62-8.54a6.34,6.34,0,0,0,.48-1.95c6.76,3.46,18-1.73,19.23,11.55.94-3.74,1.65-6.6,2.5-10l3.62,7.65c2.69-3,5.37-6,8.2-9.07l2.28,2.83,1.55-1.62c-1.78-1.58-3.3-4-5.37-4.61-14.64-4.32-29.25-9-44.17-12-7.51-1.54-16.35-2-23.39.55-14.29,5.07-27.79,12.4-41.57,18.91-5.55,2.62-11,5.52-16.43,8.29,15.48-10.71,31.46-20.4,47.47-30,.57-.34,1.58.12,2.22-.16,2.32-1,4.58-2.21,7.09-3.44,1.64,2.66,3.77,4.17,6.57-1.58,1.39-2.86,4.17-5.06,6.87-8.19,1.25,3.37,1.89,5.08,2.52,6.79l1.89-.09,1.08-7.82,20.9-2.93v-7.31c1.85.86,3.75,1.64,5.52,2.65.53.3.67,1.26,1,1.92-3.15,0-8.13,7.5-7.61,13.05L361.07,177c1.46-3.86,2.93-7.71,4.68-12.31l8.22,5-3.32,4.74c3.07,2.66,7.06,4.53,7.16,6.57.16,3.55,1.86,8.73-4.06,10.68-1,.34-1.25,3.2-1.85,4.89l1,.31q6-6.09,12-12.16V312.68l-3.44-7.6-2.57,4.62-10-3.89-6.63,5.32,2.42-.52c1.14,1.66,2.26,3.34,3.42,5s2.56,3.55,3.84,5.33l1.7-1c-1.14-2.55-2.27-5.09-3.41-7.63l.93-.82,10.42,7.89c-.83-2.23-1.46-4-2.1-5.7l2.53-1.09c1.19,2.6,3.32,5.16,3.41,7.79.38,11.49.16,23,.16,34.49l1.4,0V178h-2.49c.13,2.25.25,4.5.36,6.73-1.74-2.58-3.48-5.14-5.83-8.6l8.91-1-3-2.48v-8.72l10.82,6.65,21.07-21a78.49,78.49,0,0,0-18.9-.18c-2.77.23-5.5.87-8.27,1-10.41.46-21.47-1.31-31.12,1.62-19.34,5.87-37.95,14.2-56.79,21.69-4,1.57-7.63,3.91-11.44,5.9l-.8-1.43,17.75-10.63c-17.36.31-30.48,6.79-43.13,14.62,7.3-9.63,17.54-14.44,29.06-15.44,19.5-1.71,37.79-7.21,55.35-15.4,13.64-6.35,28.18-3.5,42.3-4.86,7.45-.71,15-.63,22.44-1.4,5-.52,6.31,1.22,5.45,5.94-2.11,11.6-8.4,19.57-20.3,23l.63,1.88c3.32,0,6.64,0,10,0q49.69.59,99.4,1.2,62.12.82,124.23,1.71c4.07.06,8.81-.91,8.13,4.8,15.56,0,30.28.1,45-.06a63.9,63.9,0,0,0,10.41-1.45c5.52-1,8.61.44,8.58,6.84-.1,17.08.32,34.17.21,51.25-.24,36.07-1.41,72.16-.66,108.21.26,12.58-5.82,20.59-12.6,29.1-5.93,7.45-12.21,14.64-18.36,21.93-3,3.57-5.88,7.89-10.32,1.27-.57-.86-2.61-1-4-1-15.27-.15-30.91-2.33-45.68.33-13.79,2.49-27.12,0-40.66.88-20.34,1.33-40.9-1.18-61.37-1.52-34.17-.56-68.34-.76-102.51-1-17.52-.13-35,0-53.18,0-.42-5-.72-8.57-1.09-12.92-3.58.36-7,0-9.84,1.1-13.79,5.32-28,3-41.68,1.25-30.14-3.94-60.27-5.05-90.63-4.62-23.25.34-46.54-1.26-69.79-2.49-4.66-.25-7.62.24-9.58,4.74-3.78,8.66-11,11.92-20,11.92H85.82c-6.86,6.52,1.76,20.56-11.94,22.54-7.21,1-15.49,5.73-21-3.82-1.75,6.48-17.37,7.58-29.59,1.11H47.59L47.7,416c-3.75-1.62-7.37-4-11.29-4.72-10.33-1.8-17.87-5.66-16.49-17.89L41,389.66l-.2-1.92-20.71,2.8c-.51-5.5-1-10.63-1.55-16.89,3.08.54,5.4,1.45,7.58,1.18,1.94-.23,3.72-1.77,5.39-4.12L19,370v-8.48c3.68,1,6.89,2.71,10,2.49,2.67-.2,5.17-2.56,7.75-4l-.43-2.54H18.77V345.25l22.09-3.52c-1.88-1.28-3.18-2.55-4.73-3.1-1.37-.48-3-.15-4.56-.17l3.17-4.35c-4.52-4.25-8.09-3.13-16.14,6.48-.46-6.89-.86-12.95-1.26-19,8.21-.8,8.71-.49,7.94,4.43,14.31,1.26,20.17-2.79,18.25-11.36-6.84.67-13.7.56-20.11,2.2-5.77,1.48-6.14-1.21-6-5.2s.56-7.81.74-10.19l21.52-3.75c-4.41,7.63-11.2,6.91-17.92,7.07,5.32,3.72,5.32,3.72,23.37-.1l-5.25-1.57,7.84-5.46c-2-.88-4.64-2.87-7.5-3.17-3.53-.36-7.19.75-10.81,1.1s-7.4.58-12.62,1c3.67-4.24-3.79-10.19,4.28-12.09,1-.23,2.39,1.43,3.6,2.22l-.72,3L48,287.41c-3.44-9.19-9.77-5.35-14.5-5.71-5.16-.4-10.37-.09-15.81-.09-.92-8.67,7-4.55,9.53-5.1,6-1.3,12.7.28,19.92.76l-4.08-11.18-8.14,4.63Zm330.06,55c.4,3.3-.06,7.09,1.45,9.77,1.41,2.49,4.88,3.85,7.55,5.53.18.12,1.89-1.65,1.82-1.74-1.79-2.39-3.73-4.66-5.63-7s-3.52-4.34-5.28-6.51c-4.55-9.64-8.66-19.26.87-28.75l-6-1V237.5l-1.71.06v110a69.75,69.75,0,0,0,2.36-17.49C360.52,326.88,360.22,323.71,365,325.78Zm25.3-146c-.13,1.45-.35,2.68-.35,3.9.27,55.47.63,110.94.73,166.41,0,5.86,2.78,6.34,7.44,6.35,43.2,0,86.4,0,129.6.47,32.87.39,65.73,1.46,98.58,2.51,6.71.21,8.71-2.19,8.4-8.75-.57-12-.35-24.06-.45-36.09q-.37-47.08-.72-94.17c-.07-10.29,0-20.58,0-30.87l1.87,0,1.54,3.31c2.09-7.15-2.09-9.7-7.47-9.86-36.57-1.08-73.14-1.88-109.72-2.69q-20.33-.45-40.68-.53C449.73,179.77,420.4,179.82,390.3,179.82Zm-34,169.12c0-30.94.09-62-.07-93.13,0-6,1.07-13.88-2.16-17.4-3.46-3.79-11.42-3.46-17.42-4.92-1.21-.3-2.47-1-3.63-.82-2.24.27-4.9.37-6.55,1.64C314.56,243.45,302.9,253,291,262.18c-12.4,9.62-20.74,21.52-23,37.44-1.89,13.54,1.15,21.4,12.73,28.05,8.18,4.71,16.82,8.62,25.28,12.84,7.38,3.68,14.73,7.43,22.22,10.87,2.35,1.08,5.22,2,7.68,1.67C342.09,352.23,348.13,350.66,356.33,348.94ZM95.27,257.86c-13-2.34-16.19-1.3-20.43,6.19-12.21,21.52-14.69,45-14.2,69.14a80.24,80.24,0,0,0,1.24,9.18h1.36c.28-1.25.57-2.5,1.36-6,1.54,4.23,2.4,6.57,3.57,9.8l1.94-10.27c5.3,1.22,9.12,3.73,8.71,10.34C77.34,315.4,74.82,284.78,95.27,257.86Zm566.56,20.88c11.57,0,20.53-7.88,19.94-18.82-.65-11.8-6.35-20.41-20.7-20.92-9.54-.34-19.27,9.76-19.07,19.43C642.23,269.79,651,278.73,661.83,278.74Zm10.74,43.38c10.88.25,20.37-8.36,20.63-18.71.3-12.08-8-20.16-21-20.44-9.6-.21-17.55,7.94-18,18.44S662.59,321.89,672.57,322.12Zm19-106.84c-.09-10.92-9-20.39-19-20.23a20.59,20.59,0,0,0-20,21.06c.29,11.43,8.08,18.8,19.9,18.83C683.36,235,691.64,226.47,691.55,215.28Zm-5.94,138.46c2.63-9.94-.17-17.47-7.16-22.25-6.56-4.48-14.65-5.95-21.88-.78s-9.19,12.49-8.3,21.39Zm-44.2-70.9V320c9.42-3.62,10.81-5.7,10.61-14.71a57.41,57.41,0,0,1,.38-9.73C653.51,288.1,650.44,284.17,641.41,282.84ZM699,357.37h1.85V188.05H699Zm-57.83-159.1v32.44C652.66,221,652.4,206.1,641.18,198.27Zm3.11,153.66c1.25-5.44,1.94-10.42,3.57-15.06,2.26-6.45-.43-9.58-6.09-11.88C638.71,339.42,639.86,350.51,644.29,351.93Zm-3.2-162L660,191.77c11.64-5.1,23.95.78,34.61-4.18C676.66,189.24,658.58,185.43,641.09,189.94Zm54.37,91.31V257.63l-7.84,13.88ZM84.53,366.3c.9,4.83,2,11,3.36,18l13.16,7.84Zm552.16-8.53,1.4-.07V295.11h-1.4ZM341.78,194.52c11.74,6.77,21.2,7.76,25.6,3.69Zm.39-11.47c-.42,2.36-.73,4.1-1,5.84l-.89-.07c-.14-2-.28-3.92-.4-5.56-8.11,1.19-3.38,7.48-6.83,12.73l12.89-6.38Zm-35.59,63.49,2.69-1.2L304,236.05l-7,15.63,1.62,1.16,6.44-9.22C305.3,244.17,305.94,245.36,306.58,246.54ZM551.15,382.67l-3.24.56.33,1.17,20.52-4.66-11.35-.52c-.28-1.82-.51-3.23-1.09-6.91ZM369.94,258.6l5.61-.69v-14l-1.76-.75C372.64,247.73,371.49,252.35,369.94,258.6Zm-344.88,120-.13,2.72c4.43.29,8.86.83,13.27.73,1.19,0,2.32-2,3.85-3.45ZM110.71,393l13-4C117.51,383.17,114.23,383.94,110.71,393ZM66.48,269.58l-17.83,1.78C56.55,275.66,63.7,274.5,66.48,269.58Zm46.77-5.28c-8.5-4.76-11.23-4.31-15.51,1.18ZM583.5,374.69l3.15-2.94c-.26-.34-.53-.68-.79-1l-9.62,6,.38,1.37,14-1.68-.21-1.46Zm51.08-11.06-1.73-1.39-13.19,14.93,2.25,1.93Zm60.95-12V335.58C693.74,342.2,688.45,346.79,695.53,351.63Zm.07-110.88V223.36C697.12,227.61,687.2,233.67,695.6,240.75ZM30.81,398.58l-3.67,5.52,14.62,1.66.54-1.11Z" transform="translate(-16.78 -145.04)"/><path d="M34.94,270.72l-17.18,2.1L19,259.42c4,3.85,6.67,12.25,10.43,0,2.37,4.89,3.93,8.09,5.48,11.31Z" transform="translate(-16.78 -145.04)"/><path d="M124.14,271.58c-4.56,5.88-9,11.84-13.77,17.57-.55.67-2.53.16-3.85.19l-7.78-8,5.78-5.26,2.65,6.36C111.09,271.35,114,269.78,124.14,271.58Z" transform="translate(-16.78 -145.04)"/><path d="M100.28,315c4.74-1.74,5.46,2.77,5.67,4.9.41,4.05-.78,8.25-1.14,12.4-.07.85.59,1.77,1,2.63.85,2,1.73,4,2.69,6.24l-7.4,1.21L98.63,337l.19.23c4.59-7.1,3.34-14.58,1.47-22.1Z" transform="translate(-16.78 -145.04)"/><path d="M286.26,182.82l-36.11,25.65-1.22-1.73L285,181Z" transform="translate(-16.78 -145.04)"/><path d="M245.49,290.67c3.61,6.45,7.82,12.83.88,21.58-1.13-7.9-2.09-14.56-3-21.21Z" transform="translate(-16.78 -145.04)"/><path d="M254.46,367l-8.08-1.37.28.26a2.34,2.34,0,0,1-.1-.73c.5-2.92,1-5.83,1.55-8.74,1.28.32,2.83.3,3.8,1,3.21,2.45,4.84,5.54,2.54,9.55Z" transform="translate(-16.78 -145.04)"/><path d="M261.05,287c-5.37-4.13-4.58-9.64-3.44-17l4.4,7.52,2.34-7.37c1.17,5.82.62,7-2.47,11.24-1,1.36-.58,3.72-.8,5.64Z" transform="translate(-16.78 -145.04)"/><path d="M254.45,367,266,354.48c-.13,2.58-.3,6-.56,11.1L254.47,367Z" transform="translate(-16.78 -145.04)"/><path d="M275.1,369.7c-.32-2.61,0-5.53-1.15-7.73-1-1.92-3.55-3-5.41-4.48l1.59-2.5c2.6,1.56,6.95,2.74,7.39,4.77.64,3-1.49,6.59-2.45,9.93Z" transform="translate(-16.78 -145.04)"/><path d="M511.05,198.16c29.92,1.24,58.06,8.13,81.73,27.72a55.73,55.73,0,0,1,.54,85.72c-17.49,14.74-38.49,22.33-61,25.33-30.94,4.13-59.82-2.61-86.78-17.85-15.86-9-28-21.05-31.42-40-4.63-25.72,6.12-48,30.39-62.46C465,204.37,486.89,197.43,511.05,198.16Zm-46.75,11.6c-3.89,1.74-8,3.11-11.62,5.29-15.45,9.35-30.23,19.75-35.12,38.4-6.1,23.28,2.34,44.55,22.13,58.7C480,341,543.89,341.93,585,314.36c30.23-20.28,33.81-62.91,5.55-85.13-38-29.89-80.76-35.59-126.35-19.3Z" transform="translate(-16.78 -145.04)"/><path d="M663.11,198.78l4.66,5.95L662.18,217l-4.83-3.3,4.3-8.44,2.1,1C663.59,204.29,663.42,202.39,663.11,198.78Z" transform="translate(-16.78 -145.04)"/><path d="M376.12,371.87l5.09,1.29,3.28-5.91,6.26,8.4-13.95,1.69c-.15-1.92-.29-3.81-.43-5.71Z" transform="translate(-16.78 -145.04)"/><path d="M466.13,312.07c-.94,2.37-1.74,4.39-2.85,7.21l-23.62-11.5c.38-3.22.71-6.07,1-8.92l-2.22-.45q-.81,2.8-1.6,5.6h-1.71c.11-1.77-.51-4.31.43-5.18,7.85-7.31,9,4.77,15.06,4.28-1.3,2.77-2.12,4.53-2.94,6.3C455.31,300.46,459.62,311.69,466.13,312.07Z" transform="translate(-16.78 -145.04)"/><path d="M578.79,313.44c-6.17,2.48-12.16,6-19.47,5l-5.77,5.19-4.21-9A66.3,66.3,0,0,0,571.79,306l7.19,7.61Z" transform="translate(-16.78 -145.04)"/><path d="M545.61,229.74c.78,9.63-1.16,16.28-6.52,21.52l-3-1c1-3.07,2-6.14,3-9l-7.88-2.72c-.1.13-1.09,1.55-2.07,3L527,239.81q3.42-4.51,6.85-9l1.94,1c.27,1.77.55,3.54.67,4.35Z" transform="translate(-16.78 -145.04)"/><path d="M510.34,281.19V259.28l10.44,3.63c-1.38,3.38-2.55,6.87-4.23,10.09C515.37,275.25,513.48,277.13,510.34,281.19Z" transform="translate(-16.78 -145.04)"/><path d="M535.56,278.06H522.19c1.32-4.84,2.79-10.52,4.63-16.09.12-.38,4.38-.21,4.57.38C533.11,267.73,534.35,273.26,535.56,278.06Z" transform="translate(-16.78 -145.04)"/><path d="M485.8,251.46c-1.28-4.93-2.06-8-3-11.44l-8.38,10.06-1.12-.92L480,238.22l-.8-.92-4.42,2.43-1.07-1.47,17.07-11.65C489.13,234.83,487.72,241.85,485.8,251.46Z" transform="translate(-16.78 -145.04)"/><path d="M479.29,318.41l1.8,5.17c-5.16-1.5-5.27-2-1.43-9.24l12.65,4.23c.2,1.12.61,3.39,1,5.65l1.32.17a13.83,13.83,0,0,1,1.15-2.89c1-1.43,2.14-2.71,3.23-4.05.93,1.52,2.8,3.19,2.57,4.51-.29,1.73-2.41,4.66-3.42,4.53-6.56-.83-14.95,1.35-16.58-9.41Z" transform="translate(-16.78 -145.04)"/><path d="M471.43,261.24c-7.7,5.88-2.12,11.88-2.17,18.56l-4.75-5.37-4.69,7.21V259.38l4.57,4.09,5.18-3.36Z" transform="translate(-16.78 -145.04)"/><path d="M576.72,262.12l-6.18,4,5.44,3.43-5.71,4.53,6.29,3.1c0,.58-.08,1.16-.11,1.75l-9.12.75V260.79h9Z" transform="translate(-16.78 -145.04)"/><path d="M420.33,280.88V259.24L430.65,263c-1.39,3.35-2.55,6.82-4.25,10C425.2,275.27,423.28,277.13,420.33,280.88Z" transform="translate(-16.78 -145.04)"/><path d="M488.3,260.73h10.77l-7,5.17,4.22,3.88-4.53,4.16,5.37,3.68-.21,1.63-8.65.45Z" transform="translate(-16.78 -145.04)"/><path d="M453.71,266.54l-5.54-2.76v11.51l6.81-2.55c-.54,2.27-.47,4.33-1.22,4.7-2,1-4.41,1.26-6.64,1.82-1.07-4.81-2.65-9.59-2.9-14.43-.07-1.54,3.36-4.44,5.3-4.55s4,2.5,6.07,3.91Z" transform="translate(-16.78 -145.04)"/><path d="M579,313.65c-.63-2.92-1.26-5.84-2.1-9.76l9.06-7.24c5.82,7.33,5.82,7.33-.47,12.53a16.31,16.31,0,0,1-2.46-2.32,11.72,11.72,0,0,1-1.15-2.87l-2.09,1.54c.75,1.87,1.5,3.73,2.39,6-.87.49-2.14,1.2-3.39,1.93Z" transform="translate(-16.78 -145.04)"/><path d="M603.8,263.65l-7,.35c2.48,4,6.23,7.43,6.45,11.07.34,5.59-6.12,6.09-10.55.26h7.07c-2.36-3.75-5.78-7-6.34-10.65C592.64,259.8,597.71,258.71,603.8,263.65Z" transform="translate(-16.78 -145.04)"/><path d="M548.21,263.51l-4.79.7c1.9,4.22,3.92,8,5.12,12.06.2.66-3.14,3.3-4.9,3.36s-3.54-2-4.53-4.74l6.59.82c-1.33-5.7-12.3-8.14-4.38-14.91,1.33-1.13,4.72.14,7.15.3C548.39,261.9,548.3,262.7,548.21,263.51Z" transform="translate(-16.78 -145.04)"/><path d="M589.22,278.22c-6.83,3.23-8.74,2.25-8.77-5.45,0-4.16.36-8.33.56-12.49l2.87,0c.23,3.24,0,6.61.83,9.68C585.46,272.66,587.43,275,589.22,278.22Z" transform="translate(-16.78 -145.04)"/><path d="M486,276.84c-9.42,4.45-11.38,3.55-11.53-3.34-.1-4.32,0-8.64,0-14.33C482.72,264.09,473.36,275.36,486,276.84Z" transform="translate(-16.78 -145.04)"/><path d="M553.63,260.62H562c-1.25,6.61-2.42,12.77-3.59,18.93l-1.75-.25Z" transform="translate(-16.78 -145.04)"/><path d="M511.72,255.37c-.63-8.44,9.5-14.19.64-21.51l9.24,1.26C518.41,240.81,521.94,250,511.72,255.37Z" transform="translate(-16.78 -145.04)"/><path d="M506.8,299.06c-4.49.51-9,1.15-13.48,1.45-.9.06-2.66-1.2-2.67-1.88,0-1.87.09-4.83,1.17-5.39,1.94-1,4.68-.91,7-.58.69.1,1.05,2.5,1.71,4.23l2.81-4.34c1.21,2.29,2.33,4.42,3.45,6.56Z" transform="translate(-16.78 -145.04)"/><path d="M506.78,299.11c-.27-2.64-.54-5.27-.77-7.6l13.77.94-2,8.82c-3.86-1.29-7.32-2.46-10.79-3.59-.06,0-.33.36-.37.58a2.3,2.3,0,0,0,.16.76A.17.17,0,0,1,506.78,299.11Z" transform="translate(-16.78 -145.04)"/><path d="M464.18,209.93l3.63,5.79,4.87-8.25c1.67,5.37,2.85,9.15,4.18,13.4-2.5-.82-4.37-2.09-5.91-1.76s-3,2.2-5.52,4.23c-.37-4.3-.76-8.92-1.14-13.56Z" transform="translate(-16.78 -145.04)"/><path d="M512.12,217.06c1.68-4.59,3.11-8.47,4.53-12.36,1.6,1.79,4.23,3.4,4.58,5.4C522.05,214.72,520.89,218.73,512.12,217.06Z" transform="translate(-16.78 -145.04)"/><path d="M544,212.89l-6.72,7.18c-1.15-1.86-3.55-4-3.17-5.5.68-2.67,3-4.91,4.65-7.34Z" transform="translate(-16.78 -145.04)"/><path d="M502.75,243.17c-2.3,2-3.17,1.77-5-1.56l-2.18,4.44-2.25-3.15-3.52,3.94c-1.24-9.69,5.05-9.46,10.91-9.91.73,2.13,1.47,4.28,2.2,6.44Z" transform="translate(-16.78 -145.04)"/><path d="M435.81,280.27V259.73C440.16,264.76,440.23,274.3,435.81,280.27Z" transform="translate(-16.78 -145.04)"/><path d="M522.26,216.77c2.19-4,4.61-10.81,6-10.61,10.44,1.53-2.3,8.37,3.76,11.63Z" transform="translate(-16.78 -145.04)"/><path d="M493.82,217.14l1.42-11.56,5.57.83q-1.76,5.81-3.49,11.6Z" transform="translate(-16.78 -145.04)"/><path d="M524.66,307.48l4.45-18.62,1.89.52-1.65,19.1Z" transform="translate(-16.78 -145.04)"/><path d="M481.48,207.26l5.81,11-8,1.24V208Z" transform="translate(-16.78 -145.04)"/><path d="M502.89,243.37c1.37-4.19,2.2-9,8.61-7.19.21,2.39.41,4.67.76,8.57l-9.5-1.57Z" transform="translate(-16.78 -145.04)"/><path d="M509.13,205.07v11.81c-4.15.54-4.15.54-4.51-4C504,205.32,504.06,205.24,509.13,205.07Z" transform="translate(-16.78 -145.04)"/></svg>