<?xml version="1.0" encoding="utf-8"?>
<!-- Generator: Adobe Illustrator 26.0.0, SVG Export Plug-In . SVG Version: 6.00 Build 0)  -->
<svg version="1.1" id="Layer_1" xmlns="http://www.w3.org/2000/svg" xmlns:xlink="http://www.w3.org/1999/xlink" x="0px" y="0px"
	 viewBox="0 0 346 371" style="enable-background:new 0 0 346 371;" xml:space="preserve">
<style type="text/css">
	.st0{stroke:#000000;stroke-miterlimit:10;}
</style>
<g>
	<g>
		<path d="M111.2,259c-0.1-0.5-0.3-0.9-0.2-1.4c0.1-1.4-0.7-2.4-2.4-2.6c-3.5-0.5-7.1-0.5-10.6-1.9c-2-0.8-4.5-0.5-6.6-0.9
			c-1.5-0.3-3.1-0.7-3.9-2.2c-0.1-0.2-0.4-0.5-0.6-0.6c-2.9-0.5-3-3-3.5-5.1c-0.4-1.5-0.7-3.1-1.3-4.6c-0.9-2.4,0.6-3.8,1.8-5.3
			c1.8-2.2,3.6-4.3,5.4-6.5c0.1-0.2,0.2-0.4,0.2-0.6c0.4-3.2,0.7-6.5,1-9.8c0.1-0.7,0.4-1.3,0.4-2c0.3-4.9,0.6-9.8,0.9-14.7
			c0.1-2.4,0.3-4.9,0.6-7.3c1.5,1.8,0.4,3.9,1.2,6c0.3-0.9,0.9-1.8,0.9-2.6c0-1.6-0.2-3.1-2.2-3.8c-1.7-0.6-3.1-2-4.6-3
			c-2.2-1.6-3.2-3.9-3.6-6.4c-0.1-0.9,0.2-2.3,0.9-2.8c2.5-2,4.7-4,6.4-6.8c1.8-3,4-5.7,6.1-8.5c1.1-1.4,2.5-2.6,3.8-3.9
			c0.2-0.2,0.4-0.4,0.4-0.7c0.2-2.7,0.6-5.4,0.6-8.1c0-3.2-0.5-6.4-0.7-9.6c-0.1-1.2,0-2.4,0-3.6c0-0.2,0.2-0.5,0.4-0.7
			c1.9-1.8,3.8-3.6,5.7-5.4c0.6-0.6,1.3-1,1.9-1.5c0-0.2,0-0.3-0.1-0.5c-1.4-0.1-2.8-0.3-4.2-0.1c-3.6,0.5-7-0.4-10.4-1.4
			c-3.4-1.1-6.8-2.2-10.2-3.4c-3-1.1-4.8-3.4-5.6-6.4c-0.1-0.5,0.8-1.5,1.4-1.9c1.8-1.2,3.7-2.3,5.7-3.2c3-1.4,6.1-2.5,9.1-3.7
			c1.5-0.6,3-1,4.5-1.4c3.1-0.9,6.3-1.9,9.5-2.5c2.7-0.5,5.5-0.6,8.3-0.9c2.2-0.2,2.6-0.7,3.2-2.9c1.1-3.7,2.4-7.3,3.7-11
			c0.1-0.4,0.5-0.7,0.8-1c0.4-0.5,0.8-1,1.2-1.4c0.4-0.4,0.8-0.7,1.3-1.1c-0.1-0.1-0.4-0.3-0.3-0.3c0.1-0.8,0.2-1.4,0.4-1.9
			c0.3-1.2,0.6-2.5,0.9-3.7c0.2-0.7,0.2-1.4,0.5-2c0.2-0.6,0.6-1.2,1-2c0-0.1-0.2-0.5-0.5-1.2c0.6,0.1,1,0.1,1.4,0.2
			c0.4-1.3,0.9-2.5,1.3-3.8c-0.2-0.1-0.4-0.2-0.6-0.3c-0.5,1.1-0.9,2.1-1.4,3.2c-0.2-0.1-0.4-0.1-0.6-0.2c0.3-1.3,0.6-2.7,0.9-4
			c0.2-1.1,0.1-2.9,0.7-3.2c1.5-0.6,1.1-1.9,1.5-2.8c2.2-5.1,3.6-10.4,4.2-16c0.3-2.3,1.6-4.6,2.2-6.9c0.9-3.8,1.6-7.6,2.4-11.3
			c0.4-2.1,1-4.2,1.2-6.3c0.2-2.4,0.3-4.8-0.9-7.4c0.6-0.2,1.3-0.3,1.9-0.6c1.3-0.6,2.6-1.3,3.9-1.9c0.8-0.3,1.6-0.7,2.4-0.7
			c3.3-0.1,6.6-0.1,9.9,0.1c3.5,0.2,7.1,0.3,10.6,0.8c3.5,0.5,7,1.6,10.5,2.3c2.7,0.5,5.4,0.7,8.1,1.1c2,0.3,4,0.6,6,1
			c2.2,0.4,4.4,0.9,6.6,1.3c5.2,0.9,10.5,1.6,15.7,2.8c3.5,0.8,6.9,2.4,10.3,3.6c2.4,0.9,4.8,1.8,7.1,2.8c2.4,1,4.7,2.2,7,3.4
			c3.5,1.7,7.1,3.3,10.6,5.2c2.2,1.2,4.3,2.6,6.4,4c1.8,1.2,3.5,2.4,5.1,3.7c2.3,1.7,4.6,3.4,6.8,5.2c3,2.4,5.3,5.3,7.2,8.6
			c0.8,1.4,1.6,2.8,0.5,4.5c-0.4,0.6-0.1,1.6-0.2,2.3c0,0.3,0.1,0.6,0,0.8c-1.3,2.8-2,5.7-3.6,8.3c-1.3,2.2-2.5,4.5-4.3,6.3
			c-0.1,0.1,0.1,0.8,0.2,0.9c1.1,0.3,0.8,1,0.5,1.7c-1.6,3.6-3.3,7.1-5,10.6c-0.6,1.2-1.4,2.5-1.3,3.8c0,2.7-1.9,4.4-2.8,6.6
			c-1.1,2.6-2.1,5.2-3,7.8c-0.9,2.4-1.8,4.8-2.3,7.2c-0.2,1.3-0.6,2.4-1.2,3.6c-0.5,0.9-0.4,2.3-0.5,3.4c-0.1,0.5-0.1,1.1-0.4,1.6
			c-0.7,1.4-1.1,2.7-1.2,4.5c-0.1,2.9-1,5.8-2,8.6c-1.2,3.6-1.4,3.5,1.8,5.7c0.9,0.6,1.5,1.4,2.2,2.2c1.7,1.8,3.2,3.9,5.2,5.3
			c4.4,3.1,7.4,7.2,9.9,11.8c2.2,4.1,3.6,8.5,3.4,13.2c-0.1,3.7-0.8,7.3-1.3,11c-0.1,0.5-0.7,0.9-1.1,1.4c0,0,0.1,0.1,0.2,0.2
			c-0.5,0.6-1,1.1-1.5,1.7c-0.2,0.1-0.8,0.1-1,0.4c-1.9,2.6-4.9,2.2-7.5,3.1c-1.3,0.5-2.7,0.6-4,0.9c-2.8,0.7-5.4-0.4-8-0.8
			c-2.2-0.3-4.4-0.7-6.6-0.9c-2-0.2-2.4-0.8-1.5-2.9c-0.1-0.1-0.3-0.1-0.4-0.1c-0.4,1-0.9,2-1.1,3c-0.3,1.2-0.3,2.5-0.8,3.6
			c-0.7,1.4-1.6,2.7-2.7,3.8c-3,3.2-6,6.4-9.3,9.3c-2.1,1.8-3.7,3.9-5.1,6.2c-1.4,2.2-3.1,4.2-4.6,6.3c-0.9,1.2-2.1,2.3-2.4,3.6
			c-0.4,1.5,0,3.1,0.3,4.6c0.7,3.3,1.7,6.5,2.5,9.8c0.1,0.2,0.1,0.5,0.3,0.6c1.5,0.5,0.9,1.9,1.2,2.9c0.6,1.9,0.9,3.9,1.6,5.8
			c1,2.7,1.8,5.4,2,8.3c0.2,2.5,0.2,5.1,0.4,7.6c0.1,1.4,0.5,2.7,0.7,4.1c0.1,0.5,0.2,1,0.2,1.5c0,1.4-0.2,2.9,0,4.2
			c0.5,3.4-1.1,5.3-3.9,6.7c-0.3,0.1-0.5,0.6-0.7,0.9c-2.1,2.7-4.1,5.6-7.1,7.4c-0.9,0.6-2.2,0.7-3.3,1c-1.4,1.1-2.9,2.4-4.5,3.5
			c-4.2,2.9-8.8,4.8-13.6,6.3c-1.8,0.6-3.7,0.2-5.5,0.1c-1.1-0.1-1.4,0.1-1.3,1.5c0.3,3.4,0.1,6.8,0.1,10.2c0,1.3,0.5,2.1,1.5,3
			c0.7,0.7,0.9,2.8,0.4,3.8c-1.3,2.7-3.5,3.3-6.4,2.6c-0.2,0-0.3-0.1-0.5-0.1c-3.5,0.4-6.6-1.3-10-1.4c-0.6,0-1.1-0.5-1.7-0.7
			c0-0.2,0-0.5,0.1-0.7c1.2-0.1,2.5-0.3,3.7-0.4c0-0.2,0-0.4,0-0.5c-1.6,0.1-3.2,0.2-4.8,0.5c-3.4,0.6-6.8,1.3-10.2,2
			c-1.1,0.2-2.2,0.4-3.2,0.8c-0.3,0.1-0.4,0.9-0.6,1.5c-1.9,0.1-4,0.5-6.1,0.5c-3.5-0.1-6.3,1.5-9,3.4c-3.5,2.5-6.9,5.2-10.5,7.7
			c-2.3,1.6-4.7,3.1-7,4.8c-1.1,0.8-3,0.5-3.5,2.4c0,0.1-0.7,0-1.2,0c-0.2,0.4-0.4,1-0.7,1.7c-0.1,0-0.3,0-0.5,0
			c-0.3-2.9-0.5-5.9-1-8.8c-0.1-0.9-1.3-1.6-2.1-2.2c-0.7-0.5-1.5-0.9-2.2-1.3c0.4-0.6,0.7-1.1,0.9-1.6c-0.1-0.1-0.1-0.2-0.2-0.3
			c-2-0.5-2-1.9-2.1-3.6c-0.2-4.3-0.4-8.7-1.2-13c-0.8-4.3-0.7-8.8,0.6-13.1c0.9-2.8,1.5-5.8,1.8-8.7c0.1-1.3-0.2-2.7,0.2-4
			c0.8-2.8,1.6-5.7,2.4-8.5c0.1-0.5,0.3-1.1,0.3-1.6c0-5.4,0.1-10.8,0-16.1c0-2.1-0.7-4.1-1-6.2c-0.1-0.6,0.1-1.2,0.1-1.8
			C111.4,259,111.3,259,111.2,259z M163.9,135.1c0.1,0.2,0.2,0.7,0.4,0.7c1.5,0.1,2.9,0,4.4,0C167,135.5,165.6,133.9,163.9,135.1
			c-0.1-0.1-0.2-0.3-0.2-0.3c-2.2-0.2-4.4-0.4-6.6-0.5c0,0.1-0.1,0.2-0.1,0.4c0.3,0.2,0.6,0.4,1.1,0.7c-1.2,0.2-2.3,0.3-3.3,0.5
			c0,0.1,0,0.1,0,0.2c1.3,0.2,2.5,0.5,4.1,0.8C160,135.6,162.4,136.6,163.9,135.1z M165.3,168.7c0.5,0.4,1.1,0.7,1.7,1.2
			c0.1-2-0.2-3.9-1.5-5.5c-2.5-3.3-5.2-6.5-7.6-9.8c-0.8-1.1-1.7-1.6-2.8-1.8c-0.9-0.2-1.9-0.1-2.8,0c-0.4,0-0.8,0.4-1.2,0.6
			c0.4,0.5,0.8,1.3,1.2,1.3c1.3,0.2,2.7,0.1,4.1,0.1c0.4,0,0.7,0.1,1.1,0.2c0,0.1,0,0.2,0,0.3c-1.4,0.2-2.9,0.4-4.6,0.6
			c0.9,1.1,1.6,2,2.4,2.9c0.1-0.1,0.2-0.1,0.3-0.2c-0.4-0.5-0.7-1-1.1-1.5c0.4,0,0.7,0.2,0.9,0.4c2.5,2.7,5.1,5.4,7.6,8.2
			C163.8,166.6,164.5,167.7,165.3,168.7c-1.7-1.5-3.4-3.1-5.2-4.7s-3.4-3.2-6.6-2.1c2.2,1.4,4,2.6,5.9,3.8c0.1-0.1,0.2-0.2,0.3-0.3
			c-0.3,0.1-0.7,0.2-0.8,0.2c2.9,3.7,5.8,7.5,8.7,11.3C167.7,173.8,167.6,170.9,165.3,168.7z M155.1,146.2c-1.9-1.5-4.2-2.2-6.5-1.6
			c-3.2,0.7-6.3,1.8-9.4,2.7c-1.4,0.4-2.8,0.9-4.1,1.4c1.5,0.1,2.8-0.3,4.1-0.5c3.8-0.6,7.5-1.3,11.3-1.9c2-0.3,3,0.2,3.3,0.8
			c-4.4,0.7-8.9,1.4-13.6,2.1c1.2,1.6,1.2,1.5,3.5,0.9c2.4-0.6,4.8-1.2,7.3-0.8c1.1,0.1,2.3-0.1,3.4-0.2c4.3,5.6,8.7,11.4,13.3,17.5
			c0-0.7,0.1-0.9,0-1.1c-0.8-2-1.6-4.1-2.5-6.1c-0.7-1.7-1.3-3.5-2.5-4.8c-1.5-1.8-3.4-3.2-5.1-4.9
			C156.7,148.6,155.9,147.4,155.1,146.2c2.4,2.4,4.8,4.9,7.4,7.6c0-2.7-1.3-3.9-3.1-4.9c-1-0.6-2.5-1.2-2.7-2.1
			c-0.3-1.5-1.1-1.7-2.2-1.9C154.8,145.4,154.9,145.8,155.1,146.2z M160.3,267.8c-0.2,0.2-0.4,0.6-0.7,0.7
			c-3.8,1.3-7.6,2.6-11.4,3.8c-2.8,0.9-5.7,1.7-8.6,2.6c2.5,1.5,4.7,1.9,6.3,1.2c0.4-0.2,0.7-0.5,1-0.6c4.5-2,9-3.9,13.4-5.9
			c1.1-0.5,2.1-1.2,3.2-1.9c-0.1-0.1-0.1-0.3-0.2-0.4C162.4,267.4,161.3,267.6,160.3,267.8c3-1.2,5.6-3,7.1-6.1
			c-2.8,1-5.7,2.3-8.7,3.1c-5.4,1.4-11,2.5-16.4,3.8c-0.4,0.1-0.8,0.6-0.9,0.7c-3.9-0.7-8,0-11.3-2.6c-0.1,0.3-0.2,0.5-0.4,0.8
			c1.4,0.8,2.7,2,4.2,2.3c3.2,0.7,6.5,1.3,9.8,0.5c3.3-0.8,6.6-1.4,9.9-2.1c1.3-0.3,2.6-0.5,3.8-0.8c-0.9,0.5-1.9,0.8-2.8,1.1
			c-4.6,1.6-9.5,1.7-14,3.6c-0.1,0-0.3-0.1-0.4-0.2c-2.1-0.6-4.1-0.4-6.3,0.1c1.2,2.4,3.5,2.3,5.1,1.9c4.1-0.9,8-2.3,12-3.5
			C154.2,269.6,157.3,268.7,160.3,267.8z M208.1,221.3c-0.5,0.6-1.1,1.3-1.6,2c0.2,0.1,0.5,0.2,0.8,0.2c-5.8,4.5-11.5,9-17.2,13.4
			c0.1,0.1,0.2,0.3,0.3,0.4c7.6-5.6,16-10.2,22.5-17.3c-0.1-0.2-0.3-0.3-0.4-0.5c-1.2,1-2.4,2-3.9,3.3c0.2-0.7,0.3-1.1,0.4-1.5
			C208.7,221.3,208.4,221.3,208.1,221.3c0.3-0.8,0.6-1.6,1-2.7c-5.1,4-9.8,7.7-14.6,11.2c-4.5,3.2-9,6.4-13.8,9.1
			c-6.4,3.7-12.2,8.1-17.5,13.2c-0.3,0.3-0.7,0.6-1.1,0.7c-2.2,0.6-4.3,1.3-6.5,1.8c-6,1.4-12,2.8-18,4c-3.2,0.6-6.5,0.7-9.8,1.1
			c-1.1,0.1-2.2,0.3-3.3,0.5c0,0.2,0,0.4,0,0.6c1.8,0.3,3.6,0.9,5.4,0.9c2.1,0,4.3-0.6,6.4-1c3.8-0.7,7.6-1.4,11.4-2.2
			c4.4-1,8.8-2.1,13.2-3.2c3.2-0.8,6.4-1.6,9-4c0.7-0.6,1.4-1.3,2.2-1.8c4.7-3.1,9.3-6.1,14-9.2c0.3-0.2,0.4-0.5,0.6-0.9
			c0.2-0.4,0.4-1,0.7-1.3c0.6-0.5,1.3-0.9,1.9-1.3c0.6-0.4,1.1-0.8,1.7-1.1c-0.2-0.2-0.4-0.4-0.5-0.5c-7,4.9-13.9,10-21.5,13.9
			c0.2-0.5,0.5-0.7,0.9-1c4.1-2.8,8.2-5.6,12.3-8.5c4.4-3,8.7-6.1,13.1-9.2c2.4-1.7,4.8-3.5,7.2-5.2
			C204.3,223.9,206.2,222.6,208.1,221.3z M147.2,284.1L147.2,284.1c-0.2,0.5-0.3,1.3-0.7,1.6c-0.9,0.5-2,1.1-3,1.1
			c-1.3-0.1-2.5-0.7-3.7-1.2c-1.2-0.5-2.3-1.1-3.5-1.7c-0.1,0.1-0.2,0.2-0.3,0.3c1.3,2.6,2.7,5.2,4,7.9c-0.1,0.1-0.3,0.1-0.4,0.2
			c-0.6-1-1.2-2.1-1.9-3.2c-0.3,0.4-0.5,0.8-0.6,0.9c-1.9-3.6-4-7.3-5.7-11.1c-1.5-3.5-4.1-6.3-6.4-9.2c-3.2-4-6.5-8.1-9.6-12.2
			c-0.8-1.1-1.7-1.5-3.4-1.6c0.5,1,1.3,1.8,1.2,2.4c-0.1,2,1,3.7,0.9,5.8c-0.2,3,0.3,6,0.6,9c0.1,0.6,0.6,1.3,1.1,1.7
			c1.4,1.2,3,2.1,4.3,3.4c2.5,2.4,4.8,5,7.3,7.5c1.1,1.2,2.8,2,3.5,3.4c1.1,2.1,2.9,3.2,4.7,4.3c1.3,0.8,1.9,1.6,1.4,3.1
			c-2-0.1-2.4-0.6-1.9-1.4c-3.4-3-6.7-6-10.1-9c1.3,1.8,2.3,3.6,3.7,5c1.3,1.2,1.8,3.4,4,3.7c0.2,0,0.2,0.8,0.5,1.5
			c0.4,0.1,1.1,0.5,2.1,0.9c-0.6,0.3-1.1,0.5-1.3,0.6c0.4,0.8,0.8,1.5,1.2,2.1c1,1.4,0.2,3.9,2.8,4.3c-0.4,0.6-0.8,1.1-1.2,1.8
			c1.3,0.1,2.2,0.2,1.6-1.3c-0.4-0.8-1-1.7-1-2.5c0.1-2.7,0.7-2.9,3.4-3.5c1.7-0.4,3.1-1.4,5.2-0.9c2.4,0.5,5,0.2,7.5,0.2
			c1.5,0,3.1,0.2,4.5-0.2c4.4-1.2,8.6-3.6,13.5-2.6c0.3,0.1,0.8-0.4,1.1-0.6c0.6-0.4,1.1-1.1,1.8-1.3c1.6-0.6,2.5,0.2,3.2,1.7
			c0.1-0.7,0-1.4,0-2c0-0.3,0.3-0.5,0.6-0.7c0.1,0,0.5,0.3,0.6,0.5c0.1,0.7-0.1,1.5,0,2.2c0.2,1.7,0.5,3.5,0.8,5.2
			c0.1,0,0.2,0,0.3,0c0.1-0.3,0.2-0.6,0.3-0.9c1.7,0.9,1.7,2.3,1.5,3.9c0,0.4,0.3,0.8,0.6,1.5c0.2-1.3,0.5-2.1,0.4-2.9
			c-0.4-2.8-1-5.7-1.6-8.5c-0.1-0.4-0.2-0.9-0.1-1.1c0.2-0.4,0.7-0.7,1.1-0.8c1.8-0.6,3.8-0.8,5.3-1.9c2.3-1.6,4.2-3.8,6.2-5.7
			c3.1-3,6.2-5.9,9.2-8.9c1.1-1,2-2.2,3-3.3c1.5-1.6,3.3-3.1,4.6-4.9c1.6-2.1,2.9-4.5,4.3-6.8c0.2-0.2,0.4-0.4,0.6-0.6
			c0.2,0.2,0.7,0.5,0.7,0.8c0,0.6-0.1,1.3-0.3,1.9c-0.1,0.4-0.6,0.7-0.9,1c-2.1,2.9-3.9,6.1-6.3,8.7c-4.1,4.5-8.6,8.7-12.9,13
			c-0.2,0.2-0.4,0.6-0.6,0.9c2.3-1.7,4.3-3.6,6.5-5.4c4.8-4,9.5-8.2,13.8-12.8c1.6-1.8,3.1-3.5,3.9-5.9c0.1-0.4,0.3-0.8,0.2-1.1
			c-0.3-1.6-0.8-3.1-1.1-4.7c-0.8-3.7-1.5-7.5-2.2-11.2c-0.6-3.1-1.2-6.2-1.8-9.5c-1.2,1-2.2,1.8-3.2,2.6c-0.4,0.3-1,0.2-1.3,0.5
			c-1.5,1.2-2.8,2.7-4.4,3.8c-3.9,2.7-8.1,5.1-11.9,7.9c-5,3.8-10.7,6.4-16.1,9.5c-3.1,1.8-6.2,3.8-8.7,6.4
			c-4.3,4.5-8,9.6-11.9,14.5c-2.8,3.5-5.3,7.1-8,10.6c-0.3,0.4-0.9,0.5-1.3,0.8c1.1-2,2.4-3.7,3.7-5.5c0.3-0.4,0.3-0.9,0.5-1.3
			c0.7-1.4,1.2-2.9,2.1-4c0.7-1,1.9-1.6,2.9-2.5c-0.1-0.2-0.2-0.3-0.3-0.5c-1.1,0.5-2.2,1-3.2,1.5c2.5-2.2,6.3-2.9,7.5-6.7
			c-4.6,2.5-9.1,5.1-13.6,7.7c-0.7,0.4-1.8,0.6-2.6,0.5c-2-0.2-3.9-0.7-5.9-1.1c-1.5-0.3-2.9-2-2.5-3c-1.8-1.1-3.5-2.3-5.1-3.3
			c0.6,1.3,1.3,2.9,2,4.5c1.4,3,2.8,5.8,6.4,7C142,285.3,144.6,286.3,147.2,284.1z M110.9,210.6c0.3,0.1,0.7,0.2,0.8,0.4
			c1.2,2.3,2.3,4.6,3.4,7c0.4,0.9,0.7,2,1.1,2.9c0.9,1.9,0.5,3.9-1,4.6c1.4-1.8,0.9-4.5-1.3-6.9c0.4,1.9,0.9,3.7,1.3,5.6
			c-0.1,0-0.3,0.1-0.4,0.1c-0.1-0.3-0.2-0.7-0.4-1c-0.7-1.7-0.7-4.1-3.4-4.2c-1.1,0-2.2-0.3-3.4-0.4c-0.6-0.1-1.4,0-1.8-0.3
			c-2.9-2.2-6.5-2.6-9.6-4.2c-0.3-0.1-0.9,0-1.1,0.2c-1.1,1.4-2.1,2.9-3.3,4.5c1.9,0.6,2.3,0.3,2-1.6c0.3,0.4,0.6,0.7,0.9,1
			c0.6-0.2,1-0.5,1.4-0.6c1.6,0.9,2.1,3.1,4.3,2.8c-0.2,0.5-0.3,0.8-0.5,1.2c0.7,0,1.4-0.1,2.1-0.1c-0.6,0.8-1.3,1.6-2.3,2.8
			c1.4-0.5,2.3-0.8,3.2-1c0,0.1,0.1,0.2,0.1,0.3c-1.9,1.2-3.9,2.4-5.8,3.5c-0.1-0.1-0.3-0.3-0.5-0.4c0.6-0.8,1.2-1.7,1.8-2.5
			c-2.6,1.1-8.9,6.1-9,7.3c1.4-1.1,2.9-2.1,4.3-3.2c-0.2,0.9-0.6,1.6-1.2,2c-2.4,1.6-5.4,2.6-6.6,5.6c-0.1,0.1-0.4,0.1-0.5,0.3
			c-0.4,0.5-1,1-1,1.5c-0.2,3.4,0.9,6.6,2.1,9.7c0.1,0.2,0.5,0.3,0.6,0.3c-0.7-2.9-1.3-5.8-2-8.6c0.2,0,0.4-0.1,0.6-0.1
			c0.8,2.8,0.9,5.8,3,8c-0.6-3.2-2.7-6.1-1.8-9.5c0.5,1.6,1,3.1,1.6,4.7c0.2,0,0.3-0.1,0.5-0.2c-0.1-0.9-0.3-1.8-0.5-3.1
			c2.4,3.9,2.4,3.9,3.8,4c-0.6-1.7-1.1-3.3-1.7-5c1.6,1.7,1.6,4.5,4.6,5.4c-0.4-1.1-0.6-1.7-0.8-2.3c0.9,1.7,2,2.8,4,2.6
			c0-0.4-0.1-0.7,0-0.6c0.9,0.2,1.7,0.7,2.5,0.6c1-0.1,2-0.7,2.9-1l0,0c-0.2,0.4-0.4,0.9-0.7,1.4c1.2,0.1,2.6,0.1,4,0.2
			c0-0.2,0-0.4,0-0.5c-0.7,0-1.5,0-2.2,0c0.4-0.3,0.8-0.6,1.2-0.5c1.7,0.4,3.1-0.2,4.5-1.1c0.6-0.4,1.3-0.7,2-1.1l0,0
			c-0.8,0.8-1.5,1.5-2.4,2.4c1.5-0.1,2.8-0.1,4.1-0.3c0.8-0.1,1.7-0.3,2.4-0.6c1.1-0.5,2.1-1.2,3.1-1.8l0,0c-0.9,0.9-1.8,1.8-3,3
			c1.6-0.3,2.9-0.3,4-0.9c6.5-3.4,13-7,19.4-10.5c0,0.1,0,0.2,0,0.2c1.5-0.5,3-1.1,4.5-1.6c0,0.1,0,0.1,0.1,0.2
			c-7,3.6-13.9,7.2-21.3,11c3.2,0.3,5.8,0.2,8.3-1.5c2.4-1.6,5.1-2.9,7.8-4.1c3.1-1.4,6.3-2.6,9.5-3.8c0.3-0.1,0.7-0.1,1-0.2
			c-0.3,0.3-0.5,0.6-0.9,0.8c-4.9,2.2-9.8,4.4-14.6,6.6c-1,0.4-1.8,1-2.8,1.6c7.3,0,13-4.8,19.8-5.8c-3.6,1.5-7.1,3-10.8,4.5
			c0.3,0.3,0.4,0.4,0.4,0.4c3.2-0.2,6.4-0.4,9.6-0.7c1.9-0.1,3.3-1.2,4.5-2.6c0.8-0.9,1.6-1.8,2.3-2.7c2.4-3,4.8-6,7.3-9
			c1.6-2,3.4-4,3.8-6.9c-1.8,2.4-3.5,4.6-5.3,6.8c-2.7,3.4-5.4,6.7-8.1,10.1c-1.7,2.1-4.2,2.1-6.5,2.5c2.4-1.1,5.2-1.2,6.7-4.1
			c1.2-2.2,3.5-3.9,5.2-5.9c2.4-2.9,4.6-5.9,7-8.9c1.9-2.4,3.8-4.6,5.6-7c3.3-4.5,6.5-9.1,9.7-13.7c1.2-1.7,2.5-3.3,3.8-5
			c-1,0.5-1.9,1.3-2.8,1.9c-2.5,1.6-4.4,3.9-6.2,6.2c-2.5,3.3-5,6.6-7.4,10c-2.2,3.1-4.4,6.2-6.6,9.4c-1.3,1.9-2.6,3.9-3.8,5.8
			c6.8-13.1,16.1-24.5,24.8-36.4c-0.8,0.3-1.5,0.8-2.1,1.2c-0.7,0.4-1.6,0.7-2.1,1.3c-1.3,1.5-2.4,3.2-3.6,4.7
			c-4.5,5.8-9,11.6-13.5,17.4c-1.5,1.9-2.8,4-4.2,6c6-10.9,13.8-20.5,21.7-30.1c-1.1-1-2-0.8-2.7,0.5c-0.3,0.6-0.9,1.2-1.3,1.7
			c-2,2.4-4,4.6-5.9,7.1c-2.2,2.9-4.4,5.9-6.5,8.8c-2,2.8-3.8,5.6-5.8,8.3c-0.8,1.2-1.8,2.3-2.6,3.5c6.2-11.1,13.9-21,22-30.9
			c-0.7,0-1.5-0.1-1.9,0.3c-1.2,1.1-2.4,2.3-3.5,3.6c-1.6,1.9-3.2,3.8-4.8,5.7c-3.3,4-6.6,8-10,12c-1.2,1.5-2.5,3-3.7,4.5
			c6.2-9.4,13.6-17.8,21.2-26.1c-2.1-0.8-2.1-0.8-3.5,0.6c-1.1,1.1-2.2,2.1-3.3,3.3c-3.8,4.2-7.5,8.4-11.2,12.5
			c-0.6,0.7-1.4,1.4-2.1,2.1c-0.1-0.1-0.2-0.3-0.4-0.4c4.5-5.1,9-10.1,13.5-15.2c-0.1-0.1-0.1-0.2-0.2-0.2
			c-11.1,8.1-22.3,16.3-33.7,24.6c0.5-0.6,0.9-1,1.3-1.4c5.4-4.2,10.7-8.5,16.2-12.6c5-3.7,10.3-7,15.4-10.6
			c1.9-1.3,4.2-2.4,5.3-4.6c-1.8-0.6-2.4-0.5-3.8,0.4c-1,0.7-1.9,1.5-2.9,2.2c-5.4,3.8-10.9,7.5-16.3,11.3
			c-4.8,3.3-9.7,6.7-14.5,10.1c-2.1,1.5-4.2,3.1-6.3,4.6c-0.1-1.7,1.6-1.8,2.6-2.6c4.1-3.1,8.1-6.3,12.3-9.4c4.3-3.1,8.7-6.1,13.2-9
			c4.3-2.9,8.5-5.8,12.9-8.4c1.2-0.7,1.6-1.6,1.8-2.7c0.1-0.6-0.3-1.2-0.6-2.3c-0.4,0.9-0.7,1.6-0.9,2.2c-0.1,0.6,0,1.2,0,1.9
			c-0.2,0.1-0.3,0.1-0.5,0.2c-0.4-1.4-1.1-1.2-1.9-0.7c-0.6,0.4-1.3,0.9-2,1.3c-4.6,2.9-9.3,5.8-13.9,8.9c-4.4,2.9-8.6,6-12.9,9
			c-2,1.4-4,2.8-6.1,4.2c-0.1-0.1-0.2-0.2-0.3-0.4c0.5-0.4,0.9-0.8,1.4-1.2c5.4-3.9,10.7-8,16.3-11.7c5.9-3.9,12.1-7.3,18.1-11
			c0.5-0.3,1-1.6,0.8-1.9c-1.2-2-0.3-4.9-3-6.1c-0.9-0.4-1.4-1.7-2-2.6c-1.6-1.9-3.1-4-4.8-5.8c-1.9-1.9-4.1-3.5-6-5.5
			c-0.9-1-1.7-1.2-3.4-0.8c2.9,2.7,5.6,5.1,8,7.7c2.4,2.7,4.5,5.7,6.8,8.6c-0.1,0.1-0.2,0.2-0.3,0.3c-2.8-2-4.2-5.3-6.6-7.7
			c-2.5-2.5-5.3-4.7-8-7.1c-2.6-2.4-4.7-5.4-8.4-6.5c4.8,4.5,9.6,9,14.4,13.6c-0.2,0.2-0.3,0.3-0.5,0.5c-0.5-0.6-0.9-1.2-1.4-1.7
			c-0.5-0.5-1.1-0.8-1.7-1.2c3.3,3.9,6.9,7.3,9.5,11.6c-1.3-1.2-2.5-2.6-3.7-3.9c-2.1-2.3-4.1-4.6-6.2-6.9c-1.7-1.9-3.5-3.8-5.3-5.6
			c-0.8-0.8-1.9-1.2-2.5-2c-1.6-1.8-3-3.7-4.5-5.6c-1.5-1.8-4-3.1-5.7-3c2.7,2.5,5.6,5.1,8.5,7.8c-0.1,0.1-0.2,0.2-0.3,0.4
			c-1.5-1.2-2.9-2.5-4.4-3.6c-1.5-1.1-3.1-2.1-4.7-3.1c-1.6-0.9-3.2-1.7-4.9-2.6c-0.1,0.1-0.1,0.3-0.2,0.4c0.5,0.4,0.9,0.8,1.4,1.1
			c2.9,2,5.5,4.1,7.5,7c0.9,1.3,1.8,2.8,2.9,3.8c2.6,2.4,5.6,4.4,8.2,6.8c2.9,2.6,5.7,5.4,8.5,8.1c0.3,0.3,0.5,0.6,0.7,0.9
			c-0.1,0.1-0.2,0.2-0.4,0.3c-3.2-2.8-5.5-6.7-9.8-9.1c0.7,1,1.1,1.7,1.5,2.3c-2.3-1.7-4.5-3.4-6.8-5.2c-0.1,0.2-0.3,0.4-0.4,0.5
			c1.9,2,3.7,4,5.4,5.7c-0.2-0.1-0.7-0.3-1.3-0.5c0,0.1-0.1,0.2-0.2,0.3c1.2,0.9,2.5,1.8,3.7,2.7c-4.3-0.7-6.8-4.1-10-6.5
			c-0.1,0.2-0.3,0.4-0.5,0.6c2.4,2.1,4.9,4.3,7.1,6.2c-1.8-0.6-3.9-1.1-5.7-2.1c-1.7-0.9-3.1-2.2-4.6-3.5c-1.2-1.1-2.1-2.6-3.5-3.5
			c-2.1-1.6-4.5-2.9-6.7-4.2c-0.4-0.2-0.9-0.2-1.3-0.2c-0.1,0-0.3,0.1-0.5,0.2c0.2,0.4,0.5,0.9,0.7,1.2c-0.4,0.1-0.7,0.1-1,0.1
			c1.8,1.2,3.5,2.4,5.3,3.5c0.8,0.5,1.9,0.6,2.7,1.1c1.7,1.1,3.2,2.4,4.8,3.6c1.8,1.3,3.7,2.5,5.6,3.7c0,0.1-0.2,0.3-0.4,0.7
			c1.8,0.9,3.6,1.7,5.4,2.6c-0.1,0.2-0.2,0.4-0.3,0.6c-4.1-2.2-8.3-4.4-12.4-6.6c-0.1,0.2-0.2,0.3-0.3,0.5c0.7,0.4,1.4,0.9,2.1,1.3
			c-0.1,0.2-0.2,0.4-0.3,0.6c-1.1-0.5-2.1-1.1-3.5-1.8c-0.8,0.5-1.8,1.1-2.8,1.8c0,0.1,0.1,0.3,0.1,0.4c0.5,0.1,1.1,0.1,1.6,0.2
			c-0.7,1.7,0.4,1.6,1.5,1.4c0,0.6,0,1,0,1.4c-0.7,0-1.3,0-2.2,0c0.4,0.9,0.7,1.6,1,2.4c-0.1,0-0.1,0.1-0.2,0.1
			c-0.5-0.6-1.1-1.3-1.6-1.9c-0.4,0.2-0.8,0.4-1.1,0.6c0.1-0.2,0.2-0.3,0.2-0.5c-0.7-0.6-1.3-1.4-2.1-1.6c-0.8-0.1-1.7,0.4-2.5,0.7
			c0.3-0.5,0.7-1.1,1.1-1.8c-0.1-0.1-0.2-0.1-0.3-0.2c-3.1,2.7-6.2,5.4-9.3,8.1c-0.1-0.1-0.2-0.3-0.4-0.4c2.7-2.6,5.5-5.2,8.5-8.1
			c-0.7,0-1,0.1-1.3,0.1c-0.4,0.1-0.9,0.1-1.2,0.3c-1.4,1.2-2.8,2.5-4.2,3.8c-0.3,0.3-0.5,0.8-0.7,1.2c-1.1,0.8-2.2,1.5-3.3,2.3
			c2-3.8,5.4-6.3,8.2-9.2c-0.1-0.1-0.2-0.3-0.4-0.4c-2.3,1.9-4.6,3.9-6.9,5.8c-0.1-0.1-0.2-0.1-0.2-0.1c0.9-1.5,1.8-3.1,2.7-4.7
			c-0.8,0.6-1.6,1.1-2.4,1.7c-0.1-0.1-0.1-0.2-0.2-0.2c0.3-0.5,0.7-1.1,1.2-1.9c-1.2,0.8-2.1,1.4-3,2l0,0c0.5-0.6,1-1.1,1.6-1.6
			c1.1-1,2.1-2,3.2-3.1c-0.2-0.2-0.3-0.3-0.5-0.5c-1.6,1.6-3.3,3.2-4.9,4.7c-0.3,0.3-0.8,0.5-1.1,0.8l0,0c0.8-3.2,3.7-4.7,5.6-7
			c-5.5,3-8.2,8.4-11.6,13.6c-2.3-0.3-4.9-0.7-7.6-1.1c0.5-0.8,0.9-1.3,1.2-1.9c-1-0.2-1.8-0.3-2.5-0.5c0-0.1,0-0.2,0-0.3
			c0.3-0.1,0.5-0.2,0.8-0.3c1.6,0.6,2.8,0.2,3.5-1.4c0.6-1.4,1.3-2.8,2.2-4.1c0.7-1,1.7-1.9,2.6-2.8c-0.1-0.1-0.2-0.3-0.3-0.4
			c-0.7,0.4-1.6,0.8-2.2,1.4c-2,2.4-3.9,4.9-5.9,7.4c0.4-0.8,0.7-1.6,1.1-2.3c0.5-0.9,1-1.8,1.4-2.6c0.7-0.8,1.5-1.5,2.2-2.3
			c1.7-1.9,3.3-3.9,5-5.9c-0.5,0-1,0.2-1.3,0.5c-1.4,1.6-2.8,3.1-4,4.8c-0.7,0.9-1.2,1.9-1.8,2.9c-0.7,0.8-1.4,1.6-2,2.4
			c-0.1-0.1-0.1-0.2-0.2-0.3c0.8-1.6,1.7-3.2,2.5-4.9c0.6-0.8,1.1-1.6,1.7-2.4c1.7-2,3.3-3.9,5-5.9c0-0.1-0.1-0.1-0.1-0.1
			c-0.9,0.6-1.7,1.1-2.6,1.7c-0.1-0.1-0.2-0.3-0.3-0.4c2.5-2.5,4.9-4.9,7.4-7.4c-0.1-0.1-0.3-0.3-0.4-0.4c-3.2,2.8-6.4,5.7-9.6,8.5
			c-1.6-1.3,1-1.8,1-3c-1.3,0.7-2.1,1.4-2.7,2.8c-0.9,1.7-2.4,3.1-3.5,4.7c-0.8,1.1-1.2,2.5-2.1,3.4c-2,2.1-4.2,4-6.3,5.9
			c-1.1,1-1.1,1-0.6,2.3c2.6-2.2,4.5-5.3,8.1-6.4c-2.7,2.3-5.3,4.6-8,6.9c0.6-0.4,1.1-0.7,1.7-1.1c0.1,0.8,0.2,1.6,0.4,2.7
			c2.1-0.8,4.7-1.1,7.7,0c-1.5,0.4-2.7,0.6-3.8,0.9c1.4,0.3,2.8,0.5,4.1,0.2c2.3-0.6,4.5-0.5,6.6,0.7c1.4,0.8,2.6,1.9,3.9,2.9
			c0-0.3-0.1-0.6-0.2-1c0.1-0.1,0.3-0.1,0.4-0.2c1.2,1.9,2.5,3.9,3.6,5.6c-1.2,3.4-4.7,2.3-6.5,4.1c-0.8-0.7-1.5-1.4-2.2-2
			c-1.5,0.7-2.2,2.5-2.2,4.4c0,1.3-0.5,2.7-0.8,4.1c0,0.2-0.5,0.3-0.9,0.4c-1,0.1-2,0.2-3.1,0.3c1,2.3,2.4,3.1,4.5,2.4
			c1.1-0.4,1.9,0.1,2.8,0.9c1.4,1.3,2.9,2.4,4.4,3.5c0.1-0.1,0.2-0.2,0.3-0.3c-1.7-2.1-3.5-4.1-5.2-6.1c0.2-0.1,0.3-0.3,0.5-0.4
			c2.3,2.8,4.6,5.6,7,8.5c0-0.4-0.1-0.8-0.1-1.4c0.7,1,1.2,1.7,1.7,2.4c0.1-0.1,0.2-0.2,0.4-0.2c-1.1-1.6-2-3.3-3.2-4.9
			c-1.2-1.6-2.6-3.1-3.9-4.6c4.2,2.6,6.9,6.5,8.8,11.3c0-1.2,0-1.9,0-2.2C111.6,213.6,111,212.2,110.9,210.6L110.9,210.6z
			 M183.6,101.2c0-0.3-0.1-0.8,0.1-1.2c1.7-3.3,1.5-6.9,1.7-10.5c0.1-1.4,0.6-2.8,1.3-4.1c0.6-1.3,1.8-2.4,2.4-3.7
			c0.8-1.7,1.3-3.6,2-5.4c0.4-1.2,0.7-2.4,1.2-3.6c1.1-2.8,2.3-5.6,3.4-8.5c0.7-1.9,1-4,1.7-5.8c1.2-2.9,2.5-5.7,4.1-8.4
			c1-1.6,0.3-3.9,2.2-5.1c0,0,0-0.1,0-0.2c-0.3-0.2-0.6-0.4-1-0.7c0.9-0.5,0.7-1.7,1.8-2.2c1-0.5,1.8-1.7,2.1-2.8
			c0.8-2.3,3.9-3.2,3.4-6.2c0-0.2,0.4-0.5,0.7-0.9c-10.5-2.8-20.7-5.5-31-8.2c-0.1,0.2-0.1,0.4-0.2,0.6c1.5,0.6,3,1.2,4.5,1.9
			c-0.3,0.3-0.6,0.7-1.1,1.3c1,0.6,1.8,1.1,2.6,1.7c0.3,0.2,0.7,0.6,0.7,0.9c-0.2,1.8-0.3,3.5-0.7,5.2c-0.5,2.2-1.2,4.3-1.8,6.5
			c-0.6,2.2-1.2,4.4-1.8,6.6c-0.9,3.1-1.8,6.1-2.6,9.2c-0.8,3-1.4,6-2.2,9c-0.9,3.1-2,6-2.8,9.1c-1,3.7-1.6,7.6-2.4,11.3
			c-0.4,1.8-0.7,3.7-1.3,5.4c-0.9,2.2-2.6,3.8-5.1,4.4C171.4,98.2,177.4,99.7,183.6,101.2z M182,224.4c-2.1-1.5-4.1-3-6.4-4.5
			c0.9-1,1.8-2.1,2.8-3.1c-0.1-0.1-0.2-0.2-0.3-0.3c-0.6,0.4-1.2,0.9-1.9,1.4c1.3-2.5,4.2-4.3,5.6-3.5c-1,0.6-2.5,0.5-3,2.2
			c1.6-0.4,2.8-0.7,4.1-1c0,0.1,0.1,0.2,0.1,0.4c-2,0.9-3.9,1.8-6.2,2.9c0.9,0.5,1.5,0.7,1.6,0.8c0.5-0.5,1-1.3,1.1-1.2
			c0.9,0.6,1.8,1.2,2.5,1.9c0.7,0.8,1.2,1.9,1.8,2.9c0.7-0.5,1.1-0.9,1.6-1.2c2.4-1.2,4.8-2.3,7.1-3.6c1.5-0.9,3.4-1.5,4-3.5
			c2.4-0.4,3.1-2.7,4.5-4.1c3-2.8,5.6-6.1,8.3-9.2c0.5-0.6,1-1.5,1.1-2.3c0.4-1.9,0.5-3.7,0.7-5.6c0.1-0.7-0.2-1.5-0.3-2.4
			c-1.9,0.8-1.4,2-1.3,3.1c0,0.5,0,1.1-0.3,1.4c-1.7,2.5-3.5,4.9-5.2,7.3c-1.6,2.4-3.1,4.8-4.8,7.1c-0.2,0.3-0.7,0.5-1.1,0.6
			c-0.1,0-0.6-0.4-0.5-0.6c0.1-0.4,0.3-0.8,0.6-1.1c0.5-0.5,1.3-0.8,1.7-1.3c3-4.1,5.9-8.3,8.8-12.4c0.6-0.9,0.3-1.4-0.5-1.6
			c-2.1-0.3-3.9-1.2-5.4-2.7c-0.4-0.4-1.4-0.7-1.9-0.4c-0.8,0.4-1.4,1.2-2,1.8c-1,1-2.2,1.6-3.3,1.3c-0.1-1.5-0.1-2.7-0.2-4.2
			c-1.2,0.9-2.3,1.7-3.3,2.5c0.2-0.1,0.5-0.3,0.7-0.4c0.4,0.7,0.6,1.7,1.2,2.1c0.8,0.7,1.9,1.3,2.9,1.4c2.5,0.2,3.3,1,3.4,3.5
			c0,0.7,0,1.3,0,2c0.2,0,0.4,0,0.5,0c0.2-0.7,0.5-1.4,0.7-2c0.1,0,0.3,0.1,0.5,0.1c-0.1,0.8,0,1.7-0.4,2.2c-1.7,2.6-3.4,5-5.2,7.5
			c-0.3,0.4-0.8,0.5-1.2,0.7c-1.4,0.9-2.9,1.2-4.5,1.3c-1.7,0.1-3.4,1-5.1,1.2c-0.9,0.1-2.1-0.2-2.7-0.8c-0.4-0.4-0.4-2.1,0-2.3
			c1.1-0.6,0.9-1.3,0.6-2.4c1.7-0.7,3.5-1.4,5.1-2.3c0.6-0.3,1.4-1.2,1.3-1.6c-0.5-2.1-1.4-4.2-2.2-6.6c-8.2,6-11.7,14.9-17.2,22.2
			c1-0.7,2.1-1.5,2.8-2.4c2-2.7,3.9-5.4,5.7-8.2c2-3.1,3.9-6.1,6.7-8.5c0.3-0.2,0.6-0.4,0.9-0.6c0.1,0.1,0.2,0.2,0.3,0.3
			c-5.5,5.5-8.9,12.5-13.3,19.4c0.1-0.8,0.1-1.1,0.1-1.3c-0.1,0-0.3-0.1-0.4-0.1c-0.3,1-1.2,2.5-0.9,2.9c1.1,1.3-0.2,1.9-0.5,2.7
			c-0.3,0.8-0.9,1.4-1.3,2.1c1-0.4,1.7-0.9,2.4-1.5c0.3-0.2,0.5-0.5,0.7-0.7c1.4-1.4,3.1-1.1,4.3,0.5c0.7,1,1.4,2.1,2.1,3.2
			C180.7,225.2,181.3,224.9,182,224.4z M94,124.9c0,0.2,0,0.4,0,0.6c3.1,0.7,6.4,1.2,9.4,2.2c1.9,0.6,4-0.8,5.7,0.9
			c0.1,0.1,0.7,0,0.7-0.2c0.6-1.3,1.7-1.2,2.8-1.2c2.1,0,4.3,0.2,6.4,0.1c1,0,2.2,0.4,2.9-0.9c0-0.1,1.2,0.2,1.2,0.3
			c-0.1,1.2,0.8,0.9,1.4,0.9c3-0.2,6-0.5,9-0.6c3.4-0.2,6.8-0.3,10.1-0.4c4-0.1,7.9-0.3,11.9-0.3c4.1,0,8.2,0.3,12.2,0.5
			c3.7,0.1,7.4,0.1,11.1,0.3c3.1,0.1,6.2,0.5,9.3,0.7c0-0.1,0-0.3,0.1-0.5c-2.3-0.4-4.6-0.7-6.9-1.1c1.2-0.5,2.4-0.9,3.6-0.8
			c1.7,0.2,3.5,1.3,4.9,0.9c1.6-0.5,2.5,0.2,3.1,0.6c0.6-0.2,1-0.4,1.3-0.4c1.7-0.1,3.1,1.5,4.8,0.8c0.1,0,0.3,0.2,0.5,0.3
			c0.4,0.2,0.7,0.6,1.1,0.6c6.2,1.1,12.5,2.1,18.3,4.9c1.5,0.7,3.3,0.9,4.8,1.6c1.2,0.6,1.6,0.1,1.8-0.9c0.5,0.7,0.9,1.6,1.6,1.9
			c3.3,1.6,6.6,2.9,9.9,4.5c2.3,1.1,4.6,2.4,6.8,3.7c2.1,1.2,4,2.6,6.1,3.9c0.1-0.1,0.3-0.2,0.4-0.4c0-0.9,0.3-2.2-0.2-2.6
			c-1.8-1.6-3.7-3.1-5.7-4.3c-5.4-3.2-10.7-6.6-17-8.1c-4.3-1-8.6-2.4-12.9-3.5c-3.4-0.9-6.8-1.6-10.3-2.3c-3.2-0.6-6.3-1.1-9.5-1.5
			c-4.1-0.5-8.2-1-12.2-1.3c-1.8-0.2-3.6,0-5.4,0c0,0.2,0,0.4,0.1,0.6c0.4-0.1,0.7-0.2,1.1-0.2c0.4,0,0.8,0.2,1.4,0.4
			c-2.4,1.6-5.1,1.6-6.9,0c0.6,0.1,1.1,0.1,1.6,0.2c-1.1-1.4-2.4-0.9-3.8-0.5c0.2,0.2,0.3,0.4,0.4,0.6c-0.7,0.1-1.2,0.1-1.8,0.2
			c-0.5-0.7-1.1-1.3-1.8-1.5c-0.8-0.2-1.8,0-2.7-0.1c-1.2,0-2.3-0.2-3.5-0.2c-2,0.1-4,0.3-6,0.5c-1.2,0.1-2.4,0.4-3.9,0.7
			c0,0-0.5-0.4-1-0.4c-1.1,0-2.3,0.2-3.4,0.3c-4.7,0.2-9.4,0.5-14.1,0.7c-3.2,0.1-6.5,0.1-9.7,0c-1.2,0-2.4-0.3-3.7-0.3
			c-1.1,0-2.3,0.2-3.5,0.1c-4.1-0.2-8.1-0.5-12.2-0.7c0,0.2,0,0.3,0,0.5c2.3,0.2,4.6,0.4,6.9,0.5c-1.6,1.1-5.3,1.3-5.7,0.6
			C101.2,126.6,97.6,125.1,94,124.9z M179.4,226c-0.6-0.3-1.3-0.6-2.2-1c-4.8,8.4-12,14.6-19,20.9c0.4,0.2,0.6,0.2,1,0.4
			c-1.4,0.3-2.6,0.6-3.9,0.9c1.2-1,2.5-1.7,3.2-2.7c0.6-0.9,1.3-1.4,2-2c2.5-2.5,4.8-5.1,7.1-7.6c3.2-3.5,6.4-7,9.6-10.5
			c-0.5-0.7-0.8-1.3-1.2-1.6c-0.2-0.2-1-0.1-1.2,0.1c-3,3.7-4.9,8.2-8.6,11.4c-1.8,1.5-3.4,3.2-5,5c-1.4,1.5-2.7,3.1-4.1,4.6
			c-0.5,0.6-1.3,1-2,1.4c0-0.1-0.1-0.2-0.1-0.2c6-7.1,12.1-14.2,18.1-21.4c-0.1-0.1-0.3-0.2-0.4-0.4c-1.8,1.7-3.7,3.3-5.4,5.1
			c-1.6,1.7-2.9,3.7-4.3,5.5c-1.6,2-3.1,3.9-4.8,5.8c-1.5,1.7-3.2,3.2-4.8,4.9c-0.1-0.1-0.2-0.2-0.3-0.3c0.3-0.4,0.6-0.8,1-1.4
			c-2.1-0.5-3.5,0.8-5.3,1.8c0.3-0.6,0.4-0.9,0.7-1.3c-2.2,0.3-4.3,0.5-6.3,0.8c0,0.1,0,0.2,0,0.3c1.6,0,3.3,0,4.9,0
			c0,0.1,0,0.2,0,0.3c-6.1,0.2-12.3,0.5-18.5,0.7c0,0.2,0,0.5,0,0.7c8.2-0.7,16.4,0.8,24.7-1c-0.3,0.4-0.6,0.8-1,0.9
			c-1.5,0.2-3,0.3-4.5,0.4c-3.4,0.2-6.8,0.4-10.2,0.7c-0.8,0.1-1.6,0.2-2.4,0.4c0,0.2,0,0.3,0,0.5c0.5,0,1,0.1,1.6,0.1
			c2,0,4.1-0.1,6.1,0c3,0.1,6,0.5,9,0.6c2.4,0.1,5,0.8,6.9-1.5c0.6-0.7,1.3-1.3,1.9-1.9c3.7-3.6,7.5-7.2,11.2-10.8
			c1.5-1.5,2.9-3,4.6-4.8c-0.1,0.8-0.2,1.2-0.2,1.5c5.7-3.6,11.3-7.1,16.9-10.6c-0.1-0.1-0.2-0.3-0.2-0.4c-5.8,1.7-10.7,5.4-16,8.1
			c-0.1-0.1-0.3-0.2-0.4-0.4C178.2,227.3,178.8,226.7,179.4,226z M128.6,252.8c0,0.1,0,0.3,0,0.5c6.2,0.1,12.5-1,18.7-1.1
			c-12.3,2.8-24.8,1.4-37.3,1.9c1.3,0.3,2.6,0.4,3.9,0.5c2.9,0.2,5.8,0.6,8.7,0.7c1.9,0.1,3.7,0,5.6,0c5.2,0.1,10.2-0.7,15.3-1.6
			c5.1-1,10.3-1.6,15.5-2.5c0.5-0.1,1-0.2,1.3-0.6c5-4.7,9.9-9.5,14.9-14.2c1.6-1.5,3.3-3,4.9-4.5c0.1,0.1,0.1,0.1,0.2,0.2
			c-0.5,0.6-1,1.2-1.4,1.8c1.5-0.6,2.6-1.4,3.9-2.2c4.5-2.9,9-5.6,13.4-8.6c4.3-3,8.5-6.1,12.7-9.3c0.5-0.4,0.5-1.3,0.9-2.3
			c-0.8,0.3-1.1,0.3-1.3,0.5c-1.7,1.2-3.4,2.5-5.1,3.8c-2.5,1.9-4.9,4-7.5,5.7c-5.6,3.5-11.4,6.6-17,10.1c-2.2,1.3-4.3,2.8-6.2,4.5
			c-1.7,1.5-3,3.4-4.7,5c-2.4,2.3-4.9,4.4-7.3,6.6c-1.3,1.1-2.5,2.2-3.4,3c-0.7-0.5-1-1-1.2-1c-2.8,0.2-5.5,0.6-8.3,0.9
			C141.3,251.3,134.9,252,128.6,252.8z M136.2,264.6c0.6,0.2,1.5,0.9,2.3,0.8c2.2-0.2,4.4-0.7,6.5-1.2c3.7-0.8,7.5-1.5,11.1-2.5
			c5.5-1.5,11.3-2.2,16.2-5.5c4.7-3.2,9.5-6.2,14.2-9.2c0-0.7,0-1.3,0-1.8c0.1,0,0.2,0,0.3,0c0.1,0.2,0.2,0.5,0.3,1
			c6.7-5.3,13.3-10.5,19.9-15.7c-0.1-0.2-0.3-0.4-0.4-0.6c-12.5,10.9-27,18.7-40.9,27.6c0.7-0.8,1.6-1.3,2.5-1.9
			c5-3.4,9.9-6.9,14.9-10.2c6-4.1,12.1-8,18.1-12.1c1.4-0.9,2.5-2.1,3.8-3.2c-0.1-0.2-0.3-0.3-0.4-0.5c-1.2,0.9-2.4,1.8-3.6,2.7
			c-4.2,3.1-8.5,6.2-12.7,9.2c-0.2,0.1-0.7,0.2-0.8,0.1c-0.8-0.8-1.3,0-1.9,0.3c-0.6,0.3-1.1,0.7-1.7,1.1
			c-6.1,4.1-12.2,8.1-18.2,12.2c-0.8,0.5-1.2,1.6-2,2c-1.1,0.6-2.4,1-3.7,1.3C152.1,260.7,144.1,262.6,136.2,264.6z M149.3,20.4
			c0.1,1.3,0.1,2.3,0.2,3.2c0.3,2,0.9,4.1,0.8,6.1c-0.1,4-0.5,7.9-1,11.8c-0.4,3.1-1,6.2-1.7,9.3c-0.4,1.8-0.9,3.5-1.4,5.3
			c-0.4,1.6-0.8,3.2-1.4,4.8c-0.9,2.5-2,5-2.9,7.5c-0.8,2.1-1.4,4.3-2.2,6.4c-1,2.9-2.1,5.8-3.1,8.7c-0.5,1.4-0.7,2.8-1.3,4.2
			c-0.6,1.4-1.5,2.7-2.3,4c-0.2,0.3-0.5,0.6-0.7,0.9c0.3,0.2,0.6,0.5,1,0.6c1.4,0.6,3.2-0.8,4.4,1c0,0,0.5-0.2,0.3-0.2
			c0-1.4,0.1-2.5,0-3.5c-0.5-2.9,0-5.8,0.8-8.6c0.8-3,2.2-5.9,3.3-8.8c2.7-7.1,5.9-14,7.4-21.4c0.8-3.9,1.3-8,1.8-11.9
			c0.3-2.6,0.4-5.1,0.7-7.7c0.3-2.8,0.7-5.5,1-8.2c0.2-1.7,1.1-2.2,2.9-2.2c1.7,0,3.5-0.2,5.2-0.2c0-0.2,0-0.4,0-0.6
			c-1.6-0.2-3.3-0.3-4.8-0.8c-1.6-0.5-3,1.4-4.7,0.4c0,0-0.6,0.7-0.9,1C150.4,21.1,149.9,20.8,149.3,20.4z M159,252.7
			c0,0.1,0,0.2,0.1,0.3c1.4-0.5,2.9-0.8,4.1-1.6c1.7-1.2,3.1-2.7,4.6-4.2c0.8-0.7,1.2-1.9,2.1-2.4c3.2-1.9,5.5-4.8,9-6.5
			c4.3-2.2,8.2-5.2,12.2-8c4.7-3.3,9.3-6.6,13.9-10.1c0.9-0.6,2.5-1.2,1.6-3.1c-2.5,1.9-5,3.5-7.2,5.5c-4.1,3.9-8.8,6.7-13.7,9.4
			c-3.2,1.8-6.4,3.5-9.6,5.3c-0.2,0.1-0.5,0.5-0.4,0.7c0.5,2.1-0.8,0.7-1.2,0.7C169.2,243.4,164.1,248.1,159,252.7z M96.5,251
			c0,0.1,0,0.2-0.1,0.4c1.8,0.2,3.5,0.5,5.3,0.6c2.8,0.2,5.6,0.6,8.4,0.5c5.3-0.2,10.5-1.2,15.8-1.2c8.1,0.1,16.1-1,24.1-2
			c-3.2-0.1-6.4-0.1-9.7-0.1c-2.8,0-5.6,0-8.5,0c-4.5,0.1-9.1,0.4-13.6,0.6c-2.8,0.1-5.6,0-8.3,0.1c-1.5,0-2.9,0.3-4.6,0.5
			c0.5,0.4,0.7,0.5,0.8,0.6C103,251,99.7,251,96.5,251z M168.2,259.1c-2.9,0.9-5.8,1.9-8.8,2.6c-5.9,1.4-11.8,2.7-17.7,4.1
			c-1.2,0.3-2.5,1-3.7,0.9c-1.3-0.2-3.2,0.4-3.7-1.8c0-0.2-0.5-0.4-0.8-0.4c-1.5-0.4-3-0.8-4.5-1.2c-1.1-0.3-2.1-0.8-3.2-1.2
			c-0.1,0.1-0.1,0.3-0.2,0.4c0.7,0.4,1.5,0.7,2.1,1.3c2.4,2.2,5.1,3,8.3,3.6c3.7,0.7,7.1,0.3,10.6-0.4c4.7-1,9.5-2.2,14.1-3.6
			C163.5,262.5,166.8,262.4,168.2,259.1z M142.2,329.3c-4.1,0.2-8.2,0.7-12.1,2.1c-4,1.5-6.5,5.3-9.9,7.7c-0.3,0.2-0.3,0.8-0.6,1.6
			c0.9-0.3,1.5-0.4,1.9-0.7c1.4-1.2,2.8-2.5,4.1-3.7c1.6-1.5,3.1-3,4.8-4.4c0.2-0.2,0.8-0.1,1.1-0.2c-0.1,0.4-0.1,0.8-0.4,1.1
			c-3.4,3.2-6.8,6.4-10.2,9.6c-0.3,0.2-0.3,0.7-0.5,1c1.6-0.9,2.8-2.1,4.1-3.3c2.5-2.2,5-4.4,7.5-6.5c0.4-0.3,1-0.4,1.5-0.5
			c0.1,0.1,0.1,0.3,0.2,0.5c-3.3,3-6.5,5.9-9.8,8.9c0,0,0.1,0.1,0.1,0.1C130.1,338.1,136.1,333.7,142.2,329.3z M174.6,258.1
			c12.2-6,21.5-16.2,32.9-23.2c-0.4-0.5-0.8-0.9-1.2-1.4c-10.5,9.6-22.5,16.8-34.5,24.2c0.5,0.3,0.9,0.6,1.2,0.7
			c1-0.8,2-1.5,2.9-2.2c0.1,0.1,0.1,0.2,0.2,0.3C175.6,257,175.1,257.6,174.6,258.1z M158.3,251.9c-0.7,0.2-1,0.3-1.4,0.4
			c-4.3,0.8-8.6,1.6-12.9,2.3c-4.6,0.8-9.1,2-13.9,1.8c-1.8-0.1-3.5,0-5.6,0c3.9,2.5,3.9,2.5,5,2.4c2.8-0.3,5.6-0.5,8.4-1
			c5.5-1,10.9-2.1,16.4-3.4C155.7,253.9,157.4,253.9,158.3,251.9z M171.6,322.3c0-0.1,0-0.3,0-0.4c-0.9,0-1.8-0.2-2.6,0
			c-2.4,0.7-4.8,1-7.1-0.2c-0.2-0.1-0.7,0-0.9,0.2c-1.1,1.1-2.5,1.1-3.9,0.7c-0.5-0.1-1-0.3-1.3-0.4c-0.1,0.9-0.3,1.7-0.4,2.4
			c-0.2,0-0.5,0-0.7,0c-1-2.8-2.1-5.5-2.8-8.4c-0.4-1.7,0-3.5-0.2-5.3c-0.2-1.9-0.6-3.8-1-5.7c-0.1-0.3-0.5-0.5-0.8-0.7
			c-0.1,0.4-0.3,0.7-0.3,1.1c0.3,2.2,0.7,4.4,1,6.5c0.7,4.4,1.4,8.7,2,13.1c1.2,0,2,0.6,2.7,0.6c0.8,0,1.6-0.6,2.4-0.9
			c0.2-0.1,0.6,0,0.8,0c0.7,0,1.4,0.1,2-0.1C164.3,324,167.9,323.1,171.6,322.3z M191.2,23.3c0,0.2,0,0.3-0.1,0.5
			c0.1,0.1,0.2,0.2,0.4,0.2c4.6,1,9.3,1.9,13.9,3.2c4.5,1.2,8.9,2.8,13.3,4.4c5,1.9,10,4,15,6.1c2.6,1.1,5,2.6,7.5,3.9
			c0.1-0.2,0.2-0.3,0.4-0.4c-0.3-0.4-0.5-0.9-0.9-1.1c-3.3-1.6-6.6-3.3-10-4.7c-5.1-2.1-10.2-4.1-15.4-6c-2.6-1-5.3-1.8-8-2.5
			c-3-0.8-6-1.3-9.1-2C195.8,24.3,193.5,23.8,191.2,23.3z M131.9,263.1c1.2,0.2,2,0.5,2.7,0.4c3.7-0.5,7.3-1.1,11-1.8
			c4.4-1,8.8-2.1,13.2-3.3c2.2-0.6,4.7-0.9,6-3.1C154,257.8,143.2,260.4,131.9,263.1z M201.1,185.8c4.2-0.3,6.1,3,8.9,4.6
			c-0.2-0.7-0.5-1.2-0.8-1.7s-0.7-1-1-1.4c0.6-0.1,1.1-0.1,1.4,0.3c0.7,0.8,1.3,1.7,2.1,2.7c1.2-2.6,1.2-2.6-2-4.6
			c-0.9,0.3-1.6,0.9-2.1,0.7c-0.6-0.2-1.1-1-1.6-1.6c0.1-0.1,0.2-0.2,0.3-0.3c-1.1-0.2-2.3-0.5-3.5-0.7c0.1-0.3,0.2-0.5,0.2-0.6
			c0-0.2,0-0.4,0.1-0.9c-4.1,3.1-9,4.2-12.7,8.1c0.7-0.2,1-0.3,1.4-0.4c0,0.4-0.1,0.6-0.1,0.9C194.9,189.2,198.1,187.4,201.1,185.8z
			 M136.4,274.9c0.7,1.3,0.9,2.7,2.5,3.1c3.7,1,7.1,1.8,10.7-0.7c3.2-2.2,6.7-3.9,10.1-5.7c1.1-0.6,2.5-0.8,2.6-2.5
			c-3.5,1.8-7,3.5-10.5,5.1c-6.3,3.1-8.9,3.9-10.6,3.6c0.5-0.2,1-0.4,1.8-0.7C140.6,276.3,138.5,275.6,136.4,274.9z M129.4,146.6
			c0.1,0.3,0.1,0.6,0.2,0.8c0.6,0,1.2,0.1,1.8,0c4-1,8-2.4,12.1-3.1c3.6-0.6,7.2-2.3,11-1.2c0.2,0.1,0.4-0.1,0.6-0.1
			c-1.3-2.3-1.7-2.4-4-1.9c-1.9,0.4-3.7,0.9-5.6,1.4C140.1,143.9,134.8,145.3,129.4,146.6z M152,241.9c0,0.2,0.1,0.3,0.1,0.5
			c1.5-0.2,2.9-0.3,4-1.8c2.2-3,4.7-5.9,7-8.9c2.1-2.6,4.2-5.3,6.2-7.9c0.2-0.3,0.3-0.8,0.4-1.2c-0.1,0-0.2-0.1-0.3-0.1
			c-5.2,5.9-10.4,11.9-15.5,17.8c0.1,0.1,0.4,0.3,0.8,0.6C153.8,241.2,152.9,241.6,152,241.9z M115.3,312.1
			c-0.3,0.1-0.5,0.3-0.8,0.4c0.3,2.1,0.5,4.3,0.8,6.4c0.5,3.3,0.9,6.6,1.4,9.8c0.2,1.3,0.4,2.6,0.7,3.8c0,0.2,0.5,0.3,0.8,0.5
			c-0.1-1-0.1-1.8-0.2-2.5c-0.2-3-0.6-5.9-0.6-8.8c0-2.8-1.5-5.3-1.1-8.1C116.4,313.2,115.7,312.6,115.3,312.1z M119.2,168.6
			c-0.1-0.1-0.2-0.3-0.3-0.4c-0.8,0.4-1.6,0.7-2.3,1.2c-4,3.2-8.6,5.9-11.7,10.2c-0.1,0.2-0.8,0-1.3,0c-0.6,1-1.3,2.1-2,3.2
			c2.5,0.9,2.3-1.9,4.1-2.5c-1,1.7-1.8,3.2-2.7,4.6c0.1,0.1,0.2,0.2,0.3,0.3c0.5-0.3,1.1-0.4,1.4-0.8c1.1-1.5,2-3,3-4.6
			c0.1-0.2,0.3-0.7,0.3-0.7c-1.3-0.9,0.1-1.2,0.4-1.6c1-1.2,2.1-2.3,3.3-3.4c1.8-1.5,3.7-2.9,5.5-4.4
			C118,169.3,118.6,168.9,119.2,168.6z M89.9,121.7c-0.5-2,0.6-3,1.9-3.4c4.6-1.6,9.3-3.1,13.9-4.6c1.8-0.6,3.5-1,5.3-1.5
			c0-0.1-0.1-0.3-0.1-0.4c-4.5-0.1-8.4,2.2-12.5,3.3c-4.2,1.1-8.3,2.6-12.4,3.9c0,0.1,0.1,0.2,0.1,0.3c0.7,0,1.5,0,2.2,0
			c0,0.1,0.1,0.2,0.1,0.3c-0.4,0.3-0.7,0.6-1.3,1C88,121,88.9,121.3,89.9,121.7z M170.2,180.6c0.2,0,0.3,0.1,0.5,0.1
			c0.2-1.6,0.9-3.3,0.6-4.8c-0.6-2.7-1.7-5.2-2.6-7.8c-0.2-0.5-0.7-0.9-1-1.4c0,2.5,0.2,4.8,0.5,7.1c0.3,2.3,0.7,4.6,1,6.9
			c0.1,0,0.3,0,0.4-0.1c-0.1-1.6-0.1-3.3-0.2-5c0.1,0,0.2,0,0.3-0.1C169.7,177.2,169.9,178.9,170.2,180.6z M134.7,247.8
			c0-0.2,0-0.3,0-0.5c-0.2,0-0.4-0.1-0.6-0.1c-2.5,0-5,0.1-7.5,0.1c-4,0.1-8.1,0.1-12.1,0.2c-0.6,0-1.1,0.4-1.7,0.6
			c0,0.1,0.1,0.3,0.1,0.4c3.6-0.2,7.1-0.3,10.7-0.1C127.3,248.6,131.1,248.4,134.7,247.8z M107,193.4c0.1,0,0.2-0.1,0.2-0.1
			c-0.4-0.8-0.5-1.8-1.1-2.3c-2.5-2.3-5.3-3.9-8.8-3.5c-2.1,0.2-4.2,0.9-6.3,1.3c0.2,2.1,1.7,1.4,3.1,1.6c-0.5-0.6-0.8-0.9-1.1-1.3
			c1.7,0,3.2,0.2,4.6-0.1c1.9-0.4,3.6-0.2,5.1,0.8C104.3,190.8,105.6,192.1,107,193.4z M180.2,314.2c0,3.1,0,5.6,0,8.2
			c1,0.1,2,0.2,2.7,0.3c1.1-1.8-0.2-2.8-1-3.7c0.6-0.1,1.3-0.2,1.3-0.3c-0.1-1.5-0.3-2.9-0.5-4.8c-0.4,0.9-0.5,1.3-0.6,1.7
			C181.5,315.3,181.1,314.9,180.2,314.2z M109.6,108.6c0,0.1,0,0.2,0,0.3c0.2,0,0.4,0.1,0.6,0.1c2,0,3.7,0.3,4.9,2.1
			c0.4,0.7,2.9,0.3,3.2-0.5c0.4-1.1,0.8-2.2,1.3-3.5C116.2,107.6,112.9,108.1,109.6,108.6z M116.9,346.4c0.2,0,0.4,0.1,0.6,0.2
			c0.5-2.2,1-4.4,1.6-6.6c0.2-0.6,0.5-1.3,1-1.8c1-1,2-1.8,3.1-2.8c-0.1-0.2-0.2-0.3-0.3-0.5c-1.7,0.6-3.4,1.3-5.1,2
			C117.5,340.1,117.2,343.3,116.9,346.4z M180.2,308.8c0,1.6,0,2.9,0,4.3c0,0.3,0.3,0.7,0.5,0.9c1,0.8,2.1,0,2.1-1.4
			c0-2.1-0.1-4.3-0.4-6.4c0-0.5-0.6-0.9-0.9-1.4c-0.2,0-0.3,0.1-0.5,0.2c0,1.5,0,3,0,4.5C181,309.3,180.7,309.1,180.2,308.8z
			 M152.6,139.8c-0.5-0.4-0.9-0.9-1.4-0.9c-0.8-0.1-1.7,0.3-2.5,0.2c-3.8-0.1-7,1.7-10.5,2.8c-0.3,0.1-0.5,0.2-0.8,0.3
			c0,0.1,0.1,0.2,0.1,0.4C142.5,141.7,147.4,140.8,152.6,139.8z M277.7,67.5c-1.6-6.2-5.4-10.9-10.5-15c0,0.6-0.1,1.1,0,1.3
			c0.9,1.1,1.8,2.1,2.7,3.2c1.8,2,3.7,3.8,5.3,6C276.3,64.2,276.9,65.9,277.7,67.5z M164.2,144.3c-0.2-1.8-7.2-3.9-9.9-3.2
			C156.7,145.1,160.9,143,164.2,144.3z M122.5,157.9c0.5,0.1,0.8,0.2,1.1,0.3c0,0,0.2-0.5,0.2-0.5c-0.3-0.2-0.6-0.4-1-0.5
			c-0.2-0.1-0.5,0.1-0.8,0.2c-2.7,1.5-5.5,2.8-8.1,4.4c-2.4,1.5-4.5,3.5-6.7,5.2c3.4-1.9,6.5-4,9.8-6.1c1.3-0.8,2.6-1.8,4-1.9
			C122.1,159.1,122.3,158.8,122.5,157.9z M156,160.9c0.2-0.2,0.4-0.5,0.6-0.7c-1.1-0.9-2.4-1.7-3.3-2.8c-1.5-1.9-1.6-2-4.1-0.8
			c0.9,0.7,2.1,1.2,2.3,2C152.1,161.6,154.2,160.7,156,160.9z M127.9,131.2c2.4,0.1,4.7,1.2,7.4,0.4c2.5-0.8,5.3-0.7,8-1
			C138.1,130.6,132.9,129.7,127.9,131.2z M155.8,152.1c-0.3-1.3-0.8-1.9-2-1.8c-3.3,0.4-6.5,0.7-9.8,1.1c-0.3,0-0.5,0.4-0.8,0.7
			c0.3,0.1,0.7,0.4,1,0.4c2.5-0.2,5.1-0.6,7.6-0.8C153.2,151.7,154.4,152,155.8,152.1z M129,164.6c-0.1,0.1-0.1,0.2-0.2,0.3
			c-0.6-0.3-1.2-0.7-1.8-1c-0.5-0.2-1.1-0.4-1.6-0.6c0,0.1,0,0.2,0,0.3c3.5,2.2,6.9,4.4,10.4,6.6c-0.1-0.2-0.2-0.4-0.4-0.6
			c-2.5-2.4-4.9-4.7-7.4-7c-0.3-0.2-0.9-0.1-1.3-0.1c0,0.1,0,0.2-0.1,0.4C127.4,163.4,128.2,164,129,164.6z M264,188
			c-2,1-3.8,1.8-5.6,2.7c0.1,0.1,0.1,0.3,0.2,0.5c1-0.3,2.1-0.7,3.1-1c2-0.7,3.5-3,6.1-1.6c0.2,0.1,1-0.4,1.2-0.9
			c0.3-0.4,0.2-1.1,0.4-1.9c-1.1,0.5-1.9,0.8-2.8,1.2c-0.3-0.4-0.5-0.7-0.8-1c-1.1,0.5-2.1,0.9-3.2,1.5
			C263.1,187.7,263.5,187.8,264,188z M115.4,347.3c0.1,0,0.2,0,0.4,0c0.5-3.4,1-6.9,1.5-10.3c-0.2-0.1-0.4-0.2-0.6-0.4
			c-0.3,0.4-0.7,0.7-0.9,1.1c-0.2,0.4-0.2,0.9-0.3,1.4c-0.2,0.9-0.6,1.7-0.7,2.6c0,1.1,0.2,2.3,0.3,3.5
			C115.1,345.9,115.3,346.6,115.4,347.3z M112,159.6c0.7-0.6,1.3-1.4,2.1-1.7c1.5-0.6,3.1-1,4.6-1.5c1.3-0.5,2.6-1,4.1-1.5
			c-0.1-0.4-0.4-1-0.7-1.8C118.5,155,114.5,156.1,112,159.6z M96.6,247.2c-0.1,0.2-0.3,0.4-0.4,0.5c0.6,0.5,1.2,1.3,1.8,1.3
			c4.2,0,8.4-0.1,12.6-0.3c0.7,0,1.4-0.6,2.1-0.9c-3.8,0.1-7.6,0.5-11.3,0.6c-1,0-2.5,0.8-3-1c-0.1,0.3-0.2,0.5-0.2,0.5
			C97.5,247.8,97.1,247.5,96.6,247.2z M151,242.5c0-0.2,0-0.4-0.1-0.6c-2.6,0.4-5.3,0.8-8,1c-2.8,0.3-5.6,0.3-8.3,0.5
			c-0.5,0-1.1,0.4-1.6,0.6c0.1,0.2,0.1,0.4,0.2,0.6C139.1,243.9,145.1,243.4,151,242.5z M151.9,240.5c-0.1,0-0.3-0.1-0.4-0.1
			c-4.1,1.1-8.3,1-12.5,1c-1,0-1.9,0.6-2.8,0.9c0,0.1,0.1,0.3,0.1,0.4C141.5,242.1,146.9,242.5,151.9,240.5z M117.9,152.1
			c-4.7,1.6-8.6,3.9-10.7,8.3C110.6,157.7,114.1,155,117.9,152.1z M119,166.1c-0.1,0-0.5-0.4-0.7-0.3c-4.8,3.1-9.4,6.5-12.7,11.2
			c2.2-1.8,4.2-3.9,6.4-5.7C114.2,169.5,116.5,167.9,119,166.1z M148.6,317.1c0.2-0.1,0.3-0.2,0.5-0.3c-0.4-2.5-0.8-5.1-1.2-8.2
			c-0.6,0.8-1,1.2-1.1,1.7c-0.1,0.8-0.2,1.8,0.2,2.2c0.8,0.8,0.9,0.9,0.1,1.6c-0.6,0.5-0.9,1.3-1.4,2c0.1,0.1,0.3,0.3,0.4,0.4
			c0.6-0.2,1.2-0.4,1.8-0.6c-0.2,0.2-0.5,0.3-0.8,0.5C147.7,316.6,148.1,316.9,148.6,317.1z M119,140.2c-0.1-0.2-0.2-0.5-0.3-0.7
			c-1.2,0.6-2.4,1.1-3.5,1.7c-2.4,1.3-4.8,2.6-7.2,4c-0.2,0.1-0.2,0.7-0.3,1c0.4,0,0.8,0,1-0.1c1.2-0.8,2.3-1.7,3.6-2.4
			C114.4,142.4,116.7,141.3,119,140.2z M107.9,172.1c-0.1-0.1-0.3-0.3-0.5-0.4c-2.7,3.5-5.4,6.9-8,10.4c0.1,0.2,0.3,0.4,0.4,0.6
			c0.6-0.4,1.5-0.6,1.9-1.2c1.3-1.9,2.3-4,3.5-6C106,174.2,107,173.2,107.9,172.1z M181.7,187.3c-0.5,0.9-0.8,1.5-1,2.2
			c0,0.1,0.2,0.4,0.4,0.6c0.1-0.2,0.2-0.4,0.3-0.6c1-1.2,2-2.4,3.1-3.6c-1.3-1-1.5,0.7-2.4,1c0.1-0.4,0.1-0.8,0.2-1.2
			c-0.1-0.1-0.3-0.2-0.4-0.4c-1.3,1-2.6,2.1-4.2,3.4C179.6,189.4,180.2,187.7,181.7,187.3z M118.7,255.8c-0.1,0.2-0.1,0.4-0.2,0.5
			c0.7,0.4,1.6,1.2,2.1,1c1.2-0.5,1.7,0.3,1.9,0.9c0.6,1.5,1.6,1.4,2.7,1.1c0.3-0.1,0.8-0.5,0.8-0.6c-0.1-0.4-0.4-0.9-0.7-1
			C123.1,256.9,120.9,256.4,118.7,255.8z M116.7,133.1c-1.1,0-1.9-0.2-2.6,0c-0.9,0.3-1.7,0.8-2.5,1.3c-1.8,1.2-3.6,2.4-5.4,3.6
			c0.1,0.1,0.2,0.3,0.3,0.4C109.7,136.7,113,135,116.7,133.1z M117.7,117.7c-1.2-0.2-2.4,0.9-3.8,3.8c1.4-0.2,2.6-0.4,3.7-0.5
			c0-0.2,0-0.4,0-0.6c-0.6-0.2-1.3-0.3-1.9-0.5c1.8-0.6,3.5-1,3.2-3.4c-0.5,0-1,0-1.5,0C117.6,116.9,117.6,117.3,117.7,117.7z
			 M199.2,201.1c-0.6-0.1-0.8-0.1-0.8-0.1c-2.1,1.4-4.2,2.8-6.2,4.3c-0.2,0.2,0,1,0,1.5c0.2,0,0.4,0.1,0.5,0.1
			C194.3,204.4,197.6,203.9,199.2,201.1z M105,246.1c4.1-0.4,8.1,0.3,11.9-1.1c-3.6,0-7.1,0.2-10.7,0.5
			C105.8,245.5,105.4,245.9,105,246.1z M200.6,241.7c0.1,0.2,0.2,0.3,0.3,0.5c3.8-2.7,7.6-5.4,11.4-8c-0.1-0.1-0.2-0.3-0.3-0.4
			C207.6,235.5,204.6,239.4,200.6,241.7z M119.3,157c-2.6,0.2-7.2,3.1-8.7,5.6c1.5-0.8,3-1.7,4.5-2.6
			C116.5,159.1,117.8,158.1,119.3,157z M109.1,154.5c0.1,0.1,0.3,0.2,0.4,0.4c1.1-0.7,2.1-1.5,3.3-2.1c1.1-0.6,2.2-1.1,3.4-1.6
			c2.7-1.1,2.7-1.1,2.8-2.2c-3,1.4-5.9,2.6-8.7,4.1C109.8,153.2,109.5,154,109.1,154.5z M108.7,152.4c1.6-1.3,3.2-2.6,4.9-3.9
			c-0.5-0.9-0.5-0.9-5.2,1.6C108.5,151,108.6,151.7,108.7,152.4z M104.5,159c0.3-3.5,0.5-6.9,0.8-10.2c-0.2,0-0.4,0-0.6-0.1
			c-0.2,1.2-0.3,2.4-0.5,3.5c-0.2,1.1-0.5,2.3-0.5,3.4C103.7,156.7,102.8,158,104.5,159z M133.9,98.4c1.4,0.2,2.4,0.4,3.5,0.6
			c1.6,0.3,2.4-0.3,2.4-2.2C138,98.1,135.6,96.4,133.9,98.4z M103.5,245.2c0,0.1,0,0.3,0,0.4c-1.8-0.3-3.5-0.5-5.3-0.8
			c-0.4,0-0.7,0.2-1.1,0.4c0.2,0.2,0.5,0.5,0.8,0.6c1,0.2,2,0.4,3,0.6c1.7,0.3,3.2,0,4.4-1.6c-0.8,0-1.4,0-2.4,0
			C103.2,245,103.4,245.1,103.5,245.2z M193.3,209.3c1.9-2,3.6-3.9,5.3-5.7C194.5,205.4,192.6,207.3,193.3,209.3z M205.1,121.2
			c1.7,0.4,3.3,0.9,4.9,1.2c0.3,0.1,0.7-0.3,1-0.4c-0.2-0.3-0.3-0.8-0.6-0.8c-1.2-0.4-2.5-0.6-3.6-1.1
			C205.7,119.6,205.4,120.1,205.1,121.2z M172.5,170c-0.6-1.9-1.2-3.8-1.8-5.5c-0.4-1-1-2-1.5-3c-0.2,0.1-0.4,0.2-0.5,0.3
			C170,164.4,169.7,167.9,172.5,170z M141.4,64.3c-0.3-0.1-0.6-0.2-0.9-0.2c-0.9,3-1.8,6.1-2.6,9.1c0.2,0.1,0.4,0.1,0.7,0.2
			C139.4,70.3,140.4,67.3,141.4,64.3z M148.8,138c-4.6-0.9-8.3-0.7-10.5,0.6c1.6-0.2,3.1-0.4,4.6-0.6c0,0.1,0,0.2,0.1,0.3
			c-0.2,0.1-0.5,0.3-0.7,0.4c0,0.1,0,0.1,0.1,0.2C144.4,138.6,146.5,138.3,148.8,138z M128,92.4c-1,0.5-1.7,0.6-2,0.9
			c-0.4,0.6-0.6,1.4-1,2.1c-0.6,1.3-0.1,2.4,1.4,3c0.2-0.9,0.4-1.7,0.7-2.8c-0.6,0.1-1,0.2-1.9,0.4C126.3,94.7,127,93.7,128,92.4z
			 M121,150.9c-2.1,1.4-4.1,2.8-6.1,4.2c0.1,0.1,0.1,0.2,0.2,0.3c2.1-1,4.3-1.9,6.5-2.9C121.4,152,121.2,151.6,121,150.9z
			 M182.4,195.3c3.9-2.6,5-3.4,4.1-5.7C185,191.6,183.7,193.5,182.4,195.3z M125,243.8c-2.3,0.4-4.9-0.5-7.1,1.5
			C120.7,245.6,123.8,245,125,243.8z M91,224.8c0.1,0.2,0.2,0.4,0.4,0.6c1.8-1,3.5-2.1,5.3-3.1c-0.6-0.9-1.1-1.2-2-0.4
			C93.5,222.9,92.2,223.8,91,224.8z M236.5,166.3c0.1,0.1,0.3,0.2,0.4,0.4c2-1.7,4.1-3.5,6.4-5.5c-0.8,0.1-1.3,0-1.5,0.2
			c-1.3,1.1-2.5,2.3-3.8,3.4C237.5,165.3,237,165.8,236.5,166.3z M134.6,161.7c-0.2,0.2-0.5,0.4-0.7,0.7c2.4,1.5,3.3,4.5,5.9,5.8
			c0.1-0.1,0.3-0.3,0.4-0.4C138.3,165.7,136.5,163.7,134.6,161.7z M173.2,180.5c0.5-2.1,1-4.2,1.5-6.2
			C173.1,174.2,172.4,176.8,173.2,180.5z M144.2,97.5c-3.9-0.4-4.1-0.3-3.8,2c0.8-0.4,1.6-0.8,2.5-1.3c0,0.7-0.1,1.1-0.1,1.5
			c0.1,0,0.2,0.1,0.4,0.1C143.5,99.1,143.9,98.3,144.2,97.5z M118.8,252.8c3,0,6,0,9,0C124.8,251.3,121.8,252,118.8,252.8z
			 M209.6,125.4c0-0.2,0-0.5,0-0.7c-2.5-0.1-4.7-2.4-7.2-0.8c1.1,0.3,2.3,0.6,3.5,0.9C207.1,125.1,208.4,125.2,209.6,125.4z
			 M188,106.1c-2.9-0.8-2.9-0.8-3.3,1.2C187.1,108.3,187.4,108.2,188,106.1z M147.5,155.1c0.1-0.1,0.2-0.2,0.3-0.3
			c0.5,0,0.9,0,1.4,0c0.6,0,1.2,0,2,0c-1.2-2-2.3-2.1-4.9-0.9C146.7,154.3,147.1,154.7,147.5,155.1z M163.6,317
			c-1.4-0.6-2.7-1.2-4.1-1.8C159.6,318.5,160.4,318.5,163.6,317z M248.5,138.4c-0.1,0.1-0.3,0.3-0.4,0.4c1.1,1.6,2.2,3.3,3.6,5.3
			c-0.2-1.5-0.4-2.4-0.5-3.1C250.1,140.1,249.3,139.2,248.5,138.4z M192.9,195.5c-0.1,0-0.2,0.1-0.4,0.1c0.2,1.4,0.4,2.8,0.6,4.3
			c0.7-0.9,1.1-1.5,1.7-2.2C194.4,197.2,193.6,196.4,192.9,195.5z M193.1,202.5c1.5-0.9,3.1-1.9,4.6-2.8
			C196.2,198.6,193.4,200.3,193.1,202.5z M155.9,321.4c-0.4-1.9-0.8-3.6-1.2-5.4c-0.1,0-0.3,0.1-0.5,0.1
			C153.8,319.3,154.3,321.1,155.9,321.4z M265.3,51.8c0.2-0.2,0.3-0.5,0.5-0.7c-2.1-1.3-4.2-2.6-6.3-3.9c-0.1,0.1-0.2,0.3-0.3,0.4
			C261.3,49,263.3,50.4,265.3,51.8z M274.2,66.1c-0.2,0.1-0.5,0.2-0.7,0.2c0.5,1.5,0.9,3,1.5,4.9c0.4-0.6,1-1.1,0.9-1.3
			C275.4,68.6,274.8,67.3,274.2,66.1z M175.5,321.3c0,0.2,0.1,0.3,0.1,0.5c1,0,2.1,0,3.1,0c0-0.8,0-1.6,0-2.5
			C177.6,320,176.5,320.7,175.5,321.3z M147.1,36.3c-0.2,0-0.4,0-0.5,0c-0.2,2.6-0.5,5.2-0.7,7.8c0.2,0,0.5,0,0.7,0.1
			C146.8,41.6,146.9,38.9,147.1,36.3z M191.4,188.3c-0.1-0.1-0.1-0.2-0.2-0.2c-0.8,0.2-1.7,0.4-2.5,0.7c-1.5,0.5-1.6,1-0.5,2.3
			C189.2,190.1,190.3,189.2,191.4,188.3z M158,300.9c-2-0.2-3.9-0.5-5.9-0.7c0,0.2,0,0.4,0,0.5c0.3,0,0.7,0,1,0.1
			c0.5,0.1,1.2,0.1,1.5,0.4C156,302.4,156.7,302.3,158,300.9z M197.8,117.6c-1.7-1-2.6-0.5-2.7,1.4
			C196.5,119.7,197.7,119.8,197.8,117.6z M145,299.9c0.9,1.1,1.7,2.2,2.6,3.4C147.8,299.6,147.7,299.6,145,299.9z M120.5,161.7
			c-0.1-0.2-0.3-0.5-0.4-0.7c-1.6,0.9-3.2,1.8-4.8,2.7c0.1,0.2,0.3,0.5,0.4,0.7C117.2,163.5,118.9,162.6,120.5,161.7z M91.8,190.9
			c-0.1,0.1-0.1,0.3-0.2,0.4c2,0.6,4.1,1.1,6.1,1.7c-0.8-0.9-1.7-1.5-2.7-1.8C94,191,92.9,191,91.8,190.9z M125.8,244.9
			c2.1-0.2,4.2-0.5,6.2-0.7c0-0.2,0-0.4-0.1-0.5C129.9,244.1,127.6,243.1,125.8,244.9z M89.7,243.1c-0.2,0.1-0.4,0.1-0.6,0.2
			c0.8,1.8,1.2,3.8,2.7,5.2c0.1-0.1,0.3-0.1,0.5-0.2C91.5,246.6,90.6,244.8,89.7,243.1z M81.3,118.7c-1.2,0.9-0.6,3.2,1.3,4.9
			C82.1,121.8,81.7,120.4,81.3,118.7z M122.6,111.9c1.9,0.1,2.3-0.3,2.2-2.2C123.2,109.5,122.4,110.1,122.6,111.9z M114.2,144.4
			c-2.4,1-4.8,2.1-6.1,4.5C110.1,147.4,112.1,145.9,114.2,144.4z M204.4,212.1c0.8,0.1,1.4,0.4,1.6,0.2c0.9-0.9,1.6-2,2.4-3
			c-1.3,0.4-2.2,1.1-3.2,1.8C205,211.3,204.9,211.6,204.4,212.1z M124.2,152.8c2,2.3,2.2,2.3,3.4,2.1
			C125.6,152,125.6,152,124.2,152.8z M266.5,196.5c-1.9,0.9-3.6,1.7-5.5,2.7c1.7-0.3,3.2-0.5,4.6-0.7
			C265.9,197.9,266.1,197.3,266.5,196.5z M129,242.6c3.3,0.6,5.1,0.3,6.5-0.9C133.3,242,131.1,242.3,129,242.6z M122.1,116.9
			c-1.7-0.4-2.3,0.4-2.5,1.9C122,118.9,122,118.9,122.1,116.9z M160.2,115.8c-0.9,0-2-1-2.6,0.5c-0.1,0.2,0.3,0.9,0.5,1
			C159.3,117.7,160,117.1,160.2,115.8z M191,196.9c-1.2,1.7-0.7,3.2,0,4.6c0.2,0,0.4,0,0.5-0.1C191.4,200,191.2,198.5,191,196.9z
			 M123.9,144.6c0.1,0.2,0.2,0.3,0.2,0.5c1.3-0.8,2.5-1.6,4.1-2.7C126,142,125.1,143.6,123.9,144.6z M129.3,95.4
			c-0.1-0.1-0.3-0.1-0.4-0.2c-0.5,1.1-1,2.2-1.5,3.4c0.2,0.1,0.4,0.3,0.5,0.4c0.6-0.3,1.2-0.6,1.8-1c-0.1-0.1-0.3-0.2-0.5-0.2
			C129.3,96.9,129.3,96.1,129.3,95.4z M112.3,140.6c0-0.1-0.1-0.3-0.2-0.4c-2,0.5-3.4,2.1-5.2,3.2c0.1,0.1,0.1,0.3,0.2,0.4
			C108.9,142.6,110.6,141.6,112.3,140.6z M123.9,137.4c0.1,0.2,0.1,0.4,0.2,0.6c1.3-0.4,2.5-0.8,3.8-1.1
			C126.2,135.7,125,136.3,123.9,137.4z M113.4,316.1c0.1,0,0.2,0,0.3,0c-0.1-1.8-0.2-3.6-0.3-5.4c-0.3,0-0.6,0-1.1,0.1
			C112.7,312.6,113.1,314.4,113.4,316.1z M201,215.8c1.2-0.8,2.5-1.7,3.7-2.5C203.8,212.4,201.9,213.5,201,215.8z M135.6,166.6
			c0.1-0.2,0.2-0.3,0.4-0.5c-1.6-1.3-3.3-2.6-5-4c-0.1,0.1-0.2,0.3-0.3,0.4C132.3,163.9,134,165.2,135.6,166.6z M102.4,194.3
			c-1.3-0.2-2.7-0.4-4.4-0.6C99.5,195.3,102,195.4,102.4,194.3z M152.6,116.6c1.4,0.3,2.5,0.4,2.5-1.4c-0.5-0.2-1-0.3-1.7-0.5
			C153.1,115.4,152.9,115.9,152.6,116.6z M96.2,204.8c0.2,0,0.4,0.1,0.6,0.1c0.3-1.8,0.6-3.7,0.9-5.5c-0.2,0-0.4-0.1-0.5-0.1
			C96.8,201.1,96.5,203,96.2,204.8z M238.1,35.7c0.1-0.2,0.1-0.3,0.2-0.4c-2.2-0.9-4.5-1.9-6.7-2.8c-0.1,0.1-0.1,0.3-0.2,0.4
			C233.6,33.8,235.8,34.8,238.1,35.7z M147,97.6c-0.2-0.2-0.3-0.3-0.5-0.5c-0.7,0.4-1.4,0.8-2.4,1.4c1.1,0.5,1.6,0.7,2.3,1.1
			C146.7,98.8,146.9,98.2,147,97.6z M133.4,98.3c0-0.4,0-0.7-0.1-1.1c-0.8,0-1.5,0-2.3,0.2c-0.1,0-0.1,0.7-0.1,1.1
			C131.8,98.4,132.6,98.3,133.4,98.3z M85.8,123.1c-0.5-1.6-0.8-2.8-1.1-4C83.2,120.3,83.2,120.4,85.8,123.1z M93.2,209.9
			c-0.2,1.2-0.4,2.4-0.6,3.9C94.6,212.7,94,211.3,93.2,209.9z M87.2,121.9c-0.1,0.3-0.2,0.6-0.3,0.9c1.4,0.5,2.7,1,4.1,1.5
			c0.1-0.2,0.1-0.4,0.2-0.5C89.9,123.2,88.6,122.6,87.2,121.9z M172.2,306.9c2.6-1.2,2.8-1.4,1.6-3.4
			C173.3,304.7,172.8,305.7,172.2,306.9z M201.1,118.6c-1.5-1.1-2-0.1-2.4,1.1C200.1,120.6,200.9,120.2,201.1,118.6z M124.3,107.6
			c0.1,0.2,0.2,0.4,0.3,0.6c0.7-0.5,1.4-0.9,2.3-1.5C124.9,105.6,124.8,105.6,124.3,107.6z M119.4,111.8c1.9,0.2,2.4-0.5,1.7-2.9
			C120.5,110,119.9,110.9,119.4,111.8z M145,119c-0.9,0.6-1.5,1-2.1,1.4c0.4,0.2,0.7,0.6,1.1,0.7C145.2,121.3,145.4,120.6,145,119z
			 M204.1,48c-0.2-0.1-0.5-0.1-0.8-0.2c-0.3,0.9-0.7,1.9-1,2.8c0,0.2,0.2,0.5,0.4,0.6c0.1,0.1,0.5-0.1,0.5-0.2
			C203.6,50,203.8,49,204.1,48z M126.3,145.6c0.1,0.2,0.1,0.4,0.2,0.5c1.5,0.5,2.5-0.6,3.7-1.2c-0.1-0.2-0.1-0.3-0.2-0.5
			C128.8,144.8,127.6,145.2,126.3,145.6z M113.3,244.5c0-0.2,0-0.3,0.1-0.5c-1.7,0-3.3,0-5,0c0,0.2,0,0.3,0,0.5
			C110,244.5,111.7,244.5,113.3,244.5z M163.9,107.6c-0.1-0.2-0.3-0.4-0.4-0.6c-1.6-0.4-1.6,0.9-2.1,1.8c0.1,0.1,0.2,0.3,0.4,0.4
			C162.4,108.7,163.1,108.1,163.9,107.6z M149.7,134.6c0,0.1,0,0.2,0,0.2c1.9,0,3.9,0,5.8,0c0-0.1,0-0.2,0-0.2
			C153.6,134.6,151.6,134.6,149.7,134.6z M106,149.9c0,0.7,0,1.1,0,1.6c0.2-0.3,0.4-0.5,0.8-1c0.1,1.1,0.2,1.7,0.3,2.4
			c0.1,0,0.2,0,0.3,0.1c0.2-0.8,0.5-1.6,0.8-2.4C107.3,150.3,106.7,150.2,106,149.9z M109.9,147.9c0.1,0.1,0.2,0.3,0.4,0.5
			c1.4-0.8,2.9-1.7,4.3-2.5c-0.1-0.2-0.2-0.3-0.3-0.5C112.8,146.2,111.4,147.1,109.9,147.9z M195.3,219.5c0.1,0.1,0.2,0.2,0.3,0.3
			c0.9-0.7,1.8-1.5,2.7-2.3C196.7,217.2,196.7,217.3,195.3,219.5z M147.5,29.9c0.5-3.5,0.2-5.5-0.7-6
			C147,25.8,147.3,27.8,147.5,29.9z M191.1,107.1c-1.2,0.4-2.1,0.7-3.1,1.1C190.2,109.2,190.7,109,191.1,107.1z M120.1,328.3
			c0.2,0,0.3,0,0.5,0c-0.2-1.7-0.4-3.3-0.5-5c-0.2,0-0.4,0-0.6,0.1C119.7,325,119.9,326.6,120.1,328.3z M164.6,116
			c-0.1-0.2-0.3-0.4-0.4-0.6c-0.7,0.6-1.4,1.1-2.4,1.9C163.3,117.5,164.5,117.6,164.6,116z M135.4,161.6c0.2-0.2,0.3-0.3,0.5-0.5
			c-1.1-1-2.1-2-3.2-3c-0.1,0.1-0.1,0.1-0.2,0.2C133.5,159.5,134.5,160.6,135.4,161.6z M209.5,215.5c-2.4,0.9-2.6,1.2-1.9,2.6
			C208.2,217.2,208.9,216.4,209.5,215.5z M172.4,170.8c-0.5-0.3-1-0.7-1.7-1.2c0.1,1.1,0.2,2.1,0.2,3c0.1,0,0.2,0,0.4,0
			C171.6,172.1,172,171.5,172.4,170.8z M184.2,208.8c2.7,0.5,3.6,0.1,3.2-1.3C186.5,207.9,185.6,208.2,184.2,208.8z M154.1,118.2
			c-0.9-0.1-2.1-1.2-2.4,0.7C152.7,119.2,153.7,120.2,154.1,118.2z M91.9,243.5c-0.2,0.1-0.3,0.3-0.5,0.4c0.6,0.8,0.6,2.3,2.6,2.1
			C93.2,245,92.5,244.2,91.9,243.5z M144.4,154.8c-0.6-0.2-1.1-0.5-1.7-0.7c-0.1,0.2-0.1,0.4-0.2,0.6c1.1,0.3,2.3,0.6,3.4,1
			c0-0.1,0.1-0.3,0.1-0.4c-0.4-0.5-0.8-0.9-1.3-1.5C144.6,154.2,144.5,154.5,144.4,154.8z M162.4,111.3c-0.1-0.3-0.3-0.6-0.4-0.9
			c-0.6,0.3-1.3,0.6-1.9,1c0,0,0.2,0.6,0.4,0.9C161.1,111.9,161.7,111.6,162.4,111.3z M129,100.5c-2-0.7-2.3-0.5-2.2,1.8
			C127.6,101.6,128.2,101.1,129,100.5z M148.3,324.7c-0.5-1.2-0.9-2.2-1.4-3.4C146.4,323.7,146.6,324.3,148.3,324.7z M103.7,214.7
			c-1-1.2-1.9-2.1-2.7-3.1C101.5,212.8,101.4,214.6,103.7,214.7z M271.7,175.2c-0.2,0.1-0.5,0.1-0.7,0.2c0.4,1.1,0.7,2.3,1.1,3.4
			c0.2-0.1,0.4-0.1,0.6-0.2C272.4,177.5,272,176.4,271.7,175.2z M161.1,106.8c-1.9-0.2-2.1,0.2-1.6,2.4
			C160.1,108.3,160.6,107.6,161.1,106.8z M156.5,106.5c-0.1-0.2-0.3-0.4-0.4-0.6c-0.6,0.3-1.2,0.6-1.8,0.9c0.3,0.3,0.5,0.7,0.8,1
			C155.6,107.4,156,107,156.5,106.5z M186.6,111c0.1,0.3,0.2,0.5,0.3,0.8c0.7-0.2,1.4-0.4,2.2-0.7c-0.3-0.3-0.6-0.8-0.8-0.8
			C187.6,110.4,187.1,110.8,186.6,111z M172.8,103.3c2.1,0.5,2.1,0.5,2.2-0.7C173.2,102.3,173.2,102.3,172.8,103.3z M147.8,107.8
			c-1.5-0.3-2.3-0.3-2.3,0.8c0,0.2,0.7,0.7,0.8,0.6C146.7,108.9,147.1,108.5,147.8,107.8z M186.2,110.2c-2.2-0.6-2.2-0.6-2.8,0.3
			c0.6,0.2,1.2,0.5,1.9,0.8C185.5,110.9,185.8,110.6,186.2,110.2z M94.9,251.5c0.1-0.2,0.2-0.5,0.4-0.7c-0.9-0.6-1.8-1.1-2.7-1.7
			c-0.1,0.2-0.2,0.4-0.4,0.6C93.1,250.3,94,250.9,94.9,251.5z M172.5,108.7c-0.1-0.2-0.2-0.5-0.3-0.7c-0.8,0.1-2-0.6-2.2,1.6
			C171,109.2,171.8,108.9,172.5,108.7z M93,226.8c0.1,0.1,0.2,0.3,0.3,0.4c1.2-0.9,2.5-1.9,3.7-2.8c-0.1-0.1-0.2-0.3-0.4-0.5
			C95.5,224.9,94.2,225.8,93,226.8z"/>
		<path d="M99.4,174.1c-1.2,1.4-2.4,2.9-3.5,4.3c1.4-2.6,2.6-5.2,5.3-6.7C100.5,172.5,100,173.3,99.4,174.1z"/>
		<path d="M160.1,188.1c-6,3.7-12.2,7.1-18,11.2c-5.6,4-11.3,8-15.8,13.4c-0.2-0.2-0.4-0.5-0.6-0.7c2.6-2.4,5.1-4.8,7.7-7.1
			c-0.2,0-0.5,0.1-0.9,0.1C134.4,202.4,156.2,188.7,160.1,188.1z"/>
		<path d="M124.1,186.2c-1.9,2.4-0.4,5.1-0.4,7.6c0,0.4,0,0.8,0,1.1c-0.1,0-0.3,0-0.4,0c-0.4-2.9-0.8-5.9-1.2-9
			c-1,0.7-1.9,1.4-2.9,2c0.5-0.7,1.1-1.3,1.6-2c0.5-0.6,0.9-1.3,1.3-2c-3.5,1.2-5.6,3.9-4.9,5.2c0.5-0.3,1-0.6,1.6-0.8
			c-2,1.5-1.5,3.4-1,5.5c0.9,3.9,1.6,7.8,2.4,11.7c0.1,0.6-0.1,1.4-0.1,1.8c-1.2-6-2.5-12.2-3.8-18.5c-0.5,0.3-0.9,0.6-1.3,0.9
			c-0.2,0.2-0.5,0.4-0.7,0.6c-0.1-0.1-0.3-0.3-0.3-0.4c0.1-0.4,0.1-1.1,0.4-1.2c1.9-0.7,2.7-2.5,4.1-3.6c1.8-1.3,3.6-2.6,5.5-3.8
			c0.2,0.2,0.4,0.5,0.7,0.8c-0.9,0.3-1.8,0.6-2.6,0.9c0.3,0.4,0.6,0.7,0.9,1c1.3-0.8,2.6-1.6,4-2.4c0.1,0.1,0.2,0.2,0.3,0.3
			c-0.9,0.6-1.7,1.4-2.7,1.9c-1.2,0.6-1.9,1.3-1.3,2.7C123.4,186.5,123.8,186.4,124.1,186.2L124.1,186.2z"/>
		<path d="M112.6,241c2.8-2,5.5-4.2,8.5-6.1c3.2-2,6.7-3.4,9.8-5.4c2-1.3,3.5-3.5,5.5-5c4.3-3.4,8.7-6.6,13.2-9.8
			c1.1-0.8,2.4-1.5,3.7-2.1c-6.6,5-13.3,10-19.9,15.1c0.1,0.1,0.2,0.3,0.3,0.5c0.6-0.2,1.2-0.5,1.8-0.7c0,0.1,0.1,0.1,0.1,0.2
			c-2,1.2-4,2.3-6,3.5c-4.9,3-9.8,6-14.7,8.9C114.1,240.4,113.3,240.6,112.6,241C112.5,240.9,112.6,241,112.6,241z"/>
		<path d="M153.8,188.2c-9.1,5.5-18.1,11-26,18.1C135.5,198.8,144.1,192.7,153.8,188.2z"/>
		<path d="M96.8,229.8c0.6-0.3,1-0.5,1.1-0.5c0.5,0.7,0.9,1.4,1.2,1.8c3.9-2.6,7.6-5,11.3-7.4c0.1,0.2,0.2,0.3,0.3,0.5
			c-3.6,2.4-7.2,4.9-10.9,7.3c0.6,0.8,0.6,0.8,2.9,0.2c-1.9,1.7-1.9,1.7-3.5,0.1C98.5,231.1,97.7,230.5,96.8,229.8z"/>
		<path d="M124.1,186.2c0.3-0.5,0.6-1,1-1.8c1.3,6.4,2,12.7,1.8,18.6c-0.9,0.5-1.5,0.9-2.1,1.2c-0.1-0.1-0.1-0.1-0.2-0.2
			c2.8-1.9,1.5-4.7,1.5-7.1c-0.1-3.3-0.8-6.5-1.3-9.7C124.8,186.9,124.4,186.6,124.1,186.2C124.1,186.2,124.1,186.2,124.1,186.2z"/>
		<path d="M119.7,240.6c1.6-1.1,3.1-2.3,4.7-3.3c4.8-2.7,9.6-5.3,14.5-7.9c0.3-0.1,0.6-0.2,1-0.1c-2.4,1.4-4.9,2.7-7.3,4.1
			c-3.8,2.2-7.5,4.4-11.3,6.5C120.8,240.3,120.2,240.4,119.7,240.6C119.7,240.6,119.7,240.6,119.7,240.6z"/>
		<path d="M103.8,242.6c4.8-3.9,9.5-7.7,14.3-11.6c0.6-0.5,1.1-1.3,1.6-2c0.2,0.1,0.4,0.3,0.9,0.6c-2.2,1.9-4.2,3.8-6.4,5.6
			c-2.9,2.3-5.8,4.5-8.7,6.7C104.9,242.4,104.3,242.4,103.8,242.6C103.7,242.6,103.8,242.6,103.8,242.6z"/>
		<path d="M135,230.5c3.9-4.2,8.5-7.5,13.4-10.5c0.1,0.1,0.2,0.3,0.3,0.4C144.2,223.7,139.6,227.1,135,230.5z"/>
		<path d="M147.2,212.7c-4.7,3.8-9.4,7.6-14.1,11.4c-0.1-0.1-0.3-0.3-0.4-0.4c0.8-0.7,1.6-1.5,2.4-2.2c1.7-1.4,3.4-2.8,5.2-4.1
			c2.2-1.7,4.5-3.3,6.7-5C147,212.5,147.1,212.6,147.2,212.7z"/>
		<path d="M159,181.5c-2.6-3.1-5.3-6.3-7.9-9.4c0.1-0.1,0.3-0.3,0.5-0.4c2.7,3.1,5.4,6.2,8.1,9.3C159.4,181.1,159.2,181.3,159,181.5
			z"/>
		<path d="M115.3,193c0.9,4.9,1.7,9.8,2.6,14.6c-0.2,0-0.3,0.1-0.5,0.1c-0.4-2.4-0.9-4.9-1.3-7.3c-0.4-2.4-0.9-4.9-1.3-7.3
			C115,193.1,115.1,193.1,115.3,193z"/>
		<path d="M136.3,177.7c3.1,1.8,6.3,3.6,9.4,5.5c-0.1,0.2-0.2,0.4-0.3,0.5c-3.1-1.9-6.3-3.7-9.4-5.6
			C136.1,178,136.2,177.8,136.3,177.7z"/>
		<path d="M101.5,219.7c1.7-1.6,3.4-1.4,5.3,0.1c-1.1,0.4-2,0.7-2.9,1c-0.1-0.1-0.1-0.2-0.2-0.3c0.2-0.2,0.4-0.5,1-1.2
			C103.4,219.5,102.5,219.6,101.5,219.7z"/>
		<path d="M151,223.7c-2.6,2-5.3,4-8,6c-0.1-0.1-0.2-0.3-0.3-0.4c2.6-2,5.3-4,8-6C150.9,223.5,150.9,223.6,151,223.7z"/>
		<path d="M110.5,179.1c0,0.4,0,0.9-0.2,1.2c-1.4,2.3-2.8,4.5-4.2,6.8C107.2,184.2,108.6,181.5,110.5,179.1
			C110.6,179.1,110.5,179.1,110.5,179.1z"/>
		<path d="M112.2,178.7c-0.7,1.7-1.4,3.3-2.1,5c-0.5,1.1-1.1,2.2-1.9,3.3C109.3,184.2,110.5,181.3,112.2,178.7
			C112.3,178.8,112.2,178.7,112.2,178.7z"/>
		<path d="M127.9,201.2c1.8-1.3,3.6-2.6,5.5-3.8c0.1,0.1,0.2,0.3,0.3,0.4c-1.8,1.3-3.6,2.6-5.4,3.9
			C128.1,201.5,128,201.4,127.9,201.2z"/>
		<path d="M123.8,195.6c0.4,2.1,0.7,4.2,1.1,6.3c-0.2,0-0.4,0.1-0.6,0.1c-0.3-2.1-0.6-4.2-0.9-6.3
			C123.5,195.7,123.6,195.6,123.8,195.6z"/>
		<path d="M147.3,167.7c1.7,0.3,3.2,2,3.2,3.6C149.5,170.2,148.5,169,147.3,167.7z"/>
		<path d="M166.1,184.7c-0.5-0.7-0.9-1.4-1.3-2c0.1-0.1,0.2-0.1,0.3-0.2c0.2,0.3,0.5,0.7,0.9,1.2c0-1.1,0-1.9,0-2.8
			c0.1,0,0.2,0,0.2,0c0.2,1.2,0.3,2.4,0.5,3.6C166.5,184.6,166.3,184.7,166.1,184.7z"/>
		<path d="M116.4,183.6c0.7-0.4,1.4-0.9,2-1.3c-1.4,1.5-2.9,3-4.3,4.5c-0.1-0.1-0.2-0.2-0.3-0.3
			C114.7,185.6,115.5,184.6,116.4,183.6z"/>
		<path d="M110.9,210.6c-1-1.4-2-2.9-3-4.3c0.2-0.1,0.3-0.2,0.5-0.3C109.5,207.4,110.5,208.8,110.9,210.6
			C110.9,210.6,110.9,210.6,110.9,210.6z"/>
		<path d="M177.2,269.1c-9.4,8.1-18.4,16.7-27,26c0.1-0.4,0.1-0.9,0.3-1.1c2.2-2.4,4.5-4.8,6.8-7.2c2.9-2.9,5.7-5.9,8.8-8.7
			c3.5-3.2,7.1-6.3,10.7-9.4C176.9,268.9,177.1,269,177.2,269.1z"/>
		<path d="M175.6,274.7c-6.6,4.3-11.6,10.4-17.2,15.8c-1.1,1-2,2.3-3,3.4c-0.2,0.2-0.5,0.3-1,0.3C160.9,287,167,279.4,175.6,274.7z"
			/>
		<path d="M168.3,272.6c-0.5,0.5-0.9,1.1-1.4,1.6c-3.4,3.5-6.8,7.1-10.3,10.6c-0.7,0.7-1.5,1.4-2.2,2.1c-0.1-0.1-0.3-0.3-0.4-0.4
			c3.1-3.2,6.2-6.4,9.3-9.6c1.2-1.2,2.5-2.3,3.7-3.4C167.4,273.1,167.9,272.9,168.3,272.6L168.3,272.6z"/>
		<path d="M159,294.4c4.4-4.3,8.5-9.1,14.5-12C168.5,286.5,163.7,290.5,159,294.4z"/>
		<path d="M150.4,291c2.7-5.9,7.1-10.2,11.6-14.4c-1,1.2-2,2.4-3.1,3.6c-1.5,1.7-3.2,3.4-4.5,5.2c-1.1,1.6-1.5,3.7-3.3,4.9
			C150.9,290.5,150.7,290.7,150.4,291z"/>
		<path d="M200.5,252.1c3.2-3.5,6.4-7,9.6-10.5c0.2,0.2,0.3,0.3,0.5,0.5C207,245.2,204.6,249.6,200.5,252.1z"/>
		<path d="M200.3,249.2c-0.1-0.2-0.4-0.5-0.6-0.8c2.8-2.6,5.5-5.2,8.2-7.9c0.1,0.1,0.2,0.2,0.3,0.3
			C205.6,243.6,203,246.4,200.3,249.2z"/>
		<path d="M146.2,282c-0.6,0.4-1.2,1.1-1.7,1c-1.9-0.2-3.7-0.6-5.5-0.9c-2-0.3-2.4-0.9-1.3-3.5c-0.5,2.8,1,2.8,2.6,2.8
			c1.3,0,2.5,0.5,3.8,0.6C144.7,282.2,145.5,282.1,146.2,282C146.2,282,146.2,282,146.2,282z"/>
		<path d="M202.1,253.2c2.8-2.9,5.6-5.9,8.4-8.8c0.1,0.1,0.3,0.3,0.4,0.4c-2.8,2.9-5.6,5.9-8.3,8.8
			C202.4,253.5,202.3,253.4,202.1,253.2z"/>
		<path d="M211.6,247.5c-2.6,2.7-5.3,5.4-7.9,8.2c-0.1-0.1-0.1-0.1-0.2-0.2c2.6-2.8,5.2-5.5,7.9-8.2
			C211.4,247.4,211.5,247.5,211.6,247.5z"/>
		<path d="M168.4,272.6c0.7-0.8,1.4-1.7,2.2-2.4c1.2-1.1,2.6-2.1,4-2.9c-1.9,1.7-3.7,3.4-5.6,5C168.9,272.5,168.6,272.5,168.4,272.6
			C168.3,272.6,168.4,272.6,168.4,272.6z"/>
		<path d="M210.9,255.6c-1.8,1.4-3.5,2.9-5.3,4.3c0.1,0.1,0.3,0.3,0.4,0.4c1.5-1.7,3-3.4,4.5-5.1
			C210.6,255.4,210.8,255.5,210.9,255.6z"/>
		<path d="M210.5,252.5c-1.7,1.4-3.4,2.8-5.1,4.2c0.1,0.1,0.2,0.2,0.2,0.3c1.5-1.6,2.9-3.2,4.4-4.9
			C210.1,252.3,210.3,252.4,210.5,252.5z"/>
		<path d="M146.2,282c1.9-1.2,3.9-2.5,5.8-3.7c0.1,0.2,0.2,0.5,0.4,0.7C150.3,280.1,148.2,281,146.2,282
			C146.2,282,146.2,282,146.2,282z"/>
		<path d="M147.2,284.1c1.7-1.2,3.5-2.5,5.2-3.7c0.1,0.2,0.2,0.3,0.3,0.5C151.1,282.2,149.3,283.4,147.2,284.1
			C147.2,284,147.2,284.1,147.2,284.1z"/>
		<path d="M140.1,287.2c0,2.4,1.4,3.2,3.6,3.3C141,291.5,139.7,290.2,140.1,287.2z"/>
		<path d="M183.8,205.2c-3.8,5.1-7.7,9.6-10,15.3C173.5,218.1,180.4,207.3,183.8,205.2z"/>
	</g>
</g>
<polygon class="st0" points="224.5,283.5 337.5,313.5 165.5,356.5 10.5,314.5 34.5,299.5 109.5,290.5 113.5,302.5 111.2,320 
	111.5,335.5 151.5,329.5 176.3,325.3 187.5,324.5 186.5,300.5 "/>
</svg>
