<svg id="Layer_1" data-name="Layer 1" xmlns="http://www.w3.org/2000/svg" viewBox="0 0 700.18 539.02"><path d="M360.47,559c-24.17,0-48.34.05-72.52,0-46.29-.1-92.58-.37-138.87-.37-40.42,0-80.84.29-121.27.43-1.74,0-3.48-.27-5.23-.33-11.5-.4-11.59-.39-11.53-12,.18-31.86.54-63.71.63-95.57q.15-57.35,0-114.68c-.07-49.23-.27-98.46-.33-147.69Q11.23,113,11.28,37.18c0-2.4.25-4.81.16-7.21-.37-9.82-.41-9.89,9-9.87,59.12.14,118.24.39,177.36.44,51.19.05,102.38-.18,153.57-.18,54,0,108,.17,162,.2q90.61,0,181.24-.07a75.76,75.76,0,0,0,10.45-.27c4.87-.67,6.23,1.56,6.18,5.92-.26,20.19-.6,40.37-.58,60.56,0,31.79.44,63.58.46,95.37,0,20-.57,39.92-.55,59.87,0,31.57.49,63.14.52,94.7,0,19.95-.56,39.9-.57,59.85,0,28.47.33,56.95.39,85.42,0,21.51-.13,43-.22,64.51,0,.66-.19,1.31-.2,2-.1,10.73-.1,10.79-11.12,10.73-30.48-.18-61-.57-91.43-.6-37.09,0-74.18.33-111.27.33-32.47,0-64.94-.27-97.41-.39-12.92-.05-25.85,0-38.78,0ZM705.09,119.65h-.19c0-9.9,0-19.79,0-29.69q.09-28.57.23-57.15c0-3.51-.14-6.7-5-6.7-14.22,0-28.44-.25-42.66-.16-21.3.13-42.59.67-63.89.67-19.92,0-39.84-.7-59.76-.73-35.33-.06-70.65.15-106,.26q-54,.17-108,.37c-22.58.09-45.15.46-67.73.33-26.75-.14-53.5-1-80.25-1-26.56,0-53.12.72-79.68.88-22.79.14-45.57,0-68.35-.19-3.93,0-6.31.74-6.35,5.27-.11,12.47-.66,25-.59,37.41.13,25.92.75,51.83.81,77.74.13,51.8,0,103.6,0,155.4q0,77.37,0,154.73c0,29.62,0,59.25-.23,88.86-.05,5.73,2.11,6.92,7.4,6.84q34.86-.48,69.74-.26c31,.17,62,.78,92.92.88,35.8.11,71.6-.11,107.4-.24,27.87-.11,55.75-.44,83.63-.43,37.54,0,75.08.38,112.62.39,30.51,0,61-.41,91.53-.41q57.6,0,115.2.46c5.37,0,7.26-1.25,7.17-7-.41-26.74-.49-53.48-.44-80.23.07-41.46.44-82.92.51-124.38.07-45.22-.07-90.44-.1-135.67Q705.07,162.8,705.09,119.65Z" transform="translate(-11.05 -20.1)"/><path d="M668.94,517H53.6V62.25H668.94ZM612.16,407.7l-.75,4.14c1.21-.06,3,.36,3.52-.27,1.41-1.7,3.05-3.8,3.18-5.83.2-3.25-.74-6.58-1.27-10.42-5.48-.47-3.22,5.08-4.49,8.08L607,408.12l2.42-11.56-1.46-.42q-2.79,5.16-5.56,10.32l-1.91-.7,2.07-9.22-.94-.37L595,406.92l-1.77-.85c.53-2.89,1.06-5.78,1.58-8.59-6.39-3.84-9.55-1-11.57,5.2-.57,1.74-2.57,3-4.94,5.67-.79-7.11,0-11.42,4.46-14.75a15.45,15.45,0,0,0,4.36-5.64c.6-1.26-.06-3.12-.16-4.7-1.55.37-3.42.34-4.59,1.23a11.63,11.63,0,0,0-2.88,4.32c-1.6,3.36-2.19,6.91-7.3,7.78-1.94.33-3.35,5.5-4.33,8.68-.28.9,1.74,3.54,2.86,3.64,3.48.3,7-.38,10.55-.43,7.08-.1,14.17,0,21.25,0-1.31,2.76-3.18,3.55-4,4.94a31.18,31.18,0,0,0-3,8.18c-.12.52,2.93,2.47,3.17,2.25a54.9,54.9,0,0,0,5.86-6.32C607.14,414.29,609.62,411,612.16,407.7Zm-52.51-50.29-7.06,4-1-2c1.16-.88,2.87-1.53,3.36-2.69.79-1.9.79-4.14,1.13-6.23-2,.78-4.33,1.18-5.92,2.48-1.2,1-1.21,3.27-2.19,4.67s-2.54,2.56-4.88,4.81c-.46-6.56.08-10.55,4-14.12,2.56-2.32,3.86-6,5.56-9.22a10,10,0,0,0-2.14-1.7q-3.62,3.86-7,7.94c-1.29,1.55-2.26,3.4-3.68,4.81-2.12,2.12-4.61,3.89-6.75,6a60.41,60.41,0,0,0-4.2,5.07l-1.18-.69,1.16-9.32c-10.59-4.61-9.76,7.66-16.6,10.32.72-4.19,1.28-7.4,1.83-10.6l-1-.36-5.87,10.6-1.72-.73,1.92-9.47c-2.25,1.63-2.87,3.86-4.05,5.74s-2.86,3.26-5.44,6.08c-.39-3.19-.86-4.21-.54-4.84,1.92-3.74,4-7.38,6.05-11.08,1.41-2.61,2.8-5.25,4-8,.07-.15-2.1-1.68-2.29-1.51-2.19,1.93-4.88,3.74-6.09,6.23a52.19,52.19,0,0,0-4,12.52c-.92,4.57-1,8.93,6.18,6.55,2-.68,4.5-.11,6.76-.12h11l5.09-9.62c1.16,2.77.54,5.09.87,7.27.18,1.17,2,2.94,3.09,3,4.08.06,8.17-.56,12.26-.78,2.86-.15,6.07-.9,8.53.09,6,2.43,8.5-.67,10.54-5.35l2-1,2.62,7.14a39.18,39.18,0,0,0,4.47-2c.58-.34.78-1.3,1.31-2.29l-5.07,1.84,3.09-9.75h-9.54C558.78,353.26,559.22,355.33,559.65,357.41ZM68.08,349.87c.63,23.7,7.63,45,18,65.45,15.12,29.93,36.53,53.81,66.81,68.61,24.3,11.87,50.1,16.64,76.76,9.21,12-3.34,23.59-8.22,35-13.18,39.56-17.18,61.22-48.5,68.8-90,2.91-15.9,3.51-32.21,5.72-48.25a43.12,43.12,0,0,1,5.11-15.29c1.33-2.34,5.5-3.57,8.62-4.27,5.88-1.32,12.19-1.08,17.83-3,8.71-2.93,16.92-7.3,25.47-10.73,37.92-15.22,75.93-30.2,113.81-45.52,19.74-8,39.22-16.6,58.92-24.7,17.67-7.27,35.6-13.92,53.15-21.45a107.54,107.54,0,0,0,21.07-12.05c10.53-7.7,14.64-20.49,11.24-31.4-4.1-13.16-12.22-20-26.72-20.19-6.78-.08-14,2-20.33,4.6-42,17.39-83.76,35.45-125.79,52.79-45.9,18.94-92,37.31-138,56a22.74,22.74,0,0,0-7.54,5c-7.37,7.56-13.29,7.71-20.42-.22-3.82-4.25-7-9.07-11-13.15a40.57,40.57,0,0,0-9-6.35c-3.91-2.24-8.2-3.84-12.1-6.1-11.73-6.8-22.77-15.16-35.14-20.44-37.39-15.94-74.48-14.29-110.08,5.88C92.07,257.42,69.22,297.59,68.08,349.87ZM192.6,140.58V76.68c-6.93-2.24-10.11-.15-11.63,6.56-2.47,10.87-5.88,21.53-9.25,33.54-1.05-2.49-1.76-3.76-2.15-5.13-2.7-9.51-5.71-18.94-7.88-28.57-1.52-6.76-4.9-8.53-11.38-6.36v63.66c8.76,1.82,9.13,1.56,9.22-6.65.06-5.79,0-11.57,0-17.36,2.88,4.69,4,9.81,6.05,14.47.86,1.91,3.78,3.37,6.06,4,3.22,1,5.19-.71,6-4.21,1.14-4.89,2.81-9.65,4.26-14.47a77.51,77.51,0,0,1,1.22,17.37C183,142,183.19,142.14,192.6,140.58ZM515.94,76.17v28.18c-3.08-7-4.88-14-6.66-21-2.16-8.52-2.89-8.92-12.23-6.25,0,19,0,38.1,0,57.23,0,7.77,1.17,8.46,9.74,5.51V113.1a127.53,127.53,0,0,1,7.38,23.29c1.09,5.31,4.54,5.87,8.17,4.69,1.72-.56,3.52-3.94,3.56-6.07.26-17.83.14-35.66.08-53.49a52.13,52.13,0,0,0-.56-5.35Zm-133.07.07v65.07c7.9,0,15.61.67,23.1-.35,2.82-.38,7.18-4.63,7.26-7.22.25-8.63,3.7-18.1-4.16-25.42,7.73-7.84,4.51-17.19,3.9-25.83-.16-2.24-4.35-5.69-7-6C398.47,75.71,390.79,76.24,382.87,76.24Zm153.46,0v65.11c7.75,0,15,.53,22.17-.18a8.92,8.92,0,0,0,8.44-9.29c.11-15.39.06-30.79,0-46.19,0-5.56-3.45-8.83-8.38-9.28C551.44,75.74,544.17,76.23,536.33,76.23Zm-276.88,64,1.7,2c2.65-1.28,7.62-2.64,7.58-3.84-.32-9.73,3.9-20.2-3.66-28.64,1.41-2.31,3.58-4.26,3.72-6.36.46-6.77.84-13.7-.17-20.34-.39-2.57-4.41-6.15-7.13-6.49-7.29-.9-14.77-.31-22.61-.31v64.49H248V115.49h11.41Zm373.88.17,1.93,1.8c2.55-1.18,7.34-2.45,7.3-3.53-.4-9.73,3.86-20.18-3.7-29,1.33-2,3.62-3.91,3.75-6,.47-7,.78-14.09-.13-21-.31-2.41-4.17-5.9-6.7-6.18-7.53-.82-15.21-.29-23-.29v64.63h8.83V124.29c0-10.31.39-10.6,11.75-8.38ZM309.8,108.69h0c0-4.61-.22-9.23,0-13.82,1-18.08-2.47-19.31-18.72-18.71-.44,0-.88,0-1.32,0-7,.2-10.29,3.51-10.33,10.59q-.09,21.39-.06,42.79c0,8.64,3.18,11.78,11.84,11.84,2.85,0,5.7,0,8.56,0,6.28-.18,10-3.93,10-10.29C309.84,123.61,309.8,116.15,309.8,108.69Zm-200.6,0h0c0,7.47,0,14.94,0,22.41,0,5.89,3.64,9.75,9.57,10.11,3.07.18,6.15.08,9.23.06,8.28,0,11.63-3.31,11.65-11.43,0-11.42-.36-22.86,0-34.26.71-20-2.89-19.82-20.18-19.35-6.92.19-10.28,3.64-10.34,10.71C109.14,94.21,109.2,101.46,109.2,108.71Zm347-32.59c0,19.55-.37,38.42.4,57.25.11,2.77,5.27,6.18,8.78,7.71,2.95,1.29,6.92.32,10.43.27,7.07-.09,10.81-3.79,10.87-10.93.08-8.13,0-16.26,0-24.4V76.23h-10v54.68H465.26V76.12Zm-378,64.7c.26-4.78,1.08-9.28.64-13.66-1.41-14.11-1.59-14.16,12.23-14.42,6-.11,8.86-3,8.91-8.88.06-6.15.13-12.29,0-18.43-.17-5.75-3.48-8.81-9.11-9.07-5.25-.24-10.53.1-15.79-.18-4.4-.23-5.7,1.68-5.64,5.83.17,12.72.07,25.45.08,38.18v20.63ZM577.27,76.49v64.4h25.29v-9.44H586.7c-.17-3.83-.16-7.07-.49-10.28-.52-5,1.16-7.07,6.57-6.9,8.05.26,8.44-.64,6-9.34-2.45,0-5.12.36-7.63-.12-1.7-.33-4.43-1.72-4.53-2.84-.49-5.17-.22-10.41-.22-16.3h16.08V76.49Zm-374,.2v64.22h25.36v-9.53H212.3c0-3.85.21-7.09-.05-10.29-.39-5,1.28-7.12,6.67-6.88,8,.35,8.49-.74,5.89-9.32H212.76c-.16-2.88-.41-5.24-.42-7.6-.05-11,0-11,11.06-11.4,1.71-.06,3.41-.36,5.22-.56V76.69Zm115.09-.07c.5,3,1,5.75,1.44,8.53,2.54,16.24,5.44,32.44,7.41,48.75,1,8,1,8.69,8.31,6.76,3.68-21.76,7.26-43,10.8-64-6.78-2.64-9.13.38-9.94,6.28-.76,5.55-2.09,11-3.17,16.54a53.1,53.1,0,0,1-4.87-16.83C327.65,76.76,325.11,74.5,318.36,76.62Zm104.16-.4c0,20.8-.06,40.94.14,61.08,0,1.34,1.95,3.75,3.09,3.81,6.5.37,13,.18,19.54.18V131H432V76.22Zm38,331.06-1.9-1.3c-.34-4.85.29-9.25,4.79-12.54a12.53,12.53,0,0,0,4.07-5.06c.62-1.49,0-3.52-.14-5.32-1.68.72-4.26,1-4.88,2.23-2.31,4.68-3.8,9.76-6,14.53-1.22,2.7-3.12,5.09-4.71,7.62l-3.31-2c1.85-3.79,3.51-7.69,5.62-11.33,1.3-2.24,3.61-3.9,4.82-6.17.64-1.18-.11-3.11-.23-4.71-1.55.41-4.24.49-4.46,1.28-2.33,8.11-10.13,11.29-14.95,17.09a10,10,0,0,1-2.08,1.46c-.6-1.75-1.12-3.23-1.63-4.71h-1.72l-1.5,7.71c-4.14-4-1-7.16,2-10.33l-1.7-.81-7,7.68-5-7.78c-1.65,1.36-2.87,2.24-3.95,3.28s-2.25,2.39-2.94,3.14l-4.33-6.13-2.15.74c6.41,6.63-3.44,7.57-3.58,13.55l10.14-5.18c3.16,9.87,7.55,3.29,12.17.28,4.08,11.46,8.2.51,12.35,1.12a14.86,14.86,0,0,0,7.25,2.5c6.44.22,12.9.18,19.34,0a85,85,0,0,0,9.34-1.32c-.09-.55-.17-1.09-.26-1.63l-6.41,1.48c.83-2.47,2.65-3.22,3.36-4.55.88-1.67.83-3.82,1.19-5.76-2,.58-4.32.79-6,1.87-1.07.67-1.15,2.76-1.94,4C463.13,404,461.77,405.61,460.53,407.28ZM612.29,351l-1-.46-5.86,10.39-1.48-.62c.5-3.12,1-6.24,1.51-9.36l-1-.19-4.94,7.37c-1.84-3.5-3.18-6-5-9.46L584.4,361.89l-2.08-1.41q2.17-7.25,4.36-14.49c-2.27.76-3.82,2-4.24,3.63a202.17,202.17,0,0,0-4.6,19.84c-.3,1.82,1.56,4,2.44,6,1.66-1.67,3.63-3.14,4.86-5.08.7-1.11-.18-3.12.33-4.47s1.72-3.58,2.92-3.79c3.73-.67,7.6-.58,12.3-.83,4,6.46,11.53-1.46,16.53,1.54,1.89-3.55,3.62-6.76,5.34-10,1.05,2.81.21,5,.54,7,.21,1.29,2.12,3.2,3.35,3.28,4.23.24,8.77-1.19,12.69-.14,5.1,1.37,6.39-1.5,9.65-5.54l-7.89,4.54c-.19-6.71.83-11,5.4-14.68,2.26-1.8,3-5.47,4.31-8.37a6.73,6.73,0,0,0-2.28-1.49,72.26,72.26,0,0,0-6.39,6.93c-1.38,1.77-2.27,5.49-3.49,5.54-4.92.2-6,3.65-7.76,7-.91,1.68-2.6,2.94-4.89,5.44.36-5.19.6-8.62.8-11.46-10.5-3.5-9.46,7.74-16.33,10.73C611.08,357.4,611.68,354.2,612.29,351ZM484,198c0-6.13.2-10.52-.08-14.88-.15-2.19-1.79-4.36-1.69-6.49.2-4.24,1.35-8.43,1.71-12.68s-2.19-6.46-6.33-6.68c-2.64-.13-5.29.12-7.92,0-3.66-.19-5.06,1.33-5,5,.17,10.12.15,20.25,0,30.36-.06,4.39,1.75,5.36,6.23,3.66V181.07l5.67.31C480.67,186.3,473.61,194.93,484,198ZM99.58,181l7.28.47c0,3.67,0,6.91,0,10.15.09,5.8.11,5.8,6.54,4.26-.72-5.39-1.45-10.9-2.17-16.41a11.41,11.41,0,0,1-.26-2.95c.53-3.79,1.33-7.55,1.74-11.36.57-5.27-2-7.77-7.27-7.7-2.2,0-4.4.09-6.59,0-3.47-.2-5.29.93-5.23,4.81.15,10.33-.11,20.67.23,31,0,1.55,2.49,3,3.82,4.52l1.9-1.41Zm308.15,15.73,2.06,1.25c1.32-1.58,3.72-3.12,3.78-4.75.35-9.86.47-19.76.06-29.62-.32-7.64-6.54-6.16-11.4-6.25-4.41-.08-7.65,1.13-7.53,6.63.21,9.65.16,19.31.06,29-.06,4.6,2.18,4.84,6.26,3.65V180.31l6.71.29ZM460,177.62h-.06c0-4.59.13-9.19,0-13.79-.22-6.62-5-6.54-9.83-6.57s-9,.52-9.08,6.65c-.09,9-.11,18,.05,26.92.11,6.72,5,6.42,9.82,6.51s8.95-.49,9.11-6.59C460.07,186.38,460,182,460,177.62ZM264.58,197.27V158.08c-4-1.42-5.67-.3-5.46,3.78.2,3.86,0,7.73,0,11.6-2.49-4.18-3.38-8.47-4.83-12.55-.51-1.42-2.44-2.33-3.72-3.48-1.08,1.3-3.07,2.57-3.1,3.88-.24,10.75-.2,21.5,0,32.25,0,1.22,1.69,2.41,2.59,3.61,1-1.33,2.62-2.59,2.78-4a106.6,106.6,0,0,0,.13-11.37C258.81,185.61,253.27,197.27,264.58,197.27Zm118.94-34c.18,1.55,0,2.58.44,3.24a39.18,39.18,0,0,0,3.13,3.84c.94-1.43,2.45-2.76,2.72-4.3.88-5.1-.77-8.52-6.66-8.88-9.17-.56-12.07,1.06-12.18,7.64-.14,8.56,0,17.12,0,25.68,0,4.35,2.06,6.61,6.27,6.73,4.67.15,10.47,1.77,12.37-4.31,1.19-3.8.54-8.28.17-12.41-.09-1-2.35-2.53-3.61-2.54-1.91,0-3.82,1.12-5.73,1.76.64,1.4,1.37,2.77,1.88,4.22.76,2.16,1.35,4.38,2.1,6.85-5.19,1.07-7.54.26-7.39-4.49.23-7,.13-14,.22-21a7.1,7.1,0,0,1,.73-2ZM152.81,196.59l2.17,1.27c1.27-1.61,3.27-3.07,3.65-4.86.63-2.95-.14-6.18.39-9.17.24-1.36,2.16-2.43,3.32-3.64,1.14,1.24,3,2.34,3.26,3.73.53,3-.09,6.16.36,9.18.21,1.44,1.78,2.69,2.74,4,.88-1.23,2.51-2.45,2.54-3.7.18-10.1.2-20.21,0-30.31-.13-5.45-4.18-5.92-8.46-5.8s-9.63-.51-9.84,5.8C152.54,174.26,152.81,185.43,152.81,196.59Zm167.24-21.73c-.32-2.09-.78-3.21-.58-4.2.54-2.55.63-6.41,2.23-7.28,3.3-1.78,4.8,1.05,5.53,4.26.09.42,3.08.2,4.73.27-.51-3-.25-8.15-1.66-8.66a24.88,24.88,0,0,0-13.13-1c-1.65.36-2.49,5.22-3.36,8.13-.43,1.41.05,3.06-.11,4.58-.68,6.53,1.61,10,8.77,9.67,1.3-.07,3.73,2.22,3.87,3.6.21,2.28-1,4.71-1.62,7.08-1.81-1-3.62-2-5.44-2.92-1.2-.64-2.66-2-3.55-1.69s-1.76,2.19-1.89,3.45c-.44,4.1,1.25,7.13,5.7,7,4.61-.17,10.93,2.54,12.49-4.74A32.24,32.24,0,0,0,332,180c-.37-2-2.93-4-5-5C325.21,174.21,322.74,174.86,320.05,174.86ZM280.19,182h-1.35c-.27-1.58-.59-3.16-.82-4.75-.8-5.43-1.4-10.9-2.45-16.28-.25-1.3-1.9-2.32-2.91-3.46-.74,1.27-2.22,2.63-2.09,3.81,1.16,10.7,2.65,21.36,4,32,.62,5.05,4.24,4.12,7.43,3.74a3.13,3.13,0,0,0,2.16-2c1.71-12.31,3.27-24.65,4.83-36.77-5.84-2.2-6,1.48-6.43,4.45C281.62,169.15,281,175.57,280.19,182ZM411.88,352.57l-.77-1.51c-2,1-5.08,1.6-5.75,3.19-.94,2.26-1.09,6,.24,7.74s5.95,3.36,7.27,2.42a29.65,29.65,0,0,0,8.69-9.81c2.22-4.11,3-9,4.45-13.53l1.24.4v13.42l8-11.94c-3.56,23-3.56,23-.45,24.71,1.9-10.52,3.88-21.51,6.2-34.37-3.91,3.58-7,6.37-10.1,9.22-1.37-8.35-4.14-10.58-11.11-9.2-5.65,1.12-10.11,6.73-9.12,11.88.62,3.17,2,5.88,6.49,3.7-4.33-3.36-4.3-7.22-1.44-10.89,2.26-2.9,5.29-4.64,8.72-1.75-1.87,5.77-3.57,11.19-5.4,16.58-.71,2.07-1.3,4.38-2.67,6a12,12,0,0,1-5.67,3.57c-.82.22-3.44-2.21-3.28-3.07.37-2,1.88-3.89,3-5.75C410.75,353.1,411.4,352.89,411.88,352.57ZM139.7,183.19l-1.39.05c-1-7.39-1.82-14.8-3-22.15-.21-1.29-1.8-2.35-2.76-3.52-.75,1.29-2.27,2.66-2.14,3.85,1.31,11.75,2.9,23.47,4.68,37.29,3.66-2,8.18-3,8.5-4.75,2.18-11.81,3.45-23.78,5-35.75-5-1.78-6,.63-6.39,4.19C141.44,169.34,140.54,176.26,139.7,183.19Zm-63.83-2.91c16.61-1.37,12.68-2.58,13.27-14.51,0-.44,0-.88,0-1.32.18-4.61-2-7-6.65-7-2.64,0-5.4-.45-7.88.19-1.57.41-3.84,2.43-3.88,3.78-.3,10.77-.23,21.55,0,32.32,0,1.11,1.87,2.17,2.87,3.25.76-1.08,2.11-2.12,2.17-3.24C76,189.36,75.87,185,75.87,180.28Zm223.42,8.93v-7.43c3.14-1.69,9.7,1.19,7-6.51l-6.92-.71V163.28c2.06-.12,3.69.11,5-.39a20.89,20.89,0,0,0,4.16-2.74c-1.39-1-2.72-2.56-4.2-2.72a105,105,0,0,0-11.29-.13v39.59c2.07.16,3.83.61,5.47.35,3.36-.52,6.67-1.43,10-2.18Zm185.57,149-2.05-1.05c-1.67,5-3.21,10-5.06,14.9-1.37,3.62-2.69,7.46-5,10.44-.86,1.11-4.49.06-6.86,0a62.77,62.77,0,0,1,2-6.68c.23-.55,1.68-.6,4.23-1.41-6.29-2.06-9.45.13-9.68,4.1-.14,2.3,2.58,6,4.89,7,5.18,2.15,10.23-1.9,12.84-9.26.85-2.42,1.35-6.21,4.82-3.84,1.65,1.13,2.73,5.68,1.78,7.42-1.47,2.69-4.92,4.31-7,6,10.52-.82,14.44-7.41,9.16-16.39,1.64-1.8,3.71-3.34,4.78-5.39,2.13-4.07,2.4-8.17-2.58-10.61-7.86-3.86-21.83,4.24-22.18,12.94a6.44,6.44,0,0,0,2,4.37c.56.53,2.47-.4,4-.72-3.78-5.45-2.93-9.13,2.82-12.77,4-2.52,9.23-5.1,12.37-.37s-1.17,8.47-5.09,11.25c-.58.41-1.46.41-3.05.82C483.14,344.8,484,341.49,484.86,338.18ZM206.1,173.29c-1.74-8.39-1.54-8.62,7-10.55a4.31,4.31,0,0,0,2.53-2.75c.16-.63-1.32-2.41-2.13-2.45-4.46-.25-8.94-.12-13.2-.12v39.49h15.43c.77-8.78-7.29-3.18-9.71-6.89v-6.81l7.56-5.41ZM543.8,396.23l-1.45-.35q-2.72,4.9-5.42,9.81l-1.58-.81,1.17-8.35-1.06-.3-6,10.62-1.76-.73L530.23,396l-.88-.41-7.53,11.92-2.44-1.13a36.84,36.84,0,0,0,.56-6.16c-.41-6.09,6.21-7.11,8-11.47.66-1.59.41-3.56.58-5.36-1.86.64-4.17.79-5.51,2-5.66,5.14-4.81,12.72-6.39,19.33-.26,1.06,2.31,3.9,3.75,4,3.37.31,6.85-.57,10.29-.89,4.69-.44,11-2.88,13.76-.77,6.47,4.9,8.3-1,12.19-3-1.78-3.11-3.48-6.05-5.73-10l-9.22,12.2-1-.75Zm-188.31,12,5.52-9.94,1.13.51V410L367,398.77l1.58.66c-.33,2.12-1.18,4.33-.8,6.31.23,1.25,2.18,2.86,3.55,3.08,2.92.47,6,.14,9.39.14-2.79,3.08-5.5,5.19-6.92,8-.82,1.6.44,4.27.76,6.47,2.15-.95,5.22-1.3,6.27-2.95,2.94-4.6,5-9.75,7.47-14.64l-3.53,1.14,2.4-10.43-1.23-.45q-3,5.34-5.95,10.68l-1.71-.68c.69-3.17,1.37-6.35,2.06-9.52l-.81-.5q-3.75,5.47-7.49,10.94l-1.33-.76c.24-3.43.49-6.86.74-10.49-5.12.45-9.42,0-13.11,1.35C353,399,354.16,403.88,355.49,408.23ZM183.22,196.9c5.76-.2,5.88-.2,5.92-4.85.09-9.41,0-18.81,0-28.15a15.86,15.86,0,0,0,2.31-.92c1.4-.9,2.76-1.89,4.13-2.84-1.42-.93-2.78-2.5-4.3-2.68a46.26,46.26,0,0,0-10.52,0c-1.48.16-2.8,1.72-4.19,2.64a33.71,33.71,0,0,0,3.43,2.79,15.11,15.11,0,0,0,3.19,1.09ZM431.37,164a18.36,18.36,0,0,0,2.44-1c1.39-.92,2.73-1.91,4.09-2.88-1.57-1-3.08-2.57-4.74-2.75a61.77,61.77,0,0,0-11.13.06c-1,.07-2.62,1.48-2.55,2.11.14,1.17,1.3,3.13,2.07,3.14,4.34.11,4.15,3,4.15,5.92,0,7.22-.23,14.45.12,21.66.11,2.33,1.69,4.6,2.6,6.9,1-2.19,2.73-4.35,2.82-6.58C431.57,181.89,431.37,173.14,431.37,164Zm-82.95,16.1h0c0-3.07-.08-6.14,0-9.2.13-3.66-1.48-8.42,5-8.37.45,0,1.44-1.8,1.25-2.51-.27-1-1.36-2.52-2.17-2.56a132,132,0,0,0-13.78,0c-.91,0-2.55,1.63-2.43,2.21.24,1.15,1.44,3,2.29,3,4.32.1,4.15,2.91,4.13,5.88-.05,7.89-.19,15.78.07,23.66.06,1.68,1.64,3.3,2.52,5,1-1.74,2.67-3.4,2.87-5.23C348.73,188.06,348.42,184.08,348.42,180.14Zm-230,16,1.94,1.73c1.33-1.47,3.75-2.9,3.8-4.41.32-10.93.26-21.88,0-32.82,0-1.25-1.7-2.47-2.61-3.7-1.06,1.27-3,2.52-3,3.81C118.35,172.52,118.45,184.32,118.45,196.12Zm117.35.66c4.17.65,7,.84,6.2-4.17a52,52,0,0,1-.39-7.9c-.07-8,0-16.09-.24-24.13-.05-1.26-1.7-2.47-2.61-3.71-1,1.34-2.81,2.65-2.83,4C235.7,172.67,235.8,184.48,235.8,196.78Zm130.53,0c-.24-3.71-.55-6.48-.58-9.25-.1-8.79,0-17.6-.26-26.39-.05-1.45-1.75-2.85-2.69-4.27-.94,1.38-2.67,2.75-2.7,4.15-.21,11.85-.12,23.71-.12,35.76ZM611.54,438l-1.69.36v18l8.72-3.38,1.31,4.34,1.06-.17v-19l-1.48-.26c-1.21,3.47-2.41,6.95-4,11.49ZM357.7,452.79l8.65,3.56V438.26l-1.52-.32-4,11.14-4.35-11.22-1.15.56v18.7l1.2.09Zm129.55-46.58c.6-3.16,1.21-6.33,1.81-9.49l-2-.49q-1.25,5.68-2.48,11.38l8.73.88,5.36-10c0,11.3,0,11.3,4.4,9.37-.23-4.42-.43-8.24-.6-11.68C493.34,394.24,492.6,402.83,487.25,406.21Zm13,50.35,1.55.1,2.07-7.78h1.59c.69,2.59,1.37,5.18,2.06,7.77a43.59,43.59,0,0,0,1.36-16c-.09-1.07-2.75-2.67-4.22-2.67s-4.12,1.62-4.21,2.7C500,446,500.25,451.28,500.25,456.56Zm-51.19,1,1.46-.57V438.23l-1.22-.17-1.51,6.27c-1.36-2.58-2.43-4.6-3.49-6.63l-1.19.48v18.58l1.29.07c.3-1.69.6-3.39,1.07-6C447,453.72,448,455.64,449.06,457.55Zm-48.26-19.2v18l.94-.05q1.14-3.56,2.3-7.11l1.56.24c.53,2.41,1,4.83,1.58,7.24l1.66-.21c0-3.76-.19-7.53,0-11.27C409.33,438,408.48,437.23,400.8,438.35Zm240.94,18.13,1.69-.2c0-3.54-.26-7.12.05-10.63.67-7.62-.54-8.72-7.89-7v17.93l1.1-.08,1.38-7.1,1.69-.15ZM403.26,396c-4,7.72-7.63,14.2-10.7,21-.87,1.93-.11,4.6-.09,6.93,2-1.45,5.1-2.46,5.93-4.42A162.22,162.22,0,0,0,404.49,401C404.82,399.81,403.86,398.27,403.26,396Zm194.45,51.12c0,1.53.08,3.06,0,4.59-.2,3.33.86,6.11,4.59,5.18,1.76-.45,3.74-3,4.21-5a19.36,19.36,0,0,0,0-9.08c-.48-1.92-2.74-3.4-4.21-5.08-1.52,1.59-3.38,3-4.45,4.84C597.15,443.78,597.69,445.62,597.71,447.15Zm-158.41.62c0-2.18.58-4.6-.19-6.47a6.35,6.35,0,0,0-4.39-3.33c-1.28-.14-3.9,1.7-4,2.87a52,52,0,0,0,.07,13c.17,1.28,3,2.88,4.67,3,1.21.09,3.17-1.83,3.71-3.26C439.79,451.88,439.3,449.73,439.3,447.77Zm73.44-11.67v20.44l1.29-.05c.29-2.51.57-5,.91-8,5.48.55,7.1-2.88,5.54-6.81C519.59,439.5,516,438.35,512.74,436.1Zm63.6,16.09-1.41,1.88c1.6,1,3.24,2.91,4.8,2.85s4.45-2,4.44-3.14c0-2.38-1.29-4.89-2.48-7.11-1-1.77-2.54-3.19-3.84-4.77l1.81-1.46q2,1.28,3.89,2.56l1.41-1.34c-1.31-1.28-2.65-3.63-3.94-3.6-1.87,0-5.3,1.89-5.25,2.8a22.12,22.12,0,0,0,2.77,8.23c.69,1.38,2.34,2.27,3.56,3.39l-1.48,1.7Zm-106.42,0-1.85,2-4.25-2c0,2.34,1.14,4.62,2.16,4.58,2-.08,5.46-1.07,5.75-2.3.65-2.74,2.1-6.56-2.78-8.1-1.31-.41-2-2.88-2.86-4.49-.09-.18.77-.87,1.41-1.55l3.84,2.68,1.26-1.16c-1.17-1.33-2.34-3.74-3.5-3.73-2,0-5.56,1.6-5.54,2.44A21.35,21.35,0,0,0,466,449C466.69,450.37,468.58,451.16,469.92,452.22Zm20.51-13.88-1.12.06v17.83h.89l2.36-7,1.57.29q.78,3.6,1.54,7.2l1.16-.27V438.26l-1.17-.14-1.59,8.12-1.72.14Zm80,15.48-3.2.37q-.59-8-1.18-16l-2.08.15c0,5.31-.25,10.65.21,15.92.09,1.07,2.8,2.51,4.41,2.65,1.26.12,3.78-1.42,3.85-2.36.37-5.44.18-10.91.18-16.38l-2.19-.05ZM523.9,456.2l1-.09c1.1-2.55,1.71-6.85,3.38-7.32,5.88-1.63,4.34-5.89,3.18-8.78-.62-1.55-4.7-1.71-7.53-2.6ZM372.28,442.37l1.94-1.76,3.9,2c.13-2.32-.76-4.36-1.72-4.39-1.89-.07-5.49,1.07-5.46,1.54a31.32,31.32,0,0,0,2,9.26c.55,1.42,2.41,2.35,3.68,3.5l-1.35,1.6-4.31-1.53-1,1.45c1.38,1.05,2.86,3,4.12,2.91,1.68-.17,4.35-1.83,4.52-3.13.29-2.19-.67-4.8-1.81-6.86C375.75,445.13,373.8,443.87,372.28,442.37Zm259.36-4.23h-6.95v18.42h6.95c-4.71-2.8-7.77-5.24-.82-8.71C625.4,443.65,625.58,442.43,631.64,438.14Zm-71.74,5.21,1.81-1.74c-1.37-1.26-2.59-3.26-4.15-3.57-1.41-.28-4.51,1.16-4.58,2a87.7,87.7,0,0,0,.09,14.94c.07.82,2.87,2.17,4.13,1.91,1.46-.29,2.68-2,3.86-3.28.17-.18-.41-1.09-.7-1.82l-4.44,2.45V439.63Zm77,44.58L632,480.8c-1.2,1.91-3.39,3.82-3.37,5.71,0,2.88-2.49,8,3.4,7.94C633.49,494.45,634.9,490.79,636.94,487.93Zm-316.07-.31L315.1,481c-1.11,1.77-3.33,3.72-3.09,5.28.47,3-2.34,8,3.23,8.36C316.68,494.73,318.38,490.86,320.87,487.62Zm268.21.36c-1.91-2.82-3.27-6.66-4.76-6.71-5.51-.19-3,4.64-3.26,7.37-.25,2.45-1.27,6.68,3.38,5.91C586,494.28,587.13,490.88,589.08,488Zm-51-30.94,1.53,0,3-18.76-1.52-.34q-1,2.54-2.08,5.07l-2.88-5.12-1.19.46Q536.5,447.7,538.05,457Zm-78-18.78h-6.69c0,4.77,0,9.11,0,13.46,0,5.94.79,6.39,7.22,3.77-5.33-2.06-6.23-4.66-.84-7.68C454.38,444.39,454.63,441.55,460,438.26Zm80.34,58.18c.89-6.09,1.48-10.2,2.11-14.55l-9.65,1.27c.58,3.5,1.21,7.39,2.12,13l2.68-5.06Zm-175.6-8.62c1.7,2.74,3,4.83,4.32,6.93,1.27-2,3.38-4,3.58-6.12.25-2.73,2-7.52-3.43-7.26C367.8,481.44,366.53,485.15,364.77,487.82Zm56-39.2-2.06.78c.92,2.48,1.45,5.25,3,7.27.47.63,5.29-.67,5.34-1.31.44-5.63.25-11.32.25-17l-1.71.08q-.56,7.71-1.09,15.43l-1.61,0Zm72,32.33c.3,4.45.58,8.54,1,14.32,1.37-3.11,2-4.51,2.83-6.42,1,2.28,1.65,3.84,2.32,5.41l.9-.23V481ZM390.5,448.79l-2.43.85c1.12,2.46,1.95,5.16,3.59,7.21.37.47,5.06-1.14,5.14-2,.5-5.54.26-11.15.26-16.74l-2.32,0c0,2.74.11,5.5,0,8.24-.12,2.55-.5,5.09-.77,7.63l-1.56,0C391.75,452.24,391.13,450.51,390.5,448.79Zm158.76,40.27,2.38,5c-.2-4.89,4.61-11.56-4.88-14.36v14.73ZM441.35,351.41c1,3,1.76,6.77,3.5,10.09.58,1.1,3.57.94,5.46,1.36.09-.58.19-1.16.29-1.74-7.28-3.05.45-7.15-.44-10.17ZM597.24,494.2c1.25-13.43,1.1-13.72-5.4-12.19v11.9l.9.07c.48-1.49,1-3,1.82-5.6C595.66,490.76,596.29,492.12,597.24,494.2ZM352.55,494v-14l-2.39,4.51L347,480.63v12.52Zm236.28-55.84c.63,6.8,1.2,12.9,1.77,19l1.3-.13c.7-6.22,1.39-12.43,2.11-18.86ZM326,488.1c.85,3,1.28,4.52,1.7,6A21.07,21.07,0,0,0,329,483.59c-.1-.95-2.21-2.52-3.09-2.33a4.72,4.72,0,0,0-3.12,3c-.45,2.89-.15,5.89-.15,8.85l1,.23Zm288.7-4.59c.06-.65.11-1.29.17-1.94h-5.41c.64,3.44,1.28,6.88,2,10.56l-2.72-.3-.24,2.27h5.78a60.61,60.61,0,0,0-1.08-6.89c-.31-1.17-1.42-2.12-2.16-3.17Zm10.7-79.42c4.87-6.55,7-16.34,4.28-22.13C628.15,389.91,626.92,396.28,625.41,404.09ZM516.15,481.84l-.84.24V494h.86l1.76-5.46,3.07,6.66V482.49l-.77-.26L518,487.74Zm-26.77.1-1.82-.22-.82,10.37-1.41.07c-.45-3.26-.89-6.51-1.34-9.76a15,15,0,0,0-1.08,8.64c.27,1.41,2.13,2.52,3.27,3.77,1.06-1.31,2.81-2.51,3.05-4C489.72,488,489.38,484.92,489.38,481.94Zm-16,.74-.79-.13v12.14c1.31-2.6,2-3.95,2.86-5.69l2.76,6V480.59c-1.37,2.88-2.08,4.38-3.14,6.63ZM401,492.46l.09,1.93c1.78-.21,4.74.09,5.1-.75.71-1.63.35-4-.28-5.86-.5-1.45-2.07-2.54-3.16-3.79l4.25-.35-.1-2.05-5.65.53a62.57,62.57,0,0,0,1.32,6.84c.32,1.08,1.42,1.94,2.17,2.9Zm109.36-8.08.54-1.65L506,481.1a96,96,0,0,0-1.6,11.5c0,.55,3.24,1.31,5,1.75.24.06.8-1.2,1.67-2.57l-4.33.53v-8.89ZM386.17,494.91l2.48-.26q.77-6.11,1.54-12.23l-1.36-.19c-.52,1.76-1,3.52-1.73,5.88-.73-2.62-1.25-4.52-1.78-6.42l-1.38.43Q385.05,488.51,386.17,494.91ZM306,481.44c-3.82.48-5.65,8.09-2,14.47C304.78,490.34,305.41,485.83,306,481.44Zm137.46.35L441,482.87l7.65,12.66v-13.3h-1.08l-2.38,5.08C444.4,484.83,443.94,483.31,443.48,481.79Zm24.31,2.93.7-1.72-4.75-1.88A102.47,102.47,0,0,0,462,492.61c0,.48,3.27,1.24,5.08,1.64.23.06.76-1.26,1.63-2.75l-4.84.95v-9.18Z" transform="translate(-11.05 -20.1)"/><path d="M50,30.16c-1.12,3.32-2.23,6.64-3.44,10.23l4.41,3.72-3.74,4.72,4,10.55L40.8,54.64c-4.45,5.42-4.29,9.67,0,8.86,2.58-.49,5-2.08,7.41-3.18l1.29,1.25-3.92,8.71,5.57,4.52c-6.44,3.67-6.26,8.46-2.44,13.74C43.81,90.93,38.41,81.11,35,90.65l-4.29-4.73-9,4.58-1.36-1.45,5.34-9.81L20,74.61l5-4.35-5-7.81L21.14,61l11.73,4c0-2.92.89-5.94-.17-7.92-3.26-6.12-7.06.89-11,0-3-4,8.83-9.5-3.7-13.29l7-3.4-4.91-9.6,1.43-1.42,9.75,5.39,5.23-5.82,4,5.18,7.86-5ZM42,73.7l.13.21V66.63H29.56l-2.23,9.23c1,3,3.6,8.37,7.45,7.94s7.37-5.1,11.87-8.55ZM36.82,51.18h7.39V37.07c-4,5.23-8.87-4.58-11.84,1.33-5.26-2.39-2.74,4.88-6.07,4.89,1,2.27,1.59,4.94,3.18,6.7s4.3,2.76,6.65,4.16L37,51.06Z" transform="translate(-11.05 -20.1)"/><path d="M56.34,537.06c-3.51.2-6.3-.41-8.25.6-6.32,3.31,1.11,7.43-.14,11.5-4.46.91-9.49-7.91-13.15,1.37l-4.24-4.92L22,550.3l-1.44-1.14,5.12-10-5.7-5.09,5.34-4.17c-1.72-2.53-3.49-5.12-5.26-7.7l1-1.67,10.41,3.37,3.6-4.34,4.86,3.84,8.25-3.57,1.34,1.07c-1.29,3-2.58,6-3.85,8.86,5.5,4.35,9.54,4.14,8.93-.21-.2-1.44-1.44-2.7-1.95-4.13a31.48,31.48,0,0,1-.76-4.85l9.56,4.28,5.43-6.16c1.61,2.35,2.94,4.31,4.45,6.53l10.18-3.58c-1.53,3.43-3.14,5.55-3.26,7.74s1.32,4.28,2.27,7c-8.43,3.47,1.89,8.28.52,14L70.8,544.59l-5.22,5.7-4.08-5-7.92,4.92-1.47-1.13Zm-14.23-3.53.1.2V526H29.34c-.75,3.62-1.27,6.12-2,9.66,1,2.83,3.74,8.63,7.09,8.23,4.11-.49,7.69-5.34,12.51-9.09Zm22.78-5.22L57.75,528c.31,4.71.61,9.17.81,12.16L65.75,543l8.17-1.65c-.44-3.14-5.5-14.08-7.93-16.6l-1.29,3.69Z" transform="translate(-11.05 -20.1)"/><path d="M102.73,34.11l7.3-4.93,1.83.89c-1.08,3.41-2.15,6.83-3.31,10.53L113,44c-6.94,4.11-1.24,8.85-.4,14.84l-10-4.27L98,60.15c-3.64-6.43-8.58-6.37-15-3.53l3.69-8.82-5-4.77,5.61-2.8L82.2,31l1.2-1.49,10,5.13,5-5.55Zm-4,17.18h7.64V38.15L97,36.31c-2.77,1.55-9.11,3-8.34,7.76.65,4,5.61,7.21,9.27,11.5l1-4.37Z" transform="translate(-11.05 -20.1)"/><path d="M34.36,213.6c4.57,3.91,9.44,2.46,14.4-.51l.69,1.65c-1.29,2.82-2.59,5.64-4,8.67L50.9,228c-6,3.77-6.28,8.52-1.8,14l-1.58.7L38.64,239l-3.89,4.46-4.2-4.52-8.66,4.7-1.48-1.39,5.27-9.72-5.57-4.86L25,223.34c-1.59-2.45-3.21-4.93-4.82-7.42L21,214.2l10.57,3.38c.93-1.3,1.93-2.69,2.92-4.09ZM42.08,227l.11.2v-7.4H29.4l-1.72,7.41,1.34,8c7.38,4,12.32-.25,16.26-7.32Z" transform="translate(-11.05 -20.1)"/><path d="M175.11,44.42c-7.16,4-1.36,8.57-.48,14.42l-10.15-4.42c-1.28,1.72-2.4,3.24-5.11,6.86-1.48-2.89-2.64-5.18-3.82-7.47L144.21,57.9,149,47.64l-4.67-4,4.71-4L144.3,30.7l1.36-1.26,9.87,5.3L160.34,29l4.33,5.12,7.78-5.07L174,30.19c-1.17,3.34-2.33,6.69-3.57,10.26ZM161,51.27h5.86c1.1-2.76,2.71-5,2.62-7.1s-1.79-4.47-2.89-6.92c-2.3,3.12-4.52.66-5.63-1-5.38.7-10.66,3.87-10.21,7.4.51,4.06,5.35,7.57,9,12.2l1.43-4.63Z" transform="translate(-11.05 -20.1)"/><path d="M36.19,396.08l-6-3.58-8.76,3.93-1.09-1.55,5.52-8.9-5.71-5.22L25,376.44,20.2,369l1-1.61,10.31,3.31,3.89-4.56c4,7.79,8.92.41,14.43,1.17l-4.24,9.32L51.22,381c-6.57,3.61-6.08,8.65-3.75,14.91l-9-4c-.78,1.33-1.6,2.75-2.43,4.18Zm5-23.29H29.54l-2,8.51,1.59,7.36c7,3,12.52.2,15.39-6.07Z" transform="translate(-11.05 -20.1)"/><path d="M34.51,213.49l-3.59-5.26-9.19,4.69-1.42-1.49,5.43-9.34L20,197l5-4.29L20.09,185c5-3.88,11.44,7.34,14.77-2.82l5.06,4.31L48,182.85l1.3.94c-1.2,3-2.39,6-3.7,9.21l5.71,4.13c-6.14,3.75-6.67,8.64-2.24,14.26l-1.46.78-9.11-3.87c-1.43,1.84-2.76,3.56-4.11,5.28Zm7.59-16.68.07.2v-7.8h-13l-1.61,7.51L29,205.43H40.08c1.92-3,3.13-4.58,3.88-6.34C44.13,198.67,42.76,197.59,42.1,196.81Z" transform="translate(-11.05 -20.1)"/><path d="M20.44,517.4l5.31-9.1L20,503.2c1.93-1.55,3.54-2.83,5.13-4.12l-5-7.61c5-3.9,11.33,7,14.86-2.81L40,492.87l8-3.81,1.32.95c-1.16,3-2.32,6-3.58,9.17L51,503.71c-6.77,3.64-5.49,8.65-3.47,14.81l-8.84-3.9L34,519.9l-2.79-5.17-9.83,4.1Zm21.25-16.21.16.19.59-6.11h-16c3.07,3.45,4.92,6.23-2.33,8.56,7.5,1.37,4.82,4.79,3.46,7.92C41,508.58,41,508.58,44.81,503.57Z" transform="translate(-11.05 -20.1)"/><path d="M39.35,278.64l8.8-3.93,1.29,1.2-3.86,8.72L51,289.28c-6.56,3.6-5.76,8.55-2.55,13.67-4.73,3.06-10.09-8.85-13.73,3.78l-3.62-6.54-9.59,4.48-1.29-1.4,5.57-9.41-5.86-5,5.2-4.26-5-7.39.9-1.73,10.36,3.25C33.46,275.62,36.2,272.29,39.35,278.64ZM42,287.55l.16.19.59-6.87H28v14.67c9.17,5,13.82.95,16.89-6.55Z" transform="translate(-11.05 -20.1)"/><path d="M51,258.55,45.24,264c1,2.85,2.06,5.66,3.2,8.8-4.84,1.47-10-7.68-14.08,2.67l-3.06-5.76-10,4.24-1-1.47,5.44-9c-1.77-1.68-3.46-3.27-5.59-5.3l4.94-4.2-4.93-7.31.91-1.72,10.36,3.22c2.11-3.72,5-6,7.94-.39l10.83-4.2c-2,4.53-3.14,7.21-4.5,10.34Zm-9-1.24.13.19.44-7.18H28c4.68,4.06-2.11,7.64.63,12.3,1.71,2.93,6.24,1.84,5.73,5.63a67.12,67.12,0,0,0,7-4.51c1.56-1.28,2.61-3.19,4.16-5.16Z" transform="translate(-11.05 -20.1)"/><path d="M247.79,525.05c1.29-1.73,2.42-3.24,4.28-5.75,3.69,6.52,8.64,6.37,13.89,2.67,3.07,4.7-8.91,10,2.89,13.4-10.8,4.54-.53,9.22-1.65,14.91l-10.51-5.85-4.75,5.81-4.36-5.1-7.78,5-1.45-1.09,3.54-10.1-4.53-3.81,3.95-4.68-3.64-8.12,1-1.22Zm3.51,3.14-6.62-.71-1.35,5.93c.73,4,1.2,6.64,1.49,8.23l8,1.44c3.72-.84,9.32-3.46,8.69-7.69-.6-4-5.56-7.41-9.26-11.87l-1.17,4.76Z" transform="translate(-11.05 -20.1)"/><path d="M45.61,100.85l6.11,5.31-6.43,4.61c1,2.72,2,5.53,3,8.6C43.82,122,38.46,111,35,121.79c-4.59-9.38-9-1.07-15-.89L25.64,110,20,105l5.18-4.12L20.1,93.49,21,91.75,31.44,95l3.7-4.36c4.15,7.16,9,.71,14.83.54C48.22,95,47,97.86,45.61,100.85Zm-3.72,3,.17.19.61-6.93h-15c2.59,5.73-3.4,12.57,4.77,15.71,4,1.54,3.84,2,13.07-7.5Z" transform="translate(-11.05 -20.1)"/><path d="M34.36,426.91l5.45,4.65,8.57-3.67,1,1.23c-1.28,2.83-2.55,5.67-3.87,8.6l5.58,4.81c-7,3.49-5.68,8.48-2.66,13.62-4.65,3.07-10-8.85-13.43,2.93-4.44-10.84-9.29-.31-15-2.11,2.05-3.55,3.8-6.57,5.74-10L20,442.07l5.25-4.26-5.12-7.34.84-1.8,11,3.34ZM42,440.83l.15.19.51-6.32c-4.88-.13-9.83-.79-14.68.74,3,4.22-3.47,10.19,4.11,14.37,9.89,5.46,8.61-5.42,14.69-7Z" transform="translate(-11.05 -20.1)"/><path d="M36.05,396.11c2.84,9.18,8.43.68,13.54,1.94-1.36,3.15-2.57,6-4,9.16l6.29,5.14-6.7,4.33c1,2.89,2,5.7,3.46,9.95l-10.25-3.69c-1.19,1.36-2.41,2.78-3.87,4.46l-4-4.7L22,427.36l-1.5-1.23,5.18-9.81-5.64-5,5.06-4.3-5-7.38,1-1.73,10.25,3.44c1.59-1.76,3.19-3.52,4.82-5.3Zm6.11,14.59.1.19.49-7.4H29.35c-.84,3.81-1.4,6.3-2,8.93,2,2.71,3,9,7.38,8.25,4.06-.69,7.49-5.07,12.16-8.55Z" transform="translate(-11.05 -20.1)"/><path d="M49.57,153.66l-4,8.32,5.29,4.65c-5.86,3.71-6,8.53-3.27,14.86L38,177.43l-3.81,6-3.15-5.94-9.28,4.67-1.38-1.37c1.72-3,3.43-6.09,5.33-9.44l-5.65-5L25,162.14l-4.8-7.64c4.84-3.94,10.84,6.83,14.47-2.77l5.38,4.1,8.09-3.58ZM41.74,164.4l.17.19.9-6.15H28.64l-.81,9.43L29,174.18c7.19,3.06,12.86.57,16-7.58Z" transform="translate(-11.05 -20.1)"/><path d="M298.6,43.24c-4,4.57-2.7,9.4.46,14.33l-1.51.73-8.77-4L283.43,61c-1.52-2.78-2.76-5-3.9-7.14l-11.1,4c1.8-3.6,3.57-5.69,3.73-7.89s-1.42-4.26-2.44-7c8.69-3.54-1.94-8.22-.24-13.85l9.86,5.68,5.3-5.81,4.05,5.36,7.63-5.25,1.55.94-3.5,10.67,4.33,2.62ZM285,51.41h7.78V37.76l-9.61-1.34c-7.33,6.2-7.33,6.2-6.79,12.88,3.26,2.09,5.64,3.62,8.13,5.2.22-1.09.43-2.12.65-3.15Z" transform="translate(-11.05 -20.1)"/><path d="M236.44,43.17c-3.47,4.66-2.81,9.46.69,14.36l-1.6.88-8.8-4c-1.35,1.6-2.68,3.18-5.42,6.41-1.42-2.74-2.61-5.06-3.66-7.1l-11.26,4.08c1.77-3.62,3.56-5.76,3.69-8s-1.52-4.3-2.64-7.07l3.62-3.28-4.7-8.56,1.17-1.39,10,5.16,5.07-5.58,4.17,5.16,7.47-5.12,1.75,1c-1.18,3.42-2.35,6.83-3.66,10.61l4.22,2.58ZM223,51.32h7.59V36.07c-5.29,3.08-10-1.27-13.9,1.79-4.47,3.53-3.4,8.25-2.62,11.19l8.23,5.25.87-3.07Z" transform="translate(-11.05 -20.1)"/><path d="M80.76,30.31c-1,3.18-2,6.37-3.15,10L82,44.1l-4.21,4.7,4,8.36L80.62,58.4l-8.93-3.75L67,60.1c-3.65-6.24-8.65-6.21-14.23-2.05l-.87-1.39L56.2,47l-4.87-2.81,4.39-4.75-4.35-9,1.42-1.25,9.47,5.51,5.16-5.79,4.06,5.25L79,29.27ZM75.45,50.74V35.08c-3.51,3.59-6.31,5.06-7.63,1.32l-7.5,1.36c-1.08,2.24-2.75,4.15-2.75,6.05,0,2.33,1.4,4.66,1.73,5.61L65.63,53Z" transform="translate(-11.05 -20.1)"/><path d="M112.43,534.54l-4.08,5.66,4.26,8.47-1.4,1.35-9.28-5.42c-1.72,1.8-3.32,3.46-5.29,5.53l-4.18-5-7.55,4.93c-4.18-4.87,7.21-11.35-3-14.63l4.44-4.93-4.12-8.23,1.3-1.33,9.21,4L97,519.2c3.72,6.28,8.62,6.61,14.2,2.21l.8,1.44-4,9.07,4.52,2.79Zm-17.64-6-4.48-.6-2.84,7.27,1.1-.3,1,8.33c2.41-2.09,5.29-4.47,6.55-.16l8.49-1.53c2.64-6.93,1.41-13.28-7.66-16.1l-2.4,3.27Z" transform="translate(-11.05 -20.1)"/><path d="M25.8,324.25l-6-4.71,5.41-4.16-5.13-7.57c4.77-4.37,11.31,7,14.6-3l5.22,4.26,8.13-3.8,1.25,1.08c-1.15,2.84-2.3,5.67-3.63,8.92l3.3,2.79-2.92,17.38c-2.12,1.9-7.52-11.34-11.13,2.31-2-3.58-2.89-5.24-3.93-7.14l-9.15,4.76L20.47,334Zm15.89-6.65.16.19,1-6.23H28.69l-.89,8.35,1,7.2c6.94,2.61,13.32,1.71,16-7.39Z" transform="translate(-11.05 -20.1)"/><path d="M34.84,335.07l5,4.58L48.16,336l1.19,1.08L45.65,346l5.66,4.65c-7.2,3.42-5.73,8.64-3.87,14.81l-8.82-4-4.51,5.32c-1.29-2.15-2.29-3.8-3.2-5.3L21.65,366l-1.25-1.38,5.29-9.38L20.13,350l5-4.06-4.93-7.6C24.85,334,31.43,345.38,34.84,335.07Zm-6,22.76c6.58,2.2,13.15,1.92,15.39-5.93-1.07-3.51-1.86-6.1-2.94-9.67h-15c3.31,3.32,5.36,6.14,1.25,7.37Z" transform="translate(-11.05 -20.1)"/><path d="M175.74,536.37c3.19-4.69,3.24-9.51-.68-14.49l1.63-.84,8.93,3.9,4.26-5.28,5.83,5.54,10.1-3.57c-1.77,3.61-3.6,5.75-3.69,8s1.62,4.34,2.75,7l-3.66,3.28c1.62,3.07,3.09,5.85,4.57,8.63l-1.22,1.37-9.83-5.3-4.94,5.75-4.19-5.16-7.79,5-1.58-1.08c1.15-3.3,2.3-6.59,3.62-10.39l-4.18-2.48Zm13.39-8.15-7.52-.66v17.63c4.28-6.32,6.52-3.75,8.6-2.35l7.45-1.31c4.29-7.87-.82-12.55-7.65-16.78l-1,3.58Z" transform="translate(-11.05 -20.1)"/><path d="M112.51,534.71c1.51-1.21,3-2.41,4.78-3.82l-3.81-8.67,1.09-1.21,9,3.88c1.21-1.48,2.5-3.08,4.27-5.23l5.85,5.51,8.48-3c2.35,4.64-8.73,10,2.08,13.18l-4.88,4.44,4.24,9.1-1.32,1.07-9.47-5.32-5.28,5.69-3.86-5.24-7.79,5.08-1.6-1,3.44-10.08c-1.66-1.4-3.45-2.93-5.25-4.48A1.14,1.14,0,0,0,112.51,534.71Zm14.57-6.47-6-.49c-2.15,5-.74,9.85-.52,13.68l7.53,1.49,7.46-1.46c-3.32-2.56,3.22-5,.94-9.66-2.16-4.38-7.87-2.21-8.58-7l-1,3.57Z" transform="translate(-11.05 -20.1)"/><path d="M142.45,58.41l-8.76-3.94-4.63,5.41c-3.79-6.16-8.59-6.09-15-3.22,1.22-2.91,2.44-5.82,3.81-9.11L112.73,43,118,39.89,113.4,30.6l1.45-1.31,9.38,5.52c1.65-1.84,3.21-3.55,5.26-5.83l4,5.32,7.76-5.2,1.54,1c-1,3.16-1.95,6.32-3.36,10.92l5.41,2.3-5,5.47c1.3,2.88,2.56,5.7,3.83,8.51Zm-5-7.51V35.82c-3.34,2.09-6.49,4.83-7.68.87l-9,1.06V49.18l6.89,3.88Z" transform="translate(-11.05 -20.1)"/><path d="M34.74,153.35l-3.69-6.23-9.55,4.29-1.1-1.32,5.26-9.32L20,135.49l5.06-3.9L20.34,124l.77-1.51,10.26,3.1,3.87-4.36c1.7,1.55,3.07,2.8,4.46,4l8.58-3.7,1.22,1.21-3.89,8.66L51,136l-5.64,5.37,3.45,10.5L38,146.58Zm7.18-19.09.16.19.63-6.72h-14l-1,9.75,1.53,5.44c7.87,5.11,12.35.51,15.63-7Z" transform="translate(-11.05 -20.1)"/><path d="M45.76,468.36l5.31,4.84c-7,3.58-5.44,8.65-3.56,14.77l-8.82-3.92-4.63,5.05-2.89-5.33-9.49,4.7-1.32-1.41,5.4-9.36-5.63-5.09,5-4.2-4.87-7.59.86-1.42,11,3.26,2.21-5.41,5.57,5,10.21-4.65Zm-4,2.62.17.19.82-6.54H28.7l-.91,8.8c.28,2.1.63,4.63.94,6.89,6.89,2.53,13.37,1.76,16.09-7.55Z" transform="translate(-11.05 -20.1)"/><path d="M360.53,43c-3.17,4.67-3.29,9.47.7,14.42l-1.62.86-8.82-3.92-4.35,5.35-5.85-5.58-10,3.66c1.68-3.52,3.38-5.62,3.54-7.84.15-2.06-1.33-4.23-2.3-6.95,8.44-3.55-1.62-8.18-.71-14l10.56,5.86L346.8,29c1.38,2,2.46,3.52,3.75,5.37l8.11-5.25,1.45,1.16c-1.19,3.33-2.39,6.66-3.75,10.45l4.23,2.41Zm-13.18,8.27,7.33.58V38l-8.59-1.67-7.49,1.39c-4.09,7.68-.13,13,7.77,16.84.36-1.07.75-2.25,1.14-3.42Z" transform="translate(-11.05 -20.1)"/><path d="M175.67,536.24l-5.57,3,4.43,9.72-1.36,1-9.49-5.46-4.8,5.73-4.39-5-7.55,5c-4-5,7.31-11.49-2.95-14.79l4.37-4.82c-1.31-2.7-2.6-5.39-3.9-8.08l.92-1.28,9.32,3.69,3.88-4.68c6.9,4.54,6.9,4.54,15.73,1.73-1.59,3.79-2.84,6.76-4.14,9.87,1.85,1.51,3.69,3,5.55,4.55A.88.88,0,0,0,175.67,536.24Zm-18.78-7.69-6.44-1.27v16.45c3.49-2.2,6.67-4.93,7.83-.84l8.3-1.25c3.5-7.59.61-13.17-7.48-16.37-.67,1-1.54,2.21-2.4,3.45Z" transform="translate(-11.05 -20.1)"/><path d="M236.53,43.29l5.89-3.3-5-9.06,1.29-1.42,9.79,5.2,5.26-5.61,3.86,5.22,7.79-5.12,1.41.9c-1,3.14-1.92,6.28-3.33,10.87l5.35,2.39-5,5.49,4.27,8.72c-5.34,1.44-11.38-8.15-14.55,3-4.23-7.16-9.12-6.55-15.34-4l3.94-9.14-5.69-4.26Zm8.05,7.14,1.84-.5,5.09,3,10.07-1.79V35.39c-3.25,2.49-6.23,5.14-8.46-1.91-1.73,6.65-4.82,4.83-7.9,2.85C245,41.31,244.79,45.87,244.58,50.43Z" transform="translate(-11.05 -20.1)"/><path d="M204.53,58.38l-8.83-4L191,60c-3.61-6.47-8.59-6.6-14.38-1.75L176,56.4l4.05-8.82-5.21-4.48,5.25-3.23c-1.66-3.35-3.13-6.29-4.59-9.23l1.35-1.22,9.44,5.37,5.17-5.72c1.55,1.89,2.86,3.48,4.21,5.14l7.57-5c4.2,4.9-7.28,11.3,2.94,14.69l-4.3,4.82,3.79,8.46ZM189.94,36.7l-7.22,1.38V50.87l1.78-.94,5.16,3.21,10-2.18V37.39Z" transform="translate(-11.05 -20.1)"/><path d="M696.57,40.4l5.7,4.78c-1.87,1.6-3.42,2.92-5.12,4.35L702.06,57l-.83,1.64L691,55.24l-3.74,4.43c-4-6.91-8.79-.87-14.59-.5l4.48-9.85-5.69-4.27c6.07-3.81,6.29-8.72,2.53-14,4.77-2.84,10.06,9,13.46-3,4.56,10.46,8.84,1.38,14.71,1.56ZM680.42,52.54,686.56,54l8.14-2.13c-3.06-2.65-1.77-5.07.64-6.06-.68-3.42-1.21-6.13-1.87-9.46H682.09l-4.28,7.55C678.73,47,679.59,49.78,680.42,52.54Z" transform="translate(-11.05 -20.1)"/><path d="M298.7,43.38,304.24,40c-1.58-3.41-3-6.51-4.45-9.6l1.34-.95L310.62,35l4.82-5.85,4.34,5.11,7.45-4.89,1.56.72-3.07,10.49L330,44,326,49c1.29,2.65,2.59,5.33,3.9,8l-1,1.25-9.33-3.83-5.1,7c-1.36-3.07-2.42-5.47-3.44-7.76l-11.17,4.17c1.69-4.07,2.92-7,4.32-10.38l-5.55-4.11Zm8.13-5.58V49.23L313.41,53l10.4-1.74V35.68c-3.38,2.09-6.6,4.94-7.86.65Z" transform="translate(-11.05 -20.1)"/><path d="M548.64,549c1.2-3.35,2.41-6.7,3.67-10.22l-4.76-3.67c1.59-1.68,2.87-3,4.26-4.53l-3.92-8.14,1-1.29,9.13,4,4.44-5.48,5.36,5.69,9.82-3.52c-1.5,3.27-3.18,5.42-3.29,7.64s1.46,4.24,2.58,7.11l-3.71,3.19c1.62,2.91,3.23,5.78,4.84,8.66l-1.34,1.29-9.74-5.36-4.87,5.7-4.24-5.17-7.44,5Zm6.57-5.82c2.86-3.72,5.19-2.22,7.07-.31l7.67-.8c.41-1.93.9-4.2,1.39-6.48l1,.35c-.82-2.48-1.63-5-2.14-6.52l-6.53-3.68-8.92,2.27-1.3,5.77C554.15,537.56,554.64,540.17,555.21,543.22Z" transform="translate(-11.05 -20.1)"/><path d="M390.45,549.85l-9.52-5.37c-1.72,1.89-3.26,3.6-5.2,5.75L371.88,545l-7.83,5-1.51-.89c1.12-3.29,2.25-6.58,3.49-10.21l-4.63-3.78c6.63-4.09,1.68-8.59-.15-14.55l10.51,4.5,4.22-5.3,5.88,5.58,9.92-3.69c-1.86,4.14-3.12,6.93-4.59,10.18l4.5,3.94-4.61,4.1,4.88,8.55ZM384,541.69c3.88-7.82-.82-12.92-5.55-15.68l-9.9,1.83c-.46,2.3-1,4.83-1.16,5.75.7,3.8,1.17,6.36,1.73,9.38,2.57-2.77,5.27-2.79,6.27.26Z" transform="translate(-11.05 -20.1)"/><path d="M210.46,530.62c-1.41-3-2.64-5.68-3.88-8.33l1.13-1.26,9.17,4.05,4.17-5.87c3.7,6.58,8.73,6.25,15.07,3.76l-4.09,8.8,5.17,4.45-5.26,3.45,4.86,8.83-1.31,1.41-9.86-5.36-4.7,5.66c-1.59-1.85-2.9-3.4-4.34-5.08l-7.4,4.88-1.63-.84c.78-2.41,2.1-4.81,2.17-7.24.06-2.27-1.21-4.56-2.25-8.07Zm8.47-2-6.42-1.43v17.09c3.54-2.76,6.41-5.36,7.65-1.23l9.38-1.29V530.19l-8.42-4.82-2.38,3.37Z" transform="translate(-11.05 -20.1)"/><path d="M434,525.16l4-5.42,5.89,5.63,9.79-3.67c-1.81,4.14-3.1,7.1-4.5,10.29l4.61,3.53-4.51,4.2,4.46,8.9-1.34,1.13L443,544.44l-5.12,5.75-3.9-5.21-7.86,4.94-1.5-.91c1.12-3.28,2.25-6.56,3.47-10.15l-4.35-3.68,3.84-4.63c-1.24-2.81-2.43-5.5-3.61-8.19l1-1.2Zm3.82,17.43.41.49,8.87-1.53V530.11L438.2,525c-1.21,4.14-4.45,4-7.62,1.9L429.36,534l1.59,8Z" transform="translate(-11.05 -20.1)"/><path d="M360.59,43.13l5.83-2.9c-1.68-3.53-3.15-6.64-4.61-9.74l1.3-1,9.43,5.39,5.2-5.85,3.89,5.35,7.79-5.08,1.51.82-3.22,10.46L392.19,44l-4.25,4.74,3.89,8.29-1.07,1.19-9-3.77-5.38,6.42-3.9-7.15-10.66,4,4.44-10.35c-1.9-1.45-3.8-2.9-5.71-4.38C360.53,43,360.59,43.13,360.59,43.13Zm25.29,9.69V35.08c-3.33,2.67-6.33,5.79-7.78,1.37l-8.25,1.1c-.45,1.76-1,4-1.57,6.23-1,5.85,5.25,6.9,8.85,11.48C378.31,49.48,381.72,50.77,385.88,52.82Z" transform="translate(-11.05 -20.1)"/><path d="M318.75,544.54l-4.86,5.77-4.15-5.3L302,550.09l-1.6-1.06L304,538.8l-4.55-3.54,4-4.63c-1.22-2.81-2.45-5.66-3.69-8.5l1.18-1.07,8.78,4.09,4.4-5.63,5.36,5.71,8.9-3c2,4.6-8.51,9.4,2.86,13.36L325,539.45l4.92,9.09-1.2,1.3Zm-5.38-16.42-6.62-.57c-.62,2.63-1.21,5.18-1.8,7.73l.75-.36,1.15,6.79,7.07,1.2,8.93-1.16V528.3l-1.76,1.06-7.08-4.7c-.25,1.14-.53,2.34-.8,3.54Z" transform="translate(-11.05 -20.1)"/><path d="M542.66,40.83c5.15,2.15,5.29,4.8.22,7.52,1.41,3.08,2.7,5.91,4,8.75l-1.19,1.21-8.77-3.93-5.27,6.52c-1.47-2.81-2.68-5.12-3.76-7.2l-9.61,3.5c-3.12-4.44,9.6-9.56-3.43-13.29L521.52,40l-4.76-9.08L518,29.59l9.92,5.29,4.73-6,4.1,5.53,7.23-5,1.85.61ZM523.71,38.1V48.93l7,4.27,10.27-2V37.94l-9-1.6Z" transform="translate(-11.05 -20.1)"/><path d="M422.68,43.05l-3.44,6.16,4.29,9.92-10.76-4.74-4.57,5.44-5.34-5.76L393,57.69c1.44-3.28,3-5.36,3.12-7.52s-1.21-4.29-2.4-8l3.75-2-4.83-9.39,1.21-1.22,9.87,5.29,5-5.85,4.06,5.42,7.47-5.17,1.76.87c-1.11,3.41-2.22,6.83-3.49,10.76l4.22,2.32Zm-13.1,8.12,5.56.7c1.17-2.64,3.09-5,3-7.28s-2.11-4.71-3.26-7l-6.73-1.14-7,1.17-2.39,6.67c.54,1.65,1.3,4,1.7,5.23l8,5c.41-1.14.85-2.35,1.28-3.56Z" transform="translate(-11.05 -20.1)"/><path d="M518.08,44.28l-6.34,3.88c1.52,3.25,2.83,6,4.14,8.82l-1.18,1.26-8.85-3.8-5.29,6.41c-1.42-2.73-2.63-5-3.75-7.21L485.76,57.8c1.9-4.08,3.2-6.85,4.7-10.08l-4.66-4.21,4.6-3.76c-1.6-3.24-3-6.18-4.49-9.11l1.3-1.07,9.47,5.33,5.07-5.82,4.07,5.35,7.64-5.21C517.62,34,506.1,40.39,518.08,44.28Zm-26.34,1.45L499,53,510,51.39V35.48c-3.32,2-6.39,5.5-8.81-2.67-1.62,7.62-5,4.89-7,3.95C493.43,39.34,492.83,41.62,491.74,45.73Z" transform="translate(-11.05 -20.1)"/><path d="M515.9,535.78l-4.75,4c1.7,3,3.23,5.78,4.77,8.53l-1.19,1.4-9.81-5.18c-1.58,1.8-3,3.42-4.94,5.65l-4.15-5.29-7.71,5.28-1.53-1,3.51-10.21-4.33-3.72,3.79-4.5c-1.24-3-2.38-5.67-4.35-10.38l10.67,4.83,5.22-6.65,3.81,7.29,10.88-4-4.62,10.08Zm-14.59,7.14c.84-4.16,4.3-1,6.4-.14.56-2.54,1.06-4.82,1.55-7.1l1,.34c-.85-2.47-1.71-4.94-2.27-6.55l-7.87-4.53c-.87,5.1-4.62,3.44-7.28,2.12-.64,3-1.2,5.64-1.77,8.3l.69-.34c.4,2.6.81,5.21,1.08,7Z" transform="translate(-11.05 -20.1)"/><path d="M422.75,43.19l5.56-3.06-4.4-9.65,1.36-1c3.08,1.79,6.16,3.57,9.33,5.39l5.19-5.81,3.95,5.28,7.83-5.12,1.4.87c-1,3.14-2,6.29-3.38,10.9L455,43.26l-5,5.56,3.77,8.09-1,1.28-9.21-3.85-4.2,5.77c-3.7-6.39-8.57-6.85-14.95-3.47l3.9-9.24-5.61-4.32S422.75,43.19,422.75,43.19ZM448,52.57V35.47c-3.33,2.05-6.43,5.21-8.83-2.29-1.74,7.16-5,4.64-7,3.62-.88,2.72-1.64,5.09-2.37,7.37l1.62,5,8.21,5.39C440.46,48.34,444.41,51.71,448,52.57Z" transform="translate(-11.05 -20.1)"/><path d="M578.82,43.51l4.52-3.76c-1.57-3.23-3-6.17-4.41-9.11l1.3-1.11,9.52,5.4,5.06-5.86,4.13,5.35,7.36-5.15,1.71.81-3.2,10.41L609,44.13c-1.29,1.56-2.47,3-3.84,4.61l3.75,8.39-1.15,1.18L599,54.41l-4.53,5.42L589,54.14l-10.36,3.59c1.93-4.11,3.23-6.9,4.7-10Zm7.87-6.69c-.52,1.8-1.67,4-1.63,6.07a26.7,26.7,0,0,0,1.33,6.4l6.71,4.1,8.5-2.18c3.4-4.61-.1-9.55.28-13.51l-8-1.3.13.42Z" transform="translate(-11.05 -20.1)"/><path d="M673.2,333.75c1.27-2.68,2.53-5.36,4-8.48l-5.73-4.4c6.47-3.6,6-8.63,2.56-13.91,5-2.11,9.73,8.43,13.43-2.29,4.47,10,9.08.63,14.94,1.05-2.25,4-4,7-5.84,10.41l5.58,5.1-5.23,4.14c1.75,2.39,3.39,4.66,5,6.93l-.64,1.85-10.45-3.21-3.54,4.38-4.8-3.94-8,3.7Zm7.42-11.48-.15-.18-.87,5.82,6,1.85,8.26-1.5,1.31-7.89-.42.08v-8.09H680.2l1.2,1.78L677,321Z" transform="translate(-11.05 -20.1)"/><path d="M690.83,208.36l-3.08,4c-2.59-1.06-4.81-2.71-7-2.65s-4.08,1.9-6.12,3l-1.38-1.1c1.22-2.8,2.44-5.6,3.86-8.84l-5.61-4.42c6.41-3.53,5.87-8.55,3.61-14.75l8.79,4,3.91-4.54,4,4.55,8.81-4.75,1.39,1.39-5.43,9.32c1.88,1.73,3.57,3.28,5.7,5.22l-5.19,3.84c1.6,2.5,3.29,5.12,5,7.75l-.89,1.54Zm3.13-2.9c.34-2.27.72-4.73,1.22-8-.46-1.31-1.35-3.82-2.66-7.56H680.34l1.16,2-4.77,6.52c5.12.81,3.77,4.35,2.47,7.14l7.21,1.67Z" transform="translate(-11.05 -20.1)"/><path d="M559,34.87l4.64-5.8,4.3,5.23,7.41-5,1.67.76c-1,3.44-2.08,6.88-3.23,10.64L578.12,44l-4,4.93,3.79,8.19c-.34.42-.67.85-1,1.28l-9.07-4-5.13,6.06L558,54,548,57.73c1.75-4.11,3-7.09,4.41-10.33l-4.58-3.71,4.67-4.12c-1.63-2.89-3.19-5.66-4.76-8.43l1.09-1.46Zm-4.27,14.2,6.94,4.08,10.29-1.89V35.35c-3.41,2.57-6.45,5.27-7.82,1.15l-9.41,1.16Z" transform="translate(-11.05 -20.1)"/><path d="M635.19,539.88c1.74,3,3.32,5.7,4.89,8.42l-1.29,1.42-9.86-5.27L624.19,550l-4.29-5-7.82,5.06-1.34-1,3.57-10.21-4.74-3.71,4.25-4.49c-1.3-2.8-2.54-5.48-3.79-8.16l1-1.28,9.16,4c1.24-1.72,2.33-3.24,5.09-7.1l3.47,7.67,11-3.86-4.44,9.88c1.32,1.14,2.74,2.35,4.57,3.94Zm-3,1.91,1.7-6.92c-.47-1.73-1.16-4.26-1.86-6.79l-.69,1.26-5.5-3.63-10.16,2.41v16c3.26-1.93,6.22-5.85,7.78-.95Z" transform="translate(-11.05 -20.1)"/><path d="M474.82,34.44l7.59-5.18,1.61.9c-1.09,3.26-2.17,6.52-3.45,10.36L485,44l-3.87,4.66,3.57,8.49-1.2,1.07-8.71-3.91c-1.47,1.77-2.8,3.37-5.15,6.18-1.7-2.31-3.11-4.21-4.75-6.42l-9.16,3.14c-.79-4.92,8.28-9.79-1.24-13.43l4.62-4.18-4.25-9.15,1.31-.93,9.62,5.37c1.53-1.94,2.85-3.61,4.76-6Zm-4.62-1.6c-2.08,8.16-5.72,4.1-7.72,3.56-2.36,8.38-1.1,15.14,6,17.27l10.48-3V35C475.64,37.65,472.79,40.7,470.2,32.84Z" transform="translate(-11.05 -20.1)"/><path d="M677.44,131.54c-1.13-2.91-2.13-5.51-3.83-9.88,3.66,1.73,5.8,3.48,8,3.59s4.25-1.54,7-2.67l3,3.54,9.16-4.38,1,1.28-5.34,9.46,5.75,4.77c-1.8,1.49-3.35,2.78-5.17,4.27l5,7.36c-4.52,4.71-11-7.42-14.33,2.93l-5.2-4.22-8.15,3.76-1.25-.95c1.29-3,2.58-5.93,3.89-9l-5.45-4.36Zm3.37,7.29-.18-.21c-.43,2.09-.85,4.19-1.43,7h15.53v-8.3l.3.13c-.39-2.88-.78-5.75-1.21-8.89h-11.4l-5.29,8.68Z" transform="translate(-11.05 -20.1)"/><path d="M686.57,367.21l5.66,3.85,8.59-4.2,1,1.3c-1.78,3.06-3.55,6.12-5.45,9.38l5.76,4.78L697,386.55l5,7.42-.79,1.55L691,392.1l-3.77,4.43c-4-7.1-8.53-1-14.24-.45,1.58-3.6,2.79-6.39,4.2-9.6l-5.73-4.43c6.71-3.45,6-8.53,3.77-14.68l9,4.11,2.51-4.32Zm7.83,15.71.6-.76c-.28-2.87-.56-5.75-.85-8.67H682.4l-5.4,8.68c5.65.82,2.77,5,2.11,7.32l8.19,1.8-.33-.68,7.86-.72C694.72,388.14,694.56,385.53,694.4,382.92Z" transform="translate(-11.05 -20.1)"/><path d="M298.25,523.1c-1.35,2.78-2.69,5.57-4.21,8.71l4.53,3.83-4.38,4.11,4.52,9-1.34,1.15-9.48-5.42-5.11,5.63L278.64,545l-7.59,5-1.52-1c.87-2.49,2.31-4.95,2.42-7.48.1-2.07-1.38-4.22-2.56-7.42l3.09-3.75-3.94-8,.95-1.29,9.22,3.95c1.36-1.68,2.67-3.28,4.7-5.8C286.81,526.94,292.16,524.57,298.25,523.1Zm-6.61,18.53V530.12l-6.9-3.94-10.21,2.29v15.71c3.61-2.67,6.49-5.29,7.76-1.07Z" transform="translate(-11.05 -20.1)"/><path d="M614.61,39.52l-4.87-8.45L611,29.62l9.81,5.23,5.1-5.72,4,5.26,7.73-5.19c4,4.87-7.28,11.17,3.34,14.8-8.52,4.22-1.54,9-1.29,14.69L630,54.39l-5.45,6.41-3.71-7.12L610,57.75l4.5-10.15-4.38-3.85ZM634,51V35.62c-3.09,1.46-6.26,5.62-8.65-2.76-1.64,7.71-5,4.81-7.16,3.84l-2,8.47,1.36,4,6.38,4.19Z" transform="translate(-11.05 -20.1)"/><path d="M671,534.73c9.17-4,1-8.58,1.17-14.07l9.81,4.48,5.51-6.53,3.56,7.25,10.78-4.11-4.32,10,4.48,4-4.57,4.09c1.56,2.77,3.17,5.63,4.77,8.49l-1.25,1.41-9.8-5.28c-1.55,1.8-2.94,3.42-4.83,5.6L682,544.91l-7.77,5.18-1.49-1c1.13-3.3,2.26-6.6,3.51-10.27Zm25.1.14-1.44-5-8.27-5.11c-.89,5.72-4.85,3.2-8.56,1.76v17.73c3.49-2.52,6.5-5.54,7.83-1.3l8.22-.74Z" transform="translate(-11.05 -20.1)"/><path d="M686.68,367.16l-3.44-5.48-8.87,4.1-1.21-1.19,4.05-8.8-6.4-4.87,6.93-4.19c-1.32-3.45-2.32-6.07-3.89-10.2l10,4,3.82-4.27,4.06,4.43,8.74-4.6,1.29,1.07L696.61,347l5.49,4.77L697,355.94l4.94,7.38c-.24.53-.49,1.05-.73,1.58l-10.41-3.42c-1.38,1.87-2.79,3.78-4.23,5.71Zm-6-24.24c.22.59.44,1.18.67,1.77-1.53,2.26-3.07,4.51-3.53,5.18,1,3.92,1.71,6.73,2.31,9.09l5.61,1.28,8.12-1.48c.43-2.4.9-5,1.31-7.25-.47-2.64-.94-5.33-1.52-8.59Z" transform="translate(-11.05 -20.1)"/><path d="M673.12,119.64c1.31-2.84,2.62-5.68,4.07-8.84l-5.7-4.33c6.09-3.64,6.45-8.36,2.61-13.55,4.55-3.57,9.88,9.12,13.42-3.69l3.76,6.59,9.39-4.77,1.14,1.32c-1.69,3.07-3.39,6.13-5.21,9.42l5.62,5.16-5.16,3.88,5,7.55c-4.8,4.05-11.3-7.15-14.58,2.93l-4.82-4.39-8.47,3.86Zm7.6-11.21-.19-.19-1.14,5.65,6.39,1.43,9.58-1.48c-1.75-2.29-4.53-5.27,3.11-7.73-7.8-1.57-4.66-4.89-3.13-8.06H682.23l-4.91,8.58Z" transform="translate(-11.05 -20.1)"/><path d="M661,34.38l7.74-5.15,1.49,1c-1.11,3.34-2.21,6.68-3.4,10.26l4.38,3.79-4,4.52c1.29,2.89,2.56,5.72,3.82,8.56l-1.19,1-8.72-4-5.3,6.16L651.35,54l-10.72,3.59,4.91-9.93-4.64-4.1,4.46-4c-1.53-3.23-2.93-6.16-4.32-9.09l1.27-.95,9.59,5.26L656.78,29Zm-6,18.87,10.13-2V35.42c-3.26,2-6.37,5.41-7.71,1.34h-9.44V49.32Z" transform="translate(-11.05 -20.1)"/><path d="M542.31,539.75c1.68,3.4,3,6.15,4.39,8.89l-1.24,1.09L536,544.41l-5.17,5.72L527,544.91l-7.75,5-1.44-.87c1.08-3.3,2.15-6.61,3.33-10.21l-4.47-3.64c1.56-1.74,2.83-3.14,4.17-4.62l-3.92-8,.92-1.3,9.23,3.76,4.18-5.66c3.71,6.37,8.68,6.41,14.1,2.47,2,5.06-8.69,10.09,1.9,13.41Zm-12.54-11.57-5.66-.62c-.91,2.92-1.66,5.35-2.41,7.78l1-.32c.29,2.89.57,5.77.89,8.92,2.56-2.73,5.46-4.9,6.86-1l9.58-.91V530.27l-8.91-5.15-1.46,3.19Z" transform="translate(-11.05 -20.1)"/><path d="M687.46,427.43c1.88,2.29,2.94,3.59,4.25,5.17l8.83-4.62,1.21,1.28c-1.7,3.05-3.39,6.11-5.24,9.45l5.66,5.07L697,447.66l5,7.48c-4.51,4.49-11.17-7.48-14.25,3.09-2-1.75-3.39-3-5.07-4.44l-8.27,3.82-1.11-1.1,3.92-8.74-6-4.73c8-3.13,5.35-8.6,3-13.87C679.08,427.83,683.63,437.4,687.46,427.43Zm-6.79,17.84-.19-.17c-.43,2.1-.86,4.2-1.15,5.63l8.21,2c0-.26-.07-.52-.1-.78h9.07c-2.62-3.3-5.83-6.21,1.89-8.84-7.28-1.61-4.82-4.83-2.95-8.19H682.24c-2.31,3.95-3.64,6.22-5.07,8.68Z" transform="translate(-11.05 -20.1)"/><path d="M677.23,233.22,671.45,229c6.43-3.64,6.31-8.39,3.45-14.67l9.77,4.11c.6-.86,1.66-2.41,3.76-5.47,1,2.16,1.84,4.12,2.46,5.48l10-4.69c.33.43.66.87,1,1.3l-5.36,9.35,5.65,4.9-5.12,4.17c1.73,2.57,3.38,5,5,7.51l-.77,1.47L691,239.15c-1,1.22-2.23,2.64-3.9,4.62-3.84-8-8.68-.79-14.24-1C674.51,239.21,675.79,236.39,677.23,233.22Zm.93-5.79c.77,3.75,1.38,6.68,2.07,10H696c-1.62-3.05-6.06-6.16-1-7.55-.38-3.66-.67-6.52-1-9.38H682.25Z" transform="translate(-11.05 -20.1)"/><path d="M691.64,463.11l10.09-4.91c-.51,6.21-10.35,11.18.95,15.75L697,478.42l4.94,7.3c-.22.51-.45,1-.67,1.54l-10.36-3.12-3.69,4.32-4.46-4.17-8.24,3.93-1.25-1c1.3-3,2.59-6,3.93-9l-5.5-4.27,5.74-5.31-3.59-10c3.48,1.68,5.62,3.45,7.84,3.56s4.22-1.55,6.93-2.68Zm-11,12.42-.15-.17c-.38,2.26-.76,4.52-1,5.75l6.09,1.86,9.29-1.38v-7.47l1.62-.05-3.5-3.68c1-1.94,1.92-3.63,2.63-5H682.39L677,474.15Z" transform="translate(-11.05 -20.1)"/><path d="M677.18,294.34l-5.87-4.06c6.52-3.63,6.58-8.57,2.48-14,5.17-1.95,10.22,8.93,13.58-1.87l4.4,4.88,10.05-4.78c-.55,6.16-10.44,11.08.82,15.66l-5.57,4.48L702,302c-.28.51-.55,1-.82,1.53l-10.27-3.19-3.68,4.37-4.64-4.11-8,3.91-1.29-1Zm3.47-2.41-.17-.18c-.41,2.24-.83,4.48-1.31,7.06h16.9c-1.61-3.15-5.76-6.37-.91-7.7-.44-3.47-.81-6.36-1.19-9.38H682.33l-5.22,8.65Z" transform="translate(-11.05 -20.1)"/><path d="M697,80.13,702.18,88c-.28.46-.56.93-.83,1.4L691,86.08l-3.78,4.42-4.44-4-10.29,4.1,4.69-10.43L672,76.18C677,70,677,70,674.27,60.87c2.05.75,3.55,1.2,5,1.85s2.65,1.49,4.34,2.47l4.2-4.54L691.84,65l8.82-4.64,1.25,1.32c-1.71,3.05-3.42,6.1-5.26,9.4l5.55,5.2Zm-1.84-3.36c-.5-3.4-.93-6.28-1.38-9.33H682.33l-4.13,6.81c.79,3.78,1.4,6.69,2.14,10.19h15.89C694.1,81.24,690.3,78,695.17,76.77Z" transform="translate(-11.05 -20.1)"/><path d="M331.7,549.12l3.17-10.23-4.44-3.7,4.09-4.5-4.59-10.45,10.77,4.85,4.73-5.77c3.44,7.46,8.79,5.32,14.89,3.86L356,531.74l4.7,4-4.51,3.92,4.58,9.14-1.28,1.13L350,544.44l-5.23,5.63L340.62,545l-7.35,5Zm22.06-18.85-6.95-4.07-10.36,2.18v16.53c3.73-4.08,6.62-5.59,7.93-1.92l9.38-1.21Z" transform="translate(-11.05 -20.1)"/><path d="M420.71,549.67l-8.59-5.35-5.26,5.79c-1.45-1.82-2.71-3.42-4.11-5.19l-7.42,5-1.54-.83,3.23-10.7-5.46-2.21,5.12-5.6-3.93-8.09c.31-.42.61-.85.91-1.27l9.32,3.89,3.93-5.36c4.15,5,8.8,7.4,14.58,1.2.25.66.51,1.31.77,2l-4.09,8.74,4.33,4c-1.41,1.35-2.73,2.61-4.18,4l4.26,9.33Zm-4.86-8V528.18L414,529.26l-6.69-4.12c.07.47.13.94.2,1.42l-8.92,1.32v16.78c3.42-3.38,6.3-5.72,7.82-1.62Z" transform="translate(-11.05 -20.1)"/><path d="M690.91,177.83c-1,1.23-2.24,2.64-3.86,4.56-4-7.45-8.59-.95-14.21-.74,1.6-3.61,2.84-6.41,4.27-9.62l-5.56-4.19c5.81-3.85,6.89-8.61,2.22-13.89,5.12-2.5,10,8.58,13.79-3.43,1.83,3,2.82,4.6,3.85,6.29l9.59-4.34.88,1.3-5.38,9.33,5.74,4.87-5.09,4.25,4.9,7.36-.9,1.56Zm-10.68-2.63,5.86,1.27,7.75-1.48c.37-2.25.81-4.81,1.37-8.14-4.48-1.2-1.27-4.58.34-7.63h-13.4c-2.16,3.66-3.6,6.12-4.29,7.28Z" transform="translate(-11.05 -20.1)"/><path d="M589,544.79,581.34,550l-1.44-.93c1-3.15,2-6.29,3.19-10.08l-4.4-4,4.18-4.44-3.93-8.05.91-1.31,9.09,3.86,4.63-5.5c3.58,7,8.58,5.58,13.84,2.48,2.2,4.75-9,9.86,1.88,13.15l-4.92,4.63,4.44,8.77-1.29,1.14-9.46-5.34c-1.71,1.89-3.27,3.59-5.13,5.65Zm2.87-16.66-5.77-.62c-.86,2.86-1.61,5.32-2.35,7.79l.9-.3c.28,2.9.56,5.8.82,8.53l4.84-2.66L592,543l10.07-1V530.27l-9-5.49c-.44,1.12-.91,2.3-1.37,3.48Z" transform="translate(-11.05 -20.1)"/><path d="M671,259.3c7.83-3.54,6.14-8.63,2.9-13.63,5.13-1.86,9.76,8.42,13.8-3.08,1.68,2.88,2.64,4.53,3.74,6.4l9.07-4.75,1.25,1.29c-1.69,3.05-3.38,6.11-5.21,9.44l5.67,5-5.2,4c1.69,2.54,3.41,5.11,5.08,7.6-5,3.88-10.87-7.15-14.53,2.7l-4.9-4.2-8.38,3.76-1.15-1.16c1.31-2.81,2.61-5.63,4.05-8.71Zm9.71,2.4-.19-.19c-.43,2.06-.87,4.13-1.4,6.64h17c-2.15-3.39-5.61-6.34,2-8.47-6.67-1.87-4.62-5.27-2.76-8.56H682.1l-4.77,8.66Z" transform="translate(-11.05 -20.1)"/><path d="M641.85,548.78c1.1-3.17,2.21-6.34,3.45-9.89l-4.62-3.63,4.16-4.51-3.79-8.53,1.14-1.09,8.77,4,4.48-5.56,5.31,5.71,10.39-3.51-4.9,9.85,4.66,4.07-4.44,4,4.37,9-1.24,1-9.48-5.35c-1.7,1.89-3.23,3.61-5.08,5.68l-4.09-5.19-7.48,5.1ZM654,528.1l-6.07-.65c-.71,2.67-1.38,5.2-1.55,5.86.59,4.43,1,7.37,1.37,10.27,2.18-1.39,5.28-5.24,6.71-.46l9.56-1.33V530l-8.89-5.06-1.25,3.3Z" transform="translate(-11.05 -20.1)"/><path d="M485.56,535.36l-5.25,4.16,4.33,9.12-1.23,1.05-9.47-5.27c-1.72,1.9-3.27,3.62-5.13,5.7l-3.87-5.23-7.76,5-1.41-.85c1-3.15,2-6.3,3.14-10.06l-4.11-3.68,3.83-4.84-4.62-10L464.77,525l4.4-5.24c3.92,5.68,8.74,6.67,14.14,1.82C485.57,526.86,474.42,531.77,485.56,535.36Zm-17.89-7.18-5-.53c-4.82,5.34.61,10.69-2.17,16.59,3.27-2,6.44-6,8-1.06l9.42-1.56V528.23l-1.86,1.11-7-4.35c-.46,1-1,2.17-1.53,3.33Z" transform="translate(-11.05 -20.1)"/><path d="M696.47,408.29l5.76,4.72L697,417.16l5.11,7.53-.83,1.5-10.3-3.35-3.65,4.42-4.72-4.12-8,3.83-1.26-.88,3.81-9.14-5.59-4.34c6.46-3.67,6.83-8.34,2.17-13.43,5-3,10,8.68,13.91-3.43l4,6.38,8.56-4.7,1.45,1Zm-15.67,6.76-.2-.2c-.54,2.06-1.08,4.11-1.7,6.5h17.67c-2.68-3.28-5.87-6.36-1.41-7.67-.44-3.62-.79-6.52-1.15-9.47H680.29l1.06,2c-1.47,2.14-2.94,4.28-4.45,6.5Z" transform="translate(-11.05 -20.1)"/><path d="M677.2,508.78l-5.44-3.92c4.89-3.94,7.58-8.28,1.45-13.94l1.75-.79,8.91,3.65,3.89-4.49,3.87,4.42,9.29-4.3.89,1.33-5.37,9.4,5.76,4.73L697,509l5,7.53-.87,1.47-10.33-3.47-3.68,4.65c-4.1-7-8.56-1.44-14.2-.42C674.63,514.84,675.9,511.84,677.2,508.78Zm.66-5.61c.85,3.78,1.53,6.75,2,9l6.57,1.57,8.62-2.17c-3.53-2.59-1.72-5,.24-6-.58-3.61-1-6.3-1.53-9.5h-11.7Z" transform="translate(-11.05 -20.1)"/><path d="M336.47,285.59c1.39-8.06,7.2-11.44,14.42-14.33q66.75-26.67,133.22-54c42.25-17.46,84.27-35.48,126.46-53.11a51.31,51.31,0,0,1,13.89-3.82c11.3-1.24,18.56,3.36,22.38,13.28,3.54,9.21.67,19.81-8.79,26a166.21,166.21,0,0,1-28,14.6c-63.24,25.84-126.65,51.29-190,76.94-17.31,7-34.58,14.12-51.74,21.49a26.89,26.89,0,0,1-18.6,1.34c-1.94-.52-5,.52-6.65,1.92-9.9,8.53-10.43,20.44-11.93,32.36-2.5,19.78-4.32,40-9.82,59-8.41,29.06-27.12,51.13-55,64C252.72,477.58,238.6,484.08,224,487c-31,6.28-59.64-1.25-85.35-19.77C112,448.1,95,422,83.17,391.86c-17.92-45.61-4.6-102.87,32-135.46,14.25-12.68,29.71-23.46,48.28-28.81,31.21-9,61.74-8,90.46,8.4,11,6.25,20.91,14.23,31.34,21.39.86.59,2,1.57,2.78,1.38,7-1.74,10.51,2.95,14.12,7.5a31.3,31.3,0,0,1,2.08,2.55C311.47,280.39,321.83,286.22,336.47,285.59ZM233.14,469.1c.05,1,.11,2,.16,3l1.28,3.12-8,3.79c4.48,4,14.69,2.41,22.86-3.62L239,474.88l-.33-5.18-1.14.12c-.1.76-.21,1.53-.31,2.29l-2.79-2.59-1-2.54c3.27-2.3,6.41-4.8,9.82-6.88,10.68-6.5,22.33-11.74,32-19.47,21.23-16.94,33.61-39.92,41.1-65.8,7-24.26,5-48-3.63-71.37-.65-1.76-2.59-3-3.94-4.54-.4-2.25-.32-4.75-1.31-6.7-2.48-4.89-5.35-9.6-8.25-14.27-8.67-14-21-24.24-34.54-33.12-1.27-.83-3.86.37-5.84.63.9,1.75,1.38,4.45,2.79,5.09,9.27,4.19,16,11.26,23,18.32,9.15,9.18,12.65,22.77,24.08,30-.46,2.43-2,5.27-1.23,7.25,7.42,19.78,8.24,40.1,4,60.42-7.24,34.64-25.4,61.71-57,79.21C220.64,464.56,186,465,151.3,449.37,108.87,430.29,79,382.91,85,336.37c2.62-20.34,7.61-39.66,20.79-56a51.6,51.6,0,0,0,3.48-5.61l-1.37-1c-1.65,3.61-11.07.1-7.2,7.71-2,1-4.27,1.38-5,2.65C88.43,297.81,81,311.55,82.85,327.75c-.33,1.42-2.3,2.55-2.48,3.91-2,15.33-2.24,30.63,2.48,45.59,8.7,27.61,23.42,50.8,47.91,67.38,21.38,14.48,44.08,23.54,70.42,22,10-.58,20,.09,30,.18l-.06,1.38.87-.13Zm68.61-142.28,2.86-2.11-.12,0c1.05-1.61,3.35-3.72,2.94-4.74-2.86-7.12-6.29-14-9.54-21l-9.64-13.13-3.57-2.19-8.71-6-.31-2.41c-3-9.19-10.71-12.74-18.8-15.86-5.24-3-10.19-6.75-15.79-8.66-6.76-2.31-14.47-2-21-4.68-7.21-2.9-16.95.64-21.39-8.76-6,10.44-18.25,5.79-25.47,12.45,3.85-.14,7.48-1.93,11.06-1.84,8.15.22,16.26,1.37,24.39,2.13,1.31.12,2.8.65,3.91.22,8.26-3.26,15.83,0,23.41,2.42,4.36,1.4,8.51,3.48,12.88,5.32-.31.73-.72,1.73-1.14,2.72l-6.57,6.2-5.63,3,7.08-1.29,13.64-4c.66,1,1.32,2,2,2.93,0,.26-.07.51-.11.76l-3.74,1.3c-1.06,1.24-2.11,2.49-3.16,3.73l-2.25,1.16,1.4,2.69-10.08,4.46c-8.3,1.69-12.12-6.84-19.16-8.42-3.63-.82-6.62-4.35-10.26-5.41-4.6-1.34-9.59-1.27-14.37-2a68.65,68.65,0,0,0-26,.66c-7.4,1.68-14.58,5-21.32,8.65a68.2,68.2,0,0,0-16.31,11.78c-5.06,5.11-8.25,12.06-13.29,17.2-3.1,3.16-2.55,4,.61,5.56l-2.78,2.91,2.63,3.09c-12.55,11.92-16.56,51.87-3.73,75,9.61,17.29,27.43,27.11,46.67,32.89.35.1,1-.68,1.64-1.17L160,419.69a16.37,16.37,0,0,1,17.47-3.84c7.25,2.72,14.36,8.63,22.39,1.74l18.62-8.79q1.39,7,2.78,13.94l-2.81,1.82.29-.15L216,426c.05.42.08.84.1,1.26l4.07-.16-.27.15,2.86-1.47-.19.16,3.94-1.5,2.71-1.34,2.71.62,6.59,3.46c0,.46.09.93.14,1.39l-7.41,3.56-2,1.57-.16,2.16v-.16c-.54,1.4-1.09,2.8-1.7,4.14-.59-.23-1.19-.46-.12-.05h.09l5.85-3.47,6.5-2.61,4-1.33,2.72-1.35,4.3.17,10.23-4.82,2.46-.61,3.39.12,7.56-2.07c5.8,0,11.65-5.42,14.4-13.25,0-.62-.09-1.25-.14-1.88l1.16-2.91c1.76-1.14,4.41-1.87,5.16-3.49,5.1-10.93,9.79-22.05,14.62-33.09l-6.62-2.87c3.67.28,6.73-.48,7-4.89.62-9.63,1.12-19.28,1.7-29.59l-8.39,1.64-4.08-1.33,2.88-3.42-.06,0,0-2.09ZM237.24,446.89,237,447l4.51,0c4.15-2,9-3.17,10.06-8.86-8-1.7-15,2.12-15.78,8.32V448ZM128.17,279.29c.62-1.34.88-3.18,1.92-3.94,7.23-5.27,14.63-10.31,21.91-15.5.29-.21,0-1.18,0-3.79l-29.57,20.38,5.87,2.91c-9.4-.18-16.07,6-21,20.74l13.16-12.61L118,286.19a55.62,55.62,0,0,0,6.24-3.13A30.39,30.39,0,0,0,128.17,279.29Zm208.91,17.37c-14.85,7.79-21.09,36-11.22,48.7.47-8.6-.15-17.15,1.67-25.14S333.6,305,337.08,296.66Zm-.87-6.47c-6.46-1.74-13.59-2.33-19.2-5.55-6.17-3.55-10.94-9.53-15.73-13.91C306.27,287,317.59,294.61,336.21,290.19ZM193.7,234.35c4.22-.65,7.46-.79,10.46-1.71,3.18-1,6.13-2.68,9.18-4.07a19.6,19.6,0,0,0-6.78-.27c-7.21.53-14.45,1.54-21.65,1.34-3.22-.08-6.53-3.48-9,2.89Zm130.13,69.21-10-3.87c1.94,5.74,3.64,10.78,5.44,16.14C320.89,311.42,322.34,307.56,323.83,303.56Zm-89-67.36-.19,1.68c11.09,5.43,11.09,5.43,14,1.18ZM107.9,312.47l-.48.31.29.41.71-.52Z" transform="translate(-11.05 -20.1)"/><path d="M403.23,103.35h-10.7V86.45h10.7Z" transform="translate(-11.05 -20.1)"/><path d="M392.66,114h10.59v16.8H392.66Z" transform="translate(-11.05 -20.1)"/><path d="M545.35,130.88c0-14-.69-27.83.3-41.55.48-6.6,6.84-2.2,10.94-3.32v44.87Z" transform="translate(-11.05 -20.1)"/><path d="M259.57,104.54H248.16V87c10.31-3,11.44-2.19,11.42,8.12C259.57,98.14,259.57,101.14,259.57,104.54Z" transform="translate(-11.05 -20.1)"/><path d="M633,86.28v18.17H622.13V86.28Z" transform="translate(-11.05 -20.1)"/><path d="M289.16,86.26H299.7V131H289.16Z" transform="translate(-11.05 -20.1)"/><path d="M129.73,131.09H118.45V106q0-5.6,0-11.19c0-9.82.45-10.14,11.26-8.12Z" transform="translate(-11.05 -20.1)"/><path d="M90.54,102.59l-7.22.6c-3.22.29-5-.93-4.78-4.41a27.41,27.41,0,0,0-.05-5.87c-1.1-6.7,2.66-8,8-6.94,1.54.3,3.74,2.2,3.91,3.57C90.86,93.77,90.54,98.1,90.54,102.59Z" transform="translate(-11.05 -20.1)"/><path d="M477.43,174.53h-6.27V164C478.36,162.51,478.68,163,477.43,174.53Z" transform="translate(-11.05 -20.1)"/><path d="M100,163.32h6.45v11.26L100,175Z" transform="translate(-11.05 -20.1)"/><path d="M407.33,174.26l-6.14-.32V163.45h6.14Z" transform="translate(-11.05 -20.1)"/><path d="M447.37,190.75V163.46L453,163a7.87,7.87,0,0,1,.85,2.21c.08,7-.06,14,.19,21C454.16,191.32,452.1,192.49,447.37,190.75Z" transform="translate(-11.05 -20.1)"/><path d="M167.93,168.59l-5.61,5.76c-1.17-1.83-3.23-3.63-3.28-5.49s1.84-3.89,2.88-5.84Z" transform="translate(-11.05 -20.1)"/><path d="M76.39,162.5c2.7.75,5.94.77,6.53,2a9.93,9.93,0,0,1,0,7.5c-.59,1.29-3.83,1.37-6.58,2.21Z" transform="translate(-11.05 -20.1)"/><path d="M601,454.63V440.89C604.89,443.56,605.17,449.74,601,454.63Z" transform="translate(-11.05 -20.1)"/><path d="M435.92,440.92V454.1l-1.82,0V440.73Z" transform="translate(-11.05 -20.1)"/><path d="M37,51.06c-1.2-.5-3-.68-3.47-1.56-1.14-2.28-2.58-5.09-2.07-7.26.29-1.2,5.39-2.81,6.29-2,1.68,1.52,2.36,4.65,2.47,7.16.05,1.2-2.17,2.49-3.39,3.75Z" transform="translate(-11.05 -20.1)"/><path d="M42,73.7c-.57,1.4-.79,3.64-1.77,4-2.32,1-5.19,1.76-7.45,1.16-1.05-.28-2.3-4.79-1.47-5.94,1.19-1.64,4.21-2.62,6.45-2.61,1.45,0,2.89,2.26,4.36,3.53A1.86,1.86,0,0,1,42,73.7Z" transform="translate(-11.05 -20.1)"/><path d="M64.7,528.44c1.21.47,3,.6,3.5,1.47,1.2,2.2,2.7,4.91,2.28,7.07-.23,1.17-5.2,2.92-6.12,2.14-1.72-1.44-2.53-4.5-2.73-7-.1-1.18,2.07-2.53,3.24-3.82Z" transform="translate(-11.05 -20.1)"/><path d="M42.11,533.53c-.63,1.39-.93,3.61-1.93,4-2.38.91-5.28,1.66-7.57,1-1-.28-2.15-4.88-1.27-6.07,1.22-1.64,4.3-2.58,6.56-2.53,1.45,0,2.85,2.4,4.29,3.74C42.21,533.73,42.11,533.53,42.11,533.53Z" transform="translate(-11.05 -20.1)"/><path d="M99,51.2c-1.14-.58-2.87-.87-3.31-1.78a50.93,50.93,0,0,1-2.34-7.3c2.3-.68,5.81-2.59,6.63-1.78,1.63,1.61,2.26,4.71,2.31,7.21,0,1.21-2.21,2.47-3.45,3.72C98.78,51.29,99,51.2,99,51.2Z" transform="translate(-11.05 -20.1)"/><path d="M42.08,227c-.63,1.37-.93,3.46-2,4-2.11,1-5.24,2.25-6.83,1.37s-2.71-4.91-1.9-6.38,4.25-2.46,6.5-2.39c1.46,0,2.86,2.32,4.31,3.62Z" transform="translate(-11.05 -20.1)"/><path d="M161.13,51.17c-1.15-.56-2.88-.82-3.34-1.72a52.25,52.25,0,0,1-2.47-7.27c2.28-.71,5.73-2.66,6.6-1.85,1.64,1.54,2.29,4.64,2.37,7.12,0,1.23-2.12,2.52-3.31,3.81Z" transform="translate(-11.05 -20.1)"/><path d="M43.58,381.06c-3.65,2.44-5.8,5-7.7,4.83s-3.48-3.12-5.21-4.85c1.88-1.67,3.58-4.3,5.69-4.69C38,376.06,40.07,378.64,43.58,381.06Z" transform="translate(-11.05 -20.1)"/><path d="M42.1,196.81a4.71,4.71,0,0,1-.77,1c-2.21,1.59-4.31,3.58-6.78,4.43-.74.25-3.53-2.68-3.66-4.3s2-5,2.88-4.89c2.6.21,5.11,1.75,7.62,2.84.34.15.51.69.77,1.08C42.17,197,42.1,196.81,42.1,196.81Z" transform="translate(-11.05 -20.1)"/><path d="M41.69,501.19c-.18,1.07-.26,2.17-.54,3.22-1,4-4.11,5.53-7.45,3.82-1.59-.81-3.07-4.58-2.49-6.32,1.2-3.63,4.49-4.43,8-2.42a29.52,29.52,0,0,1,2.63,1.89Z" transform="translate(-11.05 -20.1)"/><path d="M42,287.55c-.61,1.61-.79,4-1.94,4.64a10.53,10.53,0,0,1-7,1.23c-1.15-.29-2.6-3.89-2-5.22.71-1.72,3.29-3.64,5.09-3.65,2,0,4,2,6,3.17Z" transform="translate(-11.05 -20.1)"/><path d="M42,257.31c-.58,1.39-.81,3.57-1.8,4-2.32,1-5.14,1.86-7.47,1.37-1-.2-2.32-4.76-1.5-5.92,1.17-1.66,4.18-2.68,6.41-2.71,1.47,0,3,2.19,4.48,3.42Z" transform="translate(-11.05 -20.1)"/><path d="M251.12,528.28c1.36.66,3.42,1,3.92,2,1,2.15,2.06,5,1.38,7-.44,1.25-4.77,2.61-5.88,1.83-1.68-1.18-2.74-4.18-2.77-6.42,0-1.47,2.24-3,3.51-4.48C251.3,528.19,251.12,528.28,251.12,528.28Z" transform="translate(-11.05 -20.1)"/><path d="M41.89,103.87c-.6,1.61-.76,4.06-1.9,4.66a10.48,10.48,0,0,1-7,1.2c-1.16-.32-2.6-3.92-2.05-5.26a6.82,6.82,0,0,1,5.1-3.58c2,0,4,2,5.95,3.16A2,2,0,0,0,41.89,103.87Z" transform="translate(-11.05 -20.1)"/><path d="M42,440.83c-.54,1.42-.68,3.5-1.7,4.1-2,1.18-4.75,2.45-6.7,1.91-1.38-.38-3.18-4.29-2.57-5.54.87-1.79,3.72-3.39,5.83-3.54,1.67-.12,3.5,2.06,5.28,3.24Z" transform="translate(-11.05 -20.1)"/><path d="M42.16,410.7c-.55,1.16-.8,2.93-1.7,3.37-2.27,1.1-5.05,2.52-7.18,2-1.2-.29-2.75-5.41-2-6.22,1.59-1.63,4.67-2.3,7.16-2.37,1.21,0,2.49,2.17,3.76,3.38C42.26,410.89,42.16,410.7,42.16,410.7Z" transform="translate(-11.05 -20.1)"/><path d="M41.74,164.4c-.15.86-.29,1.72-.46,2.58-.9,4.42-3.88,6.21-7.67,4.33-1.56-.78-3-4.71-2.4-6.37,1.55-4,5-4.38,8.63-1.94.71.49,1.37,1.05,2.07,1.58Z" transform="translate(-11.05 -20.1)"/><path d="M285.13,51.35c-1.07-.62-2.72-1-3.11-1.91a63.63,63.63,0,0,1-2.27-7.77c2.37-.41,6.06-1.9,6.81-1,1.45,1.76,1.6,4.9,1.52,7.44,0,1.11-2,2.16-3.08,3.26C285,51.41,285.13,51.35,285.13,51.35Z" transform="translate(-11.05 -20.1)"/><path d="M223.14,51.23c-1.12-.58-2.81-.87-3.26-1.79a53.05,53.05,0,0,1-2.47-7.23c2.28-.71,5.77-2.65,6.59-1.85,1.63,1.59,2.28,4.67,2.35,7.16,0,1.23-2.15,2.51-3.35,3.78Z" transform="translate(-11.05 -20.1)"/><path d="M74.46,45.09c-3.4,2.45-5.52,5.12-7,4.82-2.13-.42-3.82-3.07-5.7-4.77,1.69-1.83,3.24-5,5.11-5.15S70.85,42.52,74.46,45.09Z" transform="translate(-11.05 -20.1)"/><path d="M94.59,528.75c1.08.19,2.16.34,3.22.59,4.06.94,5.74,3.86,4,7.29-.82,1.61-4.58,3.14-6.33,2.58-3.6-1.16-4.6-4.4-2.56-8a31.59,31.59,0,0,1,1.87-2.64Z" transform="translate(-11.05 -20.1)"/><path d="M41.69,317.6c-.58,3.47-.86,7.5-5.63,7.35-1.74-.06-4.31-1.69-4.88-3.21s.89-5.51,1.43-5.5c3.08,0,6.16.93,9.24,1.55Z" transform="translate(-11.05 -20.1)"/><path d="M35.84,358.43c-2.54-3.86-5.22-6.18-4.87-7.88.4-2,3.26-4.43,5.39-4.81,1.31-.24,4.56,3,4.56,4.7C40.93,352.49,38.46,354.57,35.84,358.43Z" transform="translate(-11.05 -20.1)"/><path d="M189,528.33c1.17.53,3,.76,3.41,1.65,1.11,2.27,2.29,4.92,2,7.26-.1.93-5.14,2.63-5.77,2a12.18,12.18,0,0,1-2.78-7.06c-.1-1.19,2.09-2.57,3.26-3.89Z" transform="translate(-11.05 -20.1)"/><path d="M126.89,528.35c1.18.5,3,.69,3.41,1.56,1.16,2.24,2.63,5,2.16,7.11-.27,1.19-5.29,2.85-6.17,2.06-1.68-1.49-2.41-4.57-2.54-7-.07-1.19,2.11-2.51,3.3-3.78Z" transform="translate(-11.05 -20.1)"/><path d="M128.71,52.5c-2.3-3.73-4.83-6-4.56-7.88s3.34-3.34,5.18-5c1.6,2,4.16,3.8,4.47,5.95C134,47.17,131.29,49.17,128.71,52.5Z" transform="translate(-11.05 -20.1)"/><path d="M41.92,134.26c-.47,1.45-.53,3.67-1.49,4.19-2.21,1.18-5,2.24-7.3,1.91-1-.14-2.72-4.91-2-5.69a11.94,11.94,0,0,1,6.86-3.2c1.19-.17,2.71,1.89,4.1,3Z" transform="translate(-11.05 -20.1)"/><path d="M41.8,471c-.19.85-.35,1.71-.58,2.54-1.16,4.18-4,6.26-7.74,3.9-1.55-1-2.66-5.2-1.82-6.88,1.7-3.44,5.14-3.57,8.29-1,.67.54,1.34,1.1,2,1.66Z" transform="translate(-11.05 -20.1)"/><path d="M347.51,51.16c-1.34-.63-3.41-.93-3.88-2-1-2.27-2-5-1.53-7.33.18-1,5.14-2.35,5.84-1.6,1.59,1.72,2.39,4.6,2.53,7.07.08,1.24-2,2.6-3.1,3.93Z" transform="translate(-11.05 -20.1)"/><path d="M156.7,528.72c1.07.22,2.14.43,3.2.66,4.11.92,5.75,3.81,3.91,7.25-.86,1.61-4.58,3.12-6.31,2.56-3.61-1.18-4.54-4.44-2.47-8,.53-.93,1.23-1.76,1.86-2.65Z" transform="translate(-11.05 -20.1)"/><path d="M260.61,44.71c-3.45,2.61-5.58,5.39-7.09,5.09a8.54,8.54,0,0,1-5.39-5c-.37-1.08,2.76-4.71,4.41-4.79C254.61,40,256.78,42.34,260.61,44.71Z" transform="translate(-11.05 -20.1)"/><path d="M191,37c2.5,4,4.89,6.1,4.84,8.17,0,1.68-3,3.29-4.68,4.93-1.73-1.85-4.38-3.48-4.87-5.61C185.91,43,188.46,40.77,191,37Z" transform="translate(-11.05 -20.1)"/><path d="M692.61,45.83c-2.1,1.28-4.22,3.59-6.28,3.54-1.73,0-3.39-2.86-5.07-4.44,1.62-1.67,3.11-4.48,4.9-4.69,2-.22,4.23,1.94,6.36,3Z" transform="translate(-11.05 -20.1)"/><path d="M314.83,52.44c-2.32-3.8-4.66-6-4.59-8.07.05-1.6,3.74-4.67,4.82-4.28a8.44,8.44,0,0,1,4.88,5.4C320.22,47,317.42,49.09,314.83,52.44Z" transform="translate(-11.05 -20.1)"/><path d="M554.94,534.23c3.71-2.35,5.81-4.73,7.5-4.47,1.87.29,4.58,2.93,4.67,4.67s-2.72,4.9-4.23,4.88C560.81,539.28,558.77,536.84,554.94,534.23Z" transform="translate(-11.05 -20.1)"/><path d="M384,535c-3.93,2.33-6.36,4.81-7.67,4.31-2-.76-4-3.39-4.49-5.58-.25-1.06,3-4.25,4.33-4.09C378.3,529.94,380.17,532.24,384,535Z" transform="translate(-11.05 -20.1)"/><path d="M218.74,528.74c1,.23,2.12.42,3.16.69,3.89,1,5.86,3.66,3.82,7.19-.93,1.61-4.55,3.12-6.24,2.55-3.6-1.21-4.38-4.47-2.36-8,.53-.92,1.2-1.76,1.8-2.64Z" transform="translate(-11.05 -20.1)"/><path d="M445.85,534.16c-3.41,2.69-5.5,5.47-6.85,5.14a8,8,0,0,1-5-4.95c-.32-1.17,2.63-4.35,4.4-4.61S442.17,531.84,445.85,534.16Z" transform="translate(-11.05 -20.1)"/><path d="M377.56,37.14c2.27,4,4.57,6.29,4.4,8.36-.14,1.65-3.85,4.64-5,4.23a8.37,8.37,0,0,1-4.71-5.53C372,42.67,374.8,40.65,377.56,37.14Z" transform="translate(-11.05 -20.1)"/><path d="M313.21,528.2c1.12.59,2.8.92,3.23,1.83,1.08,2.29,2.24,4.92,2,7.27-.09.89-5.24,2.53-5.8,1.87a12.45,12.45,0,0,1-2.57-7.13c-.07-1.24,2.09-2.59,3.27-3.9Z" transform="translate(-11.05 -20.1)"/><path d="M539.89,45.4c-3.93,2.3-6.1,4.6-7.75,4.27-1.83-.37-4.37-3.11-4.4-4.85s2.81-4.79,4.31-4.74C534.08,40.15,536,42.62,539.89,45.4Z" transform="translate(-11.05 -20.1)"/><path d="M409.76,51c-1.6-.67-4-.94-4.61-2.12-1-2.09-1.77-5.1-.95-7,.54-1.24,4.58-2.2,6.09-1.42s2.53,3.89,2.49,5.95c0,1.59-2,3.15-3.18,4.74Z" transform="translate(-11.05 -20.1)"/><path d="M502.29,39c1.28,2.07,3.6,4.18,3.53,6.21-.06,1.69-2.95,4.61-4.53,4.57-1.75,0-4.65-2.68-4.84-4.43-.2-2,2.07-4.18,3.27-6.28Z" transform="translate(-11.05 -20.1)"/><path d="M500.59,542.27c-2.5-3.75-4.88-5.74-4.76-7.56s2.72-3.53,4.23-5.29c1.77,1.74,4.49,3.25,5,5.31C505.46,536.24,503,538.48,500.59,542.27Z" transform="translate(-11.05 -20.1)"/><path d="M446.64,45c-3.46,2.4-5.67,5.06-7.19,4.71-2.07-.48-4.45-3-5.05-5.14-.31-1.1,2.93-4.56,4.51-4.52C441,40.13,443,42.56,446.64,45Z" transform="translate(-11.05 -20.1)"/><path d="M601.75,44.88c-3.51,2.5-5.48,5-7.16,4.82-1.84-.2-4.9-3.06-4.74-4.44a7.41,7.41,0,0,1,4.61-5.18C595.94,39.72,598.16,42.38,601.75,44.88Z" transform="translate(-11.05 -20.1)"/><path d="M680.62,322.27c.67-1.58.91-3.87,2.09-4.57,1.81-1.08,4.54-1.86,6.36-1.24,1.32.45,2.87,3.8,2.37,5.09a6.83,6.83,0,0,1-5,3.67c-1.95,0-3.94-2-5.92-3.12A1.55,1.55,0,0,0,680.62,322.27Z" transform="translate(-11.05 -20.1)"/><path d="M694.55,197.84c-3.86,2.54-5.83,4.85-7.68,4.76s-3.69-2.54-5.54-3.95c1.76-1.81,3.27-4.55,5.36-5.12C688.24,193.11,690.56,195.52,694.55,197.84Z" transform="translate(-11.05 -20.1)"/><path d="M563.42,37c2.36,4,4.64,6.23,4.52,8.27-.11,1.68-3.06,3.19-4.75,4.77-1.67-1.86-4.27-3.55-4.68-5.66C558.21,42.87,560.8,40.77,563.42,37Z" transform="translate(-11.05 -20.1)"/><path d="M624.53,542.14c-2.42-3.67-4.81-5.69-4.66-7.51s2.82-3.44,4.38-5.15c1.76,1.75,4.5,3.28,5,5.33C629.57,536.33,627,538.52,624.53,542.14Z" transform="translate(-11.05 -20.1)"/><path d="M477.83,45.15c-3.81,2.42-5.93,4.81-7.6,4.54-1.85-.31-4.45-3-4.57-4.78-.1-1.61,2.7-4.81,4.22-4.8C471.91,40.11,473.94,42.52,477.83,45.15Z" transform="translate(-11.05 -20.1)"/><path d="M680.81,138.83a24.41,24.41,0,0,1,.49-2.55c1.3-4.41,4.73-5.25,8.07-3.38,1.35.75,1.15,4.29,1.65,6.57-2.82.29-5.64.7-8.46.8-.62,0-1.28-1.06-1.92-1.64Z" transform="translate(-11.05 -20.1)"/><path d="M686,389.07c-2.17-3.37-4.63-5.51-4.35-7.2s3.45-4.7,4.86-4.44a7.41,7.41,0,0,1,4.89,5C691.61,384,688.67,386,686,389.07Z" transform="translate(-11.05 -20.1)"/><path d="M290.82,534.1c-3.46,2.76-5.49,5.54-6.92,5.26a8.27,8.27,0,0,1-5.36-4.77c-.38-1.13,2.55-4.68,4.21-4.85C284.71,529.55,286.91,531.84,290.82,534.1Z" transform="translate(-11.05 -20.1)"/><path d="M632.78,45.21c-3.63,2.36-5.92,4.92-7.35,4.51a8.12,8.12,0,0,1-4.78-5.26c-.26-1.17,3-4.44,4.55-4.38C627.23,40.15,629.17,42.61,632.78,45.21Z" transform="translate(-11.05 -20.1)"/><path d="M694.19,534.22c-3.51,2.66-5.66,5.44-7.06,5.1-2.11-.52-3.69-3.21-5.49-5,1.65-1.62,3.17-4.31,5-4.55S690.47,531.9,694.19,534.22Z" transform="translate(-11.05 -20.1)"/><path d="M692.51,352.54c-2.17,1.18-4.32,3.21-6.51,3.25-1.53,0-3.11-2.67-4.68-4.15,1.82-1.72,3.41-4.38,5.52-4.87,1.55-.37,3.77,2.08,5.69,3.28Z" transform="translate(-11.05 -20.1)"/><path d="M680.72,108.43c.43-1.46.43-3.67,1.38-4.2,2.16-1.23,4.85-2.29,7.18-2,.92.1,2.65,4.68,1.91,5.73-1.21,1.72-4.08,2.74-6.38,3-1.28.17-2.83-1.72-4.26-2.7C680.53,108.24,680.72,108.43,680.72,108.43Z" transform="translate(-11.05 -20.1)"/><path d="M664,44.74c-3.72,2.64-5.69,5.13-7.37,4.94-1.84-.21-4.55-2.76-4.74-4.52s2.41-5,3.9-5C657.83,40,660,42.3,664,44.74Z" transform="translate(-11.05 -20.1)"/><path d="M529.63,528.31c1.15.48,2.87.64,3.34,1.49a58.28,58.28,0,0,1,3,7.36c-2.25.65-5.73,2.5-6.5,1.71-1.58-1.63-2.09-4.64-2.29-7.13-.08-1.1,1.67-2.35,2.61-3.54Z" transform="translate(-11.05 -20.1)"/><path d="M680.67,445.27c.3-1,.58-2,.9-3.07,1.29-4.08,4.39-5.07,7.62-3.15,1.43.85,1.53,3.92,2.24,6-2.79.67-5.56,1.51-8.38,1.9-.75.11-1.69-1.16-2.55-1.82Z" transform="translate(-11.05 -20.1)"/><path d="M686.53,221.32c2.57,3.46,5.31,5.63,5,7a8.07,8.07,0,0,1-5.07,5c-1.32.3-4.78-2.72-4.79-4.26C681.62,227.08,684.05,225,686.53,221.32Z" transform="translate(-11.05 -20.1)"/><path d="M680.6,475.53c.55-1.41.71-3.54,1.72-4.09,2.08-1.11,4.83-2.2,6.88-1.66,1.15.3,2.62,4.78,1.87,5.75-1.3,1.67-4.19,2.58-6.5,2.78-1.27.11-2.72-1.87-4.11-2.93Z" transform="translate(-11.05 -20.1)"/><path d="M680.65,291.93c.5-1.42.6-3.61,1.57-4.1,2.21-1.12,4.94-2.06,7.26-1.72.9.13,2.42,4.75,1.63,5.8-1.24,1.65-4.16,2.52-6.45,2.7-1.3.11-2.76-1.82-4.16-2.85A2,2,0,0,0,680.65,291.93Z" transform="translate(-11.05 -20.1)"/><path d="M692.57,76.82c-2.11,1.29-4.27,3.63-6.32,3.55-1.71-.07-4.63-3.05-4.57-4.66.05-1.77,2.8-4.69,4.55-4.83,2-.16,4.2,2.2,6.31,3.47Z" transform="translate(-11.05 -20.1)"/><path d="M345.69,526.74c2.22,4.15,4.46,6.45,4.23,8.47-.19,1.66-3.3,3-5.11,4.46-1.5-1.85-4.05-3.63-4.19-5.59C340.49,532.34,343,530.4,345.69,526.74Z" transform="translate(-11.05 -20.1)"/><path d="M407,527c2.58,3.55,5.23,5.64,4.95,7.21-.36,2-3.05,3.67-4.74,5.48-1.62-1.72-4.26-3.29-4.55-5.2C402.45,532.73,404.78,530.62,407,527Z" transform="translate(-11.05 -20.1)"/><path d="M686.38,160.35c2.61,3.29,5.46,5.49,5.09,6.72-.63,2.11-3.07,4.63-5.14,5-1.34.27-4.48-2.71-4.76-4.55C681.31,165.93,683.89,163.86,686.38,160.35Z" transform="translate(-11.05 -20.1)"/><path d="M591.75,528.26c1.12.5,2.79.71,3.26,1.56a59.55,59.55,0,0,1,2.92,7.31l-6.74,2c-.69-2.46-1.75-4.9-1.92-7.39-.07-1.11,1.66-2.35,2.59-3.55Z" transform="translate(-11.05 -20.1)"/><path d="M680.73,261.7c.5-1.65.51-4.1,1.61-4.78a10.37,10.37,0,0,1,6.81-1.57c1.15.25,2.86,4.19,2.26,5.11a9.69,9.69,0,0,1-5.91,3.75c-1.44.26-3.28-1.71-5-2.69Z" transform="translate(-11.05 -20.1)"/><path d="M653.89,528.21c1.09.54,2.7.8,3.17,1.67A61.28,61.28,0,0,1,660,537.2l-6.79,1.92c-.65-2.48-1.67-4.94-1.8-7.44,0-1.13,1.67-2.35,2.61-3.56Z" transform="translate(-11.05 -20.1)"/><path d="M467.53,528.32c1.15.47,2.86.62,3.34,1.47a57.88,57.88,0,0,1,3,7.31l-6.71,2.06c-.75-2.45-1.85-4.87-2.06-7.36-.09-1.12,1.62-2.38,2.53-3.6Z" transform="translate(-11.05 -20.1)"/><path d="M680.8,415.05c.84-3.3.88-7.47,5.67-7.39,1.6,0,4.08,1.45,4.54,2.79.55,1.63-.58,5.53-1,5.54a58,58,0,0,1-9.38-1.13Z" transform="translate(-11.05 -20.1)"/><path d="M694.39,504.41c-3.84,2.41-5.88,4.72-7.7,4.56s-3.6-2.72-5.38-4.23c1.82-1.67,3.43-4.27,5.52-4.72C688.41,499.68,690.58,502.07,694.39,504.41Z" transform="translate(-11.05 -20.1)"/><path d="M199.9,417.59c-3-1.48-5.93-2.95-8.89-4.44-1.48-.74-3.12-2.41-4.36-2.15-7.84,1.64-7.69-5.14-10.16-9.17,3.58-2.34,7-5.06,10.77-6.94,6.78-3.36,13.81-6.22,20.73-9.29l6.84-3.48-.29.18,2.86-2.16V377.5l2.64-1.14,0-2.18-.21.17,2.89-1.47-.22.18,4.11-.08,5.8-1.3,5,0,6.49-2.52,3.2-.2a36.85,36.85,0,0,1,1.78,4.79c.5,2.12.67,4.32,1,6.48l-4.65,6.53,7.85,3.53c.56,1.15,1.52,3.1,2.48,5l-5,2.47-5.41,1.53-3.91,1.45-2.72,1.33-4.78-.14-15.21,6.8Zm14.92-20.93-2.88,2,3.31.78,3.49-2.11,0,.11-4.23-.63Zm26.43-4.2-.36-.85-3.73,1.62.33.76Zm-22,.19.83-.55c-.12-.14-.24-.39-.36-.39a6,6,0,0,0-1,.21Z" transform="translate(-11.05 -20.1)"/><path d="M212.09,285.66c-4.34-.45-8.68-.93-13-1.34-5.74-.55-11.62-2-17.21-1.33a91.19,91.19,0,0,0-22.34,5.74,69.69,69.69,0,0,0-28.15,21.32,26.14,26.14,0,0,1-8.63,7.37l.73-4.18-6.07-.67c.94-1,1.86-1.94,2.79-2.91,6.28-7,11.83-14.81,19-20.59,6.71-5.37,15.11-8.72,22.94-12.61a42.68,42.68,0,0,1,25-4.2c4.3.57,8.69.39,13,.81a45.72,45.72,0,0,1,6.42,1.54c5.69.26,11.46,2.75,13.09,7.32Z" transform="translate(-11.05 -20.1)"/><path d="M260.9,426.33l-10.23,4.82-5.32-1.57-2.69.11-.16-.13-.12-1.25c0-.94,0-1.87,0-2.81q2-4.11,4-8.21l7.75-1.84,4.7-1.49,4.68-.06,3.85.06,1.48.37v.52l-3,2.54,3.08.58-.13-.17c0,.71,0,1.43,0,2.15l-2.63,1.14-.05,2.17.23-.18-2.88,1.48.2-.16Z" transform="translate(-11.05 -20.1)"/><path d="M218.52,408.8l15.21-6.8,4.7,1.26,4.13,1.36q-2.09,5.36-4.16,10.7l-1.05.44a.5.5,0,0,0-.75.29l-3.86,1.5-.22.07-.64.84-2.62,2.18-3.88,1.29-2.73,1.35-1.35-.54Q219.91,415.78,218.52,408.8Z" transform="translate(-11.05 -20.1)"/><path d="M268.84,414.85v-.52l1.39-1.95c0-.38-.07-.76-.08-1.14l.09-2,2.65-1.18-1.39-2.6,6.92-3.53,9-4.07q1.13,3.93,2.27,7.87c-.39,1-.77,1.95-1.16,2.92l-17,6.32Z" transform="translate(-11.05 -20.1)"/><path d="M276,277.68l8.7,6-2.51,3.48-2.71,1.35-4,1.29-4.1-.12h-7.27l-2.87,0-4.4.19.17-2.17,2.73-1.7L272.9,281c0-.65,0-1.31,0-2l-.23.19,2.85-1.46Z" transform="translate(-11.05 -20.1)"/><path d="M249.16,288.36c-2.24-.44-4.49-.8-6.71-1.33-3.13-.74-3.39-2.77-2.2-5.35l10.08-4.46,3.66-.52,5.52-1.47,4.19-.13c-1,1.14-1.95,2.27-2.92,3.4v.1l-2.57,3.95-2.62,1.75c0,.52,0,1-.05,1.56l.22-.17-6.84,2.79Z" transform="translate(-11.05 -20.1)"/><path d="M231.88,418.46l.64-.84.22-.07,3.85-1.49.46.07.3-.37,1.05-.44,8,2q-2,4.11-4,8.21l-3.95,1.63-6.59-3.46,1.45-2.07-.54-2.6A.62.62,0,0,1,231.88,418.46Z" transform="translate(-11.05 -20.1)"/><path d="M235.81,446.47c.82-6.2,7.83-10,15.78-8.32-1,5.69-5.91,6.88-10.06,8.86L237,447l.22-.09Z" transform="translate(-11.05 -20.1)"/><path d="M257,259.25c-.72,1.73,3.61,4.25-.83,5.4l-13.64,4-1.45-1.71,6.57-6.2Z" transform="translate(-11.05 -20.1)"/><path d="M271.58,415l17-6.32c.05.63.1,1.26.14,1.88l-12.65,10-3-.24c-.08-.34-.14-.69-.21-1l-4-1.43.13.17Z" transform="translate(-11.05 -20.1)"/><path d="M258.19,267.58c2.4,0,4.8,0,7.18,0-.53,0-1.05.06-.46,0l.31-.14c.42,1,.84,2.07,1.25,3.11l-4.37.73.26-.15-2.86,1.48.21-.16h-4.15l.17.17c.88-.94,1.77-1.87,2.65-2.8l-.19.18,2-.67-2-.84-.14-.18C258.12,268.09,258.15,267.84,258.19,267.58Z" transform="translate(-11.05 -20.1)"/><path d="M274.11,275.32l1.55-.05c.11.8.21,1.61.32,2.41l-.44.11-2.85,1.46.23-.19-4.15,0,.14.15,2.72-2.79-.26.16,2.88-1.5Z" transform="translate(-11.05 -20.1)"/><path d="M304.49,324.75l.12,0-2.86,2.11.23-.19-4.14.21-.06-1.51,2.73-1.36,4.18-.69Z" transform="translate(-11.05 -20.1)"/><path d="M266.75,425.84l-3.39-.12.3-1.32-.2.16,2.88-1.48-.23.18,4.18-.2Z" transform="translate(-11.05 -20.1)"/><path d="M216.05,427.21c0-.42-.05-.84-.1-1.26l2.83-1.54-.29.15,4.22-.23c-.06.52-.13,1-.19,1.56l.19-.16-2.86,1.47.27-.15Z" transform="translate(-11.05 -20.1)"/><path d="M231.2,432.08l4.67-.95-.11-.13,0,1.51.16-.19-2.67,1.53-4-.2Z" transform="translate(-11.05 -20.1)"/><path d="M251.18,273.37l4.55-.72-.17-.17c0,.5,0,1,0,1.5l.23-.18-2.88,1.49.14-.2-4.1-.56Z" transform="translate(-11.05 -20.1)"/><path d="M229,435.81l4.25-.85c0,.5,0,1,0,1.5l-4.23-.81Z" transform="translate(-11.05 -20.1)"/><path d="M258.38,269.85l-4-.21,3.75-1.3.14.18,0,1.51Z" transform="translate(-11.05 -20.1)"/><path d="M302,328.69l-4.18.57.16.2c-.07-.5-.13-1-.19-1.5l4.15.76Z" transform="translate(-11.05 -20.1)"/><path d="M208,385.6c-6.92,3.07-14,5.93-20.73,9.29-3.8,1.88-7.19,4.6-10.77,6.94-1.63-.26-4,.08-4.76-.87-6.21-7.77-12.66-15.44-18-23.8-6.72-10.52-7.76-22.27-4.41-34.3.3-1.07,1.67-1.8,2.19-2.86,1.29-2.62,2.38-5.34,3.55-8l-1.83-.84,12.56-8.74,4.53-1,7.51-1.37-.29.16,4.25-1.49-.24.15H185c9.38-1.83,18.92-3.31,25.49-11.42q3-1.79,6-3.55l0,.14c2.91,1.42,5.92,2.7,8.71,4.33a13,13,0,0,1,4.7,4c1.13,1.89,1.31,4.36,1.9,6.57l.22-.24-2.93,1.51.27-.16-2.81.05-27.67,11.28-2.61.72h-3.9l-2.69,1.35-4.18,1.29.29-.17-2.89,1.48.17-.18-3.31,1,4,.49,5.09-1.33,4.63-1.46,1.42.48-6.66,5.47c.05.72.11,1.44.16,2.17L185.67,344l-3.92,1.29-2.7,1.34-2.38.45.08.65H179l3.94,0,7.37-1.2,2.77.07c4,.4,8.27,2.47,11.21-2.25v.22l2.33-3.43,4.47.2,3.31.09a4.73,4.73,0,0,1,.18.91l4.19.13-.28.11,1.45.69,6.61,3.65c-4.34,2.18-8.73,4.28-13,6.59-2.81,1.51-5.47,3.33-8.19,5l9.85,1.14,4.85,1.3,5.19.79,6.49.57v2.16c0,.86,0,1.71,0,2.57l-9.25,3.8c0,.72,0,1.44,0,2.16l.22-.18-2.89,1.47.21-.17-4.2,1.49.28-.14L213.27,377l.17-.15-3.43.57,3.42.92-.14-.15c0,.71,0,1.42,0,2.13l-2.65,1.5Z" transform="translate(-11.05 -20.1)"/><path d="M170.32,321.41l-4.53,1-2.62-.9c.68-.83,1.2-1.94,2.07-2.45,5.66-3.33,11.64-6,13.8-13.33.65-2.21,4.45-4.39,7.14-4.94,6.52-1.32,13.24-1.67,21.22-2.56l-6.82,8.08L183,317l-1.43,1.86.23-.15-4.24,1.49.29-.16Z" transform="translate(-11.05 -20.1)"/><path d="M219.7,281.93c10.7-.69,15.49,9.86,24.29,12.79l3.46.51.11.59c-.36.88-.72,1.76-1.15,2.84l2.58.21,4.14,1.37-.24,1.47.23-.17-3,0-6.18,4c-6.36,1.37-8.07-4.94-12.11-7.39-6.65-4-13.15-8.31-19.71-12.48Z" transform="translate(-11.05 -20.1)"/><path d="M243.91,305.53l6.18-4,3,0-.23.17,4.65-2.29,2.21-1.55,3.07-.15,4.71-.18,4,1.52-.12-.15v1.64a4.38,4.38,0,0,1,0,.81L270.14,305l-13.06,8.43-5.42,1.15a95.28,95.28,0,0,1-8.53-5.17C242.68,309.07,243.61,306.87,243.91,305.53Z" transform="translate(-11.05 -20.1)"/><path d="M251.66,314.57l5.42-1.15c.45,1.21.89,2.43,1.33,3.64l-16,7.59-2.51,3.48-4.84-.13-8.57,6.62-3.83-1.17-4-2.2c3.48-2.76,10.31-2.21,9.28-9.42l1.43-1.78-.27.16L232,318.7l-.22.24,1.62-.77h1.37l-.36-.79,14.41,1Z" transform="translate(-11.05 -20.1)"/><path d="M183,317l17.6-10.7,9.88,1.15c-6.57,8.11-16.11,9.59-25.5,11.42Z" transform="translate(-11.05 -20.1)"/><path d="M128.76,339.5c2.6-10,6.86-19,15.42-25.05C138.7,322.57,135.91,332.48,128.76,339.5Z" transform="translate(-11.05 -20.1)"/><path d="M123.54,354.37l4.85-1.9c.84,6.72,1.62,12.9,2.4,19.08C124.17,367.55,127.15,359.92,123.54,354.37Z" transform="translate(-11.05 -20.1)"/><path d="M118.68,375.93l-4.35-21.26,2.63-.56q2.17,10.63,4.37,21.26Z" transform="translate(-11.05 -20.1)"/><path d="M216.46,304l0-.14Z" transform="translate(-11.05 -20.1)"/><path d="M249.85,380.26c7.47,3,11.12-2.28,15-7,1.8-2.19,3.41-4.53,5.11-6.81l4.61-.19h3.66c-5.34,7.8-10,15.12-15.25,22.05-2,2.65-2.14,7.72-7.42,7-1-1.94-1.92-3.89-2.48-5l-7.85-3.53Z" transform="translate(-11.05 -20.1)"/><path d="M222.55,370.9l9.25-3.8,4.1-.86,0,1.52-2.64,1.31-2.14.55,2.16.64-.89,1.42-5.8,1.3c-.12-.53-.25-1.05-.36-1.57l1.74-.14-.18-.53-1.41.84Z" transform="translate(-11.05 -20.1)"/><path d="M246.32,366.45H250L247.09,369l-3.2.2-.08-.13c0-.49,0-1,0-1.47l-.22.17,2.89-1.5Z" transform="translate(-11.05 -20.1)"/><path d="M243.89,369.19l-6.49,2.52c-.12-.49-.25-1-.38-1.47l2.7-1.35,4.09.17Z" transform="translate(-11.05 -20.1)"/><path d="M220,376.36l-2.64,1.14-4.09.68.14.15c0-.5,0-1,0-1.49l-.17.15,2.86-1.46-.28.14Z" transform="translate(-11.05 -20.1)"/><path d="M210.65,381.81l2.65-1.5,4.09,0v-.15l-2.86,2.16.29-.18Z" transform="translate(-11.05 -20.1)"/><path d="M218.76,397.44l0-.11-3.49,2.11-3.31-.78,2.88-2-.29.15Z" transform="translate(-11.05 -20.1)"/><path d="M250.55,397.83l-1.11,3.59-4.52-.62c.07-.48.14-1,.22-1.44Z" transform="translate(-11.05 -20.1)"/><path d="M247.45,295.23l-3.46-.51,2.25-2.9,4.25-.84-.26.16,4.17-.23c0,.52,0,1,0,1.55l-2.7,1.36-4.12,1.25Z" transform="translate(-11.05 -20.1)"/><path d="M246.24,291.79c1-1.14,1.94-2.29,2.92-3.43l-.24.12H253l-.09-.14-2.72,2.79.26-.16Z" transform="translate(-11.05 -20.1)"/><path d="M285.88,376.25c-2.6-3.42-.32-6,1.52-8.6l12.06-6.49-.07-.09,2.81,5.23-1.84,2.75-1.5.59-.93,3.32-5.27,1.31-4.16,1.41.3-.15Z" transform="translate(-11.05 -20.1)"/><path d="M275.28,394c0-.66,0-1.32-.07-2l6.94-2,.47-.09,9.9.33c4.42,6.62-2.13,5.85-5.06,7.52l-9,4.07Z" transform="translate(-11.05 -20.1)"/><path d="M292.52,390.33l-9.9-.33,2.14-1.78,0-2.61,0-.57,2.73-2.91-.27.16,4.19-.05,1.83.05c.28-.74.55-1.48.83-2.23l3.72,1.54Z" transform="translate(-11.05 -20.1)"/><path d="M297,376.28l-2.85,4-6.9,2.05.27-.16-4.71.95-.88-.8c0-.48,0-1,0-1.46l1.45-.56,2-.89.39-.07-.08-.38,1.14-.08-1.14.23-1-.7c0-.51,0-1,0-1.54l1.2-.54,2.94-.76-.3.15h4.2l-.15-.13c.14.54.28,1.08.41,1.61l-1.68.17.19.51,1.33-.85Z" transform="translate(-11.05 -20.1)"/><path d="M292.66,374.27l5.27-1.31c-.33,1.16-.65,2.32-1,3.48l-4.4-.9.15.13Z" transform="translate(-11.05 -20.1)"/><path d="M298.86,369.64l1.5-.59-.26,1.26Z" transform="translate(-11.05 -20.1)"/><path d="M246.52,431.18l-2.71,1.32-4,1.33-4.12,0,.18-1.55-.16.19,1.64-.72-1.62-.79.11.13c.84-.93,1.69-1.85,2.54-2.78l4,0,.12,1.25-1.35.76.23.33,1.28-1,2.69-.11Z" transform="translate(-11.05 -20.1)"/><path d="M270.16,411.24c0,.38,0,.76.08,1.14L267.37,414l-3.85-.06c0-.46,0-.92-.07-1.38l2.71-1.35Z" transform="translate(-11.05 -20.1)"/><path d="M254.14,415.45l1.17-3.55,4.41.6-.88,1.46Z" transform="translate(-11.05 -20.1)"/><path d="M272.82,419.23c.07.34.13.69.21,1l-.14.2-2.84,1.47.22-.2-4.11-.64,2.63-1.14Z" transform="translate(-11.05 -20.1)"/><path d="M237.35,415.76l-.3.37-.46-.07A.51.51,0,0,1,237.35,415.76Z" transform="translate(-11.05 -20.1)"/><path d="M232.74,417.55l-.22.07Z" transform="translate(-11.05 -20.1)"/><path d="M292.16,357.06c.36-2.62.71-5.24,1.07-7.87l3.42-.64,2.59-3.42,2.66-.5,5.71,1.83L301.16,356l-2.42-.26Z" transform="translate(-11.05 -20.1)"/><path d="M301.9,335.35l-5.79.75c.2-.51.4-1,.61-1.54l-.25.18,2.89-1.5-.23.2,4.19-.18Z" transform="translate(-11.05 -20.1)"/><path d="M299.36,361.1l4-1.42-4,1.39.07.09Z" transform="translate(-11.05 -20.1)"/><path d="M299.16,344l2.77-2.14c0,.86,0,1.73.05,2.59Z" transform="translate(-11.05 -20.1)"/><path d="M303.07,359.85l2.86-2.1Z" transform="translate(-11.05 -20.1)"/><path d="M275.28,394l3.15,7.91-6.92,3.53-3.67.35-2,.21-3.41-3.36Z" transform="translate(-11.05 -20.1)"/><path d="M272.9,408.05l-2.65,1.18-4.14.64.18.17c0-.5,0-1,0-1.51l-.23.19,2.89-1.5-.15.21Z" transform="translate(-11.05 -20.1)"/><path d="M272.9,281,259.75,286l-.08-.13c0-.49,0-1,0-1.47l-.21.17,2.86-1.49-.21.19,2.09-.72-2.07-.8.14.18,2.69-2.82-.21.19,4.12,0-.14-.15.39,1.61-1.75.16.19.53,1.4-.85Z" transform="translate(-11.05 -20.1)"/><path d="M259.75,286l-2.73,1.7-4.07.68.09.14,2.72-2.8-.22.17,4.13,0Z" transform="translate(-11.05 -20.1)"/><path d="M258.35,292.46l2.9-2.81,2.87,0,.86,1.45-2.68,1.35-4.1-.18Z" transform="translate(-11.05 -20.1)"/><path d="M268.76,291.16l.24-1.47h2.39Z" transform="translate(-11.05 -20.1)"/><path d="M255.59,284.3l2.62-1.75,4.1-.65-.14-.18c0,.51,0,1,0,1.52l.21-.19-2.86,1.49.21-.17Z" transform="translate(-11.05 -20.1)"/><path d="M254,276.7l-1-1.61-.14.2,2.88-1.49-.23.18,4.14,0-.13-.14,0,1.41Z" transform="translate(-11.05 -20.1)"/><path d="M265,279.08l-4.22-.48v-.1l4.22-.78-.21,1.55Z" transform="translate(-11.05 -20.1)"/><path d="M300.89,318.69l.12,1.51-4.9,3.25-2.17,1.05-1.15-.36-9.48-7.89,4.79-.05,2.82.07,4.49-.21,3.84,1.29Z" transform="translate(-11.05 -20.1)"/><path d="M294.35,301l-3.12,3.35.21-.18-2.89,1.5.24-.18-4.08,1.5-4-.39,0-.54,2.62-1.92,3.9-1.28,2.72-1.35Z" transform="translate(-11.05 -20.1)"/><path d="M299.48,309.28c5.37.24.77,4.57,2.58,6.27l-4.24-.6,0-1.5,2.08-.58-2.09-.61Z" transform="translate(-11.05 -20.1)"/><path d="M291.21,297.45l5.33,1.44-2.21,2.3-4.45-.75C290.32,299.45,290.77,298.45,291.21,297.45Z" transform="translate(-11.05 -20.1)"/><path d="M291.23,304.36l4,1.18.15-.05L292.5,307l.24-.19-4.19.19.24-1.51-.24.18,2.89-1.5Z" transform="translate(-11.05 -20.1)"/><path d="M300.42,322.86l2.31-2.87,1.95,3.37Z" transform="translate(-11.05 -20.1)"/><path d="M295.25,305.54l1.47,3.07-4.22-.24.24-1.55-.24.19,2.9-1.52Z" transform="translate(-11.05 -20.1)"/><path d="M301.94,318.15l-2.83-.58,2.81-2.16C301.93,316.33,301.93,317.24,301.94,318.15Z" transform="translate(-11.05 -20.1)"/><path d="M237.06,471.9l2.16,2.83H236.4Z" transform="translate(-11.05 -20.1)"/><path d="M229.13,420.42l3.66-1.42.54,2.6-4.2.34Z" transform="translate(-11.05 -20.1)"/><path d="M283.3,292.49h3.59l-2.25,2.62.2-.18-2.89,1.5.22-.18-4.15,0,.14.14,2.49-2.8,2.86-1.34Z" transform="translate(-11.05 -20.1)"/><path d="M279.33,288.32,282,287l4.11-.66-2.67,3.58-4.1-.09C279.34,289.33,279.33,288.82,279.33,288.32Z" transform="translate(-11.05 -20.1)"/><path d="M284.64,295.11l4.06,1.33-2.58,1.31-4.13-.16.15.15,0-1.49-.22.18,2.89-1.5Z" transform="translate(-11.05 -20.1)"/><path d="M280.64,292.47l2.83-1.81c-.05.61-.11,1.22-.17,1.83l.21-.21Z" transform="translate(-11.05 -20.1)"/><path d="M263.68,273.78l-4.13,0,.13.14,0-1.48-.21.16,2.86-1.48-.26.15,4.37-.88c-.11.74-.22,1.49-.34,2.23l.2-.18L263.45,274Z" transform="translate(-11.05 -20.1)"/><path d="M263.46,275.3c.08-.5.15-1,.22-1.52l-.23.19,2.88-1.49-.2.18,3.95,1.32.21-.19-2.89,1.51.21-.21Z" transform="translate(-11.05 -20.1)"/><path d="M267.45,276.62c.05-.51.1-1,.16-1.53l-.21.21,2.89-1.51-.21.19,4,1.34.14-.2-2.88,1.5.26-.17Z" transform="translate(-11.05 -20.1)"/><path d="M270.06,423.25l.21-1.52-.22.2,2.84-1.47.14-.2,3,.24-1.89,3.41Z" transform="translate(-11.05 -20.1)"/><path d="M233.1,472.17c0-.95,0-1.9,0-2.84l1.5,0C234.1,470.26,233.6,471.21,233.1,472.17Z" transform="translate(-11.05 -20.1)"/><path d="M233.1,433.64H236l-2.85,1.51Z" transform="translate(-11.05 -20.1)"/><path d="M299.33,331.92c-.07.51-.13,1-.2,1.52l.23-.2-2.89,1.5.25-.18-4.21,0,.21.15,0-1.5-.24.19,2.9-1.51-.21.2Z" transform="translate(-11.05 -20.1)"/><path d="M295.18,330.61c0,.5,0,1,0,1.51l.21-.2-2.9,1.51.24-.19-4.05-1.32-.17.17,2.91-1.49-.23.19h4.16Z" transform="translate(-11.05 -20.1)"/><path d="M297.83,329.26l-2.65,1.35.18.17c0-.5,0-1,0-1.5l-.24.17H298Z" transform="translate(-11.05 -20.1)"/><path d="M222.52,423.07l2.67-1.32h4.12v1.51l-2.66,1.31h-4.12Z" transform="translate(-11.05 -20.1)"/><path d="M298,328.13l-2.86,1.32.24-.17-4.12-.65,2.34-1.3,4.42-.7C298,327.13,298,327.63,298,328.13Z" transform="translate(-11.05 -20.1)"/><path d="M268.78,341.18,259.57,350,253,354l-5.17,3.22-6.61,2.63-2.7,1.35-4.18,1.28.3-.15-2.87.05-6.49-.57,1.5-2.81v.17l-4.29-.67.2-.16L220,359.85l-4.77-.14-9.85-1.14c2.72-1.68,5.38-3.5,8.19-5,4.28-2.31,8.67-4.41,13-6.59l4.84-3.05c1.43,1.1,3.25,1.93,4.19,3.35,2.33,3.49,4.33,5.46,6.79.23l1.11-.14-.57-.5,2.17-1.39,1.56.6,0-.55-1.62.23c.25-.66.49-1.31.73-2l1.94-1.31,6.59-2.63,4,0,4.19,1.51a5.44,5.44,0,0,1,1,.09l5.47-.09Z" transform="translate(-11.05 -20.1)"/><path d="M227.9,321.83c1,7.21-5.8,6.66-9.28,9.42l-2.51,3.47-4,1.34-2.71,1.33-3.91,1.31L202.83,340l-4.75-.15-5.71,1.34-4.15-.71,6.66-5.47,1.25-1.8,2.72-1.86,27.67-11.28Z" transform="translate(-11.05 -20.1)"/><path d="M231.43,343.92,226.59,347,220,343.32l1.38-2.81,0,.18,2.78-4.19v.17l2.37-2.05,8.57-6.62,4.84,1.4h3.79l1.39.33c-.43,2.15-.87,4.31-1.31,6.46l-.52-.12-11,1.29C232.08,339,231.76,341.44,231.43,343.92Z" transform="translate(-11.05 -20.1)"/><path d="M211.13,341.39l2.33-2.87-.23.19,4.18-.19c0,.5-.11,1-.17,1.5l.21-.15-2.84,1.45-.17.16Z" transform="translate(-11.05 -20.1)"/><path d="M221.34,340.69l0-.18-2.83,2.12.28-.11-4.19-.13a4.73,4.73,0,0,0-.18-.91l.17-.16,2.84-1.45-.21.15Z" transform="translate(-11.05 -20.1)"/><path d="M188.83,336l-5.09,1.33c-.23-.5-.46-1-.7-1.48l-.17.18,2.89-1.48-.29.17,4.31-.22C189.46,335,189.14,335.52,188.83,336Z" transform="translate(-11.05 -20.1)"/><path d="M196.1,343.81l-3,2.84-2.77-.07-.85-1.43,2.68-1.35,4.11.19Z" transform="translate(-11.05 -20.1)"/><path d="M231.76,364.53v-.27l2.87-1.94-.3.15,4.24-.21c0,.51,0,1,0,1.54l-2.69,1.34Z" transform="translate(-11.05 -20.1)"/><polygon points="193.27 324.3 192.94 324.48 193.28 324.52 193.27 324.3"/><path d="M251.8,296.25l-4.24-.43-.11-.59.17-.16,4.16,0-.18-.15,0,1.5Z" transform="translate(-11.05 -20.1)"/><path d="M280.7,306.07l0,.54c-1.46,2-1.44,3.16,1.48,2.81l-.57,2.22-2.23,1.13.15,2.15-2.69,1.34-3.92,1.31-2.82-.12-11.67-.39c-.44-1.21-.88-2.43-1.33-3.64L270.14,305l2.67-.84,4.05,1.47,3.31.13.41-.08Z" transform="translate(-11.05 -20.1)"/><path d="M271.43,301.36a4.38,4.38,0,0,0,0-.81l1.65-1-1.64-.62.12.15,2.49-2.8,4.12.16-.14-.14c.19.59.37,1.17.54,1.75l-1.73,0,.07.53,1.51-.65,3.73-.15-.15-.15,0,1.49.2-.19-2.88,1.49.22-.17-4,1.5Z" transform="translate(-11.05 -20.1)"/><path d="M262.82,297.72l-3.07.15-.1-.13,2.55-2.81,4.06.18-.14-.17Z" transform="translate(-11.05 -20.1)"/><path d="M252.91,300.41l.18-1.53-.21.2,2.89-1.51-.23.18h4.11l.1.13-2.21,1.55Z" transform="translate(-11.05 -20.1)"/><path d="M258.41,317.06l11.68.39c0,.57.05,1.13.08,1.7l3.19.8c-.22,1.81-.44,3.61-.65,5.42l-1.3,2.09-5.27,3v2.29l-2.63,1.16.15,2.17L261,337.4l-5.17-.32-2.42.13h-4.61l-4.84,1.42-.08-2.46h-.06c.43-2.15.87-4.31,1.3-6.46l1.42-2a3.87,3.87,0,0,1,0-.68l-4.07-2.36Z" transform="translate(-11.05 -20.1)"/><path d="M298.74,355.76l.33,2.09v-.13c.09,1.12.19,2.25.28,3.38l.11.06-12.06,6.49h-3.16l7.92-10.59Z" transform="translate(-11.05 -20.1)"/><path d="M274.54,366.27l-4.61.19c-.22-6.91,4.36-10.58,9.43-13.93.16,1.88,1,4.05.33,5.56C278.42,361,276.31,363.57,274.54,366.27Z" transform="translate(-11.05 -20.1)"/><path d="M284.75,385l0,.57,0,2.61L282.62,390l-.47.09-4.11,0,.13.15-.32-1.75,1.09-.33-.86.56-2.72,1.51.18-.15c-.26-.72-.91-2-.73-2.09,2-1.47,4.07-2.76,6.13-4.09Z" transform="translate(-11.05 -20.1)"/><path d="M298.67,341.21l-3.5,2.77.19-.18-1.64.54,1.62,1-.16-.18-2.7,2.8.13-.21-4.28-1.83c.56.08,1.11.17.49.07l-.48.14Z" transform="translate(-11.05 -20.1)"/><path d="M294,336.14l-3.92,1.65-4.16-.58.16.17-.19-1.5,6.79-1.14-.21-.15Z" transform="translate(-11.05 -20.1)"/><path d="M283.3,341.57l.18-1.73-.23.2,2.91-1.52-.21.22,4.18-.71Z" transform="translate(-11.05 -20.1)"/><path d="M242.34,404.77c0-.51.1-1,.16-1.53l-.18.18,2.86-1.47-.21.16,4.47-.87Z" transform="translate(-11.05 -20.1)"/><path d="M267.84,405.8l1,1.63.15-.21-2.89,1.5.23-.19h-4.17l.19.17,3.46-2.69Z" transform="translate(-11.05 -20.1)"/><path d="M255.3,412.07l7-3.37-.19-.17v1.52l.23-.19-2.89,1.5.23-.2Z" transform="translate(-11.05 -20.1)"/><path d="M296.65,348.55l-3.42.64-.62-1.46-.13.21Z" transform="translate(-11.05 -20.1)"/><path d="M278,390.06l-2.65,2.17.15-2.18-.18.15h2.81Z" transform="translate(-11.05 -20.1)"/><path d="M253,354l6.57-4c.79,7.86-2.51,11.59-10.52,11.85l.06-.51c0-.78,0-1.55,0-2.33l2.46-1.19Z" transform="translate(-11.05 -20.1)"/><path d="M286,337.21c0,.51,0,1,0,1.53l.21-.22L283.25,340l.23-.2-5.07.31.87-1.61,2.73-1.36,4.11.2Z" transform="translate(-11.05 -20.1)"/><path d="M276.45,340.15l-7.67,1,.15.15c-.07-.5-.15-1-.22-1.48l2.72-1.35,4.14,0Z" transform="translate(-11.05 -20.1)"/><path d="M249.11,361.34l-.06.51-2.41,2.57-4.31-.57c0-.51,0-1,0-1.53L245,361Z" transform="translate(-11.05 -20.1)"/><path d="M246.64,364.26c-.11.73-.22,1.46-.32,2.19l.2-.19-2.89,1.5.22-.17-4.2.19.21-1.52-.2.18,2.88-1.49-.23.19Z" transform="translate(-11.05 -20.1)"/><path d="M245.17,400.61c-.07.5-.13,1-.2,1.5l.21-.16-2.86,1.47.18-.18-4.13.2c0-.5,0-1,0-1.51l2.67-1.31Z" transform="translate(-11.05 -20.1)"/><path d="M239.86,369.09l-2.65,1.32h-4.13c0-.51,0-1,0-1.51l2.65-1.32h4.12C239.87,368.08,239.87,368.59,239.86,369.09Z" transform="translate(-11.05 -20.1)"/><path d="M291.4,382.24l1.05-1.21c.27.41.54.83.8,1.26Z" transform="translate(-11.05 -20.1)"/><path d="M266.29,411.36l-2.65,1.33H259.5l.21-1.53-.23.2,2.89-1.5-.23.19h4.15l-.18-.17Z" transform="translate(-11.05 -20.1)"/><path d="M299.34,345.32l-4.16-.18.16.18c0-.51,0-1,0-1.52l-.19.18,4.18-.17C299.34,344.31,299.34,344.82,299.34,345.32Z" transform="translate(-11.05 -20.1)"/><path d="M299.07,357.72v.13L302,357Z" transform="translate(-11.05 -20.1)"/><path d="M257.09,289.64l-2.9,1.51Z" transform="translate(-11.05 -20.1)"/><path d="M251.59,293.61l2.66-1.32,4.1.17-.15-.15.16,1.47-2.67,1.35-4.09-.19.18.15C251.71,294.6,251.65,294.11,251.59,293.61Z" transform="translate(-11.05 -20.1)"/><path d="M279.56,289.65l-2.88,2.83.21-.2-4.13,0,.15.17,2.48-2.82Z" transform="translate(-11.05 -20.1)"/><path d="M270.26,294.92l-4.14,0,.14.17,2.72-2.82-.21.2,4.14,0-.15-.17c-.91.93-1.81,1.87-2.71,2.81Z" transform="translate(-11.05 -20.1)"/><path d="M264.8,292.48c0-.5,0-1,0-1.51H269c-.06.51-.12,1-.19,1.52l.21-.2Z" transform="translate(-11.05 -20.1)"/><path d="M267.66,276.44l-2.9,1.5Z" transform="translate(-11.05 -20.1)"/><path d="M293.59,327.33l-2.34,1.3c0,.72,0,1.44-.05,2.16l.23-.19-2.91,1.49.17-.17-4.93-.07-5.44,1.42-4.29.22.18-2.21,2.62-1.16c-.81-1,2.82-3.9-1.44-3.48l.16.15L274,325.22l1.81-1,2,.55,14.91-.63,1.15.36c0,.24,0,.48-.05.72Z" transform="translate(-11.05 -20.1)"/><path d="M293.89,325.22c0-.24,0-.48.05-.72l2.17-1.05,4.54-.78v1.5L298,325.5Z" transform="translate(-11.05 -20.1)"/><path d="M291.21,314.76c-.1.5-.19,1-.29,1.51l-2.82-.07c-.29-.48-.57-1-.85-1.44l4.12.17Z" transform="translate(-11.05 -20.1)"/><path d="M292.52,309.64l4.16-.15c-.93.94-1.87,1.87-2.81,2.8l.21-.19-4.14,0,.12.15,0-1.48-.22.17,2.86-1.48Z" transform="translate(-11.05 -20.1)"/><path d="M298,312.1v1.51l-2.66,1.33-4.13-.18.16.17c.91-.94,1.81-1.89,2.71-2.83l-.21.19Z" transform="translate(-11.05 -20.1)"/><path d="M295.19,314.75H298l-2.85,1.52Z" transform="translate(-11.05 -20.1)"/><path d="M288.6,308.13h4.12c-.07.5-.13,1-.2,1.5l.21-.16L289.87,311l.22-.17h-4.15l.15.16Z" transform="translate(-11.05 -20.1)"/><path d="M290.07,301.71,287.41,303l-4.1-.15.14.12c0-.48,0-1,0-1.46l-.19.15,2.85-1.47-.2.16,4.16-.18C290.08,300.71,290.08,301.21,290.07,301.71Z" transform="translate(-11.05 -20.1)"/><path d="M280.85,292.29l0,1.5-4.16,0c.07-.51.15-1,.22-1.55l-.21.2Z" transform="translate(-11.05 -20.1)"/><path d="M282,299.08l4.15-.19c-.07.5-.13,1-.19,1.5l.2-.16-2.85,1.47.19-.15-4.13,0,.22.21c0-.51,0-1-.05-1.53l-.22.17,2.88-1.49Z" transform="translate(-11.05 -20.1)"/><path d="M285.92,299.09l0-1.51h2.8Z" transform="translate(-11.05 -20.1)"/><path d="M222.49,358.49l4.28.67V359l-4.3.88.21-1.54Z" transform="translate(-11.05 -20.1)"/><path d="M265,339.85l-1.57,1.57a5.44,5.44,0,0,0-1-.09Z" transform="translate(-11.05 -20.1)"/><path d="M192.11,342.69l.26-1.47,5.71-1.34c.22.49.44,1,.67,1.46l.2-.17-2.89,1.51.24-.2Z" transform="translate(-11.05 -20.1)"/><path d="M224.12,336.5l-4.26.93,0-1.54,4.22.78Z" transform="translate(-11.05 -20.1)"/><path d="M239.89,329.4c-.07-.48-.14-1-.2-1.45l4.16-.05c-.06.5-.11,1-.17,1.49Z" transform="translate(-11.05 -20.1)"/><polygon points="232.78 316.07 232.44 316.28 232.19 315.96 232.72 316.08 232.78 316.07"/><path d="M202.7,339.84l2.68-1.3h4.14l-2.69,2.82H202.7Z" transform="translate(-11.05 -20.1)"/><path d="M198.75,341.34l4.17-.16-6.82,2.63.18.18c0-.5,0-1,0-1.51l-.24.2,2.89-1.51Z" transform="translate(-11.05 -20.1)"/><path d="M209.3,337.2l2.68-1.31,4.19,0-2.94,2.85.23-.19-4.15.19Z" transform="translate(-11.05 -20.1)"/><path d="M192.31,344l-2.66,1.33h-4.11V343.8l2.67-1.3h4.12C192.32,343,192.31,343.48,192.31,344Z" transform="translate(-11.05 -20.1)"/><path d="M178.92,346.44l2.68-1.3h4.17L183.05,348h-4.12Z" transform="translate(-11.05 -20.1)"/><path d="M219.88,359.64l2.84,0-2.84,1.51Z" transform="translate(-11.05 -20.1)"/><path d="M189.5,333.23l2.67-1.31h4.13l0,1.51-2.66,1.33H189.5Z" transform="translate(-11.05 -20.1)"/><path d="M235.75,365l2.65-1.32h4.12l-.21,1.52.23-.19-2.88,1.49.2-.18-4.13.19C235.73,366,235.74,365.45,235.75,365Z" transform="translate(-11.05 -20.1)"/><path d="M253.09,298.88l-4.2.19,2.91-2.82-.23.19,4.18-.2-.21,1.51.23-.18-2.89,1.51Z" transform="translate(-11.05 -20.1)"/><path d="M276.86,305.62l2.71-2.78-.24.21,4.12,0-.14-.12.15,1.46-3.29,1.4Z" transform="translate(-11.05 -20.1)"/><path d="M281.59,311.64l4.5-.68-.15-.16c0,.49,0,1,0,1.48l.21-.16-2.87,1.49.23-.21-4.13-.63Z" transform="translate(-11.05 -20.1)"/><path d="M274.24,294.93v1.5h-4.17c.06-.51.13-1,.2-1.52l-.21.19Z" transform="translate(-11.05 -20.1)"/><path d="M270.3,296.25l-2.9,1.51Z" transform="translate(-11.05 -20.1)"/><path d="M275.37,301.54l4.19.2-.22-.21c0,.51,0,1,0,1.52l.24-.21-4.23.21Z" transform="translate(-11.05 -20.1)"/><path d="M275.57,302.86l-2.88,1.5Z" transform="translate(-11.05 -20.1)"/><path d="M243.84,341.17h-4.93l5-2.54,4.84-1.42L246.33,340l.18-.18-2.86,1.48Z" transform="translate(-11.05 -20.1)"/><path d="M266.14,330.45l5.27-3,4.14-.67-.16-.15-2.72,2.8.27-.16-2.89,1.5.23-.2Z" transform="translate(-11.05 -20.1)"/><path d="M270.17,319.15l2.58-1.75,4.16,0-1.44,3-2.11-.4Z" transform="translate(-11.05 -20.1)"/><path d="M250.22,340l3.14-2.82,2.42-.13c-.47,1-.94,2-1.4,2.95Z" transform="translate(-11.05 -20.1)"/><path d="M263.51,333.9l2.63-1.16,4.11-.66-.16-.14v1.5l.19-.19-2.87,1.49.28-.15Z" transform="translate(-11.05 -20.1)"/><path d="M246.49,327.69l-2.87.45,2.85-1.13A3.87,3.87,0,0,0,246.49,327.69Z" transform="translate(-11.05 -20.1)"/><path d="M220.06,336.06h-4.15v-1.52h4.18Z" transform="translate(-11.05 -20.1)"/><path d="M219.85,334.74l2.9-1.5Z" transform="translate(-11.05 -20.1)"/><path d="M244.93,359.86l2.73-2.83,3.89.79L249.09,359Z" transform="translate(-11.05 -20.1)"/><path d="M275.35,338.71l.18-1.51-.2.18,2.88-1.49-.22.18,4.14,0-.12-.14.13,1.48-2.65,1.33Z" transform="translate(-11.05 -20.1)"/><path d="M258.17,295.12c0-.51,0-1,0-1.51h4.17c0,.5,0,1,0,1.5Z" transform="translate(-11.05 -20.1)"/><path d="M265,292.3l-2.84,1.5v-1.51Z" transform="translate(-11.05 -20.1)"/><path d="M283.76,331.85l.9,1.58.15-.15L282,334.73l.2-.15H278l.16.16.15-1.46Z" transform="translate(-11.05 -20.1)"/><path d="M270.25,332.08l0-1.5-.23.2,2.89-1.5-.27.16,4.16.68-2.62,1.16-4.12.66Z" transform="translate(-11.05 -20.1)"/><path d="M289.94,312.12l-2.54,2.8h-4.13c.08-.51.15-1,.22-1.53l-.23.21,2.87-1.49-.21.16h4.14Z" transform="translate(-11.05 -20.1)"/><path d="M283.44,316.23l-2.66,1.31-4.11,0c0-.5,0-1,0-1.51l2.67-1.3,4.11,0Z" transform="translate(-11.05 -20.1)"/><path d="M288.74,308.32h-4.16l0-1.51h4.15C288.76,307.32,288.75,307.82,288.74,308.32Z" transform="translate(-11.05 -20.1)"/><path d="M284.82,308.14l-2.89,1.51Z" transform="translate(-11.05 -20.1)"/><path d="M274,295.12l2.89-1.52Z" transform="translate(-11.05 -20.1)"/><path d="M286.1,336.07,282,335.9l.12.14,0-1.46-.2.15,2.85-1.45-.15.15Z" transform="translate(-11.05 -20.1)"/><path d="M246.33,340l4.15-.19-2.7,2.82-4.1.67.16-2.17-.19.17,2.86-1.48Z" transform="translate(-11.05 -20.1)"/><path d="M270.09,333.44l4.14-.2c-.06.5-.12,1-.19,1.51l.2-.18-2.87,1.49.22-.19-1.6.54,1.57,1-.15-.17.16,1.48L268.91,340H264.8c-.15-.61-.31-1.22-.45-1.82.57,0,1.12,0,.45,0,.66-.23.18-.06-.3.11l-3.68.38V337.2l2.69-1.31,4.18-1.3-.28.15,2.87-1.49Z" transform="translate(-11.05 -20.1)"/><path d="M261.05,338.52,258.16,340Z" transform="translate(-11.05 -20.1)"/><path d="M245.15,361.16l-2.66,1.33h-4.11V361l2.67-1.3h4.12C245.16,360.16,245.16,360.66,245.15,361.16Z" transform="translate(-11.05 -20.1)"/><path d="M217.19,338.71l2.9-1.51Z" transform="translate(-11.05 -20.1)"/><path d="M255.56,294.93h2.83l-2.84,1.5C255.56,295.94,255.56,295.44,255.56,294.93Z" transform="translate(-11.05 -20.1)"/><path d="M274,334.75l4.13,0-.16-.16,0,1.5.22-.18-2.88,1.49.2-.18-4.12,0,.15.17,0-1.52-.22.19,2.87-1.49Z" transform="translate(-11.05 -20.1)"/></svg>