<?xml version="1.0" encoding="utf-8"?>
<!-- Generator: Adobe Illustrator 26.0.1, SVG Export Plug-In . SVG Version: 6.00 Build 0)  -->
<svg version="1.1" id="Layer_1" xmlns="http://www.w3.org/2000/svg" xmlns:xlink="http://www.w3.org/1999/xlink" x="0px" y="0px"
	 viewBox="0 0 486 144" style="enable-background:new 0 0 486 144;" xml:space="preserve">
<style type="text/css">
	.st0{clip-path:url(#SVGID_00000167359865870027678880000008230838097984787612_);}
</style>
<g>
	<defs>
		<polygon id="SVGID_1_" points="29.5,13.5 0.5,57.5 29.5,73 53.5,67.5 63.5,109.5 129.5,162.5 478.97,125 494.5,33.5 393,13.5 
			152,4 112,4 		"/>
	</defs>
	<clipPath id="SVGID_00000173138841923960065220000013853558136818838945_">
		<use xlink:href="#SVGID_1_"  style="overflow:visible;"/>
	</clipPath>
	<g style="clip-path:url(#SVGID_00000173138841923960065220000013853558136818838945_);">
		<g>
			<path d="M-49.43,429.61c3.75-3.49,6.61-7.54,7.75-12.63c4.15-18.59,16.21-31.41,31.25-41.67c7.66-5.22,16.18-9.19,24.36-13.63
				c3.41-1.85,6.95-3.45,10.22-5.77c-1.73,0.45-3.47,0.88-5.19,1.35c-19.36,5.27-34.19,0.24-46.32-15.71
				c-1.44-1.89-2.83-3.89-4.59-5.44c-1.16-1.03-2.95-1.35-4.46-1.99c-0.18,0.28-0.37,0.55-0.55,0.83c0.2,0.78,0.41,1.56,0.63,2.42
				c-0.19,0.07-0.43,0.25-0.67,0.24c-2.62-0.08-4.56-1.56-5-3.91c-0.39-2.05,0.24-4.32,0.59-6.46c0.12-0.74,1.04-1.36,1.15-2.11
				c0.45-3.1,1-3.63,3.92-2.72c1.68,0.53,3.23,1.49,5.19,2.44c-0.92-8.65,3.28-16.02,5.36-23.93c0.9-3.44,0.86-7.12,1.34-10.68
				c0.11-0.81,0.56-1.57,0.86-2.35c0.9,0.35,2.23,0.44,2.61,1.09c1.25,2.1,2.15,4.41,3.24,6.74c0.13-0.04,0.44-0.04,0.61-0.19
				c9.28-8.16,23.6-9.76,36.6,1.6c4.49,3.93,7.41,8.66,7.97,14.66c0.61,6.52,1.13,13.04,1.68,19.58c-4.98,1.96-9.06-0.24-12.13-6.6
				c-5.03,1.75-6.18,0.85-7.5-5.91c-1.44-0.25-2.98-0.28-4.34-0.79c-2.32-0.88-3.75-2.62-3.59-5.25c0.16-2.55,1.51-3.57,4.01-3.16
				c1.97,0.33,4.26,1.9,5.67-0.57c1.54-2.69,0.33-5.28-1.46-7.62c0.02,0.29,0.1,0.59,0.05,0.87c-0.19,1.05-0.43,2.08-0.65,3.13
				c-1.04-0.34-2.13-0.56-3.09-1.06c-0.74-0.38-1.31-1.09-1.95-1.66c-5.02-4.56-11.3-4.73-16.51-0.3c-1.33,1.13-3.29,2.12-2.36,4.6
				c0.16,0.43-0.47,1.19-0.8,1.76c-1.01,1.72-2.04,3.44-3.09,5.14c-5.86,9.47-5.24,18.97,0.69,27.95c6.07,9.2,15.1,13.76,26,11.91
				c16.96-2.88,27.13-14.25,32.67-29.76c4.04-11.31,2.86-22.52-3.75-32.86c-0.61-0.95-1.31-1.84-2.06-2.87
				c-1.81,1.32-3.51,1.97-4.91-0.28c-1.6-2.56-0.51-5.82,2.5-8.09c-2.11-4.23-4.19-8.39-6.26-12.53c-0.35,0.13-0.59,0.14-0.68,0.25
				c-1.01,1.35-2.29,1.98-3.55,0.6c-0.48-0.53-0.53-2.16-0.08-2.66c1.2-1.31,3-1.71,4.21-0.12c1.18,1.56,1.88,3.48,2.77,5.26
				c0.5,1,0.93,2.03,1.68,2.95c-1.91-6.34-0.71-13.33-4.05-19.28c-0.39-0.02-0.57-0.05-0.74-0.03c-1.16,0.09-2.33,0.18-3.49,0.28
				c0.2-1.02,0.39-2.04,0.59-3.06c1.27,0.27,3.34,0.17,3.68,0.88c1.25,2.62,2.04,5.49,2.78,8.32c0.81,3.13,1.31,6.33,2.07,9.47
				c0.28,1.15,0.92,2.22,1.64,3.23c-1.57-9.48-1.37-19.46-7.16-27.73c-1.9-2.72-4.56-5.04-7.25-7.04c-2.13-1.59-4.91-1.44-6.72,0.73
				c-0.77,0.92-0.47,2.74-0.66,4.14c1.07,0.12,2.13,0.23,3.8,0.42c-0.65,0.94-1.19,2.34-2.2,3.04c-1.88,1.3-3.99,1.03-5.89-0.26
				c-4.59-3.13-4.35-10.12,0.58-13.28c4.23-2.71,8.63-2.35,13.07-0.28c1.1,0.51,2.42,0.53,3.65,0.76c0.09,0.02,0.19-0.05,0.28-0.05
				c2.61-0.12,9.43,5.3,10.12,7.86c0.46,1.72,1.22,3.37,2.07,5.63c-1.83,2.84-2.85,6.65-1.71,11.08c1.43-2.71,2.73-5.17,3.86-7.32
				c1.79,0.5,2.89,0.62,3.81,1.11c0.93,0.49,2.17,1.18,2.41,2.03c0.86,3.07,1.43,6.24,1.97,9.39c0.2,1.2,0.03,2.46,0.03,3.66
				c3.83,1.52,4.48,2.41,4.17,6.61c-0.22,2.94-0.6,5.88-1.15,8.77c-1.04,5.41-0.71,10.72,1.18,16.11c0.79-4.26,1.93-8.49,2.32-12.78
				c1.62-17.98-0.93-35.23-10.84-50.66c-2.92-4.56-7.36-8.13-11.04-12.22c-1.75-1.94-4.68-3.18-3.97-6.7
				c0.09-0.43-1.14-1.1-1.73-1.69c-2.62-2.61-2.44-4.56,1.31-6.96c-2.66-1.84-5.05-3.5-7.66-5.31c3.6-2.77,7.76-2.32,11.89-2.04
				c0.19-0.23,0.37-0.47,0.56-0.7c-3.33-3.07-6.67-6.15-10.02-9.24c-0.74,0.5-1.01,0.79-1.32,0.87c-0.92,0.23-1.85,0.47-2.78,0.47
				c-0.18,0-0.6-1.55-0.49-1.61c0.92-0.49,2.17-1.37,2.88-1.07c2.15,0.9,4.2,2.15,6.11,3.51c1.45,1.03,2.63,2.44,4.05,3.79
				c-2.74-6.52-11.43-13.55-17.86-14.99c-1.4,1.08-2.34,2.05-3.48,2.54c-0.46,0.2-1.93-0.59-1.96-1c-0.06-0.76,0.53-2.19,0.99-2.25
				c1.92-0.24,4.16-0.67,5.78,0.07c3.51,1.6,6.74,3.83,10.03,5.88c0.96,0.6,1.78,1.42,2.72,2.19
				c-3.19-10.29-16.63-17.37-26.64-14.03c-3.78,1.26-6.6,3.65-8.17,7.77c0.94-0.16,1.63-0.33,2.34-0.4c2.85-0.3,5.55,1.33,6.36,3.79
				c0.84,2.55-0.28,5.25-2.82,6.85c-2.65,1.66-5.15,1.44-7.29-0.64c-2.98-2.9-3.7-8.15-1.73-12.52c3.38-7.49,11.1-11.18,20.54-9.85
				c7.31,1.03,13.06,4.96,18.34,9.78c0.46,0.42,0.92,0.82,1.39,1.22c0.2-0.15,0.39-0.3,0.59-0.45c-2.08-2.87-3.98-5.89-6.28-8.57
				c-7.55-8.81-17.19-14.59-27.85-18.85c-3.62-1.45-7.22-2.95-10.75-4.59c-2.02-0.95-3.67-2.35-3.81-4.93
				c-0.03-0.56-0.69-1.23-1.24-1.6c-0.94-0.63-2.08-0.97-3.02-1.59c-2.02-1.34-3.57-2.68-4.07-5.57c-0.4-2.3-3.39-4.05-4.26-6.4
				c-1.3-3.52,0.12-5,3.88-4.54c2.42,0.3,4.77,1.13,7.19,1.74c2.55-3.3,4.15-3.86,8.52-2.27c8.89,3.24,16.63,8.42,23.58,14.74
				c4.03,3.67,7.63,7.82,11.77,11.43c-4.11-6.91-9.12-13.01-15.25-18.16c-7.32-6.15-15.62-10.01-25.14-11.37
				c-2.98-0.42-5.94-1.35-8.76-2.42c-2.49-0.94-2.49-1.84-0.49-3.77c-3.21-2.45-6.52-4.78-9.59-7.39c-2.07-1.76-3.33-4-1.29-6.82
				c-3.69-3.73-7.12-7.67-7.84-12.99c-0.44-3.23-0.08-6.57,0.27-10.01c1.63,3.34,3.9,5.7,7.46,6.58c1.52-4.64,2.79-4.88,7.4-1.29
				c0.63-0.77,1.26-1.55,2.21-2.72c0.74,1.42,1.55,2.56,1.97,3.83c1.8,5.47,5.04,10.04,8.91,14.14
				c7.18,7.61,14.44,15.17,21.85,22.56c8.57,8.55,17.02,17.18,23.51,27.5c0.14,0.22,0.41,0.36,1.16,0.28
				c-0.78-1.65-1.24-3.57-2.38-4.91c-7.28-8.54-14.63-17.03-22.12-25.38c-4.96-5.52-10.54-10.51-15.23-16.24
				c-4.62-5.63-8.74-11.72-12.58-17.92c-3.65-5.89-7.37-11.52-14.68-14.9c1.94-0.76,3.02-1.18,4.28-1.68
				c-1.96-3.37-1.94-6.68,0.76-9.83c0.35-0.41,0.07-1.38,0.02-2.09c-0.16-2.17-0.65-4.36-0.47-6.5c0.32-3.81,2.17-6.66,6.18-7.46
				c-1.37-9.1,0.31-11.28,7.49-9.84c4.69-6.76,9.14-13.98,19.26-13.86c-24.95,30.57-18.59,60.36,1.69,89.76
				c-0.37-0.79-0.71-1.6-1.12-2.37C-4.39,94.4-8.42,84.09-9.57,73c-0.57-5.5,0.35-11.15,0.65-16.73c0.03-0.64,0.17-1.5,0.59-1.86
				c1.07-0.9,2.34-1.57,3.53-2.33c0.37,0.69,1.22,1.68,1.01,2.01c-0.74,1.15-1.8,2.11-2.81,3.06c-0.19,0.18-0.71,0.03-1.3,0.03
				c-2.74,13.74,0.72,26.38,6.18,38.7c-0.69-3.41-1.48-6.81-2.03-10.25c-0.24-1.48-0.12-3.06,0.1-4.55c0.28-1.82,1.5-3,3.39-2.62
				c0.79,0.16,1.87,1.21,1.96,1.97c0.26,2.04-1.45,2.37-3,2.63c-0.45,0.08-0.9,0.1-1.83,0.2c1.74,11.42,4.69,22.09,11.66,31.26
				c0.38-0.05,0.75-0.1,1.13-0.14c0.2-2.82,0.4-5.65,0.64-9.06c1.92,1.82,3.64,3.46,5.68,5.39c0-2.54,0.08-4.82-0.02-7.09
				c-0.18-4.15,0.66-5.44,4.54-6.39c-0.07-0.76-0.14-1.55-0.28-3.11c2.14,1.01,3.86,1.82,5.74,2.7c1.22-1.84,2.44-3.99,3.96-5.91
				c1.78-2.25,3.65-4.61,7.16-2.75c0.4,0.21,1.29-0.45,1.94-0.74c2.51-1.09,4.93-2.56,7.55-3.17c2.31-0.54,5.03-0.63,5.87,2.8
				c0.16,0.65,1.24,1.06,1.89,1.59c2.62,2.14,3.95,4.88,3.49,8.28c-0.38,2.87-1.98,5.04-4.77,5.85c-1.17,0.34-2.61-0.25-3.92-0.42
				c0.29-1.07,0.64-2.13,0.85-3.21c0.26-1.32,1-3.1,0.43-3.9c-0.68-0.96-2.73-1.77-3.81-1.44c-1.88,0.58-3.89,1.76-5.06,3.3
				c-1.48,1.93-2.17,4.47-3.44,7.27c1.2-0.36,1.63-0.48,2.3-0.68c-0.55,1.49-1.06,2.85-1.59,4.29c2.16,1.47,3.16,0.06,4.32-1.93
				c1.11,5.26-0.76,9.37-2.01,13.09c1.78,0.59,4.14,0.67,5.1,1.86c1.21,1.52,1.27,3.95,1.92,6.32c3.07,0.76,3.44,1.58,2.15,5.32
				c-1.97,5.73-3.96,11.46-5.72,17.26c-0.53,1.76-0.32,3.75,0.03,5.73c0.84-2.83,1.57-5.69,2.56-8.47c0.89-2.5,1.93-4.97,3.14-7.34
				c1.75-3.45,3.16-3.51,5.4-0.44c1.41-1,2.83-2,4.85-3.42c-0.75,1.78-1.2,2.86-1.72,4.09c2.46-0.74,4.51-1.66,6.65-1.94
				c2.54-0.34,5.03,0.26,6.26,2.93c1.13,2.46,0.13,4.46-1.31,6.59c-0.71,1.05-0.96,3.41-0.28,4.22c1.84,2.19,1.36,4.16,0.32,6.48
				c1.01,0.59,1.99,1.1,2.91,1.71c2.32,1.52,3.59,3.62,3.41,6.47c-0.19,3-1.23,4.01-4.11,3.46c-3.94-0.76-6.45,0.67-8.32,4.17
				c-4.71,8.84-4.62,18.08-2.66,27.52c2.96,14.25,6.78,28.38,8.72,42.77c4.77,35.36-5.24,66.61-28.28,93.75
				c-0.55,0.65-1.12,1.28-1.4,2.33c0.79-0.56,1.6-1.08,2.35-1.68c12.01-9.45,19.18-22.2,24.53-36.16c6.54-17.06,9.4-34.84,10.38-53
				c0.19-3.61,0.62-7.21,1.17-10.78c0.93-6.04,4-10.84,9.07-14.27c2.31-1.56,4.84-1.42,5.83,0.41c0.47,0.88,0.12,2.2,0.15,3.32
				c-0.98-0.28-1.98-0.51-2.93-0.86c-0.29-0.11-0.46-0.55-0.91-1.12c-2.95,3.71-3.62,7.69-3.08,12.01c4.79,0.5,6.13,2.87,4.86,7.79
				c-0.29,1.14,0.2,2.46,0.01,3.64c-0.43,2.58-1.06,5.12-1.63,7.77c4.73,1.55,5.62,5.01,1.23,9.75c-2.16,2.34-1.95,5.21-3.08,7.72
				c-0.2,0.44-0.42,0.97-0.79,1.23c-3.99,2.88-6.62,6.83-8.62,11.19c-2.38,5.18-4.91,10.34-6.71,15.74
				c-6.08,18.3-16.47,33.75-30.14,47.18c-8.29,8.13-16.59,16.26-24.61,24.65C11.15,382,6.47,390.3,3.47,399.46
				c-2.23,6.8-2.14,13.7,0.11,20.49c1.25,3.78,3.61,6.73,7.73,7.71c5.19,1.24,9.71-2.61,9.03-7.62c-0.48-3.56-3.49-5.61-7.67-3.95
				c0.39,0.02,0.89-0.1,1.15,0.1c1.55,1.18,1.8,2.74,0.64,4.22c-0.44,0.56-2.22,0.93-2.3,0.78c-0.71-1.3-1.71-2.77-1.61-4.12
				c0.2-2.68,3.33-4.07,6.23-3.03c2.97,1.07,4.63,3.36,5.06,6.37c0.47,3.29-0.82,5.98-3.61,7.84c-4.54,3.02-10.47,2.01-14.04-2.47
				c-4.09-5.15-4.84-11.24-4.72-17.54c0.24-12.25,6.25-22.14,13.1-31.65c1.64-2.28,3.57-4.36,4.9-6.97
				c-2.29,2.42-4.67,4.76-6.84,7.29c-7.45,8.68-12.89,18.44-14.65,29.85c-2.98,19.29,9.74,38.84,28.37,40.88
				c4.96,0.54,9.42-0.77,13.81-2.7c2.44-1.07,4.8-2.31,7.27-3.31c0.77-0.31,2.24-0.43,2.56-0.01c0.52,0.7,0.84,2.24,0.41,2.83
				c-2.12,2.98-4.4,5.85-6.83,8.59c-1.28,1.44-2.72,2.47-3.58,4.5c-0.74,1.74-3.2,3.45-5.16,3.8c-3.37,0.61-6.94,0.17-10.65,0.17
				c-0.05,0.55-0.12,1.33-0.19,2.22c-4.05,0.57-7.91-0.06-11.37-1.93c-3.06-1.66-5.85-3.86-8.65-5.96c-1.46-1.1-2.46-2.23-4.81-2.1
				c-2.99,0.17-5.49-2.17-6.33-5c-1.17-3.95-1.55-8.13-2.36-12.2c-0.23-1.18-0.76-2.31-1.12-3.46c-0.64-2.04-2-4.2-1.74-6.12
				c0.84-6.18,2.26-12.29,3.5-18.42c0.2-0.98,0.57-1.92,0.62-2.93c-6,12.83-7.99,26.06-3.61,39.83c3.66,11.5,9.36,21.64,19.66,28.61
				c4.72,3.19,9.85,5.46,15.5,6.18c8.42,1.07,16.15,0.18,20.39-9.37c0.74,1.35,1.24,2.25,1.86,3.38c4.6-6.17,7.11-13,8.21-20.47
				c1.6-10.88-1.7-20.08-9.13-27.98c-2.02-2.15-4.27-4.15-5.93-6.56c-1.16-1.68-1.78-3.91-2.02-5.96c-0.11-0.95,1.07-2.36,2.03-3.02
				c0.59-0.4,2.43-0.06,2.75,0.5c0.59,1.02,0.93,2.63,0.53,3.67c-0.53,1.38-1.87,2.44-3.03,3.84c6.98,7.39,14.85,14.74,16.26,26.03
				c1.37,10.88-2.28,20.52-7.72,29.7c5.59-6.18,8.94-13.32,9.6-21.63c0.66-8.26-1.3-16.05-4.35-23.65
				c-2.44-6.09-5.05-12.12-7.19-18.31c-2.71-7.87-3.02-15.86,0.18-23.74c4.58-11.28,18.26-16.44,29.35-11.11
				c10.88,5.23,15.25,19.53,9.19,30.07c-6.08,10.57-20.24,11.45-28.83,1.76c-1.06-1.19-1.9-2.57-2.99-4.06
				c0.87-0.47,1.48-0.8,2.05-1.11c-0.99-2.77-1.95-5.49-3.11-8.74c1.32,0.27,1.9,0.39,2.51,0.51c0.3-1.19,0.47-2.42,0.93-3.54
				c1.43-3.56,4.17-4.67,7.76-3.47c0.71,0.24,1.75-0.08,2.49-0.44c3.41-1.64,5.21-1.18,7.28,2c0.3,0.46,0.68,1.03,1.15,1.21
				c3.71,1.42,3.19,4.63,3.04,7.48c-0.15,2.89-1.52,5.21-4.08,6.2c-0.71-2.5-0.97-5.1-2.15-7.2c-2.02-3.62-5.93-3.5-8.32-0.08
				c-2.38,3.41-2.01,7.19,1.11,10.01c3.25,2.92,7.06,3.7,11.16,2.28c4.39-1.52,7.17-4.69,7.95-9.28
				c2.16-12.62-7.58-21.95-20.1-19.33c-5.83,1.22-10.87,7.26-11.44,13.82c-0.54,6.22,0.82,12.12,3.3,17.78
				c2.6,5.92,5.42,11.75,7.92,17.71c5.1,12.15,5.76,24.55,1.45,37.06c-0.95,2.75-2.46,5.32-3.71,7.97c0.18,0.16,0.36,0.32,0.54,0.47
				c2.27-2.99,5.05-5.72,6.71-9.01c3.63-7.21,6.64-14.73,10.01-22.08c1.66-3.63,3.39-7.25,5.39-10.69
				c2.8-4.82,6.81-8.47,12.08-10.45c6.54-2.46,13.54,1.36,14.51,7.75c0.78,5.13-3.66,9.81-8.7,9.11c-2.51-0.35-4.41-1.65-4.5-4.33
				c-0.04-1.14,0.62-2.65,1.47-3.37c0.57-0.48,2.45-0.22,3.05,0.38c0.8,0.81,1.16,2.26,1.24,3.47c0.06,0.81-0.69,1.68-1.09,2.53
				c4.19,0.68,7.11-1.5,7.51-5.57c0.45-4.61-1.94-7.87-6-8.07c-3.85-0.2-7,1.64-9.15,4.47c-2.38,3.14-4.34,6.69-5.96,10.29
				c-1.71,3.8-2.7,7.92-4.18,11.83c-5.34,14.16-13.02,26.48-27.2,33.45c2.98,4.6,2.88,7.43-0.25,11.19
				c2.25,5.91,1.83,9.38-1.4,11.53c-2.81,1.87-6.82,1.65-9.02-0.49c-1.93-1.87-2.28-4.75-0.71-7.36c0.23,0.68,0.29,1.26,0.6,1.65
				c0.55,0.67,1.24,1.22,1.88,1.82c0.29-0.91,1.03-2,0.77-2.7c-0.43-1.15-1.33-2.55-2.38-2.95c-2.7-1.06-5.56-1.92-8.42-2.34
				c-5.73-0.83-11.66-0.71-17.24-2.07c-15.36-3.73-25.48-13.82-31.78-27.99c-1.73-3.89-3.14-7.93-5.41-11.87
				c0.37,4.89,0.43,9.83,1.16,14.67c2.51,16.78,9.66,31.75,18.43,46.05c4.38,7.14,8.97,14.15,13.07,21.44
				c6.59,11.72,8.64,24.27,5.85,37.51c-0.08,0.36-0.01,0.75-0.02,1.13c-0.38,0-0.76,0-1.14,0c-0.09-8.49-1.6-16.72-5.51-24.28
				C7,539.84,1.94,530.46-3.4,521.26c-6.98-12.05-13.48-24.31-17.75-37.59c-2.34-7.28-4.08-14.76-6.09-22.15
				c0,0.86-0.03,1.79,0,2.72c0.49,14.92,5.29,28.48,12.93,41.18c4.46,7.41,8.8,14.91,13.06,22.44c2.71,4.8,4.09,10.03,4.19,15.56
				c0.02,1.4-0.07,2.94-0.65,4.15c-0.34,0.71-2.2,1.5-2.62,1.2c-1.03-0.74-1.91-2.01-2.25-3.23c-0.13-0.46,1.29-1.55,2.17-2.02
				c0.51-0.27,1.38,0.13,2.29,0.26c-0.4-5.99-1.69-11.53-4.57-16.54c-3.13-5.44-6.43-10.79-9.92-16
				c-7.57-11.3-12.68-23.58-15.18-36.94c-0.52-2.81-0.97-5.63-1.46-8.44c-0.49,1.09-0.5,2.11-0.49,3.14
				c0.13,10.41,3.19,20.04,7.89,29.21c2.86,5.59,5.99,11.05,8.55,16.78c1.24,2.77,1.57,5.98,2.01,9.04c0.09,0.62-1.11,1.99-1.8,2.04
				c-0.92,0.07-2.32-0.56-2.76-1.32c-0.43-0.76-0.28-2.36,0.29-3.02c0.58-0.67,1.97-0.63,3.46-1.03c-0.75-1.98-1.38-4.15-2.36-6.14
				c-1.6-3.24-3.38-6.39-5.19-9.52c-10.76-18.56-14.52-38.26-9.69-59.34c1.23-5.37,2.77-10.68,4.27-16.42
				c-8.42,16.76-10.62,38.72-5.87,56.58c0.48,1.82,0.87,3.71,0.87,5.58c0,0.72-1.17,1.99-1.84,2.02c-0.88,0.03-2.15-0.71-2.62-1.5
				c-1.17-1.96-0.28-3.26,2.95-4.49c-6.78-22.23-1.45-43.17,7.22-63.75c6.45-15.31,14.7-29.64,23.76-43.52
				c0.61-0.93,1.18-1.87,1.77-2.81c-0.26-0.16-0.52-0.32-0.78-0.49c-1.29,1.82-2.69,3.58-3.85,5.49c-1.68,2.77-3.11,5.67-6.32,7.12
				c-0.52,0.24-0.79,1.37-0.91,2.13c-0.58,3.63-1.18,7.86-4.42,9.53c-4.41,2.28-4.61,5.82-5.38,9.76
				c-1.04,5.35-3.89,9.28-10.01,9.64c-0.57,0.03-1.29,0.69-1.63,1.25c-2.89,4.8-7.36,7.35-12.59,8.64
				c-1.46,0.36-3.14-0.15-4.71-0.26C-49.43,429.99-49.43,429.8-49.43,429.61z M55.36,405.2c-1.56-1.81-1.56-1.81-3.76-0.87
				c1.98,1.32,3.58,2.4,5.18,3.47c3.28,3.1,6.96,5.27,11.69,4.91c8.7-0.67,13.86-5.87,15-15.09c1.37-11.1-5.68-21.03-16.12-22.72
				c-11.38-1.85-20.87,4.68-23.28,15.97c-1.39,6.49-1.01,12.93,1.12,19.15c2.62,7.64,5.76,15.09,8.47,22.7
				c5.48,15.39,3.24,29.55-7.02,42.38c-1.37,1.72-2.45,3.67-3.7,5.57c4.1,0.28,7.79,0.22,9.88-3.54c2.43-4.39,5.38-8.66,6.84-13.38
				c4.3-13.87,1.66-27.25-4.19-40.21c-2.19-4.85-4.32-9.73-6.28-14.68c-1.81-4.56-2.68-9.34-2.02-14.27
				c0.93-6.94,3.87-12.67,10.79-15.22c6.78-2.5,13.38-2.06,18.83,3.29c5.21,5.12,6.72,14.08,3.78,20.7
				c-2.39,5.38-7.39,8.36-13.29,7.91c-8.83-0.67-13.75-9.16-9.45-16.32c1.52-2.52,3.57-4.32,6.69-4.02c3.25,0.31,5.38,2.3,6.48,5.29
				c0.49,1.33,0.61,2.8,0.95,4.46c1.64-2.32,2.48-4.86,1.08-6.88c-1.76-2.55-4.29-4.6-6.68-6.65c-0.46-0.4-1.84,0.04-2.68,0.38
				c-0.83,0.34-1.5,1.05-2.19,1.55c-3.82-2.34-6.26-1.39-7.37,2.71C52.87,396.42,53.67,400.85,55.36,405.2z M-39.27,335.39
				c1.37-4.34,2.94-5.01,6.85-2.59c1.81,1.13,3.36,2.78,4.79,4.4c1.7,1.92,3.17,4.04,4.71,6.1c9.5,12.7,22.17,16.7,37.36,13.45
				c6.1-1.3,12.12-3.01,18.47-4.6c-0.86,0.73-1.48,1.44-2.26,1.89c-4.98,2.94-9.83,6.2-15.04,8.66
				C4.22,368.09-6.95,373.77-16.61,382c-8.96,7.64-17.52,15.58-21.33,27.29c-2.24,6.86-3.4,14.23-9.58,19.73
				c8.13-0.77,13.3-5.6,15.04-13.41c0.52-2.32,1.07-4.64,1.6-6.95c0.2,0.05,0.4,0.09,0.6,0.14c-0.54,3.27-1.09,6.54-1.64,9.88
				c5.01,0.1,8.45-2.49,9.31-7.08c0.59-3.15,0.37-6.44,0.64-9.65c0.16-1.98,0.54-3.95,0.82-5.92c0.25,0.04,0.49,0.07,0.74,0.11
				c0.09,1.76,0.19,3.52,0.31,5.76c4.07-0.99,5.88-3.85,6.72-6.99c0.8-2.96,0.62-6.19,0.85-9.04c1.91,2.41,3.35,2.32,4.99-0.62
				c0.79-1.41,1.5-2.87,2.39-4.22c2.85-4.35,6.75-7.25,11.49-8.59c-5.83,9.41-12.02,18.67-17.47,28.34
				c-8.16,14.48-13.7,29.87-14.45,46.74c-0.68,15.31,3.71,29.48,8.91,43.58c6.9,18.72,18.32,35.02,27.6,52.47
				c0.05,0.1,0.27,0.12,0.66,0.26c-0.81-1.9-1.42-3.69-2.29-5.34c-6.3-12.06-12.69-24.06-18.97-36.13
				c-8.07-15.5-13.58-31.67-12.2-49.5c0.32-4.21,0.91-8.4,1.37-12.6c1.23,4.2,1.84,8.36,2.95,12.37c1.11,4.02,2.3,8.12,4.18,11.81
				c9.3,18.25,23.16,29.41,44.82,28.19c3.49-0.2,7.05,0.03,10.52,0.51c3.18,0.44,6.02,1.91,7.46,5.09c1.45,3.18-0.66,6.33-4.15,6.25
				c-0.82-0.02-1.64-0.22-2.51-0.35c1.64,2.84,4.06,3.53,6.99,2.08c2.98-1.48,4.28-4.54,2.99-7.37c-1.97-4.33-5.71-6.38-10.15-6.92
				c-5.28-0.64-10.61-0.93-15.93-1.15c-6.41-0.27-12.35-1.95-17.9-5.18c-11.06-6.44-17.69-16.6-22.69-27.86
				c-2.34-5.26-3.41-11.09-5.06-16.66c2.67,6.06,4.74,12.3,7.68,18.1c6.98,13.76,17.84,22.82,33.34,25.58
				c5.05,0.9,10.08,0.69,14.7-1.93c2.96-1.68,4.68-4.15,4.74-8.45c-4.6,6.81-10.86,8.08-17.7,7.7c-7.89-0.43-14.84-3.55-20.82-8.48
				c-17.11-14.12-29.33-42.71-13.08-71.22c1.06-1.86,2.38-3.56,3.58-5.33c0.24,0.11,0.48,0.22,0.73,0.33
				c-0.53,1.96-1.02,3.93-1.59,5.88c-2.36,8.05-4.51,16.15-4.29,24.64c0.04,1.51,0.5,3.02,0.77,4.52c0.24,0,0.48,0,0.72,0
				c0.88-1.59,1.77-3.18,2.65-4.77c-0.18,4.19-0.93,8.13-1.09,12.09c-0.17,4.15,0.72,8.23,3.69,11.38c0.79,0.84,2.47,0.85,3.74,1.24
				c0.13-1.15,0.53-2.34,0.33-3.43c-0.4-2.14-1.13-4.23-1.73-6.33c0.24-0.16,0.49-0.32,0.73-0.48
				c2.81,11.44,10.14,17.65,21.11,19.63c0.32-0.35,0.65-0.69,0.97-1.04c-2.88-2.74-5.77-5.48-8.65-8.22
				c2.52,1.19,4.69,2.72,6.98,4.06c3.98,2.33,8.34,3.18,12.91,2.68c2.76-0.3,3.84-1.17,4.36-2.86c-2.81-0.19-5.71-0.38-8.65-0.57
				c4.28-1.25,8.51-1.92,12.18-3.72c3.77-1.86,7.63-4.34,8.03-9.98c-2.81,1.41-5.17,2.58-7.51,3.76
				c-5.52,2.77-11.29,3.71-17.45,2.82c-18.44-2.66-30.21-23.64-28.13-40.04c1.77-13.9,7.96-25.61,17.92-35.17
				c6.08-5.84,12.98-10.85,19.54-16.18c13.8-11.2,26.22-23.59,33.56-40.13c3.16-7.12,5.66-14.53,8.71-21.71
				c2.89-6.81,5.55-13.77,11.24-19c1.4-1.28,2.03-3.4,3.01-5.14c-0.28-0.24-0.55-0.48-0.83-0.72c-1.75,1.7-3.49,3.39-5.24,5.09
				c0.92-2.23,2.29-4.09,3.8-5.84c1.55-1.8,3.38-3.37,4.82-5.24c1.23-1.6,2.23-3.55,0.31-5.37c-1.37-1.3-3.91-0.41-5.56,1.87
				c-0.81,1.12-1.5,2.32-2.25,3.49c-0.22-0.1-0.43-0.2-0.65-0.3c0.59-1.4,0.99-2.93,1.82-4.17c1.16-1.73,2.7-3.19,3.98-4.84
				c1.02-1.31,2.05-2.7,0.89-5.28c-1.82,2.12-3.31,3.84-4.79,5.57c-0.23-0.16-0.47-0.32-0.7-0.48c1.21-1.95,2.47-3.88,3.61-5.87
				c1.16-2.03,2.35-4.06,3.19-6.22c0.27-0.69-0.36-2.39-0.94-2.58c-0.86-0.29-2.26,0.05-3.02,0.64c-0.99,0.78-1.57,2.07-2.64,3.58
				c0.51-5.62,0.97-10.68,1.43-15.74c-0.26-0.1-0.52-0.2-0.77-0.31c-1.32,3.39-3.18,6.68-3.82,10.2
				c-1.05,5.68-1.41,11.51-1.86,17.29c-1.63,20.66-5.61,40.72-15.25,59.29c-6.21,11.95-14.41,22.16-26.49,28.75
				c-0.92,0.5-1.88,0.92-3.09,1.51c4.47-5.52,8.85-10.54,12.81-15.89c19.22-25.98,26.57-55.14,21.97-87.02
				c-2.05-14.19-5.5-28.19-8.42-42.25c-2.12-10.21-2.19-20.06,4.26-28.99c0.06-0.09-0.08-0.32-0.15-0.59
				c-5.89,2.7-9.28,7.62-11.73,13.33c-5.25-3.31-5.56-3.08-8.99,6.22c-5.2,0.26-6.59,1.6-7.07,6.89c-0.64,7.08,2.17,12.74,7,17.69
				c1.03,1.05,1.46,2.69,2.16,4.06c-0.19,0.08-0.37,0.16-0.56,0.24c1.31,1.08,2.62,2.15,3.82,3.14c-1.48,0.56-2.6,0.99-3.72,1.42
				c0.6,1.12,1.2,2.25,1.8,3.37c0.04,0.08,0.14,0.12,0.22,0.18c6.69,5.72,11.01,12.95,12.55,21.54
				c4.45,24.89,0.35,48.46-11.57,70.72c-0.46,0.86-1.08,1.63-1.63,2.45c-0.36-1.18-0.17-2.11-0.12-3.04
				c0.32-5.5,1.07-11.02,0.8-16.49c-0.4-8.05-3.42-15.2-9.63-20.65c-2.19-1.92-4.1-1.8-5.8,0.01c-1.84,1.96-1.94,4.23-0.3,6.26
				c0.18-0.05,0.38-0.07,0.54-0.16c0.41-0.24,0.81-0.5,1.19-0.77c2.74-1.92,4.8-1.65,6.79,1.01c0.67,0.9,1.23,1.94,1.6,3
				c7.17,20.6,2.03,42.27-16.64,56.66c-3.74,2.88-8.4,4.96-12.96,6.31c-11.36,3.35-23.71-1.06-30.86-10.34
				c-7.03-9.11-7.46-20-1.22-31.03c0.58-1.03,1.15-2.06,1.73-3.1c-4.54,3-5.58,7.92-7.12,12.58c-0.35-4.63,1.12-8.63,3.71-12.31
				c0.63-0.89,1.31-1.97,1.37-3c0.2-3.41,0.28-6.85,0.09-10.26c-0.1-1.89-0.82-3.74-1.35-6c-1.77,6.9-3.32,13.21-5.02,19.49
				c-1.94,7.16-3.04,14.32-0.57,21.71c-3.25-3.78-6.19-7.84-11.32-8.92c-0.19,0.21-0.37,0.42-0.56,0.63
				c0.94,1.04,1.88,2.08,2.3,2.55c-1.44,0.85-3.5,1.37-4.19,2.63C-41.76,331.04-41.27,333.45-39.27,335.39z M-25.23,137.09
				c5.08,4.3,11.68,2.9,16.47,6.6c-2.86-0.28-5.72-0.55-8.73-0.84c-0.47,2.61,1.25,3.83,3.02,4.59c4.27,1.83,8.66,3.41,13.01,5.06
				c16,6.05,28.84,15.68,36.11,31.68c0.18,0.4,0.5,0.75,0.75,1.12c0.22-0.12,0.44-0.24,0.66-0.36c-1.87-3.91-3.43-8.02-5.66-11.71
				c-8.47-13.96-20.05-24.78-34.17-32.92c-7.36-4.25-14.71-8.53-22.12-12.83c0.3,0,0.59-0.05,0.85,0.01
				c1.2,0.29,2.43,0.51,3.59,0.94c28.65,10.67,50.94,28.17,61.95,57.77c0.41,1.11,1.29,2.05,1.95,3.07
				c1.39-4.48,2.46-8.31,6.57-8.71c1.12-7.4,1.82-14.4,3.33-21.22c1.25-5.64,4.2-10.66,8.81-14.36c1.68-1.35,3.84-2.1,5.78-3.13
				c0.11,0.24,0.21,0.49,0.32,0.73c-8.83,9.03-15.12,26.83-12.14,34.57c0.85-1.09,1.63-2.15,2.48-3.17
				c3.72-4.5,8.41-6.65,14.32-6.13c1.03,0.09,2.95-0.44,3.05-0.95c0.26-1.31,0.16-3.09-0.59-4.12c-2.84-3.94-8.87-4.16-12.63-0.61
				c-1.13,1.07-2.02,2.39-3.05,3.64c1.12-4.39,4.36-7.38,8.68-7.69c2.26-0.16,2.98-1.46,2.52-3.19c-0.52-1.96-1.64-3.76-2.57-5.77
				c0.07-0.06,0.36-0.29,0.63-0.54c2.54-2.29,3.2-5.17,1.68-7.32c-1.51-2.13-4.44-2.36-7.45-0.58c-1.12,0.66-2.22,1.34-3.52,2.12
				c-0.38-1.14-0.67-1.99-1.02-3.04c-0.78,0.69-1.46,1.29-2.14,1.9c-2.33-3.13-3.32-3.19-4.84,0.32c-1.85,4.25-3.37,8.67-4.65,13.12
				c-0.85,2.97-1.04,6.13-1.52,9.21c-2.17-6.38-2.12-12.82-0.4-19.12c1.14-4.18,3.22-8.1,4.65-12.22c0.37-1.05-0.14-2.41-0.25-3.62
				c-0.95,0.72-2.43,1.26-2.75,2.19c-1.46,4.31-2.65,8.71-3.81,13.11c-0.53,2.01-0.75,4.1-1.11,6.16c-0.24-0.03-0.49-0.07-0.73-0.1
				c0.17-2.35,0.04-4.78,0.56-7.05c1.31-5.64,2.95-11.2,4.38-16.82c0.51-2.02,1.22-4.58-1.2-5.57c-2.72-1.12-3.81,1.52-4.74,3.41
				c-1.19,2.43-2.03,5.04-3.25,8.16c-0.1-8.4,4.46-14.95,6.02-22.58c-1.04,0.5-1.76,1.18-2.36,1.09c-2.19-0.33-2.69,1.05-3.23,2.65
				c-3.24,9.62-5.5,19.42-5.23,29.64c0.04,1.34,0.42,2.82,1.1,3.97c4.39,7.53,7.98,15.37,9.61,23.99c0.58,3.08,1,6.19,1.5,9.28
				c-0.93-0.74-1.33-1.59-1.62-2.47c-6.78-20.53-17.79-38.41-33.27-53.55C0.73,117.43-6.92,110-14.18,102.2
				c-4.18-4.49-7.69-9.62-11.32-14.6c-1.1-1.51-1.57-3.49-2.43-5.48c-0.75,0.96-1.28,1.64-1.87,2.4c-0.42-0.49-0.63-0.81-0.91-1.06
				c-1.28-1.14-2.5-3.42-4.4-1.9c-1.75,1.4-0.66,3.5,0.38,5.17c0.3,0.48,0.63,0.97,1.04,1.36c1.9,1.81,3.84,3.58,5.77,5.36
				c-0.19,0.22-0.37,0.44-0.56,0.66c-2.19-1.95-4.4-3.88-6.56-5.86c-2.97-2.71-5.9-5.47-9.12-8.46c-0.22,7.72,3.49,14.76,9.83,18.86
				c2.79,1.81,5.8,3.27,8.65,4.99c1.59,0.95,3.06,2.1,4.58,3.16c-4.38-1.66-8.49-3.62-12.67-5.42c-0.7-0.3-1.69,0.04-2.55,0.08
				c0.29,0.84,0.46,1.75,0.89,2.51c0.31,0.55,0.91,0.97,1.45,1.35c5.37,3.79,10.7,7.55,17.54,8.42c2.55,0.32,4.97,1.65,7.45,2.51
				c-0.08,0.22-0.16,0.44-0.25,0.66c-11.39-2.88-13.33-3-15.4-1.11c8.04,2.53,16.42,4.53,24.26,7.81c8.11,3.4,14.05,10,19.71,16.6
				c5.67,6.61,9.94,14.05,12.7,22.35c-0.81-0.66-1.44-1.44-2.01-2.25c-7.92-11.27-17.73-20.66-29.1-28.33
				c-4.53-3.06-9.64-5.28-14.57-7.71c-1.87-0.92-3.68-0.81-4.59,1.71c-0.21,0.59-1.38,1.21-2.08,1.18c-1.2-0.06-2.36-0.65-3.55-0.97
				c-2-0.53-4.48-2.4-5.9,0.02c-1.38,2.36,0.96,4.23,2.64,5.71c1.81,1.59,3.87,2.9,6.08,4.53
				C-22.47,136.66-23.57,136.83-25.23,137.09z M-34.4,67.95c2.57,1.99,5.04,3.3,6.67,5.3c2.37,2.91,4.35,6.21,6.13,9.54
				c5.42,10.11,13.15,18.37,20.83,26.7c9.47,10.28,18.78,20.72,28.17,31.07c0.14,0.15,0.47,0.13,0.8,0.21
				c-0.09-1.63-0.21-3.15-0.25-4.67c-0.18-8.22,1.15-16.14,5.03-23.47c1.6-3.02,2.88-6.04,3.76-9.4c0.85-3.28,2.88-6.35,4.86-9.19
				c0.93-1.34,2.84-2.2,4.48-2.78c2.15-0.76,4.18-0.02,5.56,1.85c1.43,1.94,1.51,4.06,0.25,6.15c-0.44,0.74-1,1.4-1.66,2.32
				c3.5,0.2,5.08-1.08,5.8-4.22c0.97-4.23-1.23-7.62-6.3-9.7c1.21-1.75,0.23-2.1-1.34-2.14c-4.68-0.11-8.27,2.43-11.76,4.87
				c-0.76-0.39-1.82-1.16-1.99-0.99c-3.09,2.93-6.07,5.97-9.21,9.14c-0.08-0.07-0.55-0.52-1.07-0.9c-0.59-0.43-1.22-0.79-2.08-1.34
				c-0.07,1.09-0.13,1.89-0.18,2.67c-3.61,0.06-4.57,0.99-4.59,4.38c-0.01,1.24,0.32,2.5,0.13,3.7c-0.33,2.05-0.93,4.06-1.54,6.56
				c-1.75-2.29-2.97-3.88-4.18-5.46c-0.23,0.1-0.46,0.2-0.69,0.3c0,3.02,0,6.04,0,9.55c-1.13-0.7-1.7-1.02-2.24-1.4
				c-5.7-3.98-9.28-9.74-12.85-15.48C-12.04,87.99-17.82,74.14-17.1,58.2c0.64-14.07,3.55-27.17,14.14-37.45
				c0.68-0.66,1.1-1.59,1.65-2.4c-0.22-0.31-0.44-0.61-0.65-0.92c-1.78,0.86-3.79,1.43-5.31,2.62
				c-6.07,4.78-10.17,10.98-12.46,18.37c-0.16,0.53-0.44,1.03-0.66,1.54c-0.18-0.06-0.37-0.11-0.55-0.17c0.4-2.59,0.8-5.18,1.2-7.75
				c-4.07-1.38-6.34,0.38-5.77,4.42c0.21,1.5,0.82,2.95,0.97,4.45c0.3,2.85,0.41,5.73,0.6,8.59c-0.38,0.01-0.75,0.03-1.13,0.04
				c0-1.39,0.19-2.82-0.06-4.17c-0.21-1.14-0.93-2.19-1.42-3.27c-1.06,0.94-2.23,1.79-3.11,2.87c-0.41,0.5-0.33,1.45-0.4,2.21
				c-0.38,4.1,1.03,7.62,3.28,10.97c1.32,1.96,2.3,4.15,3.43,6.24c-1.86-1.57-3.06-3.52-4.56-5.19c-0.63-0.7-1.92-0.82-2.9-1.2
				c-0.38,1.2-1.4,2.67-1.02,3.55c0.75,1.75,2.03,3.45,3.5,4.67c4.33,3.58,6.22,8.43,7.8,13.53C-24.11,74.8-25.51,67.4-34.4,67.95z
				 M37.6,219.16c-0.18,0.27-0.36,0.54-0.55,0.81c-0.3-0.17-0.59-0.41-0.92-0.49c-1.61-0.42-4.43-1.47-4.64-1.09
				c-1.25,2.28,1.17,3,2.49,3.91c5.63,3.85,10.02,8.83,13.11,14.82c9.83,19.05,11.49,39.17,7.13,59.91
				c-1.13,5.36-2.82,10.61-4.26,15.9c0.79-0.55,1.2-1.24,1.5-1.97c6.88-16.62,9.86-33.91,8.74-51.87
				c-0.73-11.78-3.96-22.46-13.64-30.25c-0.79-0.63-1.39-1.57-1.88-2.47c-0.88-1.63-1.06-3.26,0.66-4.58
				c0.1-0.07,0.07-0.31,0.1-0.47c-0.78-0.13-1.54-0.26-2.67-0.45c2.19-2.2,0.92-3.55-0.34-5.34c-2.49-3.54-4.53-7.38-6.76-11.1
				c-0.33-0.55-0.58-1.47-1.02-1.57c-4.1-0.96-8.22-2.55-11.83-0.84c4.01,3.67,8.12,7.43,12.22,11.18c-0.17,0.23-0.33,0.46-0.5,0.69
				c-1.01-0.59-2-1.2-3.02-1.77c-0.98-0.55-1.95-1.3-3-1.5c-0.75-0.14-1.65,0.51-2.48,0.8c0.4,0.68,0.66,1.58,1.25,2
				c1.15,0.82,2.5,1.35,3.74,2.04C33.22,216.68,35.4,217.92,37.6,219.16z M-17.55,301.49c5.07-5.05,11.13-6.99,17.96-6.62
				c8.09,0.44,13.47,5.38,13.71,12.49c0.12,3.48-1.91,5.31-5.38,4.78c-0.93-0.14-1.83-0.56-2.76-0.67c-0.76-0.09-2.1-0.12-2.21,0.19
				c-0.32,0.85-0.47,2.06-0.1,2.84c1.35,2.84,4.71,3.54,7.56,1.5c1.79-1.28,3.26-3,4.87-4.52c-0.45,1.51-1.27,2.81-2.1,4.11
				c-0.71,1.11-2.07,2.25-1.99,3.3c0.12,1.71,0.75,4.26,1.93,4.82c2.05,0.96,3.11-1.27,3.51-3.06c0.55-2.4,1.06-4.87,1.07-7.31
				c0-3.58-0.46-7.17-0.73-10.75c0.59,1.03,1.27,2.15,1.29,3.29c0.1,4.45,0.07,8.9-0.05,13.35c-0.09,3.34,0.46,6.46,2.64,9.09
				c1.52,1.83,3.39,2.95,5.79,2.3c-0.31-5.22-0.74-10.23-0.86-15.24c-0.29-11.43-7.3-17.94-16.59-22.62
				c-8.88-4.47-17.29-2.71-25.34,2.55C-17.68,296.83-18.29,298.67-17.55,301.49z M35.77,267.63c-1.43-6.66-4.07-12.83-0.91-19.37
				c0.16-0.32,0.36-0.76,0.26-1.04c-0.76-2.24-1.52-4.48-2.45-6.65c-0.3-0.69-1.17-1.64-1.72-1.6c-0.74,0.06-1.48,0.89-2.1,1.51
				c-0.34,0.34-0.43,0.92-0.63,1.39c-0.56-1.63-0.39-3.22-0.63-4.74c-0.13-0.8-0.85-1.85-1.55-2.1c-0.71-0.25-1.78,0.21-2.57,0.61
				c-0.52,0.26-0.8,0.97-1.23,1.53c-1.26-3.23-5.84-4.98-10.56-4.15c-3.78,0.67-6.21,3.19-6.36,6.62c-0.19,4.39,2.9,7.34,6.92,6.28
				c-2.83-0.42-4.73-1.6-4.78-4.51c-0.05-2.7,1.72-4.97,4.55-5.41c1.73-0.27,3.96-0.5,5.26,0.34c3.04,1.97,6.42,4.12,8.27,7.07
				c2.69,4.27,4.54,9.19,6.03,14.05c1.97,6.44,3.1,13.14,4.92,19.64c0.55,1.97,2.19,3.65,3.67,6c1.17-2.21,1.85-3.49,2.72-5.14
				c1.73,3.02,3.26,5.68,5.01,8.73c0.41-1.83,0.81-3.17,1-4.55c0.44-3.18,0.96-6.38,1.09-9.58c0.07-1.65-0.64-3.34-3.23-3.54
				c-0.14,1.94-0.27,3.69-0.4,5.43c-0.8-1.34-1.03-2.75-1.03-4.16c0-3.61,0.34-7.24,0.08-10.83c-0.13-1.78-1.09-3.61-2.07-5.17
				c-0.31-0.49-1.88-0.14-2.85-0.29c-0.4-0.06-0.75-0.43-1.27-0.74c-0.62,1.05-1.44,1.88-1.62,2.84
				C36.9,259.76,36.41,263.47,35.77,267.63z M-0.58,475.79c-0.14,0.19-0.28,0.38-0.42,0.57c0.91,0.82,1.8,1.65,2.72,2.47
				c8.47,7.5,18.35,10.69,29.65,10.42c7.07-0.17,14.31-0.14,20.23,4.79c1.97-1.91,2.92-3.97,1.65-6.31
				c-2.1-3.87-5.67-3.73-9.72-2.68c0.63-1.09,1.02-1.77,1.42-2.45c-0.09-0.24-0.18-0.48-0.27-0.73c-7.42,3.92-15.14,5.73-23.41,4.25
				C13.06,484.66,5.84,481.12-0.58,475.79z M-9.24,184.42c0.22-5.33,3.15-8.37,7.51-10.05c7.19-2.78,13.99-1.75,20.29,2.68
				c6.64,4.67,11.19,11.03,14.77,18.18c0.43,0.85,0.88,1.69,1.39,2.65c1.76-3.16,0.94-5.73-0.96-7.92
				c-3.65-4.22-7.12-8.69-11.3-12.32c-5.48-4.76-12.17-6.91-19.57-6.34c-7.51,0.58-13.98,7.48-13.67,14.58
				c0.13,2.87,1.18,5.44,4.02,6.28c1.32,0.39,3.54-0.19,4.49-1.17c0.98-1,1.52-3.21,1.11-4.54c-0.34-1.11-2.25-2.06-3.63-2.43
				C-6.05,183.67-7.55,184.22-9.24,184.42z M86.32,429.83c-1.3,1.51-2.6,2.61-3.39,4.01c-2.71,4.78-5.51,9.53-7.8,14.52
				c-4.6,10.03-7.87,20.74-15.25,29.38c1.13-0.72,2.26-1.44,3.01-2.45c3.68-4.93,8.06-9.54,10.71-14.99
				C78.34,450.56,82.01,440.31,86.32,429.83z M-12.13,133.74c23.72,12.88,42.49,29.34,50.91,55.27
				C39.51,172.85,7.78,138.18-12.13,133.74z M52.02,181.71c0.89-6.49,1.44-13.07,2.78-19.48c1.35-6.43,4.03-12.44,8.8-17.31
				C54.73,150.15,47.32,174.38,52.02,181.71z M7.95,304.04c0.37-3.61-0.99-5.85-4.42-6.93c-6.7-2.1-12.92-1.04-18.47,3.36
				c-0.51,0.41-0.88,0.99-1.31,1.49c4-2.29,7.91-4.1,12.55-4.34C1.48,297.36,4.13,301.57,7.95,304.04z M29.11,137.8
				c2.15-8.89,4.42-18.32,6.62-27.42C30.72,118.81,28.49,128.23,29.11,137.8z M40.63,172.32c-1.63-8.52-4.84-16.47-9.39-23.86
				c-0.32,0.13-0.64,0.26-0.96,0.38C33.73,156.66,37.18,164.49,40.63,172.32z M47.93,296.36c0.24-0.08,0.48-0.16,0.72-0.24
				c-1.54-4.79-3.07-9.58-4.61-14.38c-0.44,0.1-0.88,0.2-1.32,0.29c0.18,1.28,0.12,2.66,0.59,3.83
				C44.75,289.41,46.38,292.87,47.93,296.36z"/>
			<path d="M292.92,76.62c-2.04,2.81-2.87,6.9-7.62,6.81c-0.86-0.02-1.74,0.95-2.71,1.52c-2.8-1.9-5.93-2.99-9.97-1.94
				c1.24,0.52,2.18,0.73,2.89,1.25c1.19,0.85,2.23,1.9,3.34,2.87c-1.37,1.46-0.76,4.4-3.51,4.8c-3.44,0.5-6.89,0.91-10.66,1.4
				c-0.48,2.85-2.98,3.15-5.71,2.76c-2.92-0.41-5.79-1.27-8.71-1.46c-3.92-0.26-7.87-0.06-11.8-0.06c-0.04,0.3-0.07,0.6-0.11,0.89
				c4.29,0.9,8.55,2.19,12.88,2.62c12.2,1.2,24.14-0.09,35.54-4.92c5.68-2.41,10.56-5.95,14.84-10.43c1.97-2.06,3.46-5.2,7.25-4.63
				c0.32,0.05,0.75-0.78,1.16-1.16c2.47-2.31,3.91-2.17,6.19,1.03c1.55-2.06,3-3.98,4.42-5.88c1.7,1.7,1.7,1.7,1.81,10.89
				c2.84-3.05,5.24-5.54,7.49-8.15c0.35-0.41-0.06-1.43-0.05-2.17c0-0.7,0-1.43,0.2-2.09c0.06-0.19,1.1-0.35,1.24-0.17
				c0.42,0.54,1,1.38,0.85,1.89c-0.44,1.42-1.03,2.87-1.91,4.05c-1.18,1.59-2.69,2.94-4.03,4.36c4.68-1.37,10.93-8.43,12.76-14.46
				c-0.08-0.16-0.15-0.33-0.25-0.49c-0.62-1-1.27-1.98-1.8-3.02c-0.03-0.06,0.95-0.63,1.46-0.97c0.56,1.07,1.81,2.34,1.57,3.19
				c-0.72,2.6-1.79,5.17-3.16,7.5c-1.25,2.14-3.07,3.96-5.12,6.52c6.39-3.82,11.68-7.61,13.26-14.64c1.07-4.76,0.73-9.32-2.84-13.08
				c-0.86-0.91-2.03-1.52-3.46-2.56c0.12,1.14,0.21,1.68,0.22,2.22c0.07,2.69-1.43,4.87-3.8,5.32c-2.65,0.51-4.4-0.87-5.52-3.08
				c-1.2-2.35-0.75-4.49,1.38-6.08c3.23-2.41,6.74-2.44,10.24-0.73c5.2,2.55,7.61,6.94,7.94,12.61c0.4,6.78-2.19,12.44-6.48,17.47
				c-1.13,1.33-2.34,2.59-3.52,3.88c0.16,0.21,0.33,0.42,0.49,0.63c2.96-2.12,6.09-4.04,8.84-6.41
				c6.75-5.82,11.44-13.18,15.08-21.25c1.25-2.77,2.44-5.58,3.83-8.28c1.04-2.03,2.19-4.01,5.03-4.05c0.59-0.01,1.18-1.23,1.75-1.91
				c1.55-1.83,1.97-5.02,5.5-4.47c0.27,0.04,0.64-0.62,0.99-0.93c0.63-0.57,1.21-1.44,1.95-1.63c2.02-0.51,4.12-0.73,6.18-1.06
				c0.03,1.83,0.23,3.68,0.02,5.48c-0.15,1.28-0.87,2.5-1.32,3.72c2.87,2.65,3.22,4.1,1.48,8.08c-3.16,7.24-7.89,13.41-13.25,19.16
				c-2.72,2.93-5.26,6.03-7.87,9.05c-0.22-0.16-0.43-0.33-0.65-0.49c0.43-0.15,0.92-0.22,1.29-0.47
				c12.23-8.12,21.65-18.22,24.09-33.46c0.43-2.69,1.83-5.22,2.93-8.24c1.31,1.02,1.93,1.51,2.4,1.88c2.17-2.62,4.19-5.27,6.45-7.69
				c1.36-1.46,3.01-2.63,5.32-1.38c0.45,0.24,1.63-0.51,2.27-1.05c4.95-4.22,10.49-6.06,16.94-4.38c0.23,0.06,0.44,0.21,0.4,0.19
				c-1.83,1.88-3.66,3.75-5.65,5.8c4.32,1.98,4.46,2.91,1.25,6.91c0.77,0.41,1.6,0.86,2.73,1.46c-1.16,0.66-1.62,1.05-2.14,1.2
				c-9.38,2.78-16.2,9.39-23.22,15.65c-6.4,5.7-12.54,11.68-18.91,17.41c-9.98,8.98-21.42,15.43-34.22,19.49
				c-1.08,0.34-2.13,0.76-3.1,1.59c1.29-0.27,2.58-0.49,3.86-0.81c10.41-2.64,19.8-7.41,28.04-14.21
				c9.54-7.87,18.78-16.11,28.19-24.15c5.44-4.65,11.14-8.89,17.77-11.8c5.39-2.37,9.92-5.92,13.13-11.63
				c0.55,1.52,0.89,2.46,1.26,3.48c2.82-1.37,5.45-1.28,7.99,0.73c0.52,0.41,1.52,0.29,2.3,0.31c2.17,0.08,4.38-0.13,6.5,0.22
				c2.8,0.46,4.37,2.47,4.95,5.18c7.48-0.96,9.42,0.63,8.09,6.65c5.17,4.43,11.97,7.95,10.79,16.43
				c-5.71-3.62-11.22-7.71-17.26-10.76c-6.35-3.21-13.5-3.8-20.6-3.91c-7.06-0.11-13.77,1.51-20.33,3.97
				c-6.49,2.43-12.65,5.48-17.36,8.74c6.51-2.09,13.98-4.78,21.61-6.86c6.69-1.83,13.56-1.78,20.35-0.07
				c0.73,0.18,1.64,0.26,2.12,0.73c0.8,0.8,1.36,1.87,1.88,2.89c0.04,0.08-1.36,1.16-1.53,1.03c-0.96-0.72-1.79-1.64-2.58-2.56
				c-0.19-0.22-0.09-0.68-0.12-1.09c-11.12-2.65-21.54-0.44-32.39,3.53c3.91-0.35,7.19-0.73,10.48-0.89
				c0.96-0.05,2.22,0.29,2.85,0.93c0.58,0.59,0.72,1.85,0.63,2.77c-0.04,0.41-1.32,1.13-1.72,0.96c-0.74-0.31-1.36-1.11-1.8-1.84
				c-0.31-0.51-0.23-1.25-0.31-1.85c-6.83-0.95-23.64,4.75-26.89,9.35c2.59,0.29,4.95,0.56,7.71,0.88c-1.57,1.6-2.97,3.03-4.82,4.9
				c2.63,0,4.77-0.08,6.9,0.02c1.95,0.09,3.77,0.39,4.32,2.87c0.14,0.64,1.33,1.04,2.44,1.85c-0.59,1.11-1.32,2.48-2.07,3.9
				c1.91,1.47,3.92,2.89,5.76,4.5c1.42,1.24,2.22,2.75,1.45,4.83c-0.25,0.69,0.23,1.7,0.51,2.52c0.72,2.15,1.81,4.22,2.18,6.42
				c0.32,1.9,0.19,4.05-2.54,4.67c-0.67,0.15-1.13,1.2-1.71,1.81c-3.5,3.71-9.39,3.27-11.3-1c-0.5-1.12-0.08-2.65-0.09-3.99
				c1.04,0.27,2.08,0.6,3.14,0.81c1.06,0.21,2.38,0.73,3.14,0.31c0.75-0.42,1.32-1.84,1.32-2.83c0.02-4.22-7.5-9.2-11.38-7.46
				c-2.75,1.24-0.05,2.47,0.73,4.55c-4.07-1.01-7.57-1.88-10.73-2.66c-0.62,1.32-0.95,3.28-2.11,4.17c-1.18,0.9-3.16,0.74-5,1.08
				c-0.86,2.73-1.52,2.95-4.76,1.69c-4.94-1.91-9.91-3.76-14.92-5.5c-1.22-0.42-2.62-0.32-4.05-0.03c2.38,0.84,4.8,1.59,7.13,2.54
				c2.02,0.83,4,1.79,5.89,2.88c2.74,1.57,2.75,2.62,0.09,4.59c0.44,0.57,0.94,1.1,1.32,1.71c0.38,0.61,0.64,1.3,1.07,2.23
				c-1.14-0.51-2-0.9-2.89-1.3c0.48,2.25,1.39,4.26,1.18,6.16c-0.18,1.65-1.28,3.92-2.6,4.51c-1.33,0.59-3.43-0.58-5.2-0.92
				c-1.35-0.26-2.73-0.67-4.07-0.59c-1.72,0.09-3.41,0.6-5.11,0.93c-0.09-0.26-0.18-0.52-0.27-0.78c-0.56,0.86-1.05,1.76-1.68,2.56
				c-1.61,2.04-3.67,2.97-6.29,2.29c-1.6-0.41-2.59-1.29-2.02-3.08c1.32-4.13-0.81-6.37-4.16-8.16c-7.47-3.99-15.32-3.82-23.36-2.47
				c-12.57,2.11-25.09,4.95-37.75,5.9c-28.79,2.15-53.9-7.2-75.31-26.55c-0.68-0.62-1.37-1.24-2.52-1.51c1.08,1.47,2.09,3,3.27,4.39
				c8.64,10.17,19.94,16.26,32.15,21c13.71,5.32,28.06,7.48,42.56,9.19c4.17,0.49,8.43,1.63,12.22,3.4c2.48,1.16,4.37,3.83,6.18,6.1
				c1.12,1.4,1.14,3.38-0.6,4.54c-0.67,0.45-1.86,0.11-2.81,0.13c0.23-0.81,0.4-1.64,0.7-2.43c0.11-0.3,0.52-0.48,0.97-0.86
				c-2.93-2.59-6.23-3.27-9.84-2.99c-0.99,4.05-2.77,4.99-6.76,3.9c-1.07-0.29-2.33,0.12-3.43-0.12c-2.12-0.46-4.2-1.16-6.34-1.77
				c-1.33,3.61-3.72,4.53-7.15,1.71c-2.42-1.99-4.99-3.17-7.95-3.84c-0.36-0.08-0.59-0.65-0.93-0.94c-2.87-2.45-5.5-5.29-8.68-7.23
				c-4.12-2.52-8.54-4.67-13.06-6.36c-15.99-5.99-29.12-15.9-40.38-28.55c-6.01-6.75-12.09-13.45-18.32-20
				c-5.1-5.36-11.21-9.37-17.93-12.5c-6.39-2.97-12.99-3.6-19.77-2c-4.84,1.14-7.78,4.64-7.66,8.69c0.08,2.95,2.16,5.33,5,5.72
				c3.53,0.48,5.93-1.82,5.74-5.71c-0.85,0.47-1.67,1.3-2.39,1.22c-0.97-0.1-1.86-0.91-2.79-1.41c0.62-0.8,1.18-2.19,1.87-2.26
				c1.15-0.12,2.92,0.26,3.47,1.08c0.73,1.08,1,2.9,0.66,4.19c-0.66,2.53-2.81,3.77-5.31,4.15c-2.43,0.37-4.51-0.51-6.09-2.4
				c-2.7-3.22-2.48-8.46,0.52-11.49c3.04-3.08,6.92-4.25,11.09-4.62c7.96-0.69,15.37,1.16,22.02,5.51
				c5.23,3.42,10.19,7.25,14.75,10.52c0.01,0.01-0.42-0.64-0.93-1.2c-8.16-8.92-17.68-15.77-29.79-17.91
				c-16.56-2.92-32.79,7.63-34.99,22.98c-0.65,4.54,0.53,8.67,2.28,12.74c0.72,1.66,1.47,3.31,2.03,5.02
				c0.24,0.73,0.33,2.08-0.04,2.31c-0.67,0.43-2.04,0.63-2.59,0.22c-2.32-1.75-4.44-3.77-6.65-5.67c-1.38-1.18-3.07-2.12-4.12-3.54
				c-1.34-1.82-2.68-3.92-3.08-6.07c-0.44-2.34,0.19-4.88,0.37-7.5c-2.17,0.34-1.96-1.23-1.81-2.81c0.55-5.93,3.65-10.47,7.72-14.56
				c0.79-0.8,1.25-2.11,1.47-3.26c0.53-2.82,2.18-4.9,4.74-5.58c3.35-0.88,6.89-1.01,10.33-1.54c1.04-0.16,2.04-0.6,3.06-0.88
				c1.71-0.46,3.51-1.48,5.12-1.24c4.67,0.72,9.26,1.93,13.88,2.99c0.97,0.22,1.91,0.62,2.92,0.68c-8.47-4.3-17.39-6.52-26.89-4.98
				c-11.99,1.94-22.75,6.47-30.21,16.6c-2.22,3.01-4,6.52-5.2,10.07c-3.15,9.29-1.56,14.4,5.95,20.96c-0.78,0.4-1.49,0.77-2.29,1.17
				c0.15,0.22,0.25,0.47,0.44,0.61c7.08,5.42,15.12,7.91,23.98,7.66c6.08-0.17,11.14-2.96,15.75-6.66c2.15-1.73,4.06-3.81,6.37-5.27
				c1.57-0.99,3.63-1.5,5.5-1.6c1.69-0.09,2.87,1.23,2.39,3.09c-0.51,2-2.17,2.08-3.64,1.36c-1.18-0.58-2.1-1.68-3.49-2.86
				c-13.98,15.44-29.85,17.58-47.71,4.76c3.45,4.82,11.76,8.89,18.64,9.63c7.09,0.76,13.78-0.8,20.44-3.02
				c6.84-2.28,13.67-4.71,20.68-6.33c5.8-1.35,11.56-0.01,16.76,3.05c6.98,4.09,8.93,10.56,8.15,18.1
				c-0.75,7.26-4.92,12.07-11.68,14.46c-6.95,2.45-13.41,1.29-18.77-3.91c-7.29-7.07-3.48-19.25,4.69-23.83
				c0.17-0.09,0.43-0.3,0.49-0.25c3.07,2.32,5.77-1.12,8.48-0.08c0.63,0.52,1.17,1.26,1.89,1.52c3.95,1.42,4.92,3.3,3.79,7.34
				c-0.17,0.59,0.15,1.39,0.4,2.03c1.2,3,0.75,4.23-1.94,6.08c-0.81,0.55-1.2,1.68-1.97,2.32c-2.58,2.18-10.12,1.24-10.56-3.19
				c1.04,0,2.08,0.09,3.1-0.02c3.28-0.34,5.67-2.75,5.28-5.23c-0.44-2.83-4.33-5.06-7.37-4.24c-3.64,0.99-6.28,5.24-5.84,9.42
				c0.71,6.67,6.98,10.57,14.52,9.02c6.93-1.43,11.34-7.42,10.8-14.67c-0.48-6.51-5.86-11.69-12.6-12.16
				c-5.24-0.37-10.22,0.72-15.05,2.65c-5.21,2.07-10.34,4.4-15.65,6.18c-12.33,4.15-24.33,3.6-35.7-3.29
				c-0.2-0.12-0.48-0.13-0.72-0.2c-0.18,0.25-0.35,0.5-0.53,0.76c3.07,2.24,5.94,4.83,9.24,6.63c6.01,3.27,12.29,6.03,18.42,9.08
				c4.96,2.47,9.97,5.09,12.82,10.09c1.4,2.46,2.42,5.42,2.61,8.22c0.23,3.31-1.77,6-4.85,7.46c-2.54,1.2-5.13,1.2-7.36-1.05
				c0.7,0.23,1.39,0.51,2.11,0.68c2.45,0.56,4.83,0.4,6.61-1.55c1.8-1.97,2.04-4.61,0.65-6.64c-1.89-2.75-4.1-5.54-6.81-7.39
				c-3.08-2.11-6.92-3.08-10.31-4.79c-6.34-3.21-12.83-6.22-18.81-10.01c-5.88-3.73-9.84-9.43-12.82-15.89
				c-3.48,2.43-6.67,2.15-9.6-0.62c-4.07,1.76-7.3,1.4-9.17-1c-1.74-2.23-1.82-5.68-0.06-7.69c1.78-2.04,3.97-2.26,6.69-1.19
				c-1.25,0.71-2.23,1.26-3.31,1.87c2.01,1.87,3.91,1.84,4.92-0.49c1.34-3.07,2.09-6.44,2.77-9.75c0.84-4.09,0.9-8.38,2.09-12.34
				c4.36-14.5,14.95-22.68,28.78-27.32c2.04-0.69,4.11-1.3,6.14-2.13c-7.75-1.07-15.33-0.07-22.82,1.81
				C75.12,34.64,64.34,40,53.83,46.05c-5.85,3.37-11.74,6.71-17.87,9.51c-9.79,4.46-19.99,4.9-30.36,1.43
				c1.59-0.07,3.19-0.12,4.78-0.22c1.71-0.11,3.43-0.15,5.12-0.42c8.79-1.38,16.66-5.25,24.43-9.27
				C52.09,40.78,63.86,33.62,77,29.46c8.38-2.65,16.98-4.63,24.54-6.66c-7.99-0.61-16.81,0.89-25.11,4.36
				c-7.08,2.96-13.8,6.8-20.65,10.3c-6.25,3.2-12.26,7.03-19.44,7.9c-1.97,0.24-4,0.29-5.98,0.13c-1.39-0.11-3.21-0.62-2.6-2.53
				c0.31-0.96,1.86-1.53,2.84-2.27c0.5,1.06,1,2.11,1.48,3.17c0.07,0.15,0.03,0.36,0.05,0.72c4.95,0.18,9.63-1,14-3.18
				c4.08-2.03,8.13-4.19,11.96-6.66c12.09-7.81,25.28-12.25,39.57-13.54c0.47-0.04,0.93-0.12,1.58-0.2
				c-3.59-1-10.67-0.96-16.45,1.13c-8.2,2.97-16.13,6.7-24.23,9.98c-2.43,0.98-5.02,1.69-7.59,2.2c-1.41,0.28-3.42,0.3-3.49-1.81
				c-0.03-0.82,1.34-1.7,2.07-2.55c0.97,0.89,1.94,1.77,2.9,2.66c-0.09,0.41-0.18,0.81-0.28,1.22c2.93-1.23,5.85-2.49,8.79-3.69
				c7.82-3.19,15.46-7.02,23.52-9.37c12.57-3.67,25.08-1.2,37.36,2.43c0.98,0.29,1.95,0.59,3.1,0.47c-0.58-0.28-1.13-0.61-1.73-0.85
				c-13.89-5.4-28.05-7.65-42.74-3.57c-0.55,0.15-1.22,0.41-1.67,0.21c-1.09-0.46-2.07-1.16-3.1-1.77c0.58-0.75,1.01-1.85,1.77-2.17
				c1.38-0.58,2.64-0.16,2.95,1.62c0.05,0.26,0.22,0.51,0.19,0.45c6.12-0.41,12.07-1.13,18.03-1.14
				c11.78-0.02,22.56,4.16,33.13,8.81c13.3,5.84,25.55,13.51,37.38,21.87c1.24,0.87,2.48,1.74,3.71,2.62
				c0.17-0.18,0.33-0.37,0.5-0.55c-1.36-1.1-2.76-2.14-4.06-3.3c-2.01-1.81-3.9-3.74-5.94-5.52c-0.64-0.56-1.54-0.95-2.38-1.15
				c-4.17-0.95-7.71-2.62-9.43-6.96c-0.24-0.62-1.41-0.99-2.23-1.23c-2.35-0.71-5.02-0.83-7.01-2.08c-1.85-1.15-3.51-3.26-4.26-5.31
				c-0.69-1.89-1.24-3.37-2.87-4.78c-3.96-3.44-5.93-7.91-5.56-13.78c1.03,0.59,1.7,0.77,2.07,1.21c2.91,3.42,6.77,5.18,10.94,6.36
				c13.73,3.88,23.3,13.22,30.74,24.64c5.05,7.75,8.72,16.42,12.93,24.71c1.32,2.6,2.4,5.33,4.06,7.83
				c-0.56-3.12-1.26-6.22-1.66-9.36c-1.76-14.02,3.48-24.9,14.93-32.96c1.63-1.15,3.29-2.28,4.84-3.53
				c0.79-0.64,1.56-1.46,1.99-2.36c0.32-0.66,0.06-1.59,0.06-2.4c-0.69,0-1.39,0-2.24,0c-0.27-2.06,0.88-3.76,2.73-4.2
				c1.86-0.44,3.96,0.04,5.93,0.27c0.44,0.05,0.74,0.89,1.22,1.12c3.77,1.83,3.93,2.46,1.53,6.26c-0.24,0.38-0.45,0.79-0.3,0.52
				c5.73,1.9,11.4,3.96,17.19,5.62c3.7,1.06,7.58,1.52,11.36,2.29c0.66,0.14,1.27,0.52,1.9,0.79c-0.35,0.8-0.48,1.98-1.09,2.31
				c-1.8,1-3.78,1.66-5.84,2.52c4.36,5.75,6.21,12.02,4.64,19.1c-2.45,10.98-11.53,18.59-22.71,18.88
				c-4.54,0.12-9.09,0.02-13.82,0.02c-1.29-3.76,0.48-6.82,6.01-9.53c-0.88-4.57-0.17-5.39,5.52-6.14c0.12-0.86,0.17-1.79,0.4-2.68
				c0.61-2.36,2.01-3.89,4.61-3.86c2.33,0.03,3.34,1.29,2.83,3.54c-0.39,1.71-1.67,3.63,0.44,4.88c2.17,1.29,4.32,0.36,6.32-0.62
				c-1.18-0.45-2.23-0.85-3.28-1.25c0.61-1.13,1.03-2.44,1.87-3.35c4.64-4.99,5.25-10.01,1.36-14.76c-0.87-1.06-2.58-1.41-3.85-2.16
				c-1.71-1.02-3.41-2.07-5.05-3.2c-8.22-5.67-16.69-5.64-24.88-0.35c-8.38,5.42-11.75,13.54-10.31,23.4
				c1.8,12.33,15.01,25.26,28.52,28.17c9.29,2,17.94,0.62,25.76-4.95c-0.26-0.16-0.52-0.32-0.78-0.48c0.52-1.3,0.68-3.08,1.64-3.81
				c1.92-1.47,4.59-0.27,6.56,2.34c3.63-1.62,7.21-3.21,10.71-4.77c0.04-0.24,0.1-0.38,0.06-0.42c-1.11-1.12-1.87-2.37-0.2-3.5
				c0.44-0.3,1.78,0,2.14,0.46c1.13,1.45,0.82,2.99-0.82,3.83c-2.08,1.08-4.3,1.89-6.37,3.08c4.47-0.56,8.93-1.12,13.4-1.69
				c0,0-0.05-0.06-0.05-0.06c-1.54,0.47-3.05,1.05-4.62,1.4c-2.89,0.65-5.81,1.18-8.63,2.16c7.86-0.72,16.01-0.26,23.03-4.59
				c2.58-1.59,4.88-3.87,6.76-6.27c0.83-1.05,0.77-3.37,0.2-4.74c-0.39-0.95-2.35-1.24-3.61-1.83c-0.36,0.96-0.73,1.93-1.12,2.98
				c-2.87-0.6-3.95-4.02-1.71-6.73c3.05-3.68,8.85-2.98,11.25,1.41c1.6,2.94,1.45,6,0.42,9.11c-0.63,1.91-1.09,3.87-1.73,5.78
				c-0.15,0.46-0.69,0.8-1.05,1.2c-0.17-1.35-0.33-2.7-0.53-4.32c3.54-2.16,4.46-9.49,1.03-12.64c-2.04-1.87-4.45-2.1-6.87-0.79
				c-1.72,0.94-2.86,2.31-2.17,5.19c0.69-3.07,2.03-4.58,4.68-4.06c2.63,0.51,3.79,2.36,3.93,4.91c0.21,3.8-1.61,6.86-4.59,8.69
				c-3.75,2.3-7.8,4.41-12.01,5.61c-6.38,1.82-13.03,2.67-19.5,4.19c-1.59,0.37-2.94,1.75-4.84,2.94c1.78,1.06,2.72,1.62,4.02,2.4
				c-2.56,1.38-4.82,2.59-7.34,3.94c10.96,3.3,13.47,3.27,14.78-0.29c-1.47-0.22-2.89-0.44-4.3-0.65c1.36-0.62,2.71-0.65,4.06-0.62
				c3.41,0.07,6.82,0.36,10.22,0.18c2.2-0.12,3.99-1.48,3.2-3.98c-0.35-1.11-1.73-2.36-2.88-2.67c-2.65-0.71-5.44-0.89-8.17-1.29
				c-0.01-0.31-0.03-0.61-0.04-0.92c4.38-0.22,8.91-1.2,13.1-0.4c2.9,0.56,5.37,0.73,7.99-0.25c1.08-0.4,2.02-1.17,3.03-1.76
				c-0.64-0.92-1.27-1.84-1.83-2.64C289.33,77.22,291.12,76.92,292.92,76.62z M237.7,36.83c7.06,4.81,7.67,19.48,0.8,24.4
				c-1.8,1.29-4.36,1.8-6.63,2.06c-2.48,0.28-3.85-1.43-3.65-3.94c0.08-1.02,0.54-2.01,0.69-3.04c0.09-0.66,0.14-1.78-0.18-1.94
				c-0.64-0.33-1.66-0.42-2.32-0.14c-2.37,1.01-3.12,3.87-1.55,6.31c0.99,1.53,2.38,2.8,3.59,4.19c-1.79-0.69-3.06-2.17-4.67-2.89
				c-1.3-0.58-3.02-0.37-4.52-0.22c-0.46,0.05-1.25,1.5-1.17,1.58c1.02,1,2.15,1.91,3.32,2.75c0.35,0.26,0.91,0.3,1.37,0.33
				c4.32,0.26,8.65,0.5,12.97,0.75c-2.99,0.53-6.03,0.55-9.06,0.61c-3.56,0.07-7.22-0.29-10.66,0.42c-3.19,0.66-4.23,2.94-3.95,5.6
				c4.29,0,8.54-0.08,12.79,0.02c9.55,0.21,15.28-5.4,19.6-12.95c4.2-7.33,3.22-14.56-0.88-21.67c-1.45-2.51-3.28-3.17-5.87-2.18
				c0.24,0.88,0.29,1.86,0.74,2.62c3.82,6.51,3.3,11.4-1.86,16.86c-0.47,0.49-0.78,1.13-1.32,1.94c2.98,0.45,4.83-0.81,5.55-2.97
				c0.82-2.46,1.22-5.13,1.32-7.73C242.31,43.43,239.85,40.16,237.7,36.83z M372.56,61.55c0.46-0.92,0.85-1.87,1.39-2.74
				c1.9-3.1,3.84-6.17,5.76-9.25c-0.2-0.15-0.39-0.29-0.59-0.44c-11.26,18.51-25.7,33.17-47.23,39.44c1.14,0.11,2.26,0.09,3.19-0.34
				c6.03-2.76,12.45-4.97,17.9-8.61c5.79-3.86,10.65-9.1,15.91-13.74c-0.55,0.86-0.98,1.82-1.65,2.57
				c-9.02,10.08-19.89,17.32-32.83,21.41c-1.07,0.34-2.02,1.08-3.02,1.64c3.67,1.46,6.87,2.45,7.17,6.84c1.56,0,2.98-0.08,4.4,0.01
				c8.4,0.58,16.41,2.38,22.99,8.1c2.32,2.01,4.18,4.37,4.51,7.98c-8.17-8.31-17.86-11.97-29.73-12.18
				c1.56,1.41,2.62,2.31,3.61,3.28c3.37,3.27,4.79,7.2,4.16,11.91c-0.11,0.86,0.21,2.34,0.76,2.59c0.87,0.39,2.27,0.31,3.14-0.15
				c2.67-1.4,3.9-5.18,2.74-8.24c-0.54-1.44-1.49-2.72-2.25-4.07c2.79,1.5,3.8,2.85,4,6.15c0.13,2.14,1.27,2.74,2.99,2.31
				c1.62-0.41,3.12-1.25,4.67-1.9c2.24,2.74,4.62,3.54,6.57,2.21c1.97-1.34,2.1-3.82,0.39-6.92c-0.4-0.73-0.76-1.48-1.23-2.38
				c0.94-0.35,1.66-0.61,2.5-0.92c-0.57-0.66-0.98-1.15-1.54-1.81c0.43-0.29,0.84-0.49,1.15-0.79c0.39-0.36,0.7-0.8,1.27-1.47
				c-6.26-5.12-13.67-6.54-21.09-8.24c3.72-0.4,7.4-0.6,11.05-0.36c5.54,0.37,10.37,2.92,15.22,5.4c0.79,0.4,2.02-0.05,3.05-0.11
				c-0.6-0.84-1.03-2.13-1.83-2.43c-3.82-1.42-7.73-2.6-11.63-3.79c-1.35-0.41-2.76-0.63-4.15-0.94c0.06-0.28,0.12-0.57,0.18-0.85
				c2.86,0.52,5.78,0.85,8.58,1.62c4.03,1.1,7.93,2.69,11.97,3.71c1.2,0.3,2.71-0.58,4.07-0.93c-0.66-1.23-1.02-2.89-2.04-3.59
				c-2.05-1.4-4.47-2.27-6.73-3.36c0.09-0.25,0.18-0.49,0.26-0.74c5.82,2.1,11.65,4.2,17.62,6.35c-1.12-3.03-0.67-4.24,1.59-4.71
				c4.49-0.92,12.59,3.46,14.25,7.76c0.82,2.12,0.71,4.2-1.19,5.71c-1.86,1.48-3.88,1.29-5.8-0.05c-0.5-0.34-1.01-0.66-1.52-0.99
				c-0.27,0.22-0.53,0.45-0.8,0.67c0.92,1.21,1.61,2.8,2.82,3.56c2.91,1.83,6.81,0.61,8.72-2.35c0.39-0.61,0.89-1.75,1.22-1.71
				c2.3,0.3,1.81-1.49,1.58-2.36c-0.67-2.54-1.65-4.99-2.55-7.46c-0.25-0.69-1.12-1.63-0.92-1.96c1.86-2.98-0.77-4.11-2.28-5.53
				c-1.42-1.33-3.14-2.34-4.76-3.51c0.81-1.07,1.47-1.95,2.1-2.78c-0.77-0.44-1.89-0.78-1.88-1.11c0.06-4.12-2.94-3.35-5.42-3.62
				c-2.13-0.23-4.23-0.77-7.08-1.32c2.2-1.61,3.51-2.56,5.17-3.77c-3.07-0.2-5.55-0.36-8.97-0.59c1.99-2.26,3.12-4.1,4.73-5.29
				c12.24-9.06,25.28-16.46,41.02-16.87c14.21-0.37,27.53,2.24,37.75,13.38c0.52,0.56,1.28,0.9,1.93,1.34
				c0.22-0.26,0.44-0.52,0.66-0.79c-2.92-8.7-10.33-12.68-18.04-16.55c2.11,0.43,4.21,0.86,6.29,1.29c1.37-3.46-0.19-5.59-3.66-5.08
				c-1.6,0.23-3.17,0.73-4.77,0.86c-1.99,0.15-4.01,0.04-6.02,0.04c0.02-0.38,0.04-0.76,0.06-1.14c2.02,0,4.04,0,6.09,0
				c-0.32-2.78-1.03-3.57-3.48-3.93c-3.43-0.5-6.57,0.24-9.55,2.06c-1.91,1.17-4,2.03-6.01,3.03c1.37-1.5,3.06-2.39,4.5-3.6
				c0.67-0.56,0.82-1.72,1.21-2.61c-1.11-0.33-2.47-1.24-3.27-0.88c-1.58,0.71-2.97,1.99-4.23,3.25c-2.6,2.6-5.68,4.12-9.2,4.86
				c8.13-5.39,8.83-6.24,8-10.59c-2.94,5.83-7.98,8.46-13.34,10.85c-3.02,1.35-5.95,3.07-8.56,5.1c-6,4.67-11.87,9.53-17.63,14.5
				c-9.08,7.83-17.78,16.12-28.18,22.27c-9.42,5.57-19.52,8.86-30.57,9.24c0.16-0.2,0.25-0.41,0.39-0.46
				c0.7-0.28,1.41-0.57,2.14-0.78c17.39-5.04,32.8-13.56,46.02-26.01c6.93-6.53,13.98-12.92,21.02-19.33
				c4.87-4.44,10.06-8.39,16.86-10.18c-0.67-0.73-1.19-1.29-1.75-1.89c0.6-0.52,1.18-0.82,1.41-1.29c0.5-1,0.81-2.09,1.2-3.14
				c-1.23-0.08-2.5-0.38-3.68-0.17c-0.86,0.15-1.64,0.91-2.37,1.51c-1.53,1.26-3.01,2.59-4.51,3.9c-0.08-0.08-0.15-0.15-0.23-0.23
				c4.05-4.06,8.1-8.12,12.82-12.84c-2.33,0.21-3.82,0.21-5.24,0.5c-5.88,1.21-10.02,4.75-13.03,9.83
				c-1.62,2.73-3.41,5.37-5.12,8.05c1.13-3.44,2.77-6.53,4.25-9.7c0.33-0.71,0.11-1.69,0.14-2.55c-0.82,0.33-1.91,0.42-2.42,1.02
				c-3.71,4.35-7.28,8.76-8.43,14.65c-0.45,2.33-1.6,4.53-2.43,6.78c-0.25-0.08-0.5-0.16-0.76-0.24c1.54-4.18,3.1-8.35,1.28-12.99
				c-2.41,10.94-5.66,21.31-13.83,29.46c-7.92,7.91-16.82,14.14-27.65,17.36c0.8-0.79,1.69-1.45,2.62-2.05
				c9.62-6.25,17.69-14.16,24.45-23.34c2.74-3.72,4.79-7.96,7.01-12.04c0.83-1.52,0.89-3.06-1.14-4.05
				c-0.55-0.27-0.99-1.49-0.89-2.18c0.2-1.29,1.05-2.48,1.24-3.76c0.19-1.27-0.08-2.62-0.15-3.94c-1.29,0.34-2.9,0.32-3.81,1.11
				c-1.89,1.63-3.41,3.69-5.18,5.69c-0.19-0.99-0.36-1.87-0.53-2.75c-0.31-0.06-0.62-0.13-0.94-0.19
				c-1.48,4.55-2.96,9.09-4.44,13.64c-0.24-0.06-0.47-0.12-0.71-0.18c0.3-2.46,0.6-4.91,0.89-7.37c-0.28-0.2-0.56-0.41-0.83-0.61
				c-1.2,1.25-2.78,2.31-3.53,3.79c-1.64,3.21-2.84,6.64-4.26,9.96c-4.21,9.89-9.94,18.67-19.06,24.73
				c-3.36,2.24-7.04,3.99-10.89,6.14c5.69-1.4,10.65-3.68,15.27-6.71c10.26-6.73,18.65-15.3,25.17-25.71
				c3.82-6.1,7.71-12.16,11.95-18.84C383.61,45.29,378.83,53.81,372.56,61.55z M119.7,31.2c-0.72,0.22-1.43,0.52-2.17,0.65
				c-8.05,1.38-15.21,4.81-21.74,9.57C87.72,47.29,82.91,55.3,81.1,65.08c-0.73,3.91-0.51,7.79,1.36,11.42
				c1.47,2.85,3.46,4.04,6.22,3.8c-5.77-4.87-6.14-11.24-4.59-17.79c2.61-11.07,9.64-18.69,19.5-24.05
				c16.95-9.23,33.5-8.55,49.77,1.63c1.25,0.78,2.32,1.84,3.47,2.78c-2.25-0.16-4.18-0.97-6.19-1.42
				c-6.66-1.5-13.33-2.92-20.02-4.23c-1.13-0.22-2.4,0.29-3.61,0.46c0,0.24,0.01,0.49,0.01,0.73c1.22,0.75,2.44,1.5,3.91,2.41
				c-4.41-0.52-8.38-1.51-12.28-1.29c-2.83,0.17-5.61,1.84-8.3,3.1c-0.53,0.25-0.54,1.64-0.79,2.5c0.86,0.21,1.76,0.7,2.57,0.58
				c1.89-0.27,3.74-0.84,5.61-1.28c0.12,0.21,0.23,0.43,0.35,0.64c-9.7,2.06-15.12,8.09-17.16,17.25c0.28,0.28,0.55,0.56,0.83,0.84
				c2.26-2.17,4.53-4.35,6.79-6.52c-0.77,1.74-1.83,3.17-2.82,4.65c-2.28,3.44-3.45,7.25-3.05,11.35c0.14,1.47,1.14,2.86,1.74,4.28
				c0.17-0.12,0.34-0.24,0.51-0.35c0.28-2.4,0.55-4.8,0.83-7.2c0.94,10.03,5.33,17.62,10.71,17.07c-0.78-1.69-1.52-3.33-2.28-4.96
				c-1.86-4.03-3.01-8.19-2.68-12.7c0.94-13.2,12.56-24.5,26.99-25.89c12.77-1.23,23.38,3.86,32.89,11.86
				c7.32,6.15,12.32,14.19,17.81,21.84c6.52,9.09,13.71,17.76,23.14,23.86c7.3,4.72,15.33,8.34,23.18,12.16
				c7.16,3.49,14.8,6.07,20.34,12.28c1.06,1.19,2.77,1.8,4.18,2.68c0.22-0.22,0.43-0.43,0.65-0.65c-1.31-1.5-2.61-3-3.92-4.49
				c1.59,0.66,2.94,1.62,4.14,2.74c1.73,1.62,3.25,3.48,5.05,5.01c1.25,1.06,3.26,1.95,4.2,0.17c0.54-1.03-0.5-2.99-1.05-4.45
				c-0.19-0.52-1.04-0.78-1.56-1.19c-0.43-0.33-0.83-0.71-1.49-1.26c5.11,0,6.43,6.46,11.27,6.21c0.18-0.24,0.36-0.48,0.54-0.71
				c-1.34-1.25-2.67-2.5-4.01-3.75c1.2,0.04,2.26,0.26,3.05,0.85c1.45,1.06,2.58,2.71,4.16,3.42c1.53,0.69,4.47,1.27,5.02,0.55
				c1.59-2.07-0.69-3.22-2.21-4.32c-0.12-0.09-0.14-0.31-0.27-0.61c4.15,0.52,8.23,1.04,12.3,1.55c-1.64-1.47-3.43-2.79-5.44-3.4
				c-3.26-0.99-6.63-1.87-10-2.17c-15.73-1.39-31.11-4.29-45.76-10.34c-12.23-5.05-23.19-11.96-30.99-22.98
				c-1.79-2.53-3.15-5.37-4.71-8.07c4.92,3.78,9.29,7.9,13.98,11.62c19.77,15.73,42.46,22.84,67.55,21.24
				c11.44-0.73,22.79-3.11,34.15-4.93c10.74-1.73,21.51-4.26,31.39,3.49c-1.24-2.33-2.55-4.51-4.33-6.19
				c-1.89-1.78-4.22-3.09-6.36-4.61c2.86-3.89,2.58-4.31-4.94-7.59c-0.31-4.54-1.07-5.42-5.49-6.14
				c-6.03-0.99-10.96,1.24-15.38,5.18c-1,0.89-2.47,1.25-3.72,1.85c-0.05-0.14-0.11-0.28-0.16-0.42c-0.9,0.97-1.8,1.95-2.65,2.87
				c-0.51-1.25-0.87-2.13-1.23-3.01c-0.91,0.41-1.83,0.81-2.72,1.25c-0.24,0.12-0.4,0.4-0.6,0.61c-5.06,5.27-11.23,8.59-18.41,9.56
				c-21.12,2.88-40.88-1.34-59.26-12.08c-0.85-0.5-1.62-1.14-2.19-1.56c5.6,0.4,11.26,1.17,16.92,1.1
				c6.56-0.08,12.47-2.43,17.17-7.25c1.38-1.42,2.08-3.12,0.55-4.82c-1.51-1.69-3.36-2.33-5.48-1c0.05,0.35,0.04,0.56,0.11,0.72
				c0.16,0.34,0.37,0.66,0.57,0.98c1.57,2.6,1.21,4.39-1.34,5.97c-0.96,0.59-2.05,1.01-3.14,1.33c-6.4,1.93-12.95,2.46-19.48,1.13
				c-15.65-3.17-26.91-11.85-31.8-27.36c-3.2-10.14,0.97-21.15,9.33-27.11c8.37-5.97,18.01-5.81,27.45,0.46
				c0.65,0.43,1.3,0.86,1.95,1.29c-2.38-4.12-6.59-5.26-10.57-6.8c3.8,0,7.1,1.21,10.04,3.5c0.66,0.51,1.39,1.23,2.13,1.28
				c3.69,0.24,7.4,0.36,11.1,0.37c0.96,0,1.92-0.58,3.29-1.03c-3.37-0.84-6.17-1.4-8.88-2.25c-8.32-2.6-16.46-6.28-25.63-3.88
				c3.3-2.54,6.58-4.88,7.13-9.5c-0.84,0.63-1.67,1.26-2.06,1.55c-0.75-1.23-1.2-2.84-2.25-3.49c-1.81-1.12-3.77-0.53-5.57,0.92
				c3.58,1.31,4.2,2.72,2.15,5.73c-1.2,1.76-2.93,3.22-4.61,4.58c-2.59,2.09-5.44,3.85-7.99,5.99c-6.75,5.66-10.52,12.94-9.86,21.78
				c0.49,6.6,2.02,13.12,3.09,19.67c0.12,0.72,0.29,1.43,0.44,2.15c-1.47-1.22-2.58-2.54-3.31-4.05c-2.41-4.95-4.86-9.9-6.99-14.98
				c-4.86-11.63-11.5-22.05-20.02-31.35c-4.82-5.27-10.47-9.08-17.12-11.49c-5.23-1.9-10.68-3.33-14.9-8.24
				c0.9,10.71,8.5,13.06,16.48,15.02c-1.51-0.01-2.77-0.36-4.06-0.61c-1.35-0.26-2.72-0.42-4.1-0.63c-0.33,4.13,1.86,7.18,5.93,8.08
				c2.39,0.53,4.91,0.43,7.36,0.72c1.73,0.21,3.44,0.61,5.16,0.92c-0.04,0.19-0.09,0.38-0.13,0.57c-1.39,0.07-2.77,0.13-5,0.23
				c1.13,1.64,1.69,2.97,2.68,3.79c3.24,2.7,6.88,4.23,11.89,2.06c-2.97,3.09-2.91,3.95-0.01,5.55c4.94,2.73,8.58,6.45,10.11,12.73
				c-1.34-1.07-2.16-1.83-3.08-2.44c-9.28-6.12-18.26-12.79-27.94-18.19c-18.49-10.3-38.09-12.7-58.77-7.04
				c-19.75,5.41-37.37,15.32-55.2,24.91c0.9-0.16,1.79-0.38,2.61-0.75c4.69-2.09,9.35-4.25,14.04-6.32
				c11.56-5.11,22.95-10.66,34.75-15.13c10.68-4.04,27.84-3.75,36.53-0.53c-1.3,0.19-2.34,0.25-3.35,0.49
				c-5.62,1.35-11.52,2.05-16.8,4.25c-13.28,5.53-22.81,14.79-25.31,29.62c-0.77,4.57-0.35,9.33-0.93,13.94
				c-0.29,2.35-1.29,4.76-2.52,6.81c-1.2,1.99-3.45,2.96-5.72,1.74c-2.04-1.09-2.34-3.08-1.54-5.22c0.03-0.07-0.19-0.24-0.29-0.36
				c-2.37,1.71-2.83,3.87-1.36,6.35c1.35,2.27,3.75,3.1,6.13,2.06c3.35-1.47,5.13-4.28,5.81-7.66c0.69-3.44,1.1-6.96,1.32-10.46
				c0.45-7.05,1.69-13.83,6.03-19.63C91.22,38.96,104.35,33,119.7,31.2z M150.99,109.19c4.07,2.58,10.6,0.05,11.61-4.11
				c0.15-0.62,0.22-1.5-0.1-1.94c-1.21-1.59-0.89-3-0.31-4.77c0.28-0.86-0.65-2.66-1.55-3.26c-5.16-3.41-14.83-0.98-18.03,4.35
				c-4.84,8.06,0.02,17.73,9.82,19.54c9.99,1.85,18.73-3.68,20.51-12.98c1.93-10.09-3.67-18.29-13.87-20.41
				c-7.05-1.47-13.79-0.2-20.46,2.05c-5.49,1.86-10.92,3.95-16.5,5.48c-12.3,3.37-23.31,0.6-33.01-7.63
				c-1.55-1.32-3.26-2.45-5.07-3.8c-0.36,3.55-0.3,6.43,2.57,8.59c4.45,3.34,9.11,6.21,14.62,7.44c10.49,2.35,20.58,0.83,30.44-3.1
				c4.59-1.83,9.12-3.97,13.88-5.13c3.96-0.96,8.32-1.37,12.33-0.81c8.25,1.17,13.18,7.96,12.49,16.06
				c-0.66,7.75-6.53,12.98-14.88,13.23c-8.03,0.25-13.96-5.24-13.47-12.48c0.41-6.12,4.97-10.24,10.51-9.5
				c3.9,0.52,7.06,3.59,6.96,6.76c-0.1,3.29-2.9,5.79-6.99,6.23C152.14,109.07,151.77,109.11,150.99,109.19z M307.43,80.93
				c-0.58-0.3-1.17-0.6-1.75-0.89c-0.68,1.02-1.34,2.06-2.05,3.06c-3.5,4.94-8.15,8.58-13.6,11.01c-17.02,7.58-34.54,8.3-52.36,3.15
				c-3.43-0.99-6.82-2.14-11-3.46c0.79,0.83,0.93,1.08,1.14,1.18c15.96,7.39,32.69,10.62,50.23,8.71c7.47-0.81,14.04-3.84,19.2-9.62
				c2.48-2.77,4.29-2.89,6.76-1.17c0.13-0.62,0.26-1.24,0.39-1.89c2.59,1.24,2.45,1.03,4.61-0.37c3-1.95,6.23-3.56,9.36-5.3
				c0.55-0.31,1.52-0.44,1.65-0.86c1.05-3.36,2.44-6.74,1.19-9.94c-3.26,3.23-6.53,6.46-9.79,9.69c-0.2-0.17-0.41-0.34-0.61-0.51
				c0.79-1.11,1.79-2.12,2.3-3.35c0.45-1.06,0.36-2.36,0.5-3.55c-0.42-0.12-0.84-0.25-1.26-0.37c-1.95,3.11-3.91,6.22-5.86,9.34
				c-0.07-0.1-0.13-0.19-0.2-0.29C306.68,83.98,307.06,82.46,307.43,80.93z M89.56,44.66c-6,5.66-10.62,12.03-11.78,20.52
				c-1.09,8.04,0.45,16.68-5.74,24.14c1.86,0.55,3.39,1.56,4.6,1.26c4.3-1.05,4.56-4.42,3.73-8.23c0.8,0.39,1.37,0.68,2.66,1.31
				C76.3,68.78,80.09,56.22,89.56,44.66z M324.49,84.73c2.43,1.54,4.48,0.99,6.31-0.42c3.52-2.72,7.23-5.27,10.34-8.4
				c4.19-4.22,6.53-9.53,6.86-15.58c0.37-6.81-4.26-12.86-10.58-13.84c-2.51-0.39-4.98,0.04-6.3,2.28c-0.65,1.11-0.68,3.31,0.02,4.3
				c0.73,1.02,2.81,1.78,4.05,1.5c0.97-0.21,1.78-2.09,2.25-3.38c0.32-0.88-0.06-2.03-0.12-3.06c3.33-0.09,5.86,1.4,7.45,4.72
				c2.81,5.86,2.34,11.64-1.08,17.11c-2.83,4.52-6.79,7.92-11.36,10.59C329.83,82.03,327.2,83.31,324.49,84.73z M125.62,120.44
				c-3.79-4.11-8.17-6.67-12.72-8.96c-6.45-3.25-12.98-6.33-19.35-9.72c-2.57-1.36-4.81-3.34-7.79-5.46
				c4.21,5.51,8.87,9.5,14.32,12.25C108.31,112.72,116.81,116.38,125.62,120.44z M368.18,111.25c-3.54-7.83-24.1-14.96-30.57-11.24
				c5.28,0.94,10.69,1.63,15.94,2.93C358.89,104.26,363.81,106.68,368.18,111.25z M252.65,89.76c-0.11-0.45-0.22-0.9-0.33-1.36
				c-4.16,0.08-7.44,3.18-11.5,3.57c0.1,0.34,0.19,0.67,0.29,1.01C244.95,91.91,248.8,90.84,252.65,89.76z"/>
			<path d="M117.72,129.92c0.45,2.24,0.74,3.66,0.99,4.9c-2.25-2.23-2.05-6.61,0.75-7.74c1.17-0.47,2.86,0.01,4.17,0.46
				c0.32,0.11,0.43,2.46,0.04,2.66c-1.17,0.62-2.63,0.76-3.99,0.94C119.34,131.19,118.93,130.69,117.72,129.92z"/>
			<path d="M273.68,76.9c0.96-0.37,1.93-0.74,2.81-1.07c0.08-0.33,0.14-0.51,0.15-0.68c0.1-1.04,0.19-2.07,0.28-3.11
				c0.74,0.27,2.13,0.58,2.12,0.8c-0.07,1.08-0.21,2.7-0.89,3.07c-1.29,0.7-2.98,0.68-4.51,0.95
				C273.62,76.85,273.68,76.9,273.68,76.9z"/>
			<path d="M412.4,89.97c-12.14-5.67-24.89-8.45-39.05-8.17C385.9,76.5,406.25,80.82,412.4,89.97z M407.15,86.21
				c-7.17-4.24-15.1-6.39-22.93-5.72C391.39,82.28,399.32,84.26,407.15,86.21z"/>
		</g>
	</g>
</g>
</svg>
