<?xml version="1.0" encoding="utf-8"?>
<!-- Generator: Adobe Illustrator 26.0.1, SVG Export Plug-In . SVG Version: 6.00 Build 0)  -->
<svg version="1.1" id="Layer_1" xmlns="http://www.w3.org/2000/svg" xmlns:xlink="http://www.w3.org/1999/xlink" x="0px" y="0px"
	 viewBox="0 0 486 144" style="enable-background:new 0 0 486 144;" xml:space="preserve">
<style type="text/css">
	.st0{clip-path:url(#SVGID_00000047044437262898183690000007572359815012112831_);}
</style>
<g>
	<defs>
		<polygon id="SVGID_1_" points="456.5,13.5 485.5,57.5 456.5,73 432.5,67.5 422.5,109.5 356.5,162.5 7.03,125 -8.5,33.5 93,13.5 
			334,4 374,4 		"/>
	</defs>
	<clipPath id="SVGID_00000170977419717491616360000004521740501482446470_">
		<use xlink:href="#SVGID_1_"  style="overflow:visible;"/>
	</clipPath>
	<g style="clip-path:url(#SVGID_00000170977419717491616360000004521740501482446470_);">
		<g>
			<path d="M468.59,573.57c-0.28-6.15-1.08-12.33-0.71-18.44c0.56-9.43,4.79-17.73,9.58-25.7c5.54-9.21,11.47-18.21,16.59-27.65
				c7.89-14.56,12.97-30.03,12.81-46.86c-0.01-0.74-0.06-1.47-0.51-2.32c-0.28,0.74-0.58,1.46-0.83,2.21
				c-3.61,10.77-8.35,20.86-17.25,28.43c-7.97,6.77-17.24,10.25-27.63,10.94c-4.17,0.27-8.38,0.48-12.47,1.25
				c-2.01,0.38-3.97,1.74-5.6,3.08c-0.7,0.58-0.57,2.24-0.66,3.42c-0.02,0.23,0.66,0.52,1.02,0.79c0.61-0.88,1.22-1.77,1.83-2.65
				c0.15-0.21,0.3-0.42,0.47-0.66c1.5,2.51,1.05,5.57-1.03,7.38c-2.41,2.1-6.59,2.08-9.27-0.05c-2.89-2.3-3.21-6.3-0.88-10.93
				c-3.25-4.37-3.34-7.21-0.37-11.02c-0.07-0.16-0.1-0.4-0.23-0.47c-14.18-7.35-21.96-19.77-27.19-34.23
				c-1.68-4.65-3.19-9.37-5.07-13.94c-1.96-4.76-4.86-8.87-9.78-11.06c-2.57-1.15-5.25-1.36-7.61,0.37
				c-2.39,1.76-2.81,4.44-2.49,7.2c0.44,3.91,3.39,5.95,7.33,5.3c-0.37-1.13-1.01-2.25-1.07-3.41c-0.11-2.02,1.11-3.21,3.11-3.34
				c2.16-0.14,2.75,1.41,2.86,3.15c0.17,2.62-1.92,4.74-4.88,4.92c-3.36,0.2-5.91-1.27-7.55-4.17c-1.66-2.93-1.2-6.92,1.21-9.59
				c3.05-3.37,6.87-4.8,11.34-3.45c6.27,1.89,10.8,6.11,13.73,11.76c3.36,6.49,6.21,13.26,9.27,19.91
				c1.83,3.97,3.37,8.11,5.55,11.88c1.86,3.24,4.44,6.07,6.95,8.79c-1.68-4.56-3.85-9.01-4.93-13.7c-2.5-10.88-1.36-21.57,3.1-31.84
				c2.99-6.89,6.42-13.62,8.92-20.69c1.49-4.21,2.13-8.91,2.17-13.4c0.05-6.5-3.21-11.73-9.25-14.22
				c-6.11-2.52-12.3-1.78-17.31,2.93c-5.04,4.73-6.38,10.82-4.46,17.31c2.42,8.19,12.65,10.98,18.65,5.37
				c3.14-2.94,3.5-6.84,0.94-10.26c-2.32-3.1-6.05-3.23-8,0.08c-1.23,2.08-1.57,4.69-2.4,7.35c-0.46-0.34-1.52-0.87-2.22-1.71
				c-3.09-3.7-2.36-9.02,1.53-12.02c0.36-0.28,0.65-0.69,0.9-1.08c2.06-3.19,3.86-3.66,7.27-1.99c0.69,0.34,1.61,0.77,2.26,0.58
				c4.69-1.34,7.69,0.44,8.55,5.22c0.1,0.55,0.18,1.1,0.28,1.68c0.64-0.18,1.17-0.32,2.51-0.69c-1.1,3.28-2.03,6.06-2.99,8.93
				c0.48,0.22,1.06,0.49,1.67,0.78c-0.06,0.33-0.05,0.64-0.18,0.86c-3.51,6.02-8.8,9.44-15.67,10.12
				c-10.34,1.02-18.63-7.81-18.38-19.35c0.23-10.54,7.3-18.97,17.39-20.72c11.03-1.91,20.33,3.27,24.19,13.51
				c2.89,7.66,2.5,15.38-0.13,22.94c-2.18,6.28-4.86,12.39-7.3,18.57c-3.52,8.9-5.54,18.02-3.63,27.62
				c1.32,6.63,4.37,12.4,9.12,17.48c-13.58-21.35-10.19-39.98,8.32-55.38c-1.3-2.15-2.63-3.66-3.09-5.41
				c-0.23-0.86,1.19-3.06,1.82-3.05c1.2,0.03,3.34,1.18,3.37,1.93c0.09,2.13-0.21,4.57-1.25,6.36c-1.36,2.33-3.59,4.15-5.46,6.18
				c-12.92,14.04-13.95,33.18-2.6,48.58c0.22,0.31,0.38,0.66,0.67,1.16c0.66-1.32,1.11-2.21,1.56-3.09
				c0.33,0.14,0.57,0.17,0.63,0.29c4.31,8.82,12.05,9.93,20.4,8.49c14.44-2.49,24.12-11.4,30.64-24.12
				c7.93-15.47,8.75-31.29,2.19-47.44c-0.32-0.79-0.67-1.57-1.03-2.35c-0.11-0.24-0.31-0.45-0.74-0.58
				c0.83,2.79,1.86,5.53,2.43,8.37c0.85,4.27,1.76,8.6,1.89,12.93c0.06,2.21-1.57,4.45-2.35,6.7c-0.29,0.83-0.39,1.74-0.53,2.61
				c-0.67,4-0.85,8.15-2.11,11.95c-1.17,3.51-3.73,6.15-8.22,5.5c-0.73-0.11-1.75,0.91-2.46,1.59c-5.4,5.16-11.46,8.82-19.25,8.62
				c-0.37-0.01-0.75-0.06-1.33-0.1c-0.1-0.82-0.2-1.61-0.3-2.47c-0.26,0.01-0.52,0.04-0.78,0.04c-3.3,0.04-6.64,0.42-9.88,0.02
				c-2.8-0.34-5.14-1.88-5.74-5.15c-0.14-0.78-1.04-1.47-1.68-2.11c-2.15-2.14-4.47-4.13-6.46-6.41c-0.95-1.09-1.6-2.64-1.86-4.08
				c-0.33-1.82,0.5-3.1,2.64-2.23c2.38,0.96,4.78,1.92,7.02,3.15c13.07,7.13,26.93,0.92,33.64-6.89
				c9.66-11.22,11.99-23.9,7.68-37.87c-3.69-11.96-10.86-21.67-20.37-29.78c0.78,0.93,1.55,1.87,2.34,2.8
				c6.74,7.91,12.24,16.54,14.96,26.66c1.78,6.63,2.05,13.44-0.28,19.98c-1.02,2.86-2.79,5.67-4.88,7.87
				c-3.27,3.45-9.08,3.46-12.85,0.57c-2.57-1.97-3.68-4.65-3.1-7.8c0.52-2.87,2.15-5.08,5.03-6.09c3.52-1.24,6.87,1.04,6.35,4.43
				c-0.16,1.04-1.11,2.08-1.96,2.81c-0.27,0.23-1.91-0.39-2.02-0.85c-0.29-1.16-0.17-2.46,0.01-3.67c0.07-0.44,0.77-0.78,1.27-1.24
				c-2.19-1.27-3.94-0.43-5.43,1.05c-1.95,1.93-2.35,4.32-1.38,6.85c1.85,4.84,8.09,6.03,12.44,2.39c2.84-2.38,4.23-5.59,4.88-9.13
				c1.28-6.99,0.7-13.77-1.95-20.45c-4.39-11.03-11.47-20.1-19.85-28.3c-6.87-6.73-13.78-13.42-20.57-20.22
				c-12.43-12.46-21.55-26.99-27.29-43.68c-1.94-5.65-4.52-11.09-7-16.54c-1.99-4.37-4.77-8.15-8.55-11.27
				c-1.2-0.99-1.4-3.19-2.06-4.83c-0.45-1.11-0.84-2.26-1.42-3.3c-0.55-0.99-1.41-1.8-1.97-2.79c-2.43-4.35-1.36-6.7,3.24-7.7
				c-0.8-2.01-2.54-4.2-2.22-6.04c0.5-2.88-0.03-5.47-0.25-8.2c-0.27-3.37,1.06-4.52,5.18-4.96c0.64-4.28-0.18-8.2-2.88-11.93
				c-0.4,0.36-0.71,0.56-0.91,0.83c-0.88,1.2-2.16,2.21-3.17,0.78c-0.5-0.71,0.02-2.87,0.81-3.61c1.69-1.61,3.74-0.9,5.48,0.33
				c4.99,3.53,8.15,8.32,8.85,14.4c1.1,9.64,1.58,19.36,2.91,28.97c2.7,19.59,8.1,38.34,18.99,55.14
				c4.8,7.42,11.53,14.23,17.14,17.39c-0.61-0.81-0.82-1.14-1.07-1.43c-26.02-30.13-35.42-64.75-27.89-103.85
				c2.38-12.33,5.5-24.51,7.9-36.83c1.69-8.7,0.96-17.21-3.62-25.17c-1.74-3.03-4.07-3.92-7.31-3.5c-3.73,0.48-5.14-1.03-4.65-4.82
				c0.34-2.65,1.66-4.09,6.22-6.71c-0.94-2.29-1.4-4.45,0.52-6.78c0.78-0.95,0.93-2.86-0.54-4.57c-1.13-1.32-1.47-3.87-1.17-5.71
				c0.36-2.29,2.65-3.33,4.85-3.16c2.57,0.2,5.09,0.98,7.85,1.55c-0.29-0.74-0.73-1.85-1.4-3.55c1.77,1.19,3.19,2.14,4.64,3.11
				c2.93-3.02,4.02-2.94,5.87,1.34c2.09,4.86,3.75,9.9,6.08,14.86c-0.61-3.72-0.87-7.54-1.91-11.14c-1.21-4.18-3.18-8.13-4.68-12.24
				c-1.22-3.34-0.57-4.28,2.82-4.71c-0.1-6.72,1.33-8.41,6.69-7.54c-1.38-4.33-3.3-8.51-2.41-12.95c1.4,0.71,2.63,1.34,3.86,1.96
				c0.22-0.25,0.44-0.5,0.66-0.75c-0.49-1.38-0.99-2.75-1.56-4.34c0.57,0.13,1.02,0.23,2.57,0.59c-1.76-3.23-2.95-5.98-4.67-8.33
				c-0.85-1.16-2.64-2.04-4.11-2.22c-1.26-0.16-3.16,0.5-3.84,1.46c-0.57,0.8,0.18,2.58,0.44,3.9c0.21,1.08,0.56,2.14,0.85,3.21
				c-1.32,0.17-2.79,0.8-3.92,0.42c-5.69-1.92-6.54-9.5-1.74-13.8c1.05-0.94,1.61-2.54,2.77-3.2c1.55-0.88,3.59-1.84,5.16-1.52
				c2.72,0.55,5.23,2.08,7.84,3.16c0.71,0.29,1.67,0.85,2.18,0.6c2.65-1.31,4.49-0.01,5.99,1.82c1.8,2.2,3.31,4.62,4.95,6.96
				c1.7-0.8,3.48-1.63,5.81-2.73c-0.25,1.56-0.36,2.27-0.47,2.93c0.21,0.19,0.33,0.39,0.49,0.43c3.39,0.77,4.28,2.03,4.11,5.92
				c-0.1,2.33-0.23,4.66-0.35,6.99c0.23,0.11,0.47,0.22,0.7,0.33c1.48-1.88,2.96-3.76,4.44-5.64c0.3,0.25,0.61,0.5,0.91,0.75
				c0.18,2.85,0.35,5.69,0.54,8.71c5.32-2.69,13.34-23.45,12.34-31.19c-0.8-0.14-1.72-0.11-2.42-0.49c-0.76-0.4-1.63-1.09-1.86-1.84
				c-0.18-0.58,0.35-1.86,0.89-2.09c0.84-0.36,2.32-0.49,2.85,0.01c0.87,0.81,1.76,2.26,1.65,3.34c-0.44,4.22-1.28,8.4-1.97,12.6
				c-0.06,0.35-0.12,0.7-0.25,1.44c5.98-9.98,8.92-28.37,6.53-38.05c-1.66-1.21-3.07-1.91-3.95-3.03c-0.43-0.54,0.11-1.86,0.22-2.83
				c0.96,0.15,2.24-0.03,2.79,0.52c0.88,0.88,1.52,2.18,1.82,3.41c2.39,10.05,1.16,19.91-2.15,29.5
				c-2.44,7.06-5.45,13.92-8.04,20.81c19.48-29.46,26.06-59.09,0.86-89.19c5.36-2.54,11.74,1.92,19.28,13.14
				c7.74-0.83,9.02,0.8,7.67,9.76c5.57,2.67,7.36,6.55,5.89,13.06c-0.39,1.71-0.46,3.01,0.73,4.65c1.86,2.56,1.67,5.55-0.26,8.3
				c1.25,0.51,2.38,0.97,4.07,1.66c-1.49,0.94-2.59,1.37-3.34,2.14c-3.04,3.1-6.9,5.83-8.77,9.54c-6.84,13.53-17.29,24-27.47,34.83
				c-8.46,9.01-16.47,18.44-24.56,27.8c-1.21,1.4-1.73,3.4-2.14,5.28c3.99-5.06,7.68-10.41,12.05-15.11
				c7.65-8.22,15.82-15.95,23.6-24.05c4.81-5.01,9.43-10.2,13.86-15.55c1.9-2.3,3.16-5.16,4.59-7.83c0.97-1.81,1.72-3.74,2.73-5.97
				c0.95,1.1,1.61,1.86,2.23,2.58c1.5-0.74,3-2.07,4.46-2.03c1.16,0.03,2.28,1.74,4.04,3.24c2.44-0.6,4.84-2.73,6.08-6.31
				c3.01,7.05,0.7,14.52-7.03,22.94c2.11,3.13,0.38,5.52-1.99,7.48c-2.85,2.35-5.92,4.43-8.89,6.62c1.96,2.33,1.87,3.01-1.1,4.17
				c-2.2,0.86-4.51,1.71-6.83,1.97c-16.42,1.84-28.19,11.06-37.92,23.58c-1.48,1.9-2.85,3.9-4.27,5.85c0.26,0.23,0.53,0.46,0.79,0.7
				c3.71-3.89,7.25-7.95,11.16-11.62c5.93-5.56,12.7-10.01,20.09-13.44c1.8-0.84,3.71-1.5,5.63-1.99c2.74-0.69,5.18-0.33,6.26,2.81
				c2.69-0.64,5.22-1.5,7.81-1.79c3.48-0.39,4.4,0.84,3.77,4.32c-0.03,0.19-0.06,0.38-0.11,0.56c-0.87,3.38-7.4,11.38-10.67,12.84
				c-1.34,0.6-1.76,1.45-2.27,2.8c-0.61,1.6-2.05,3.26-3.56,4.07c-3.42,1.83-7.1,3.2-10.71,4.66c-12.41,5-23.36,11.96-31.19,23.12
				c-1,1.43-1.85,2.97-2.41,4.69c2.17-1.78,4.27-3.66,6.53-5.31c6.51-4.78,13.7-6.86,21.79-5.32c7.54,1.44,13.43,8.09,13.06,15.09
				c-0.09,1.66-0.57,3.41-1.3,4.9c-1.68,3.43-4.71,4.59-7.76,3.27c-3.14-1.36-4.77-4.51-3.82-7.4c0.96-2.92,3.95-4.25,7.75-3.45
				c0.17,0.04,0.36,0,0.55,0c-0.69-3.49-3.79-6.61-8.04-7.79c-6.37-1.78-12.46-0.78-17.54,3.35c-3.54,2.87-6.35,6.63-9.49,10
				c0.2,0.2,0.4,0.4,0.6,0.6c2.55-1.85,4.96-3.93,7.68-5.46c2.44-1.37,5.17-2.37,7.89-3.07c1.54-0.39,3.61-0.22,4.11,1.98
				c0.11,0.49-0.7,1.61-1.27,1.76c-2.15,0.58-3.1-0.79-3.46-2.8c-8.58,2.28-14.15,8.06-18.66,15.17c1.86-1.65,3.6-3.47,5.62-4.9
				c1.51-1.07,3.32-1.8,5.1-2.33c0.63-0.19,1.65,0.58,2.31,1.13c0.19,0.16-0.23,1.57-0.49,1.61c-0.83,0.12-1.74-0.06-2.57-0.29
				c-0.24-0.06-0.33-0.67-0.76-1.63c-3.95,3.56-7.34,6.62-10.73,9.68c0.13,0.25,0.26,0.5,0.39,0.76c4.12-0.07,8.35-0.71,12.05,2.12
				c-2.51,1.7-4.92,3.34-7.47,5.07c3.82,3.35,3.77,4.67,0.21,7.94c-0.33,0.31-0.97,0.74-0.91,0.95c0.85,2.85-1.26,4.29-2.89,5.7
				c-22.8,19.71-26.16,45.09-21.34,72.86c0.19,1.12,0.56,2.21,0.86,3.31c0.04,0.16,0.23,0.28,0.37,0.43
				c2.16-6.7,1.22-13.35,0.09-20.02c-0.33-1.96-0.54-3.97-0.58-5.96c-0.06-2.73,0.73-4.97,3.99-5.08c0.25-3.23,0.34-6.36,0.78-9.44
				c0.22-1.55,0.9-3.13,1.75-4.46c0.48-0.75,1.72-1.01,2.64-1.47c0.75-0.38,1.52-0.73,3.03-1.45c1.25,2.25,2.62,4.71,3.9,7
				c1.41-2.61,0.84-6.51-1.59-10.61c0.81-2.04,1.51-3.79,2.19-5.54c0.13-0.35,0.12-0.76,0.25-1.11c0.8-2.36,8.17-6.79,10.69-6.61
				c0.93,0.06,1.99-0.27,2.84-0.7c4.48-2.25,8.97-2.64,13.31,0.13c4.83,3.08,5.17,9.83,0.81,13.12c-3.37,2.54-7.51,0.98-7.94-2.41
				c1.3-0.41,3.1-0.43,3.51-1.2c0.98-1.83,0.01-3.52-1.81-4.49c-2.24-1.2-4.41-0.73-6.49,0.53c-5.95,3.62-8.81,9.46-10.48,15.77
				c-1.6,6.04-2.35,12.3-2.84,18.72c0.57-1.46,1.3-2.87,1.66-4.38c1.04-4.34,1.9-8.73,2.9-13.08c0.25-1.1,0.65-2.21,1.19-3.2
				c0.92-1.67,2.48-2.26,4.07-1.21c0.6,0.4,0.54,1.78,0.79,2.72c-1.25,0.22-2.49,0.44-3.74,0.66c-0.15-0.27-0.3-0.54-0.45-0.81
				c-3.71,5.92-2.19,13.1-4.01,19.56c1-2.25,1.94-4.54,3.03-6.75c0.79-1.6,1.88-3.07,3.98-2.32c0.78,0.28,1.65,1.06,1.91,1.81
				c0.18,0.53-0.45,1.78-1,2c-0.71,0.28-1.72-0.06-2.56-0.29c-0.37-0.1-0.62-0.61-1.12-1.14c-2.16,4.34-4.2,8.45-6.3,12.69
				c3.05,2.78,4.03,6.04,2.27,8.45c-1.46,2-3.07,1.28-4.72,0.03c-6.9,8.81-9.23,18.65-7.43,29.39
				c2.68,15.98,12.17,27.03,26.28,34.16c10.28,5.19,23.69,2.03,31.63-6.74c6.1-6.74,10.6-19.62,3.05-31.18
				c-1.2-1.83-2.4-3.68-3.35-5.64c-0.6-1.24-0.35-2.99-1.13-4.02c-4.63-6.09-12.63-6.67-18.3-1.52c-0.42,0.38-0.79,0.88-1.28,1.12
				c-1.22,0.59-2.5,1.07-3.75,1.59c-0.32-1.28-0.64-2.57-0.99-3.95c-1.42,1.86-2.02,4.1-1.53,6.57c0.42,2.13,1.99,2.56,3.94,2.19
				c4.77-0.9,5.75-0.53,6.18,2.27c0.47,3.03-2.13,5.8-5.77,6.1c-0.65,0.05-1.3,0.01-1.94,0.01c-2.15,7.28-3.29,8.19-7.62,5.92
				c-1.35,3.24-3.27,6.13-6.81,7.11c-1.71,0.47-3.65,0.08-5.44,0.08c0.59-6.92,0.91-13.47,1.76-19.96
				c1.38-10.48,10.62-19.64,21.9-22.1c8.72-1.9,16.36,0.48,23.21,6.28c0.94-2.23,1.62-4.41,2.78-6.3c0.55-0.89,2.03-1.22,3.09-1.8
				c0.27,0.97,0.62,1.93,0.81,2.92c0.88,4.64,1.33,9.4,2.64,13.91c1.91,6.56,4.9,12.84,4.07,19.96c2.22-0.87,4.24-1.82,6.36-2.45
				c1.85-0.55,2.82,0.26,2.86,2.35c0.02,0.89,0.6,1.87,1.15,2.64c1.62,2.29,1.5,4.66,0.4,7.03c-1.04,2.23-2.81,3.48-5.65,3.39
				c0.29-0.95,0.53-1.69,0.8-2.57c-1.85-1.24-3.43-0.6-4.67,0.65c-1.67,1.68-3.2,3.52-4.64,5.4
				c-12.53,16.48-27.03,21.46-46.95,16.07c-1.63-0.44-3.27-0.86-5.13-0.79c2.28,1.19,4.55,2.39,6.83,3.57
				c7.76,4.03,15.64,7.84,23.24,12.15c8.85,5.02,16.25,11.89,23.06,19.42c5.93,6.57,9.86,14.19,12.04,22.73
				c1.51,5.9,3.86,11.29,8.61,15.35c0,0.19,0,0.38,0,0.57c-1.2,0.17-2.46,0.67-3.6,0.47c-5.54-1-10.14-3.61-13.45-8.34
				c-0.56-0.8-1.57-1.67-2.46-1.77c-4.13-0.47-7-2.65-8.36-6.4c-0.96-2.63-1.17-5.54-1.78-8.31c-0.16-0.74-0.41-1.86-0.93-2.06
				c-5.61-2.3-7.39-7.01-8.19-12.44c-0.1-0.66-0.4-1.64-0.88-1.85c-3.34-1.46-4.72-4.53-6.47-7.36c-1.14-1.83-2.52-3.51-3.8-5.25
				c-0.22,0.17-0.45,0.35-0.67,0.52c0.74,1.17,1.48,2.34,2.24,3.51c9.04,13.9,17.34,28.21,23.6,43.6
				c5.54,13.63,10.47,27.48,9.87,42.48c-0.28,6.9-1.46,13.75-2.26,20.87c0.07,0.02,0.87,0,1.07,0.33c0.6,1.02,1.46,2.25,1.29,3.24
				c-0.15,0.85-1.82,2.2-2.4,2.02c-0.95-0.3-1.93-1.56-2.23-2.61c-0.29-0.98,0.28-2.21,0.49-3.33c1.01-5.51,2.45-10.98,2.94-16.54
				c1.09-12.38-2.03-24.17-5.94-35.78c-0.63-1.87-1.39-3.7-2.09-5.54c0.84,4.23,2.14,8.29,3.13,12.43
				c4.43,18.58,4.3,36.79-4.62,54.24c-3.03,5.93-6.2,11.78-9.19,17.72c-1.08,2.15-1.81,4.48-2.7,6.74c0.67,0.24,0.86,0.38,1,0.35
				c1.77-0.39,3.13,0.03,3.28,2.04c0.13,1.77-0.79,2.95-2.65,3.04c-2.11,0.1-2.75-1.48-2.45-3.04c0.58-3.04,1.19-6.18,2.46-8.96
				c2.49-5.44,5.76-10.54,8.12-16.03c2.65-6.18,5.01-12.53,6.78-19c1.15-4.21,1.01-8.77,1.45-13.17c-0.25-0.03-0.5-0.05-0.75-0.08
				c-0.08,0.16-0.21,0.32-0.23,0.48c-1.98,17.8-8.49,33.77-18.76,48.42c-3.74,5.34-6.84,11.21-9.57,17.14
				c-1.64,3.56-1.99,7.72-2.96,11.77c0.96,0,1.16,0.05,1.32-0.01c1.68-0.54,3.46-0.3,3.48,1.57c0.01,1.21-1.29,3.02-2.46,3.53
				c-1.88,0.81-2.57-1.01-2.9-2.56c-0.19-0.92-0.18-1.89-0.15-2.84c0.15-5.52,1.5-10.76,4.21-15.56c4.21-7.45,8.87-14.66,12.8-22.25
				c3.7-7.14,7.11-14.5,9.91-22.03c2.62-7.04,3.55-14.54,3.21-22.72c-0.36,0.8-0.52,1.03-0.56,1.28
				c-2.44,15.37-7.56,29.88-14.78,43.58c-6.07,11.52-12.82,22.69-19.13,34.09c-5.82,10.5-10.28,21.46-10.11,33.78
				C469.36,573.57,468.97,573.57,468.59,573.57z M431.81,405.54c1.29-4.19,2.44-8.38,1.43-12.86c-1.1-4.9-3.34-6.02-7.66-3.65
				c-3.84-2.94-4.75-2.84-7.87,0.81c-0.43,0.5-0.95,0.93-1.47,1.34c-3.28,2.59-3.63,5.99-1.06,9.06c0.48-1.68,0.73-3.62,1.57-5.26
				c2.13-4.15,6.99-5.3,10.35-2.65c4.74,3.73,5.03,11.65,0.57,15.7c-6.14,5.58-16.58,3.96-20.41-3.38
				c-3.65-6.98-2.82-13.91,1.62-20.22c4.23-6.02,10.5-7.28,17.29-5.97c7.31,1.41,11.51,6.23,13.29,13.32
				c1.73,6.9,0.13,13.43-2.48,19.76c-2.39,5.8-5.38,11.37-7.48,17.27c-5.59,15.72-6.44,31.19,3.1,46.02
				c2.78,4.32,6.03,6.78,11.65,5.73c-1.54-2.21-2.93-4.35-4.47-6.38c-8.22-10.79-11.45-22.79-7.8-35.99
				c2.02-7.3,5.03-14.34,7.75-21.43c3.36-8.77,5.46-17.66,3.09-27.04c-1.55-6.15-4.96-10.92-11.03-13.29
				c-7.19-2.8-14.28-2.73-20.55,2.2c-6.49,5.11-8.56,12.1-7.38,20.14c0.93,6.35,4.07,11.04,10.37,13.09
				c6.34,2.06,11.81,0.58,16.27-4.43c0.42,0.08,1.06,0.39,1.23,0.22c1.16-1.16,2.22-2.42,3.32-3.65c-0.29-0.29-0.58-0.58-0.86-0.86
				C433.39,403.94,432.6,404.74,431.81,405.54z M475.43,452.4c-2.04,3.52-6.99,4.52-7.65,9.4c3.35-0.88,6.63-1.83,9.6-3.39
				c6.43-3.38,9.95-9.14,12.01-16.02c-0.2,2.34-0.94,4.44-1.34,6.6c-0.2,1.08,0.23,2.27,0.37,3.41c1.2-0.34,2.65-0.38,3.53-1.1
				c1.04-0.86,2.01-2.23,2.27-3.52c0.71-3.5,1.37-7.07,1.39-10.62c0.02-3.11-0.84-6.23-1.31-9.35c0.18-0.06,0.36-0.12,0.54-0.18
				c0.82,1.61,1.64,3.22,2.46,4.83c0.28-0.02,0.56-0.04,0.84-0.06c0.25-1.6,0.69-3.21,0.73-4.81c0.18-8.98-2.32-17.49-4.77-26.01
				c-0.4-1.39-0.72-2.8-1.07-4.2c0.94,0.25,1.41,0.7,1.8,1.21c0.62,0.84,1.26,1.68,1.77,2.59c10.03,17.74,11.35,35.75,1.94,54.23
				c-6.03,11.83-14.36,21.16-27.37,25.14c-9.22,2.82-18.26,3.13-25.55-5.3c0.56,2.02,1.15,4.13,2.44,5.64
				c2.55,2.99,6.23,3.95,10.01,4.17c9.32,0.54,17.71-2.39,25.14-7.77c11.55-8.37,17.9-20.19,21.38-33.76
				c0.12-0.46,0.14-0.94,0.28-1.4c0.12-0.41,0.33-0.79,0.79-1.85c-1.58,14.39-7.51,26.05-16.35,36.26
				c-7.84,9.06-17.77,14.13-29.97,14.26c-3.52,0.04-7.06,0.15-10.55,0.55c-2.81,0.32-5.64,0.91-8.33,1.79
				c-2.92,0.95-4.99,3.12-6.15,6c-1.14,2.84,0.34,5.87,3.39,7.21c2.89,1.27,5.15,0.54,6.73-2.3c-0.55,0.13-0.98,0.26-1.43,0.33
				c-2.16,0.37-4.38-0.01-5.05-2.13c-0.49-1.56-0.36-4.19,0.64-5.16c1.87-1.81,4.44-3.45,6.96-3.92c3.87-0.73,7.95-0.56,11.93-0.5
				c5.57,0.08,11.04-0.29,16.28-2.34c13.48-5.27,22.53-15.14,27.79-28.29c2.76-6.9,4.2-14.33,6.08-20.96
				c-0.13-0.38,0.07,0.03,0.15,0.47c1.67,9.54,1.85,19.11,0.5,28.71c-1.63,11.59-6.39,22.08-11.61,32.35
				c-6.24,12.3-12.77,24.45-19.14,36.68c-0.72,1.38-1.22,2.87-1.82,4.3c4.27-6.72,8.47-13.42,12.12-20.4
				c5.54-10.61,11.08-21.25,15.89-32.2c4.75-10.82,8.03-22.19,8.91-34.1c1.49-20.3-4.54-38.78-14.32-56.15
				c-5.44-9.68-11.64-18.93-17.42-28.26c0.15,0.04,0.69,0.13,1.19,0.31c5.76,2.15,9.62,6.27,12.31,11.69
				c0.55,1.11,1.5,2.55,2.51,2.77c0.98,0.22,2.27-0.92,2.8-1.17c0.24,2.7,0.07,5.91,0.9,8.84c0.88,3.1,2.57,6.07,6.72,6.85
				c0.12-2.14,0.21-3.89,0.31-5.65c0.26-0.03,0.52-0.06,0.78-0.08c0.26,2.26,0.57,4.52,0.78,6.79c0.3,3.21,0.12,6.52,0.88,9.61
				c1.08,4.36,4.83,6.71,9.01,5.97c-0.54-3.2-1.08-6.41-1.61-9.63c1.68,4.38,2.73,9.01,4.77,13.16c2.1,4.28,7.89,7.1,12.05,6.76
				c-4.12-4-6.04-8.99-7.53-14.27c-2.05-7.29-4.71-14.44-10.05-19.96c-5.34-5.53-11.04-10.77-16.99-15.63
				c-9.14-7.46-19.94-12.13-30.48-17.23c-5.21-2.53-10.05-5.83-15.05-8.78c6.56,0.95,12.67,2.75,18.88,3.98
				c11.88,2.34,23.05,0.99,32.05-8.06c3.21-3.22,5.82-7.02,8.84-10.45c1.74-1.98,3.59-3.95,5.71-5.49c1.19-0.86,3.15-1.38,4.52-1.05
				c1.02,0.25,1.65,2.12,2.57,3.42c1.56-1.68,2.26-4.02,1.14-6.03c-0.77-1.38-2.9-2.01-4.3-2.89c0.53-0.57,1.44-1.55,2.34-2.54
				c-0.23-0.32-0.47-0.64-0.7-0.96c-2.02,1.22-4.21,2.22-6,3.72c-1.9,1.59-3.41,3.64-5.27,5.7c1.83-7.66,2.05-11.01,0.53-17.45
				c-1.84-7.8-3.92-15.54-5.84-23.1c-2.56,3.83-2.51,15.01,0.24,18.96c2.43,3.51,3.73,7.35,3.35,11.65
				c-1.51-4.63-2.59-9.42-6.87-12.52c0.22,0.9,0.66,1.69,1.09,2.48c0.5,0.92,1.04,1.82,1.5,2.76c4.94,10.12,4.61,19.88-2.33,29
				c-8.54,11.21-23.79,14.59-37.05,8.21c-14.96-7.19-29.71-26.26-25.86-50.95c0.61-3.91,1.74-7.83,3.25-11.48
				c1.71-4.11,4.44-4.58,8.12-2.1c0.44,0.3,0.97,0.44,1.45,0.65c1.42-2.58,1.02-5.15-0.94-6.75c-2.22-1.8-4.42-0.99-5.77,0.84
				c-2.73,3.71-5.61,7.48-7.39,11.67c-2.81,6.62-2.46,13.78-1.66,20.84c0.26,2.34,0.63,4.66,0.95,6.99
				c-1.62-1.55-2.68-3.22-3.57-4.98c-9.75-19.3-13.31-39.75-11.21-61.21c1.1-11.18,5.09-21.01,13.9-28.51
				c0.9-0.77,1.22-2.21,1.81-3.33c-1.14-0.41-2.27-0.82-3.77-1.36c1.24-1.01,2.57-2.09,4.14-3.38c-1.66-1.77-0.06-2.87,1.28-4.17
				c4.48-4.35,7.23-9.51,7.12-15.93c-0.11-6.46-1.13-7.7-7.35-8.81c-2.49-8.76-3.33-9.35-8.61-6.11
				c-6.32-10.03-8.15-11.97-12.58-12.94c7.36,9.27,6.86,19.45,4.63,29.91c-2.48,11.63-5.14,23.23-7.28,34.92
				c-6.54,35.64,0.77,68.04,23.27,96.72c3.34,4.27,6.87,8.39,10.46,12.77c-0.5-0.17-0.77-0.23-1.02-0.34
				c-0.69-0.33-1.37-0.66-2.04-1.02c-9.11-4.91-16.08-12.1-21.7-20.65c-12.2-18.55-16.95-39.51-19.5-61.14
				c-0.92-7.84-1.35-15.73-2.34-23.56c-0.47-3.71-1.95-7.19-4.66-9.98c0.47,5.23,0.93,10.32,1.46,16.18
				c-0.97-1.61-1.32-2.73-2.08-3.3c-0.96-0.73-2.26-1.01-3.42-1.49c-0.37,1.15-1.32,2.52-0.99,3.42c0.76,2.08,2.13,3.93,3.26,5.88
				c1.11,1.91,2.23,3.82,3.34,5.73c-0.22,0.12-0.44,0.24-0.66,0.36c-1.5-1.73-3-3.46-4.5-5.19c-0.28,0.23-0.55,0.46-0.83,0.69
				c-0.44,3.01,1.9,4.65,3.55,6.62c1.67,2,3.46,3.93,3.45,7.47c-1.24-1.87-2.03-3.25-3.01-4.48c-1.27-1.6-3.06-2.73-4.96-1.53
				c-2.1,1.33-1.26,3.36-0.22,5.04c0.69,1.12,1.59,2.14,2.49,3.11c1.43,1.52,3.05,2.88,4.41,4.47c0.94,1.11,1.57,2.49,2.34,3.76
				c-2.48-1.13-2.9-4.6-6.6-4.29c1.31,2.07,2.4,3.93,3.63,5.68c2.06,2.94,4.66,5.6,6.23,8.77c2.82,5.69,5.37,11.57,7.46,17.57
				c6.05,17.3,15.06,32.65,28.93,44.82c6.57,5.77,13.44,11.2,20.3,16.63c9.91,7.84,18.43,16.81,23.48,28.6
				c6.6,15.43,6.22,30.23-4.62,43.8c-9.64,12.09-24.07,15.16-37.85,8.26c-2.01-1-4.01-2.02-6.01-3.03
				c-0.24,0.18-0.48,0.36-0.73,0.53c0.69,1.45,1.08,3.16,2.11,4.31c4.85,5.39,10.77,8.52,18.41,7.58c-0.03,0.36-0.06,0.71-0.09,1.07
				c-2.97,0.18-5.94,0.36-8.83,0.54C454.16,461.74,462.69,460.34,475.43,452.4z M514.91,81.91c-2.45,8.25-7.49,14.16-12.97,19.76
				c-3.66,3.75-7.46,7.35-11.08,11.13c-7.64,7.97-15.32,15.9-22.76,24.05c-11.08,12.14-17.16,27.05-22.83,42.15
				c-0.26,0.68-0.58,1.34-1.19,2.75c0.25-10.57,4.24-22.69,10.83-33.92c0.56-0.95,1.17-2.05,1.2-3.1c0.31-11-1.94-21.56-5.74-31.82
				c-0.23-0.63-1.22-1.07-1.94-1.41c-0.9-0.42-1.89-0.64-3.11-1.03c1.52,7.44,6.09,13.96,5.78,21.74c-0.4-0.64-0.57-1.36-0.86-2.03
				c-1.05-2.43-1.94-4.98-3.32-7.21c-0.6-0.97-2.27-1.28-3.45-1.89c-0.58,1.29-1.58,2.56-1.62,3.86c-0.05,1.65,0.65,3.33,1.08,4.98
				c1.21,4.69,2.59,9.34,3.63,14.07c0.47,2.16,0.28,4.46,0.39,6.7c-0.23,0.01-0.47,0.02-0.7,0.03c-0.35-2.14-0.51-4.32-1.08-6.4
				c-1.26-4.56-2.66-9.09-4.18-13.58c-0.22-0.66-1.39-1-2.13-1.49c-0.28,0.9-0.94,1.89-0.76,2.69c0.35,1.55,1.06,3.05,1.81,4.47
				c3.93,7.52,4.94,15.52,4.04,23.84c-0.15,1.42-0.64,2.8-1.1,4.75c-0.78-4.44-1.17-8.25-2.17-11.9c-1.03-3.73-2.46-7.39-4.08-10.92
				c-1.69-3.69-2.55-3.68-4.99-0.56c-0.69-0.59-1.38-1.18-2.12-1.82c-0.35,1.03-0.64,1.89-0.97,2.88c-2.02-1.06-3.76-2.45-5.71-2.84
				c-1.53-0.31-3.88,0.12-4.83,1.16c-0.95,1.03-1.02,3.33-0.7,4.92c0.27,1.31,1.67,2.38,2.56,3.55c-0.37,0.49-0.9,1.02-1.23,1.66
				c-0.36,0.7-0.42,1.56-0.81,2.23c-1.49,2.5-0.59,4.39,2.31,4.68c3.95,0.4,7.39,3.59,8.28,7.7c-1.01-1.23-1.9-2.58-3.05-3.66
				c-3.95-3.69-10.43-3.16-12.96,1.14c-0.57,0.97-0.61,2.59-0.21,3.66c0.22,0.6,1.87,1.04,2.82,0.95c6.4-0.66,11.3,1.86,15.13,6.81
				c0.66,0.85,1.3,1.72,1.95,2.57c0.79-13.48-2.9-25.21-11.96-35.28c2.6,1.14,5.31,2.26,7.15,4.2c9.18,9.65,10.21,21.84,9.96,34.4
				c5.39,0.41,5.89,4.72,7.39,8.71c2.56-4.63,4.44-9.51,6.93-14.06c2.55-4.65,5.39-9.22,8.67-13.38c3.28-4.16,7.02-8.04,10.99-11.57
				c4.04-3.59,8.45-6.82,12.97-9.78c4.44-2.92,9.1-5.58,13.89-7.85c4.75-2.25,9.8-3.87,14.71-5.76c0.11,0.28,0.23,0.56,0.34,0.84
				c-0.3,0.19-0.59,0.39-0.9,0.57c-8.66,4.97-17.52,9.61-25.92,14.99c-15.15,9.69-27.17,22.29-34.04,39.24
				c-0.35,0.87-0.59,1.8-0.88,2.7c3.77-6.99,8.04-13.46,13.86-18.82c8.52-7.84,18.74-12.53,29.58-16.13
				c2.69-0.89,5.33-2.05,7.78-3.47c1.13-0.65,1.72-2.23,2.55-3.39c-0.23-0.17-0.47-0.34-0.7-0.51c-2.85,0.27-5.69,0.54-8.54,0.81
				c-0.04-0.24-0.09-0.48-0.13-0.72c4.96-2.88,11.49-1.64,16.61-5.87c-1.71-0.28-2.8-0.45-4.3-0.7c0.81-0.59,1.34-0.94,1.83-1.34
				c2.05-1.67,4.3-3.18,6.04-5.13c0.81-0.91,0.62-2.71,0.89-4.11c-1.25-0.13-2.55-0.53-3.74-0.31c-1.76,0.32-3.41,1.27-5.17,1.55
				c-0.81,0.13-2.3-0.49-2.57-1.15c-0.94-2.27-2.51-2.49-4.39-1.73c-2.91,1.17-5.9,2.24-8.57,3.84
				c-13.04,7.79-24.36,17.56-33.43,29.83c-1.2,1.63-2.44,3.22-3.66,4.83c1.9-6.73,5.04-12.78,9.18-18.24
				c8.97-11.83,19.39-21.78,34.47-25.27c3.42-0.79,6.92-1.25,10.37-1.96c0.98-0.2,1.89-0.74,3.21-1.27
				c-3.47-1.9-3.81-1.87-16.69,1.04c3.15-2.6,6.6-3.12,10-3.77c6.6-1.26,11.76-5.15,16.74-9.31c0.57-0.48,0.57-1.64,0.83-2.49
				c-0.86-0.02-1.81-0.28-2.58-0.02c-1.88,0.64-3.72,1.47-5.52,2.33c-2.33,1.11-4.61,2.34-6.91,3.51c2.1-2.06,4.53-3.51,6.93-5.03
				c3.12-1.98,6.46-3.73,9.25-6.11c4.71-4.01,7.36-11.18,6.42-15.84c-1.18,1.07-2.2,2.48-3.58,3.12c-2.47,1.14-3.88,3.12-5.54,5.08
				c-1.81,2.13-4.2,3.77-6.34,5.63c-0.18-0.22-0.37-0.45-0.55-0.67c1.7-1.51,3.56-2.87,5.04-4.56c1.21-1.39,2.17-3.09,2.83-4.82
				c0.27-0.72-0.28-2.11-0.92-2.68c-0.38-0.34-1.82,0.11-2.49,0.6c-0.95,0.69-1.63,1.75-2.48,2.71
				C516.27,83.69,515.76,83.02,514.91,81.91z M464.82,96.16c-1.43,1.07-2.54,1.9-3.73,2.78c-1.81-2.57-3.44-5.13-5.34-7.46
				c-1.39-1.71-3.14-3.08-5.29-1.05c-3.59-2.59-7.07-4.9-11.53-4.9c-1.7,0-2.76,0.37-1.6,2.27c-5.2,1.93-7.44,5.81-6.04,10.2
				c0.97,3.04,2.61,4.09,5.43,3.27c-0.43-0.57-0.84-1.07-1.2-1.61c-1.61-2.4-1.46-5.17,0.38-7.06c1.82-1.88,4.78-2.22,7.36-0.51
				c4.68,3.09,6.71,7.83,7.73,13.14c0.25,1.28,0.47,2.67,1.14,3.74c5.52,8.79,7.49,18.41,6.99,28.65c-0.05,1.06-0.11,2.12-0.14,2.73
				c10.22-10.89,20.5-21.83,30.76-32.78c8.15-8.7,15.9-17.69,20.95-28.68c1.87-4.06,5-7.15,8.91-9.38c0.6-0.34,1.14-0.8,2.2-1.55
				c-9.08-0.54-10.54,6.82-14.08,11.8c1.6-5.35,3.7-10.33,8.28-13.94c1.28-1.01,2.48-2.52,2.95-4.03c0.33-1.06-0.64-2.52-1.03-3.8
				c-0.98,0.42-2.25,0.59-2.9,1.31c-1.48,1.66-2.66,3.59-3.96,5.41c0.05-1.15,0.32-2.24,0.84-3.19c1.37-2.5,3.04-4.85,4.24-7.42
				c1.5-3.21,1.7-6.68,0.32-9.97c-0.38-0.9-1.86-1.34-2.83-1.99c-0.45,0.83-1.18,1.63-1.3,2.5c-0.21,1.64-0.06,3.32-0.06,4.98
				c-0.39-0.02-0.77-0.04-1.16-0.05c0.12-2.53,0.11-5.07,0.39-7.58c0.21-1.88,0.91-3.7,1.17-5.58c0.56-4.01-1.86-5.8-5.86-4.23
				c0.25,1.25,0.56,2.53,0.75,3.82c0.19,1.29,0.26,2.59,0.41,4.29c-0.55-0.46-0.66-0.51-0.68-0.58c-0.15-0.44-0.29-0.89-0.43-1.34
				c-2.4-7.56-6.61-13.89-12.95-18.69c-1.47-1.11-3.11-2.49-5.65-1.2c1.19,1.42,2.13,2.71,3.25,3.83c4.48,4.48,7.49,9.83,9.42,15.79
				c3.72,11.46,4.46,23.22,2.09,34.97c-3.07,15.18-10.95,28.07-20.63,39.9c-1.58,1.92-3.84,3.28-5.78,4.9
				c-0.24-0.11-0.49-0.22-0.73-0.34c0-3.03,0-6.05,0-9.08c-0.23-0.08-0.45-0.17-0.68-0.25c-1.21,1.59-2.42,3.17-3.69,4.83
				c-2.58-2.68-1.97-5.97-1.88-9.16c0.11-3.81-0.79-4.76-4.61-4.93C464.95,98.15,464.9,97.37,464.82,96.16z M441.25,221.28
				c2.61,2.05,2,4.07,0.68,6.03c-0.58,0.86-1.32,1.65-2.12,2.3c-6.9,5.55-10.43,13.05-11.85,21.51
				c-2.54,15.15-1.31,30.17,2.73,44.93c1.59,5.81,3.74,11.47,5.63,17.2c0.66-0.39,0.77-0.58,0.73-0.75
				c-0.22-0.92-0.43-1.85-0.73-2.75c-5.99-17.8-7.38-35.85-3.15-54.25c3.14-13.66,8.87-25.67,20.92-33.8
				c0.39-0.26,0.87-0.55,1.05-0.94c0.35-0.77,0.52-1.62,0.76-2.44c-0.88-0.07-1.84-0.39-2.61-0.14c-1.17,0.38-2.21,1.16-3.3,1.77
				c0.57-1.16,1.34-2.02,2.29-2.54c2.24-1.24,4.66-2.18,6.84-3.52c0.86-0.53,1.29-1.77,1.92-2.68c-1.23-0.09-2.51-0.4-3.69-0.18
				c-0.85,0.16-1.53,1.08-2.35,1.56c-0.79,0.46-1.66,0.78-2.5,1.16c-0.12-0.2-0.23-0.41-0.35-0.61c4.08-3.73,8.16-7.45,12.16-11.12
				c-3.15-1.62-6.93-0.36-10.64,0.56c-0.86,0.21-1.67,1.25-2.2,2.09c-2.14,3.45-3.93,7.14-6.32,10.4c-1.42,1.94-3.08,3.4-0.85,5.97
				C443.21,221.12,442.48,221.18,441.25,221.28z M468.83,302.44c0.33,0.09,0.66,0.17,0.99,0.26c-1.72,5.31-1.64,10.68-0.6,16.05
				c0.26,1.37,0.71,2.81,1.46,3.96c1.2,1.86,2.91,1.65,3.95-0.3c1.17-2.18,0.89-4.13-0.74-6.04c-1.23-1.44-2.22-3.09-3.32-4.64
				c2.09,1.25,3.57,2.98,5.37,4.28c2.65,1.92,5.71,1.43,7.24-1.08c0.5-0.82,0.3-2.07,0.43-3.13c-0.93-0.09-1.86-0.26-2.78-0.24
				c-0.65,0.02-1.28,0.35-1.93,0.47c-4.06,0.78-6.17-1.14-5.86-5.29c0.51-6.72,5.7-11.36,13.42-11.86
				c6.93-0.45,13.08,1.5,18.52,6.31c-0.17-1.76-0.25-3.82-1.31-4.76c-13.01-11.54-36.93-5.06-41.75,11.74
				c-2.04,7.14-1.79,14.93-2.59,22.43c0.27,0.25,0.54,0.5,0.81,0.75c1.72-0.95,4.13-1.48,5-2.94c1.49-2.49,2.5-5.5,2.81-8.39
				c0.36-3.36-0.47-6.82-0.38-10.23C467.67,307.33,468.4,304.88,468.83,302.44z M459.3,241.65c-1.06-1-2.02-1.91-2.98-2.82
				c-0.83,1.17-1.79,2.26-2.44,3.52c-0.55,1.08-0.85,2.33-1.05,3.54c-0.18,1.07-0.37,2.29-0.03,3.26
				c2.21,6.32,0.08,12.15-1.67,18.04c-0.39-4.82,0.18-9.78-3.28-13.86c-0.61,0.3-1.3,0.89-1.57,0.73c-2.65-1.53-3.31,0.76-3.77,2.25
				c-0.65,2.14-0.87,4.46-0.94,6.72c-0.08,2.85,0.23,5.71,0.25,8.56c0,0.96-0.39,1.91-0.61,2.87c-0.15-0.05-0.3-0.1-0.45-0.15
				c-0.12-1.73-0.24-3.46-0.37-5.3c-4.31,1.41-4.5,8.21-0.9,17.29c1.56-2.71,3.09-5.38,4.82-8.38c0.87,1.73,1.52,3.02,2.17,4.31
				c0.33,0.08,0.66,0.17,0.99,0.25c1.11-1.84,2.69-3.54,3.24-5.54c1.95-7.06,3.44-14.24,5.3-21.32c1.53-5.86,3.91-11.35,8.27-15.74
				c2.41-2.42,5.19-4.18,8.77-4.2c3.55-0.02,6.11,1.75,6.44,4.77c0.13,1.2-0.16,2.75-0.87,3.67c-0.75,0.97-2.23,1.38-3.33,2
				c3,0.5,4.88-0.58,6.07-3.58c1.23-3.1,0.18-6.45-2.61-8.28c-3.36-2.2-9.63-1.84-12.66,0.81c-0.57,0.49-0.9,1.26-1.03,1.46
				c-1.32-0.56-2.88-1.85-3.83-1.5C457.92,236.25,460.23,239.57,459.3,241.65z M487.89,476.14c-14.07,10.49-28.98,14.38-46.24,5.49
				c0.94,1.71,1.33,2.42,1.79,3.26c-5.62-0.82-8.38,0.01-9.63,2.95c-1.07,2.53-0.24,4.56,1.2,5.67c3.54-1.29,6.45-2.9,9.53-3.34
				c5.35-0.76,10.79-0.92,16.21-1.08C471.76,488.77,480.43,483.69,487.89,476.14z M496.35,184.42c-1.63-0.2-3.04-0.73-4.23-0.43
				c-1.41,0.36-3.36,1.17-3.76,2.26c-0.47,1.3,0.01,3.43,0.87,4.64c1.78,2.48,4.74,2.28,6.82-0.17c2.61-3.06,2.3-6.54,0.93-9.95
				c-3.03-7.54-10.58-11.07-19.64-9.12c-11.2,2.41-18.55,9.83-24.52,19.05c-1.51,2.33-1.89,4.49-0.41,6.93
				c0.18-0.19,0.34-0.3,0.42-0.46c0.39-0.76,0.75-1.53,1.14-2.29c3.85-7.58,8.73-14.31,16.12-18.81c6.78-4.12,13.84-4.45,20.88-0.64
				C494.36,177.26,496.28,180.18,496.35,184.42z M401.26,430.38c2.19,5.65,4.21,11.54,6.73,17.21c2.96,6.65,5.99,13.32,9.67,19.58
				c2.38,4.04,5.99,7.34,9.05,10.98c-2.6-5.08-5.67-9.74-8.1-14.71c-3.04-6.22-5.46-12.73-8.31-19.05
				C407.95,439.19,405.25,434.18,401.26,430.38z M448.16,188.66c2.76-5.73,5.05-11.72,8.38-17.06c3.34-5.37,7.36-10.43,11.72-15.02
				c4.36-4.59,9.3-8.72,14.38-12.51c4.98-3.71,10.46-6.75,15.72-10.09C475.43,142.31,447.8,172.69,448.16,188.66z M434.83,181.77
				c4.85-8.56-2.62-32.36-11.69-37.21C432.83,155.47,434.56,168.38,434.83,181.77z M479.26,304.21c3.68-2.83,6.53-7.32,11.61-6.42
				c4.29,0.76,8.43,2.38,11.87,3.4c-4.08-4.68-13.66-6.76-19.96-3.76C479.93,298.78,478.81,300.73,479.26,304.21z M458.03,137.72
				c0.65-9.49-1.61-18.91-6.62-27.35C453.61,119.44,455.88,128.84,458.03,137.72z M446.23,172.44c3.42-7.26,6.81-14.41,10.12-21.59
				c0.29-0.63,0.04-1.52,0.04-2.28C451.39,155.92,448.03,163.81,446.23,172.44z M438.53,296.14c0.23,0.07,0.46,0.14,0.69,0.22
				c1.57-3.52,3.23-7.02,4.66-10.59c0.45-1.11,0.3-2.45,0.43-3.69c-0.43-0.08-0.85-0.17-1.28-0.25
				C441.53,286.59,440.03,291.36,438.53,296.14z"/>
			<path d="M194.14,76.69c-1.1-4.51-4.25-8.57-3.12-13.58c0.68-2.99,2.35-5.17,5.43-6c2.64-0.71,4.9,0,6.69,2.05
				c2.31,2.66,1.29,6.06-1.56,6.81c-0.5-1.09-0.96-2.08-1.41-3.06c-1.22,0.68-3.21,1.13-3.49,2.08c-0.45,1.52-0.25,3.65,0.54,5.03
				c2.88,5.09,8,7.28,13.29,8.53c5.29,1.24,10.77,1.63,16.17,2.39c0.06-0.31,0.12-0.62,0.18-0.93c-2.91-0.58-5.82-1.11-8.71-1.76
				c-1.56-0.36-3.08-0.93-4.61-1.41c0,0-0.05,0.05-0.05,0.05c4.42,0.56,8.83,1.13,13.25,1.69c0.05-0.1,0.11-0.2,0.16-0.29
				c-1.81-0.74-3.75-1.27-5.38-2.29c-1.04-0.65-1.81-1.95-2.32-3.12c-0.17-0.38,0.75-1.45,1.38-1.87c0.32-0.21,1.48,0.18,1.65,0.56
				c0.29,0.66,0.19,1.55,0.07,2.32c-0.05,0.36-0.51,0.67-0.9,1.12c3.72,1.66,7.23,3.23,10.85,4.85c2.42-2.71,5.1-3.77,6.97-2.15
				c0.82,0.71,0.87,2.33,0.87,3.78c6.75,5.55,14.85,7.25,23.53,5.7c14.09-2.52,23.55-11.13,29.25-23.88
				c4.03-9,0.82-20.19-6.98-26.63c-7.74-6.39-17.78-6.85-26.53-1.4c-2.41,1.5-5.19,2.38-7.64,3.81c-4.01,2.35-5.46,9.39-2.88,13.56
				c0.69,1.12,1.79,1.97,2.54,3.06c0.72,1.05,1.24,2.24,1.85,3.37c-1.05,0.39-2.1,0.79-3.63,1.36c1.79,0.4,3.29,0.97,4.8,1.02
				c2.39,0.07,3.45-1.43,2.8-3.78c-0.57-2.06-1.6-4.18,1.5-5.05c2.54-0.71,4.95,1.1,5.5,4.05c0.14,0.73,0.16,1.49,0.24,2.2
				c6.09,1.36,6.8,2.16,5.49,6.11c6.05,3.59,7.45,6.02,5.94,10.3c-5.68-0.28-11.4-0.26-17.04-0.9c-15.79-1.79-24.98-21.2-16.6-34.76
				c0.59-0.96,1.23-1.89,1.93-2.97c-1.88-0.72-3.72-1.25-5.35-2.14c-0.75-0.41-1.1-1.55-1.63-2.35c0.85-0.34,1.67-0.81,2.56-1.01
				c3.51-0.77,7.15-1.09,10.52-2.25c5.82-2,11.34-4.92,17.75-4.72c-0.8-1.88-1.62-3.47-2.16-5.15c-0.43-1.36-0.07-2.38,1.71-2.53
				c0.82-0.07,1.57-0.88,2.4-1.04c1.86-0.36,3.83-0.94,5.63-0.65c2.1,0.34,3.26,2.09,3.36,4.32c-0.93,0.13-1.73,0.24-2.53,0.34
				c0.2,0.98,0.07,2.3,0.67,2.87c1.91,1.83,4.02,3.48,6.19,5.01c7.68,5.42,13.18,12.31,14.94,21.77c1.17,6.31,0.37,12.51-1.11,18.67
				c-0.15,0.63-0.29,1.27,0.02,2.13c0.63-1.25,1.28-2.49,1.87-3.76c0.64-1.38,1.25-2.77,1.81-4.19
				c5.19-13.11,11.78-25.33,21.71-35.58c5.74-5.92,12.2-10.57,20.13-13.06c5.28-1.66,10.44-3.57,13.99-8.39
				c0.27,0.16,0.54,0.32,0.81,0.48c0,1.23,0.21,2.51-0.04,3.69c-0.93,4.41-2.9,8.22-6.76,10.86c-0.54,0.37-1,1.11-1.13,1.76
				c-1.1,5.52-3.67,8.21-9.46,8.95c-2.62,0.33-4.35,0.87-5.64,3.56c-1.52,3.18-4.94,4.19-8.26,5.02c-1.01,0.25-1.89,1.17-2.74,1.89
				c-1.65,1.4-3.18,2.93-4.85,4.3c-1.56,1.28-3.22,2.43-4.84,3.64c0.14,0.21,0.28,0.41,0.42,0.62c0.75-0.48,1.51-0.93,2.24-1.45
				c13.2-9.41,26.94-17.87,41.88-24.3c15.4-6.63,31.15-9.95,47.57-6.57c1.21-0.67,2.35-1.59,3.65-1.88c0.5-0.11,1.81,1.21,1.84,1.91
				c0.03,0.65-1.08,1.78-1.84,1.94c-1.14,0.24-2.45-0.06-3.63-0.36c-15.15-3.92-29.58-1.26-43.58,5.04c0.84-0.23,1.7-0.41,2.52-0.69
				c19.58-6.57,38.55-5.48,56.85,4.44c2.84,1.54,5.77,2.93,8.72,4.24c1.52,0.68,3.18,1.03,5.12,1.63c-0.06-0.9-0.29-1.49-0.09-1.76
				c0.56-0.74,1.59-2.02,1.91-1.88c0.98,0.43,1.7,1.42,2.53,2.19c-0.65,0.68-1.38,2.02-1.93,1.95c-2.96-0.4-6.05-0.74-8.78-1.85
				c-5.99-2.43-11.73-5.46-17.69-7.96c-7.47-3.14-15.29-4.49-24.08-3.65c5.2,0.86,9.8,1.42,14.29,2.41
				c9.37,2.06,18.08,5.78,26.24,10.87c4.19,2.61,8.53,5,12.92,7.28c4.36,2.26,9.06,3.38,14.16,3.33c0-0.77-0.24-1.61,0.06-2.14
				c0.4-0.72,1.38-1.79,1.82-1.67c0.97,0.28,2.01,1.05,2.52,1.92c0.26,0.44-0.38,1.84-0.98,2.23c-0.81,0.52-1.98,0.61-3,0.65
				c-4.96,0.22-9.67-0.88-14.05-3.14c-6.93-3.57-13.77-7.32-20.66-10.97c-10.34-5.47-21.26-8.73-33.05-8.76
				c-0.76,0-1.52,0.02-2.28,0.07c-0.26,0.02-0.52,0.14-1.36,0.39c13.41,1.6,25.69,5.24,37.36,10.68
				c8.79,4.09,17.27,8.84,25.93,13.22c7.73,3.91,15.47,7.87,24.17,9.18c3.35,0.5,6.77,0.54,11.01,0.85
				c-5.64,1.9-10.67,2.36-15.78,2.14c-7.67-0.33-14.73-2.82-21.41-6.44c-8.53-4.61-16.88-9.58-25.54-13.94
				c-10.62-5.34-21.87-8.82-33.85-9.41c-2.8-0.14-5.62-0.02-8.45,0.51c3.21,1.09,6.48,2.05,9.63,3.31
				c16.97,6.76,26.16,19.17,27.38,37.53c0.23,3.51,1.36,7.05,2.61,10.37c0.72,1.92,2.62,2.97,5.29,1.04
				c-1.22-0.78-2.16-1.39-3.06-1.97c1.9-1.28,4.19-1.1,5.87,0.53c1.96,1.91,2.17,5.48,0.46,7.91c-1.81,2.57-5.14,3.02-9.29,1.25
				c-3.56,2.77-5.35,2.92-9.73,0.73c-5.94,13.18-17.14,20.14-29.95,25.21c-3.71,1.47-7.6,2.7-10.96,4.77
				c-2.81,1.74-5.29,4.29-7.28,6.96c-1.97,2.65-1.6,5.94,0.16,7.67c2.14,2.1,4.73,2.17,7.44,1.26c0.42-0.14,0.84-0.3,1.51-0.54
				c-2.61,2.49-6.25,2.53-9.08,0.31c-3.11-2.44-4.32-6.61-2.97-10.55c1.71-5.01,5.06-8.78,9.6-11.27c6.08-3.33,12.42-6.2,18.54-9.46
				c3.85-2.04,7.54-4.39,11.25-6.68c1.24-0.77,2.32-1.79,3.1-3.13c-5.32,2.76-10.7,4.61-16.51,5.35
				c-8.15,1.04-15.87-0.31-23.47-3.28c-6.72-2.63-13.46-5.3-20.39-7.23c-5.01-1.39-10.22-1.01-14.68,2.48
				c-5.37,4.2-6.67,12.06-2.92,17.96c3.63,5.71,12.13,8.02,17.95,4.88c5.74-3.1,7.21-10.82,2.76-15.28
				c-1.07-1.08-2.67-1.91-4.15-2.23c-2.73-0.59-6.13,1.88-6.51,4.36c-0.38,2.48,2.02,4.89,5.29,5.22c1.02,0.1,2.06,0.02,3.28,0.02
				c-0.85,2.76-2.87,3.88-5.32,4.16c-2.32,0.27-4.8,0.57-6.22-2.16c-0.32-0.61-1.1-0.98-1.69-1.42c-0.52-0.39-1.23-0.63-1.58-1.12
				c-1.88-2.7,1.73-5.32,0.01-8.35c-1.18-2.07,1.04-4.3,4.88-5.85c0.51-0.21,0.82-0.91,1.05-1.55c2.66-1.37,5.32,2.74,8.39,0.21
				c7.12,3.27,11.09,11.85,8.72,19.13c-2.24,6.87-10.86,11.33-18.93,9.78c-9.07-1.73-14.82-8.67-14.86-17.9
				c-0.04-9.61,5.59-16.25,15.49-18.34c5.96-1.26,11.76-0.46,17.43,1.43c5.41,1.81,10.71,3.97,16.14,5.7
				c12.38,3.94,24.05,3.02,34.39-5.65c0.43-0.36,0.82-0.78,1.24-1.51c-17.59,12.3-33.55,10.31-47.42-5.1
				c-1.67,1.19-2.81,2.45-4.19,2.81c-0.85,0.22-2.07-0.92-3.12-1.45c0.63-1.02,1.23-2.88,1.9-2.91c1.86-0.07,3.99,0.2,5.58,1.1
				c2.12,1.19,3.8,3.13,5.72,4.7c12.42,10.21,28.84,9.99,41.37-0.66c-0.78-0.37-1.5-0.71-2.29-1.09c0.13-0.3,0.17-0.65,0.34-0.75
				c6.94-3.76,7.63-10.04,6.43-16.78c-1.8-10.05-7.54-17.64-16.12-22.87c-14.12-8.61-28.98-10.42-44.49-3.86
				c-0.92,0.39-1.82,0.85-2.6,1.56c3.99-1.1,7.94-2.4,11.98-3.25c3.68-0.77,7.51-1.65,10.8,1.48c0.46,0.44,1.64,0.04,2.48,0.15
				c3.36,0.45,6.84,0.57,10.04,1.55c2.78,0.85,4.79,2.95,4.64,6.42c-0.03,0.79,0.87,1.76,1.55,2.43c4.12,4.04,7.21,8.61,7.72,14.54
				c0.13,1.47,0.66,3.35-1.73,2.75c0,3.44,0.41,6.71-0.17,9.79c-0.3,1.59-2.34,2.87-3.64,4.24c-0.69,0.72-1.53,1.29-2.25,1.99
				c-2.24,2.17-4.33,4.5-6.73,6.46c-0.72,0.59-2.26,0.18-3.42,0.22c0.07-0.99-0.06-2.04,0.25-2.95c0.64-1.89,1.5-3.7,2.28-5.54
				c4.06-9.64,1.94-18.27-5.05-25.5c-8.4-8.7-18.9-11.45-30.63-8.59c-11.81,2.88-20.92,10-28.43,19.38c0.92-0.83,1.83-1.68,2.76-2.5
				c7.61-6.64,15.71-12.44,25.98-14.08c5.52-0.88,11.04-0.78,16.16,1.95c5.23,2.79,7.08,8.07,4.48,12.69
				c-1.45,2.57-3.69,3.88-6.61,3.6c-2.62-0.26-4.68-1.6-5.67-4.17c-1.07-2.79,0.68-5.69,3.4-5.48c0.89,0.07,1.87,0.77,2.52,1.45
				c0.25,0.26-0.12,1.69-0.52,1.86c-0.86,0.36-1.93,0.37-2.89,0.29c-0.46-0.04-0.88-0.6-1.32-0.93c-0.27,0.15-0.54,0.29-0.82,0.44
				c0.75,1.42,1.15,3.49,2.32,4.1c1.55,0.81,3.93,1.11,5.55,0.53c3.87-1.4,4.78-6.77,1.63-10.07c-1.62-1.69-3.95-3.12-6.21-3.71
				c-6.03-1.56-12.06-1.08-17.9,1.32c-9.74,4-17.52,10.57-24.5,18.27c-6.71,7.4-13.39,14.84-20.32,22.05
				c-9.19,9.56-20.35,16.14-32.59,21.1c-4.84,1.96-9.58,4.24-14.12,6.8c-2.77,1.56-5.43,3.63-7.47,6.04
				c-1.44,1.7-3.27,2.08-4.9,3.07c-1.12,0.68-2.38,1.14-3.52,1.78c-0.74,0.42-1.34,1.08-2.07,1.5c-3.42,1.99-5.37,1.16-6.54-2.93
				c-2.34,1.89-4.67,3.55-7.9,1.97c-0.68-0.33-1.92,0.6-2.94,0.81c-3.51,0.7-4.9-0.31-5.51-4.69c-3.34,0.89-6.58,1.75-10.1,2.69
				c0.48,0.97,0.59,1.19,0.7,1.4c0.42,0.84,0.87,1.68,1.2,2.56c0.02,0.07-1.06,0.81-1.33,0.67c-0.93-0.5-2.32-1.14-2.45-1.92
				c-0.22-1.26,0.08-2.87,0.76-3.96c2.58-4.15,6.38-6.89,11.2-7.68c8.07-1.32,16.25-2.02,24.29-3.48
				c18.16-3.3,35.48-8.88,50.03-20.81c3.91-3.21,7.16-7.22,10.72-10.86c-0.23-0.25-0.46-0.5-0.69-0.76
				c-0.51,0.4-1.05,0.78-1.54,1.22c-24.26,21.96-52.54,31.04-85.02,26.22c-10.82-1.61-21.53-3.85-32.35-5.5
				c-7.51-1.14-14.78-0.28-21.39,4.03c-2.31,1.51-3.08,3.34-2.66,6c0.58,3.62-1.77,5.57-5.14,3.99c-1.85-0.87-3.24-2.71-4.4-3.74
				c-2.15-0.46-4-0.98-5.88-1.21c-1.11-0.13-2.6-0.19-3.36,0.42c-1.97,1.59-3.96,2.49-6.24,1.14c-2.29-1.36-2.41-3.77-2.03-6.1
				c0.22-1.37,0.87-2.67,1.49-4.46c-1.05,0.41-1.9,0.75-3.24,1.28c0.85-1.46,1.54-2.65,2.25-3.87c-2.55-2.29-2.54-3.27,0.8-4.9
				c4.06-1.99,8.3-3.61,12.63-5.46c-5.63-0.06-10.64,1.75-15.53,4.07c-1.46,0.69-2.88,1.48-4.37,2.09
				c-2.19,0.89-3.78,0.55-3.77-2.27c-5.79,0.19-6.98-0.74-6.82-5.08c-3.51,0.87-7.07,1.75-10.7,2.64c0.51-1.72,0.82-2.78,1.14-3.84
				c-1.15-0.2-2.34-0.71-3.43-0.55c-3.52,0.5-6.78,1.84-8.26,5.29c-0.57,1.32-0.45,3.56,0.35,4.68c1.15,1.61,2.83,0.47,4.22-0.53
				c0.57-0.41,1.9-0.69,2.15-0.4c0.53,0.63,0.88,1.69,0.78,2.52c-0.57,4.71-6.65,6.65-10.83,3.51c-1.46-1.1-3.05-2.13-4.24-3.49
				c-0.73-0.84-1.23-2.3-1.08-3.38c0.27-2.03,0.87-4.09,1.72-5.96c0.71-1.55,1.43-2.75,0.87-4.69c-0.3-1.04,0.85-2.86,1.83-3.84
				c1.65-1.65,3.68-2.92,5.51-4.31c-0.76-1.45-1.49-2.81-1.82-3.45c1.12-1.35,1.62-2.28,2.4-2.83c1.28-0.92,2.66-2,4.14-2.28
				c2.06-0.39,4.25-0.1,7.14-0.1c-2.04-1.97-3.47-3.36-5.1-4.94c2.75-0.27,5.07-0.5,7.48-0.74c-1.91-4.26-17.85-9.97-26.51-9.63
				c-0.15,0.75-0.15,1.64-0.52,2.32c-0.36,0.66-1.04,1.31-1.73,1.57c-0.41,0.15-1.43-0.34-1.6-0.76c-0.28-0.71-0.42-1.96-0.02-2.33
				c0.83-0.77,2.06-1.55,3.12-1.53c3.38,0.06,6.76,0.47,9.77,0.72c-7.8-3.83-22.6-6.18-30.68-3.51c-0.95,1.43-1.49,2.61-2.37,3.4
				c-0.44,0.39-1.52,0.05-2.32,0.04c0.08-0.87-0.15-2.01,0.32-2.53c0.7-0.78,1.84-1.33,2.89-1.62c6.94-1.93,14.01-1.97,20.89-0.1
				c7.63,2.07,15.1,4.77,22.2,7.05C59.01,44,33.53,39.25,8.58,61.74C7.4,55.2,8.66,53.2,18.94,44.92c-0.93-6.41,0.62-7.71,8.08-6.79
				c1.97-4.76,5.22-6.31,11.04-5.53c1.13,0.15,2.35-0.47,3.54-0.67c2.38-0.41,4.76-0.77,7.14-1.16c0.05,0.28,0.11,0.56,0.16,0.84
				c0.34-0.94,0.68-1.87,1.31-3.6c4.02,8.22,11.83,10.49,18.33,14.67c6.76,4.35,12.87,9.74,19.14,14.84
				c9.08,7.38,17.81,15.21,27.14,22.25c7.72,5.83,16.7,9.3,26.41,10.73c-0.44-0.22-0.87-0.52-1.33-0.65
				c-16.5-4.76-30.21-14.06-42.53-25.79C90.14,57.17,82.71,50.46,75,44.12c-3.45-2.83-7.81-4.57-11.77-6.76
				c-0.98-0.54-2.04-0.92-3.51-1.58c0.96-0.8,1.61-1.33,2.26-1.87c-2.9-4.42-2.83-5,1.62-6.54c-2.06-2.21-3.88-4.15-5.71-6.12
				c6.05-1.82,11.63-0.35,16.64,3.76c1.3,1.06,2.28,2.18,4.37,1.22c0.84-0.38,2.78,0.64,3.68,1.56c2.37,2.44,4.45,5.16,6.72,7.86
				c0.39-0.35,0.92-0.84,1.78-1.63c0.75,1.13,1.61,2.02,2,3.1c0.8,2.23,1.53,4.52,1.97,6.84c2.83,14.92,12.72,24.3,25.08,31.72
				c-1.82-1.7-3.65-3.39-5.44-5.11c-6.09-5.83-11.41-12.26-15.28-19.8c-0.52-1.01-1.03-2.04-1.43-3.11
				c-1.08-2.85-1.56-5.6,1.52-7.27c-0.6-2.49-1.26-4.77-1.67-7.08c-0.42-2.35,1.01-2.99,3.06-2.79c0.19,0.02,0.37,0.07,0.56,0.1
				c3,0.55,9.96,5.48,11.4,8.16c0.68,1.27,1.22,2.27,3.03,2.46c1.14,0.12,2.5,1.42,3.13,2.55c1.72,3.06,3.14,6.29,4.6,9.49
				c4.43,9.67,10.26,18.24,19.11,24.44c1.4,0.98,2.91,1.8,4.38,2.67c0.21,0.12,0.51,0.08,1.02,0.15c-1.85-2.18-3.64-4.08-5.21-6.16
				c-4.17-5.52-5.87-11.68-4.45-18.55c1.32-6.4,7.49-11.27,13.32-10.57c4.21,0.5,6.98,3.4,6.27,6.55c-0.65,2.89-3.21,4.9-5.73,4.49
				c-2.56-0.41-4.2-2.71-4.03-5.7c0.02-0.45,0.12-0.89,0.24-1.77c-4.2,2.04-6.21,5.15-6.69,9.26c-0.7,5.99,1.2,11.13,5.66,15.16
				c2.21,2,4.75,3.65,7.38,5.15c-1.91-2.54-4.04-4.95-5.64-7.67c-1.11-1.9-1.69-4.19-2.08-6.38c-0.13-0.76,1.02-1.74,1.59-2.62
				c0.51,0.34,1.5,0.81,1.45,0.99c-0.28,0.98-0.79,1.89-1.29,2.8c-0.11,0.2-0.47,0.26-0.92,0.49c2.19,6.82,6.94,11.32,12.96,14.76
				c-1.48-1.62-3.11-3.15-4.4-4.91c-0.8-1.1-1.21-2.53-1.56-3.88c-0.11-0.45,0.42-1.19,0.86-1.59c0.2-0.19,1.13-0.05,1.25,0.18
				c0.27,0.53,0.54,1.48,0.27,1.77c-1.32,1.44-0.39,2.49,0.5,3.44c2.1,2.25,4.31,4.4,7.01,7.13c-0.05-4.38-0.93-7.95,1.47-11.06
				c1.56,2.05,3.05,4.01,4.64,6.11c2.26-3.19,3.66-3.28,6.22-1.06c0.64,0.56,1.77,0.52,2.48,1.03c1.91,1.37,3.95,2.66,5.51,4.37
				c4.87,5.31,10.6,9.29,17.35,11.7c15.24,5.44,30.64,6.15,46.31,1.23c-2.48-1.25-7.47-1.53-11.66-0.74
				c-2.99,0.56-5.97,1.18-8.99,1.59c-2.71,0.37-5.32,0.25-5.65-2.84c-3.63-0.39-6.91-0.74-10.18-1.11c-3-0.33-2.79-3.27-3.95-5.06
				c-0.14-0.21,0.69-1.34,1.27-1.7c1.36-0.84,2.85-1.47,4.27-2.17c-2.72-1.23-5.2-0.77-8.79,1.36c-5.16-0.94-9-3.04-10.81-7.67
				c1.79,0.18,3.58,0.36,4.65,0.47c-0.38,1.18-1.16,2.38-0.97,3.4c0.2,1.05,7.13,2.43,8.28,1.93c5.23-2.24,10.26-0.63,15.73,0.49
				c-3.62,0.72-6.76,1.22-9.82,2.05c-0.7,0.19-1.38,1.43-1.59,2.3c-0.72,2.96,1.42,3.84,3.62,3.93c3.3,0.15,6.62-0.18,9.94-0.28
				c1.28-0.04,2.57-0.01,3.86-0.01c-0.01,0.22-0.02,0.44-0.04,0.65c-1.44,0.23-2.87,0.47-4.43,0.72c1.91,3.54,6.26,3.49,14.74,0.08
				c-2.35-1.26-4.59-2.47-7.1-3.82c1.41-0.86,2.35-1.43,4.06-2.47c-1.92-1.17-3.25-2.46-4.8-2.84c-4.8-1.17-9.67-2.02-14.53-2.96
				c-5.82-1.12-11.53-2.53-16.38-6.19c-2.72-2.05-4.94-4.5-5.26-8.13c-0.28-3.15,1.05-5.45,3.54-6.08c2.81-0.71,4.3,0.79,5.15,3.35
				c0.47-2.46-0.76-3.86-2.7-4.75c-2.3-1.06-4.51-0.73-6.38,0.93c-3.54,3.16-2.57,10.74,1.04,12.8
				C194.63,74.04,194.39,75.36,194.14,76.69z M249.42,36.86c-0.5,0.78-0.99,1.56-1.51,2.33c-3.27,4.81-3.92,10-2.01,15.43
				c1.08,3.07,3.09,4.12,5.99,3.26c-0.86-0.91-1.55-1.79-2.38-2.49c-2.63-2.21-3.77-5.12-3.19-8.37c0.47-2.64,1.69-5.15,2.53-7.73
				c0.25-0.78,0.38-1.59,0.56-2.39c-1.74-0.44-3.52-1.12-4.86,0.8c-4.52,6.51-6.32,13.55-2.84,20.98
				c3.69,7.89,8.97,14.3,18.56,14.88c4.9,0.3,9.83,0.05,14.78,0.05c0.31-2.89-1.47-5.51-5.28-6.06c-3.13-0.45-6.41-0.04-9.61,0.18
				c-3.05,0.21-6.05,0.49-8.83-1.15c5.05,0.87,10.07,0.78,14.9-0.88c1.15-0.39,1.89-1.97,2.82-3c-1.41-0.56-2.78-1.4-4.23-1.55
				c-0.8-0.09-1.75,0.95-2.59,1.54c-1.11,0.78-2.18,1.62-3.26,2.44c0.9-1.79,2.29-3.06,3.28-4.59c1.57-2.44,0.82-5.3-1.54-6.32
				c-0.66-0.28-1.68-0.2-2.32,0.13c-0.32,0.16-0.26,1.28-0.18,1.94c0.07,0.65,0.44,1.26,0.58,1.9c0.73,3.45-0.87,5.31-4.39,5.16
				c-4.43-0.19-8.03-2.88-9.57-7.32c-1.45-4.19-1.54-8.53,0.09-12.59C245.9,41.04,247.9,39.04,249.42,36.86z M114.94,61.47
				c-1.33-1.55-2.84-2.98-3.95-4.68c-4.33-6.59-8.32-13.36-10.14-21.23c4.68,7.25,9.27,14.45,13.95,21.58
				c6,9.13,13.86,16.4,22.91,22.41c4.6,3.05,9.57,5.31,15.58,6.8c-0.76-0.54-0.95-0.75-1.18-0.84
				c-15.03-5.91-24.13-17.34-29.83-31.96c-1.17-3.01-2.47-5.98-3.92-8.86c-0.73-1.45-1.78-2.93-4.02-2.37
				c0.33,2.54,0.65,4.94,0.96,7.33c-3.13-4.05-2.38-9.52-6-13.65c-0.32,1.37-0.51,2.2-0.67,2.91c-1.98-2.09-3.75-4.19-5.8-5.99
				c-0.69-0.6-2.07-0.42-3.13-0.6c-0.17,1.04-0.62,2.14-0.43,3.11c0.3,1.57,1.19,3.02,1.51,4.58c0.14,0.67-0.33,1.92-0.87,2.19
				c-1.85,0.9-1.97,2.24-1.28,3.79c1.08,2.43,2.1,4.93,3.54,7.14c7.18,11.06,16.11,20.45,27.08,27.85c1.24,0.84,2.46,1.7,3.7,2.55
				c-10.94-3.05-19.8-9.31-27.76-17.17c-8.24-8.14-11.23-18.68-13.87-29.5c-2,4.74,0.04,8.9,0.91,13.25
				c-1.15-2.09-2.31-4.22-2.71-6.48c-1.04-5.93-4.63-10.34-8.27-14.74c-0.56-0.68-1.73-0.85-2.62-1.26c0.06,0.94-0.16,2,0.21,2.79
				c1.46,3.13,3.09,6.19,4.66,9.27c-3.3-4.06-5.96-8.56-9.27-12.53c-3.53-4.24-10.21-6.28-13.91-4.93
				c4.07,4.09,8.09,8.13,12.11,12.17c-2.75-1.67-5.08-3.72-7.64-5.42c-0.67-0.45-2.06,0.19-3.12,0.33c0.3,0.99,0.47,2.03,0.94,2.93
				c0.32,0.63,1.05,1.05,1.6,1.57c-0.56,0.61-1.05,1.14-1.7,1.84c6.65,1.76,11.8,5.59,16.6,9.96c5.56,5.06,11.07,10.18,16.56,15.32
				c13.04,12.19,27.03,22.86,44.47,28.11c2.97,0.89,5.88,2.01,8.81,3.02c-0.72,0.31-1.36,0.35-1.99,0.31
				c-11.87-0.86-22.81-4.69-32.34-11.68c-8.5-6.23-16.56-13.1-24.53-20c-9.51-8.23-18.86-16.53-30.6-21.7
				c-3.03-1.33-5.26-4.48-7.83-6.82c-0.42-0.38-0.73-0.89-1.44-1.79c-0.23,6.55,4.6,8.16,8.5,10.6c-3.69-0.7-6.81-2.28-9.4-4.96
				c-1.11-1.15-2.32-2.4-3.74-2.95c-0.97-0.37-2.37,0.4-3.58,0.66c0.43,0.96,0.61,2.19,1.33,2.81c1.38,1.19,3.07,2.04,4.62,3.03
				c-2.34-0.55-4.48-1.5-6.47-2.7c-2.99-1.81-6.16-2.5-9.57-1.92c-1.98,0.34-3.58,1.22-3.26,4c2.16,0,4.18,0,6.2,0
				c-1.02,0.85-2.1,1.24-3.15,1.14c-2.64-0.24-5.26-0.87-7.9-0.99c-1.16-0.05-2.77,0.46-3.43,1.3c-0.67,0.85-0.43,2.43-0.61,3.88
				c2.78-0.56,4.86-0.98,6.94-1.4c-0.44,0.79-1.02,1-1.6,1.23c-6,2.34-11.04,5.97-14.73,11.28c-0.88,1.26-1.23,2.89-1.83,4.35
				c0.29,0.17,0.59,0.34,0.88,0.5c0.91-0.76,1.78-1.57,2.74-2.26c3.66-2.67,7.09-5.84,11.09-7.84c7.98-4,16.72-4.99,25.58-4.68
				c15.73,0.55,28.78,7.81,41.04,16.84c1.62,1.19,2.77,3.03,4.14,4.57c-0.08,0.28-0.15,0.56-0.23,0.84
				c-2.52,0.17-5.04,0.34-8.13,0.55c1.77,1.27,3.1,2.21,4.47,3.2c-2.26,2.25-5,1.83-7.62,1.91c-1.73,0.06-3.46,0.09-4.05,2.32
				c-0.24,0.91-0.86,1.71-1.52,2.97c0.27,0.35,0.95,1.23,1.67,2.17c-1.92,1.43-3.85,2.67-5.54,4.19c-0.94,0.84-2.34,2.57-2.04,3.15
				c1.25,2.48-0.87,3.74-1.43,5.54c-0.64,2.06-1.13,4.18-1.53,6.31c-0.09,0.5,0.31,1.24,0.7,1.66c0.64,0.69,1.65,1.09,2.18,1.84
				c1.95,2.76,5.6,3.82,8.6,2.31c1.77-0.89,2.79-2.17,2.25-4.31c-0.34,0.07-0.56,0.06-0.7,0.16c-3.23,2.24-5.57,2.35-7.32,0.34
				c-1.78-2.03-1.47-5.17,0.97-7.73c2.85-2.99,6.38-4.85,10.51-5.2c1.28-0.11,2.94,0.27,3.85,1.08c0.58,0.52,0.11,2.23,0.11,3.49
				c5.78-2.07,11.55-4.15,17.33-6.22c0.1,0.29,0.2,0.58,0.3,0.87c-1.74,0.72-3.56,1.28-5.19,2.19c-1.74,0.98-4.48,1.92-3.51,4.43
				c1,2.59,3.63,1.35,5.55,0.79c3.65-1.07,7.18-2.53,10.84-3.53c2.66-0.72,5.45-0.96,8.18-1.42c0.05,0.26,0.1,0.52,0.15,0.79
				c-0.69,0.15-1.39,0.26-2.06,0.47c-4.79,1.5-9.59,2.98-14.33,4.61c-0.58,0.2-0.86,1.28-1.28,1.96c0.83,0.19,1.79,0.73,2.47,0.49
				c1.77-0.64,3.41-1.66,5.13-2.48c6.94-3.32,14.15-4.36,22.39-2.74c-4.37,1.06-8.11,1.75-11.7,2.89c-3.56,1.13-7.16,2.42-9.98,5.56
				c0.87,0.77,1.55,1.37,2.32,2.06c-0.43,0.53-0.88,1.08-1.4,1.72c0.88,0.35,1.6,0.64,2.42,0.97c-1.28,3.18-4.54,6.15-0.65,9.3
				c1.8,1.46,4.28,0.43,6.41-2.22c1.22,0.46,2.42,0.82,3.54,1.35c2.72,1.28,3.86,0.73,4.08-2.21c0.21-2.79,1.84-4.44,3.97-5.77
				c-0.33,0.91-0.96,1.62-1.45,2.41c-2.05,3.36-1.4,7.67,1.66,9.69c0.89,0.58,2.39,0.78,3.37,0.46c0.55-0.18,0.96-1.85,0.85-2.78
				c-0.56-4.72,0.9-8.62,4.29-11.87c0.99-0.95,2.02-1.85,3.52-3.21c-11.84,0.28-21.57,3.85-29.85,11.67
				c1.05-2.45,2.13-4.96,3.94-6.69c7.84-7.5,17.82-8.78,28.15-9.01c0.16-4.48,3.8-5.16,7.11-6.57c-1.14-0.9-2.24-1.51-3.42-1.89
				c-13.84-4.53-25.38-12.4-34.47-23.8c0.79,0.63,1.69,1.17,2.36,1.91c8.77,9.6,19.2,16.62,31.72,20.36
				c1.01,0.3,2.09,0.37,3.14,0.55c0.06-0.22,0.12-0.45,0.19-0.67c-10.42-2.48-19.3-7.76-27.35-14.63
				c-8.08-6.89-14.35-15.26-19.87-24.28c-0.22,0.15-0.44,0.3-0.66,0.45C109.92,53.57,112.43,57.52,114.94,61.47z M310.03,54.37
				c1.23-5.23,4.64-8.91,9.36-11.63c1.03-0.59,2.29-1.39,2.62-2.37c0.25-0.75-0.79-1.94-1.26-2.93c7.05,1.08,12.93-1.84,12.71-6.45
				c-1.35-0.07-2.72-0.15-4.09-0.22c-0.02-0.26-0.04-0.52-0.07-0.78c2.67-0.27,5.37-0.41,8.02-0.84c2.41-0.38,4.93-0.7,7.1-1.71
				c2.9-1.34,3.87-3.95,3.17-7.02c-2.58,0.52-5.18,1.04-7.78,1.56c2.42-1.2,5.11-1.58,7.43-2.72c2.3-1.14,4.61-2.75,6.19-4.73
				c1.51-1.89,2.1-4.52,2.97-6.54c-4.43,2.13-8.47,4.38-12.74,6.04c-5.99,2.33-11.87,4.77-16.5,9.36
				c-8.38,8.31-15.35,17.67-20.31,28.42c-2.03,4.4-3.7,8.98-5.8,13.34c-1.99,4.13-4.32,8.1-6.5,12.14
				c-0.28-0.14-0.56-0.27-0.83-0.41c0.71-2.84,1.51-5.66,2.12-8.52c4.61-21.67-0.4-30.59-15.86-40.76c-1.5-0.98-3.04-2.1-4.08-3.51
				c-1.02-1.38-1.8-3.19-1.92-4.86c-0.06-0.76,1.73-1.66,3.44-3.16c-2.43-0.06-4.37-0.55-5.93,0.02c-1.06,0.39-1.57,2.26-2.3,3.44
				c-0.5-0.35-1.33-0.93-2.77-1.93c1.26,5.14,4.79,7.32,7.86,9.99c-5-1.31-9.89-1.03-14.71,0.36c-6.43,1.86-12.83,3.83-19.06,5.7
				c3.43,2.03,12.78,1.63,15.98-0.8c2.87-2.18,6.08-3.43,9.75-3.31c-3.98,1.52-8.14,2.66-11.15,7.09c2.45-1.48,4.19-2.65,6.03-3.61
				c11.34-5.89,24.18-2.18,30.68,8.84c4.6,7.8,4.97,15.97,1.25,24.09c-8.12,17.72-29.33,28.84-51.17,21.47
				c-4.25-1.43-4.94-3.66-2.74-7.53c0.17-0.29,0.18-0.67,0.29-1.08c-2.38-1.2-4.25-0.53-5.65,1.28c-1.52,1.96-0.39,3.63,1.08,4.99
				c1.25,1.16,2.6,2.25,4.05,3.13c6.79,4.11,14.22,4.45,21.82,3.48c2.63-0.33,5.23-0.88,7.84-1.33c-0.79,1.06-1.68,1.76-2.65,2.32
				c-17.33,10.11-36.04,14.09-55.95,12.26c-8.42-0.77-15.76-4.13-21.66-10.38c-0.7-0.75-1.91-1.02-2.88-1.52
				c-0.4,0.92-0.79,1.85-1.34,3.1c-0.93-1.1-1.81-2.14-2.69-3.17c-1.37,0.04-2.7-0.22-3.54-0.99c-4.03-3.71-8.58-5.99-14.17-5.59
				c-5.36,0.38-6.34,1.33-7.11,6.52c-7.11,2.47-7.57,3.18-4.8,7.72c-4.57,2.39-8.72,5.24-10.48,10.62c8.4-6.84,17.9-5.93,27.52-4.28
				c9.28,1.6,18.54,3.38,27.86,4.69c29.41,4.13,55.91-2.72,79.05-21.59c4.15-3.38,8.05-7.06,12.46-10.96
				c-3.91,9.47-10.23,16.29-17.99,21.85c-16.09,11.51-34.6,16.28-53.8,19.03c-6.21,0.89-12.44,1.65-18.58,2.89
				c-2.35,0.47-4.48,2.1-6.7,3.2c0.1,0.18,0.2,0.36,0.3,0.54c4.01-0.5,8.02-1,12.8-1.6c-1.3,0.94-2.12,1.25-2.46,1.84
				c-0.52,0.91-0.69,2.01-1.02,3.02c1.01,0.24,2.24,0.96,3,0.63c1.78-0.79,3.32-2.1,4.97-3.17c1.42-0.92,2.86-1.79,4.29-2.69
				c0.2,0.28,0.4,0.56,0.59,0.83c-1.51,1.1-3.02,2.21-4.53,3.31c0.28,0.31,0.56,0.62,0.84,0.93c4.79,0.06,6.15-6.34,11.45-6.27
				c-1.26,0.9-2.21,1.51-3.08,2.22c-1.52,1.24-2.66,2.9-1.36,4.67c1.34,1.83,3.21,0.8,4.52-0.32c1.8-1.54,3.29-3.43,5.02-5.05
				c1.14-1.07,2.47-1.94,3.72-2.89c-0.73,2.16-3.64,2.61-3.1,5.71c1.74-1.27,3.31-2.36,4.82-3.51c2.41-1.83,4.58-4.09,7.22-5.48
				c5.46-2.87,11.1-5.42,16.78-7.86c10.76-4.64,21.03-10.14,28.89-18.98c6.62-7.44,12.72-15.38,18.69-23.36
				c5.41-7.23,11.19-14.01,18.93-18.78c9.81-6.06,20.29-9.34,31.82-5.77c17.77,5.51,27.1,22.48,17.94,39.2
				c-0.56,1.03-0.91,2.18-1.35,3.27c0.33,0.17,0.67,0.34,1,0.51c6.76-3.74,9.39-9.85,8.95-17.74c0.25,0.03,0.49,0.05,0.74,0.08
				c0.24,2.46,0.48,4.93,0.74,7.66c3.51-3.2,2.71-7.06,1.49-10.54c-1.21-3.46-3.33-6.6-5.07-9.92c2.67,1.71,3.62,5.6,7.64,6.15
				c-0.91-4.7-2.52-8.87-5.96-11.7c-3.22-2.65-7.1-4.48-10.42-6.51c1.41,0.34,3.22,0.9,5.07,1.18c0.82,0.12,1.72-0.35,2.59-0.55
				c-0.24-0.87-0.24-1.92-0.77-2.55c-0.7-0.84-1.74-1.75-2.74-1.9c-3.52-0.52-7.09-0.97-10.64-0.96c-2.29,0.01-4.57,0.87-6.85,1.35
				c-0.06-0.14-0.12-0.28-0.18-0.42c1.28-0.8,2.55-1.59,3.83-2.39c-0.1-0.28-0.2-0.56-0.31-0.84c-10.33-1.25-19.7,3.02-29.43,5.64
				c0.78-0.97,1.6-1.87,2.58-2.52c10.58-6.96,22.14-10.49,34.71-7.84c14.19,2.99,26.47,9.41,33.03,23.3
				c3.96,8.39,5.17,16.89-2.38,24.6c3.54-0.14,5.82-2.08,6.53-4.9c0.87-3.42,1.56-7.2,0.99-10.61
				c-2.31-13.91-10.84-23.2-23.37-28.91c-4.76-2.17-9.86-3.6-14.74-5.35c2.88,0.57,5.93,0.9,8.82,1.78
				c18.05,5.44,35.26,17.31,34.97,40.85c-0.04,3.27,0.83,6.6,1.66,9.8c0.74,2.88,2.69,5.03,5.52,6.17c2.43,0.98,5-0.16,6.16-2.63
				c1.18-2.51,0.54-4.57-1.89-5.85c0.62,2.31,0.6,4.44-1.77,5.67c-1.89,0.98-4.62-0.01-6.03-2.51c-1-1.77-1.71-3.84-1.99-5.85
				c-0.42-3.1-0.44-6.26-0.48-9.4c-0.12-8.01-2.7-15.13-7.75-21.31c-7.09-8.68-16.33-13.83-27.19-16.14
				c-3.58-0.76-7.21-1.25-11.64-2c14.22-3,27.58-3.36,40.44,1.77c10.85,4.33,21.34,9.55,31.99,14.38
				c5.32,2.41,10.64,4.82,15.97,7.23c0.1-0.22,0.2-0.44,0.3-0.66c-1.83-0.92-3.67-1.83-5.5-2.75c-9.94-5-19.69-10.41-29.86-14.88
				c-11.69-5.14-23.88-9.02-36.76-9.93c-17.81-1.25-33.8,4.48-48.69,13.59C325.84,43.25,318.01,48.97,310.03,54.37z M335.8,109.29
				c-1.28-0.28-2.62-0.41-3.84-0.86c-2.4-0.9-3.98-2.66-4.27-5.26c-0.29-2.56,1.04-4.48,3.17-5.62c1.46-0.79,3.17-1.39,4.81-1.5
				c4.05-0.28,7.06,1.98,8.66,6.1c1.72,4.41,0.64,9.75-2.84,12.54c-5.03,4.05-10.66,4.24-16.41,1.83
				c-5.62-2.35-8.24-6.87-8.32-12.83c-0.08-6.15,2.5-10.86,8.15-13.61c3.69-1.79,7.72-2.76,11.65-1.68
				c6.39,1.76,12.67,3.98,18.89,6.27c14.58,5.38,28.85,6.8,42.57-2.49c3.62-2.45,6.42-5.13,4.86-10.34
				c-1.84,1.41-3.71,2.8-5.52,4.26c-8.62,6.98-18.38,10.11-29.31,7.66c-6.56-1.47-12.91-3.9-19.31-6.02
				c-5.65-1.87-11.37-3.23-17.36-2.62c-7.46,0.76-13.78,3.42-16.39,11.17c-2.31,6.83-1.52,13.32,3.94,18.42
				c5.64,5.27,12.43,6,19.43,3.23c8.79-3.48,10.75-14.65,3.89-21.17c-3.96-3.76-8.75-3.5-13.54-2.5c-4.11,0.86-4.85,2.92-2.71,6.59
				c-2.36,3.31-2.24,4.06,0.98,6.68c0.44,0.36,0.81,0.8,1.19,1.22C330.52,111.39,332.86,111.55,335.8,109.29z M165.91,74.48
				c-1.07,2.77-0.14,5.78,0.79,8.72c0.27,0.86,1.3,1.62,2.16,2.13c3.01,1.78,6.23,3.22,9.09,5.2c1.65,1.14,2.9,2.04,4.76,0.28
				c0.18,0.92,0.3,1.54,0.42,2.19c2.58-1.95,4.29-1.71,7.23,1.52c4.64,5.1,10.49,7.95,17.13,8.88c17.62,2.47,34.44-0.73,50.61-7.87
				c0.6-0.27,1.17-0.63,1.75-0.95c-1.36-0.14-2.54,0.14-3.67,0.57c-13.55,5.15-27.47,6.53-41.79,4.22
				c-12.39-2-23.48-6.32-31.31-16.78c-0.34-0.45-0.7-0.96-1.18-1.22c-0.5-0.28-1.15-0.29-1.74-0.42c-0.13,0.6-0.49,1.27-0.34,1.8
				c0.27,0.97,0.85,1.86,1.3,2.78c-0.19,0.1-0.37,0.2-0.56,0.3c-1.93-3.14-3.86-6.29-6.02-9.8c-2.94,3.91,1.43,5.41,1.71,8.78
				C172.49,81.04,169.27,77.83,165.91,74.48z M414.24,89.25c-1.2-3.15-2.69-5.95-3.31-8.93c-0.77-3.7-1-7.53-1.14-11.32
				c-0.35-9.61-4.68-17.26-11.33-23.83c-0.25-0.25-0.66-0.35-0.99-0.52c4.65,5.47,7.9,11.49,9.45,18.44
				c1.55,6.95,0.28,13.58-2.74,20.52c1.33-0.63,1.89-0.88,2.53-1.18c-0.63,4.12,0.09,6.51,2.33,7.73
				C411.23,91.36,413.02,90.59,414.24,89.25z M149.78,47.87c-0.06,1.3-0.41,2.52-0.09,3.51c0.4,1.22,1.24,3.03,2.13,3.18
				c1.31,0.22,3.19-0.42,4.18-1.37c1.77-1.69,1.06-4.29-1.28-5.74c-2.81-1.75-5.68-1.23-8.42,0.16c-6.03,3.06-8.51,9.29-6.57,16.85
				c2.38,9.29,8.83,15.24,16.72,19.99c2.03,1.22,3.93,1.67,6.32,0.23c-1.07-0.51-1.97-0.94-2.88-1.37
				c-6.45-3.05-12.26-6.94-16.26-13.01c-3.55-5.39-4.12-11.17-1.46-17.09C143.59,50.09,145.98,48.08,149.78,47.87z M400.26,97.78
				c-5.47,3-11.8,6.52-18.17,9.96c-4.85,2.61-9.83,4.98-14.61,7.71c-2.1,1.2-3.84,3.02-5.96,4.74c7.44-3.2,14.58-6,21.48-9.31
				C389.94,107.53,396.18,103.09,400.26,97.78z M118.91,111.14c9.03-8.39,19.75-10.14,30.79-10.97
				C141.66,96.78,122.8,103.41,118.91,111.14z M234.03,89.63c4.31,1.2,8.17,2.27,12.04,3.35C239.01,88.83,236.29,88.1,234.03,89.63z
				"/>
			<path d="M368.39,135.14c0.28-1.5,0.56-2.99,0.89-4.75c-1.4,0.51-2.32,1.06-3.28,1.15c-1.79,0.16-3.16-0.87-2.92-2.62
				c0.12-0.9,1.54-2.12,2.53-2.3c2.66-0.49,4.66,2.13,4.23,5.35c-0.15,1.12-0.7,2.19-1.07,3.28
				C368.64,135.22,368.52,135.18,368.39,135.14z"/>
			<path d="M213.53,76.83c-1.36-0.17-2.93,0.02-4.01-0.62c-0.86-0.51-1.13-2.03-1.67-3.1c0.78-0.36,1.57-0.72,2.35-1.08
				c0.31,1.06,0.62,2.12,0.93,3.18c-0.25,0.16-0.49,0.32-0.74,0.48c1.02,0.41,2.04,0.82,3.08,1.21
				C213.48,76.89,213.53,76.83,213.53,76.83z"/>
			<path d="M113.72,81.8c-14.09-0.26-26.84,2.49-39.12,8.49C79.24,81.32,102.19,76.21,113.72,81.8z M103,80.48
				c-7.85-0.58-15.77,1.41-22.93,5.72C87.83,84.26,95.75,82.28,103,80.48z"/>
		</g>
	</g>
</g>
</svg>
